M48
;GenerationSoftware,Autodesk,EAGLE,9.5.2*%
;CreationDate,2021-08-12T13:52:27Z*%
FMAT,2
ICI,OFF
METRIC,TZ,000.000
T3C0.350
T2C1.016
T1C3.302
%
G90
M71
T1
X5000Y7000
X5000Y29000
X33580Y29000
X33580Y7000
T2
X2819Y16231
X5359Y16231
X7899Y16231
X2794Y22098
X5334Y22098
X7874Y22098
X18517Y7264
X21057Y7264
T3
X8992Y26492
X26162Y25324
X7061Y11201
X24765Y11455
X13970Y24359
X32410Y14681
X2794Y19964
X23063Y18745
X21742Y15265
X17424Y29616
X19355Y29591
X16815Y12802
M30