G04 EAGLE Gerber RS-274X export*
G75*
%MOMM*%
%FSLAX34Y34*%
%LPD*%
%INTop Copper*%
%IPPOS*%
%AMOC8*
5,1,8,0,0,1.08239X$1,22.5*%
G01*
%ADD10R,1.500000X1.300000*%
%ADD11R,0.800000X1.200000*%
%ADD12R,0.830000X0.630000*%
%ADD13R,0.600000X1.550000*%
%ADD14R,1.200000X1.800000*%
%ADD15R,1.200000X0.800000*%
%ADD16R,0.457200X1.270000*%
%ADD17C,0.150000*%
%ADD18C,1.879600*%
%ADD19C,0.756400*%
%ADD20C,0.508000*%
%ADD21C,0.304800*%

G36*
X374898Y10164D02*
X374898Y10164D01*
X374917Y10162D01*
X375019Y10184D01*
X375121Y10200D01*
X375138Y10210D01*
X375158Y10214D01*
X375247Y10267D01*
X375338Y10316D01*
X375352Y10330D01*
X375369Y10340D01*
X375436Y10419D01*
X375508Y10494D01*
X375516Y10512D01*
X375529Y10527D01*
X375568Y10623D01*
X375611Y10717D01*
X375613Y10737D01*
X375621Y10755D01*
X375639Y10922D01*
X375639Y58428D01*
X375636Y58448D01*
X375638Y58467D01*
X375616Y58569D01*
X375600Y58671D01*
X375590Y58688D01*
X375586Y58708D01*
X375533Y58797D01*
X375484Y58888D01*
X375470Y58902D01*
X375460Y58919D01*
X375381Y58986D01*
X375306Y59058D01*
X375288Y59066D01*
X375273Y59079D01*
X375177Y59118D01*
X375083Y59161D01*
X375063Y59163D01*
X375045Y59171D01*
X374878Y59189D01*
X360795Y59189D01*
X360728Y59178D01*
X360660Y59177D01*
X360607Y59159D01*
X360552Y59150D01*
X360492Y59118D01*
X360428Y59095D01*
X360384Y59061D01*
X360335Y59034D01*
X360288Y58986D01*
X360235Y58944D01*
X360188Y58880D01*
X360165Y58856D01*
X360156Y58837D01*
X360135Y58809D01*
X357142Y53624D01*
X352176Y48658D01*
X346095Y45147D01*
X339311Y43329D01*
X332289Y43329D01*
X325505Y45147D01*
X319424Y48658D01*
X314458Y53624D01*
X310947Y59705D01*
X309129Y66489D01*
X309129Y73511D01*
X310947Y80295D01*
X314458Y86376D01*
X319424Y91342D01*
X325505Y94853D01*
X332289Y96671D01*
X339311Y96671D01*
X346095Y94853D01*
X352176Y91342D01*
X357142Y86376D01*
X360135Y81191D01*
X360178Y81139D01*
X360213Y81081D01*
X360256Y81044D01*
X360291Y81001D01*
X360348Y80965D01*
X360400Y80921D01*
X360452Y80900D01*
X360500Y80870D01*
X360565Y80854D01*
X360628Y80829D01*
X360707Y80820D01*
X360739Y80813D01*
X360759Y80815D01*
X360795Y80811D01*
X374878Y80811D01*
X374898Y80814D01*
X374917Y80812D01*
X375019Y80834D01*
X375121Y80850D01*
X375138Y80860D01*
X375158Y80864D01*
X375247Y80917D01*
X375338Y80966D01*
X375352Y80980D01*
X375369Y80990D01*
X375436Y81069D01*
X375508Y81144D01*
X375516Y81162D01*
X375529Y81177D01*
X375568Y81273D01*
X375611Y81367D01*
X375613Y81387D01*
X375621Y81405D01*
X375639Y81572D01*
X375639Y278428D01*
X375636Y278448D01*
X375638Y278467D01*
X375616Y278569D01*
X375600Y278671D01*
X375590Y278688D01*
X375586Y278708D01*
X375533Y278797D01*
X375484Y278888D01*
X375470Y278902D01*
X375460Y278919D01*
X375381Y278986D01*
X375306Y279058D01*
X375288Y279066D01*
X375273Y279079D01*
X375177Y279118D01*
X375083Y279161D01*
X375063Y279163D01*
X375045Y279171D01*
X374878Y279189D01*
X360795Y279189D01*
X360728Y279178D01*
X360660Y279177D01*
X360607Y279159D01*
X360552Y279150D01*
X360492Y279118D01*
X360428Y279095D01*
X360384Y279061D01*
X360335Y279034D01*
X360288Y278986D01*
X360235Y278944D01*
X360188Y278880D01*
X360165Y278856D01*
X360156Y278837D01*
X360135Y278809D01*
X357142Y273624D01*
X352176Y268658D01*
X346095Y265147D01*
X339311Y263329D01*
X332289Y263329D01*
X325505Y265147D01*
X319424Y268658D01*
X314458Y273624D01*
X310947Y279705D01*
X309129Y286489D01*
X309129Y293511D01*
X310947Y300295D01*
X314458Y306376D01*
X319424Y311342D01*
X325505Y314853D01*
X332289Y316671D01*
X339311Y316671D01*
X346095Y314853D01*
X352176Y311342D01*
X357142Y306376D01*
X360135Y301191D01*
X360178Y301139D01*
X360213Y301081D01*
X360256Y301044D01*
X360291Y301001D01*
X360348Y300965D01*
X360400Y300921D01*
X360452Y300900D01*
X360500Y300870D01*
X360565Y300854D01*
X360628Y300829D01*
X360707Y300820D01*
X360739Y300813D01*
X360759Y300815D01*
X360795Y300811D01*
X374878Y300811D01*
X374898Y300814D01*
X374917Y300812D01*
X375019Y300834D01*
X375121Y300850D01*
X375138Y300860D01*
X375158Y300864D01*
X375247Y300917D01*
X375338Y300966D01*
X375352Y300980D01*
X375369Y300990D01*
X375436Y301069D01*
X375508Y301144D01*
X375516Y301162D01*
X375529Y301177D01*
X375568Y301273D01*
X375611Y301367D01*
X375613Y301387D01*
X375621Y301405D01*
X375639Y301572D01*
X375639Y329078D01*
X375636Y329098D01*
X375638Y329117D01*
X375616Y329219D01*
X375600Y329321D01*
X375590Y329338D01*
X375586Y329358D01*
X375533Y329447D01*
X375484Y329538D01*
X375470Y329552D01*
X375460Y329569D01*
X375381Y329636D01*
X375306Y329708D01*
X375288Y329716D01*
X375273Y329729D01*
X375177Y329768D01*
X375083Y329811D01*
X375063Y329813D01*
X375045Y329821D01*
X374878Y329839D01*
X196248Y329839D01*
X196177Y329828D01*
X196106Y329826D01*
X196057Y329808D01*
X196005Y329800D01*
X195942Y329766D01*
X195875Y329741D01*
X195834Y329709D01*
X195788Y329684D01*
X195739Y329633D01*
X195683Y329588D01*
X195654Y329544D01*
X195619Y329506D01*
X195588Y329441D01*
X195550Y329381D01*
X195537Y329330D01*
X195515Y329283D01*
X195507Y329212D01*
X195490Y329142D01*
X195494Y329090D01*
X195488Y329039D01*
X195503Y328968D01*
X195509Y328897D01*
X195529Y328849D01*
X195540Y328798D01*
X195577Y328737D01*
X195605Y328671D01*
X195650Y328615D01*
X195666Y328587D01*
X195684Y328572D01*
X195710Y328540D01*
X214653Y309597D01*
X216773Y307477D01*
X216831Y307435D01*
X216883Y307386D01*
X216930Y307364D01*
X216972Y307333D01*
X217041Y307312D01*
X217106Y307282D01*
X217158Y307276D01*
X217207Y307261D01*
X217279Y307263D01*
X217350Y307255D01*
X217401Y307266D01*
X217453Y307267D01*
X217521Y307292D01*
X217591Y307307D01*
X217635Y307334D01*
X217684Y307352D01*
X217740Y307397D01*
X217802Y307433D01*
X217836Y307473D01*
X217876Y307506D01*
X217915Y307566D01*
X217962Y307620D01*
X217981Y307669D01*
X218009Y307712D01*
X218027Y307782D01*
X218054Y307849D01*
X218062Y307920D01*
X218069Y307951D01*
X218068Y307974D01*
X218072Y308015D01*
X218072Y315785D01*
X218245Y316431D01*
X218580Y317011D01*
X219053Y317484D01*
X219632Y317818D01*
X220278Y317991D01*
X225090Y317991D01*
X225090Y307213D01*
X225093Y307193D01*
X225091Y307173D01*
X225113Y307072D01*
X225129Y306970D01*
X225139Y306952D01*
X225143Y306933D01*
X225196Y306844D01*
X225244Y306753D01*
X225259Y306739D01*
X225269Y306722D01*
X225348Y306654D01*
X225423Y306583D01*
X225441Y306575D01*
X225456Y306562D01*
X225552Y306523D01*
X225646Y306480D01*
X225666Y306477D01*
X225684Y306470D01*
X225851Y306451D01*
X226614Y306451D01*
X226614Y306450D01*
X225851Y306450D01*
X225831Y306447D01*
X225811Y306449D01*
X225710Y306427D01*
X225608Y306410D01*
X225591Y306401D01*
X225571Y306396D01*
X225482Y306343D01*
X225391Y306295D01*
X225377Y306281D01*
X225360Y306270D01*
X225293Y306192D01*
X225221Y306117D01*
X225213Y306099D01*
X225200Y306083D01*
X225161Y305987D01*
X225118Y305894D01*
X225116Y305874D01*
X225108Y305855D01*
X225090Y305689D01*
X225090Y294910D01*
X220278Y294910D01*
X219632Y295083D01*
X219053Y295418D01*
X218580Y295891D01*
X218245Y296470D01*
X218158Y296795D01*
X218148Y296817D01*
X218144Y296841D01*
X218098Y296929D01*
X218057Y297019D01*
X218041Y297037D01*
X218029Y297058D01*
X217957Y297127D01*
X217890Y297200D01*
X217868Y297211D01*
X217851Y297228D01*
X217761Y297270D01*
X217673Y297317D01*
X217650Y297321D01*
X217628Y297331D01*
X217529Y297342D01*
X217431Y297359D01*
X217407Y297356D01*
X217383Y297358D01*
X217286Y297337D01*
X217188Y297322D01*
X217167Y297311D01*
X217143Y297306D01*
X217058Y297255D01*
X216969Y297210D01*
X216953Y297192D01*
X216932Y297180D01*
X216867Y297104D01*
X216798Y297033D01*
X216788Y297011D01*
X216772Y296993D01*
X216735Y296901D01*
X216692Y296811D01*
X216689Y296787D01*
X216680Y296765D01*
X216662Y296598D01*
X216662Y291237D01*
X216665Y291217D01*
X216663Y291197D01*
X216685Y291096D01*
X216701Y290994D01*
X216711Y290976D01*
X216715Y290957D01*
X216768Y290868D01*
X216816Y290776D01*
X216831Y290763D01*
X216841Y290746D01*
X216920Y290678D01*
X216995Y290607D01*
X217013Y290599D01*
X217028Y290586D01*
X217124Y290547D01*
X217215Y290505D01*
X218138Y289582D01*
X218138Y272819D01*
X217244Y271926D01*
X209981Y271926D01*
X209151Y272756D01*
X209135Y272768D01*
X209123Y272783D01*
X209035Y272839D01*
X208951Y272900D01*
X208932Y272905D01*
X208916Y272916D01*
X208815Y272942D01*
X208716Y272972D01*
X208696Y272971D01*
X208677Y272976D01*
X208574Y272968D01*
X208470Y272966D01*
X208452Y272959D01*
X208432Y272957D01*
X208337Y272917D01*
X208239Y272881D01*
X208224Y272869D01*
X208206Y272861D01*
X208075Y272756D01*
X207244Y271926D01*
X199981Y271926D01*
X199151Y272756D01*
X199135Y272768D01*
X199123Y272783D01*
X199035Y272839D01*
X198951Y272900D01*
X198932Y272905D01*
X198916Y272916D01*
X198815Y272942D01*
X198716Y272972D01*
X198696Y272971D01*
X198677Y272976D01*
X198574Y272968D01*
X198470Y272966D01*
X198452Y272959D01*
X198432Y272957D01*
X198337Y272917D01*
X198239Y272881D01*
X198224Y272869D01*
X198206Y272861D01*
X198075Y272756D01*
X197244Y271926D01*
X189981Y271926D01*
X189231Y272676D01*
X189173Y272718D01*
X189121Y272767D01*
X189074Y272789D01*
X189031Y272820D01*
X188963Y272841D01*
X188898Y272871D01*
X188846Y272877D01*
X188796Y272892D01*
X188725Y272890D01*
X188653Y272898D01*
X188603Y272887D01*
X188550Y272886D01*
X188483Y272861D01*
X188413Y272846D01*
X188368Y272819D01*
X188319Y272801D01*
X188263Y272756D01*
X188202Y272720D01*
X188168Y272680D01*
X188127Y272647D01*
X188089Y272587D01*
X188042Y272533D01*
X188023Y272484D01*
X187994Y272441D01*
X187977Y272371D01*
X187950Y272305D01*
X187942Y272233D01*
X187934Y272202D01*
X187936Y272179D01*
X187932Y272138D01*
X187932Y266173D01*
X187935Y266153D01*
X187933Y266134D01*
X187955Y266032D01*
X187971Y265930D01*
X187981Y265913D01*
X187985Y265893D01*
X188038Y265804D01*
X188086Y265713D01*
X188101Y265699D01*
X188111Y265682D01*
X188190Y265615D01*
X188265Y265544D01*
X188283Y265535D01*
X188298Y265522D01*
X188394Y265483D01*
X188488Y265440D01*
X188508Y265438D01*
X188526Y265430D01*
X188693Y265412D01*
X193293Y265412D01*
X194186Y264519D01*
X194186Y251256D01*
X193293Y250362D01*
X190297Y250362D01*
X190277Y250359D01*
X190258Y250361D01*
X190156Y250339D01*
X190054Y250323D01*
X190037Y250313D01*
X190017Y250309D01*
X189928Y250256D01*
X189837Y250208D01*
X189823Y250193D01*
X189806Y250183D01*
X189739Y250104D01*
X189668Y250029D01*
X189659Y250011D01*
X189646Y249996D01*
X189607Y249900D01*
X189564Y249806D01*
X189562Y249786D01*
X189554Y249768D01*
X189536Y249601D01*
X189536Y237605D01*
X189505Y237574D01*
X189452Y237500D01*
X189392Y237431D01*
X189380Y237401D01*
X189361Y237375D01*
X189334Y237288D01*
X189300Y237203D01*
X189296Y237162D01*
X189289Y237140D01*
X189290Y237107D01*
X189282Y237036D01*
X189282Y232308D01*
X188389Y231414D01*
X182554Y231414D01*
X181660Y232308D01*
X181660Y237036D01*
X181659Y237047D01*
X181659Y237053D01*
X181652Y237084D01*
X181646Y237126D01*
X181639Y237217D01*
X181626Y237247D01*
X181621Y237279D01*
X181578Y237360D01*
X181542Y237443D01*
X181517Y237476D01*
X181506Y237496D01*
X181482Y237518D01*
X181437Y237574D01*
X181406Y237605D01*
X181406Y256380D01*
X181740Y256714D01*
X181752Y256730D01*
X181767Y256742D01*
X181823Y256830D01*
X181884Y256914D01*
X181889Y256933D01*
X181900Y256949D01*
X181926Y257050D01*
X181956Y257149D01*
X181955Y257169D01*
X181960Y257188D01*
X181952Y257291D01*
X181950Y257395D01*
X181943Y257413D01*
X181941Y257433D01*
X181901Y257528D01*
X181865Y257626D01*
X181853Y257641D01*
X181845Y257659D01*
X181740Y257790D01*
X179802Y259728D01*
X179802Y271790D01*
X179787Y271880D01*
X179780Y271971D01*
X179768Y272001D01*
X179762Y272033D01*
X179720Y272113D01*
X179684Y272197D01*
X179658Y272229D01*
X179647Y272250D01*
X179624Y272272D01*
X179579Y272328D01*
X179151Y272756D01*
X179135Y272768D01*
X179123Y272783D01*
X179035Y272839D01*
X178951Y272900D01*
X178932Y272905D01*
X178916Y272916D01*
X178815Y272942D01*
X178716Y272972D01*
X178696Y272971D01*
X178677Y272976D01*
X178574Y272968D01*
X178470Y272966D01*
X178452Y272959D01*
X178432Y272957D01*
X178337Y272917D01*
X178239Y272881D01*
X178224Y272869D01*
X178206Y272861D01*
X178075Y272756D01*
X177901Y272582D01*
X177847Y272508D01*
X177788Y272439D01*
X177776Y272409D01*
X177757Y272382D01*
X177730Y272295D01*
X177710Y272244D01*
X177706Y272236D01*
X177706Y272234D01*
X177696Y272210D01*
X177692Y272170D01*
X177685Y272147D01*
X177686Y272115D01*
X177678Y272044D01*
X177678Y259155D01*
X176759Y258236D01*
X176706Y258162D01*
X176646Y258092D01*
X176634Y258062D01*
X176615Y258036D01*
X176588Y257949D01*
X176554Y257864D01*
X176550Y257823D01*
X176543Y257801D01*
X176544Y257769D01*
X176536Y257698D01*
X176536Y237605D01*
X176505Y237574D01*
X176452Y237500D01*
X176392Y237431D01*
X176380Y237401D01*
X176361Y237375D01*
X176334Y237288D01*
X176300Y237203D01*
X176296Y237162D01*
X176289Y237140D01*
X176290Y237107D01*
X176282Y237036D01*
X176282Y232308D01*
X175389Y231414D01*
X169554Y231414D01*
X168660Y232308D01*
X168660Y237036D01*
X168659Y237047D01*
X168659Y237053D01*
X168652Y237084D01*
X168646Y237126D01*
X168639Y237217D01*
X168626Y237247D01*
X168621Y237279D01*
X168578Y237360D01*
X168542Y237443D01*
X168517Y237476D01*
X168506Y237496D01*
X168482Y237518D01*
X168437Y237574D01*
X168406Y237605D01*
X168406Y249601D01*
X168403Y249621D01*
X168405Y249641D01*
X168383Y249742D01*
X168367Y249844D01*
X168357Y249861D01*
X168353Y249881D01*
X168300Y249970D01*
X168252Y250061D01*
X168237Y250075D01*
X168227Y250092D01*
X168148Y250159D01*
X168073Y250231D01*
X168055Y250239D01*
X168040Y250252D01*
X167944Y250291D01*
X167850Y250334D01*
X167830Y250336D01*
X167812Y250344D01*
X167645Y250362D01*
X166030Y250362D01*
X165137Y251256D01*
X165137Y264519D01*
X166030Y265412D01*
X168787Y265412D01*
X168807Y265415D01*
X168826Y265413D01*
X168928Y265435D01*
X169030Y265452D01*
X169047Y265461D01*
X169067Y265465D01*
X169156Y265518D01*
X169247Y265567D01*
X169261Y265581D01*
X169278Y265591D01*
X169345Y265670D01*
X169416Y265745D01*
X169425Y265763D01*
X169438Y265778D01*
X169477Y265874D01*
X169520Y265968D01*
X169522Y265988D01*
X169530Y266006D01*
X169548Y266173D01*
X169548Y270955D01*
X169537Y271026D01*
X169535Y271097D01*
X169517Y271146D01*
X169508Y271198D01*
X169475Y271261D01*
X169450Y271328D01*
X169418Y271369D01*
X169393Y271415D01*
X169341Y271464D01*
X169296Y271520D01*
X169253Y271549D01*
X169215Y271584D01*
X169150Y271615D01*
X169090Y271653D01*
X169039Y271666D01*
X168992Y271688D01*
X168921Y271696D01*
X168851Y271713D01*
X168799Y271709D01*
X168747Y271715D01*
X168677Y271700D01*
X168606Y271694D01*
X168558Y271674D01*
X168507Y271663D01*
X168445Y271626D01*
X168379Y271598D01*
X168324Y271553D01*
X168296Y271537D01*
X168281Y271519D01*
X168249Y271493D01*
X168173Y271418D01*
X167594Y271083D01*
X166947Y270910D01*
X165112Y270910D01*
X165112Y280462D01*
X165109Y280482D01*
X165111Y280502D01*
X165089Y280603D01*
X165072Y280705D01*
X165063Y280723D01*
X165059Y280742D01*
X165006Y280831D01*
X164957Y280923D01*
X164943Y280936D01*
X164933Y280953D01*
X164854Y281021D01*
X164779Y281092D01*
X164761Y281100D01*
X164746Y281113D01*
X164650Y281152D01*
X164556Y281196D01*
X164536Y281198D01*
X164518Y281205D01*
X164594Y281217D01*
X164611Y281227D01*
X164631Y281231D01*
X164720Y281284D01*
X164811Y281332D01*
X164825Y281347D01*
X164842Y281357D01*
X164909Y281436D01*
X164980Y281511D01*
X164989Y281529D01*
X165002Y281544D01*
X165041Y281640D01*
X165084Y281734D01*
X165086Y281754D01*
X165094Y281772D01*
X165112Y281939D01*
X165112Y291491D01*
X166947Y291491D01*
X167594Y291318D01*
X168173Y290984D01*
X168249Y290908D01*
X168307Y290866D01*
X168359Y290817D01*
X168406Y290795D01*
X168448Y290765D01*
X168517Y290743D01*
X168582Y290713D01*
X168634Y290707D01*
X168683Y290692D01*
X168755Y290694D01*
X168826Y290686D01*
X168877Y290697D01*
X168929Y290698D01*
X168997Y290723D01*
X169067Y290738D01*
X169111Y290765D01*
X169160Y290783D01*
X169216Y290828D01*
X169278Y290865D01*
X169312Y290904D01*
X169352Y290937D01*
X169391Y290997D01*
X169438Y291051D01*
X169457Y291100D01*
X169485Y291143D01*
X169503Y291213D01*
X169530Y291280D01*
X169538Y291351D01*
X169545Y291382D01*
X169544Y291405D01*
X169548Y291446D01*
X169548Y293040D01*
X169533Y293130D01*
X169526Y293221D01*
X169514Y293250D01*
X169508Y293282D01*
X169466Y293363D01*
X169430Y293447D01*
X169404Y293479D01*
X169393Y293500D01*
X169370Y293522D01*
X169325Y293578D01*
X168937Y293966D01*
X168937Y298362D01*
X172046Y301471D01*
X176442Y301471D01*
X179551Y298362D01*
X179551Y293966D01*
X177901Y292316D01*
X177847Y292242D01*
X177788Y292172D01*
X177776Y292142D01*
X177757Y292116D01*
X177730Y292029D01*
X177696Y291944D01*
X177692Y291903D01*
X177685Y291881D01*
X177686Y291849D01*
X177678Y291777D01*
X177678Y290357D01*
X177692Y290267D01*
X177699Y290176D01*
X177712Y290147D01*
X177717Y290115D01*
X177760Y290034D01*
X177796Y289950D01*
X177822Y289918D01*
X177832Y289897D01*
X177856Y289875D01*
X177901Y289819D01*
X178075Y289645D01*
X178091Y289634D01*
X178103Y289618D01*
X178190Y289562D01*
X178274Y289502D01*
X178293Y289496D01*
X178310Y289485D01*
X178411Y289460D01*
X178509Y289429D01*
X178529Y289430D01*
X178549Y289425D01*
X178652Y289433D01*
X178755Y289436D01*
X178774Y289443D01*
X178794Y289444D01*
X178889Y289485D01*
X178986Y289520D01*
X179002Y289533D01*
X179020Y289540D01*
X179151Y289645D01*
X179981Y290475D01*
X187244Y290475D01*
X188075Y289645D01*
X188091Y289634D01*
X188103Y289618D01*
X188191Y289562D01*
X188274Y289502D01*
X188293Y289496D01*
X188310Y289485D01*
X188411Y289460D01*
X188509Y289429D01*
X188529Y289430D01*
X188549Y289425D01*
X188652Y289433D01*
X188755Y289436D01*
X188774Y289443D01*
X188794Y289444D01*
X188889Y289484D01*
X188986Y289520D01*
X189002Y289533D01*
X189020Y289540D01*
X189151Y289645D01*
X190191Y290685D01*
X190203Y290701D01*
X190218Y290714D01*
X190275Y290801D01*
X190335Y290885D01*
X190341Y290904D01*
X190351Y290921D01*
X190377Y291021D01*
X190407Y291120D01*
X190407Y291140D01*
X190412Y291159D01*
X190403Y291262D01*
X190401Y291366D01*
X190394Y291385D01*
X190392Y291405D01*
X190352Y291499D01*
X190316Y291597D01*
X190304Y291613D01*
X190296Y291631D01*
X190191Y291762D01*
X188241Y293712D01*
X188241Y298108D01*
X191350Y301217D01*
X195746Y301217D01*
X198855Y298108D01*
X198855Y293712D01*
X196918Y291775D01*
X196876Y291717D01*
X196827Y291665D01*
X196805Y291617D01*
X196774Y291575D01*
X196753Y291507D01*
X196723Y291442D01*
X196717Y291390D01*
X196702Y291340D01*
X196704Y291268D01*
X196696Y291197D01*
X196707Y291146D01*
X196708Y291094D01*
X196733Y291027D01*
X196748Y290957D01*
X196775Y290912D01*
X196793Y290863D01*
X196838Y290807D01*
X196874Y290746D01*
X196914Y290712D01*
X196946Y290671D01*
X197007Y290632D01*
X197061Y290586D01*
X197109Y290566D01*
X197153Y290538D01*
X197191Y290529D01*
X198075Y289645D01*
X198091Y289634D01*
X198103Y289618D01*
X198190Y289562D01*
X198274Y289502D01*
X198293Y289496D01*
X198310Y289485D01*
X198411Y289460D01*
X198509Y289429D01*
X198529Y289430D01*
X198549Y289425D01*
X198652Y289433D01*
X198755Y289436D01*
X198774Y289443D01*
X198794Y289444D01*
X198889Y289484D01*
X198986Y289520D01*
X199002Y289533D01*
X199020Y289540D01*
X199151Y289645D01*
X199995Y290489D01*
X200039Y290498D01*
X200141Y290515D01*
X200158Y290524D01*
X200178Y290529D01*
X200267Y290582D01*
X200358Y290630D01*
X200372Y290645D01*
X200389Y290655D01*
X200456Y290734D01*
X200528Y290809D01*
X200536Y290827D01*
X200549Y290842D01*
X200588Y290938D01*
X200631Y291032D01*
X200633Y291051D01*
X200641Y291070D01*
X200659Y291237D01*
X200659Y305000D01*
X200645Y305090D01*
X200637Y305181D01*
X200625Y305211D01*
X200620Y305243D01*
X200577Y305323D01*
X200541Y305407D01*
X200515Y305439D01*
X200504Y305460D01*
X200481Y305482D01*
X200436Y305538D01*
X187428Y318546D01*
X187354Y318599D01*
X187285Y318659D01*
X187255Y318671D01*
X187228Y318690D01*
X187141Y318717D01*
X187057Y318751D01*
X187016Y318755D01*
X186993Y318762D01*
X186961Y318761D01*
X186890Y318769D01*
X158725Y318769D01*
X158654Y318758D01*
X158583Y318756D01*
X158534Y318738D01*
X158482Y318730D01*
X158419Y318696D01*
X158352Y318671D01*
X158311Y318639D01*
X158265Y318614D01*
X158216Y318562D01*
X158160Y318518D01*
X158132Y318474D01*
X158096Y318436D01*
X158065Y318371D01*
X158027Y318311D01*
X158014Y318260D01*
X157992Y318213D01*
X157984Y318142D01*
X157967Y318072D01*
X157971Y318020D01*
X157965Y317969D01*
X157980Y317898D01*
X157986Y317827D01*
X158006Y317779D01*
X158017Y317728D01*
X158054Y317667D01*
X158082Y317601D01*
X158127Y317545D01*
X158143Y317517D01*
X158161Y317502D01*
X158187Y317470D01*
X158646Y317011D01*
X158980Y316431D01*
X159154Y315785D01*
X159154Y307974D01*
X151375Y307974D01*
X151355Y307971D01*
X151336Y307973D01*
X151234Y307951D01*
X151132Y307934D01*
X151115Y307925D01*
X151095Y307921D01*
X151006Y307867D01*
X150915Y307819D01*
X150901Y307805D01*
X150884Y307794D01*
X150817Y307716D01*
X150745Y307641D01*
X150737Y307623D01*
X150724Y307607D01*
X150685Y307511D01*
X150642Y307418D01*
X150640Y307398D01*
X150632Y307379D01*
X150614Y307213D01*
X150614Y306450D01*
X150612Y306450D01*
X150612Y307213D01*
X150609Y307232D01*
X150611Y307252D01*
X150589Y307353D01*
X150572Y307455D01*
X150563Y307473D01*
X150559Y307492D01*
X150506Y307581D01*
X150457Y307673D01*
X150443Y307686D01*
X150433Y307703D01*
X150354Y307771D01*
X150279Y307842D01*
X150261Y307850D01*
X150246Y307863D01*
X150149Y307902D01*
X150056Y307946D01*
X150036Y307948D01*
X150017Y307955D01*
X149851Y307974D01*
X142072Y307974D01*
X142072Y315785D01*
X142245Y316431D01*
X142565Y316985D01*
X142573Y317007D01*
X142587Y317027D01*
X142617Y317122D01*
X142652Y317215D01*
X142653Y317239D01*
X142660Y317262D01*
X142657Y317361D01*
X142661Y317461D01*
X142654Y317484D01*
X142653Y317508D01*
X142619Y317601D01*
X142591Y317697D01*
X142577Y317716D01*
X142569Y317739D01*
X142507Y317816D01*
X142450Y317898D01*
X142430Y317912D01*
X142415Y317931D01*
X142332Y317985D01*
X142252Y318044D01*
X142229Y318051D01*
X142208Y318064D01*
X142112Y318088D01*
X142017Y318119D01*
X141993Y318118D01*
X141970Y318124D01*
X141871Y318116D01*
X141771Y318115D01*
X141749Y318107D01*
X141725Y318105D01*
X141633Y318066D01*
X141539Y318033D01*
X141520Y318018D01*
X141498Y318009D01*
X141367Y317904D01*
X127080Y303616D01*
X127027Y303542D01*
X126967Y303473D01*
X126955Y303443D01*
X126936Y303416D01*
X126909Y303329D01*
X126875Y303245D01*
X126871Y303204D01*
X126864Y303181D01*
X126865Y303149D01*
X126857Y303078D01*
X126857Y229520D01*
X126860Y229500D01*
X126858Y229481D01*
X126880Y229379D01*
X126896Y229277D01*
X126906Y229260D01*
X126910Y229240D01*
X126963Y229151D01*
X127012Y229060D01*
X127026Y229046D01*
X127036Y229029D01*
X127115Y228962D01*
X127190Y228890D01*
X127208Y228882D01*
X127223Y228869D01*
X127319Y228830D01*
X127413Y228787D01*
X127433Y228785D01*
X127451Y228777D01*
X127618Y228759D01*
X128440Y228759D01*
X129333Y227866D01*
X129333Y214602D01*
X128440Y213709D01*
X119126Y213709D01*
X119106Y213706D01*
X119087Y213708D01*
X118985Y213686D01*
X118883Y213670D01*
X118866Y213660D01*
X118846Y213656D01*
X118757Y213603D01*
X118666Y213554D01*
X118652Y213540D01*
X118635Y213530D01*
X118568Y213451D01*
X118496Y213376D01*
X118488Y213358D01*
X118475Y213343D01*
X118436Y213247D01*
X118393Y213153D01*
X118391Y213133D01*
X118383Y213115D01*
X118365Y212948D01*
X118365Y210874D01*
X118379Y210784D01*
X118387Y210693D01*
X118399Y210663D01*
X118404Y210631D01*
X118447Y210551D01*
X118483Y210467D01*
X118509Y210435D01*
X118520Y210414D01*
X118543Y210392D01*
X118588Y210336D01*
X127111Y201813D01*
X127111Y170592D01*
X127114Y170572D01*
X127112Y170553D01*
X127134Y170451D01*
X127150Y170349D01*
X127160Y170332D01*
X127164Y170312D01*
X127217Y170223D01*
X127266Y170132D01*
X127280Y170118D01*
X127290Y170101D01*
X127369Y170034D01*
X127444Y169962D01*
X127462Y169954D01*
X127477Y169941D01*
X127573Y169902D01*
X127667Y169859D01*
X127687Y169857D01*
X127705Y169849D01*
X127872Y169831D01*
X128694Y169831D01*
X129587Y168938D01*
X129587Y155674D01*
X128694Y154781D01*
X119430Y154781D01*
X118537Y155674D01*
X118537Y168938D01*
X119430Y169831D01*
X120252Y169831D01*
X120272Y169834D01*
X120291Y169832D01*
X120393Y169854D01*
X120495Y169870D01*
X120512Y169880D01*
X120532Y169884D01*
X120621Y169937D01*
X120712Y169986D01*
X120726Y170000D01*
X120743Y170010D01*
X120810Y170089D01*
X120882Y170164D01*
X120890Y170182D01*
X120903Y170197D01*
X120942Y170293D01*
X120985Y170387D01*
X120987Y170407D01*
X120995Y170425D01*
X121013Y170592D01*
X121013Y198972D01*
X121011Y198983D01*
X121012Y198990D01*
X121004Y199027D01*
X120999Y199062D01*
X120991Y199153D01*
X120979Y199183D01*
X120974Y199215D01*
X120931Y199295D01*
X120895Y199379D01*
X120869Y199411D01*
X120858Y199432D01*
X120835Y199454D01*
X120790Y199510D01*
X112267Y208033D01*
X112267Y213699D01*
X112256Y213770D01*
X112254Y213842D01*
X112236Y213891D01*
X112228Y213942D01*
X112194Y214005D01*
X112169Y214073D01*
X112137Y214113D01*
X112112Y214159D01*
X112060Y214209D01*
X112016Y214265D01*
X111972Y214293D01*
X111934Y214329D01*
X111869Y214359D01*
X111809Y214398D01*
X111758Y214410D01*
X111711Y214432D01*
X111640Y214440D01*
X111570Y214458D01*
X111518Y214454D01*
X111467Y214459D01*
X111396Y214444D01*
X111325Y214439D01*
X111277Y214418D01*
X111226Y214407D01*
X111165Y214370D01*
X111099Y214342D01*
X111043Y214297D01*
X111015Y214281D01*
X111000Y214263D01*
X110968Y214237D01*
X110440Y213709D01*
X101176Y213709D01*
X100283Y214602D01*
X100283Y217170D01*
X100280Y217190D01*
X100282Y217209D01*
X100260Y217311D01*
X100244Y217413D01*
X100234Y217430D01*
X100230Y217450D01*
X100177Y217539D01*
X100128Y217630D01*
X100114Y217644D01*
X100104Y217661D01*
X100025Y217728D01*
X99950Y217800D01*
X99932Y217808D01*
X99917Y217821D01*
X99821Y217860D01*
X99727Y217903D01*
X99707Y217905D01*
X99689Y217913D01*
X99522Y217931D01*
X89809Y217931D01*
X89694Y217912D01*
X89578Y217895D01*
X89572Y217893D01*
X89566Y217892D01*
X89463Y217837D01*
X89358Y217784D01*
X89354Y217779D01*
X89348Y217776D01*
X89269Y217692D01*
X89186Y217608D01*
X89182Y217602D01*
X89179Y217598D01*
X89171Y217581D01*
X89105Y217461D01*
X88000Y214793D01*
X84927Y211720D01*
X80913Y210057D01*
X76567Y210057D01*
X72553Y211720D01*
X69480Y214793D01*
X67817Y218807D01*
X67817Y223153D01*
X69480Y227167D01*
X72553Y230240D01*
X76567Y231903D01*
X80913Y231903D01*
X84927Y230240D01*
X88000Y227167D01*
X89105Y224499D01*
X89167Y224399D01*
X89227Y224299D01*
X89232Y224295D01*
X89235Y224290D01*
X89324Y224215D01*
X89414Y224139D01*
X89420Y224137D01*
X89424Y224133D01*
X89532Y224091D01*
X89642Y224047D01*
X89649Y224046D01*
X89654Y224045D01*
X89672Y224044D01*
X89809Y224029D01*
X99522Y224029D01*
X99542Y224032D01*
X99561Y224030D01*
X99663Y224052D01*
X99765Y224068D01*
X99782Y224078D01*
X99802Y224082D01*
X99891Y224135D01*
X99982Y224184D01*
X99996Y224198D01*
X100013Y224208D01*
X100080Y224287D01*
X100152Y224362D01*
X100160Y224380D01*
X100173Y224395D01*
X100212Y224491D01*
X100255Y224585D01*
X100257Y224605D01*
X100265Y224623D01*
X100283Y224790D01*
X100283Y227866D01*
X101176Y228759D01*
X110440Y228759D01*
X110968Y228231D01*
X111026Y228189D01*
X111078Y228139D01*
X111125Y228117D01*
X111167Y228087D01*
X111236Y228066D01*
X111301Y228036D01*
X111353Y228030D01*
X111403Y228015D01*
X111474Y228017D01*
X111545Y228009D01*
X111596Y228020D01*
X111648Y228021D01*
X111716Y228046D01*
X111786Y228061D01*
X111831Y228088D01*
X111879Y228105D01*
X111935Y228150D01*
X111997Y228187D01*
X112031Y228227D01*
X112071Y228259D01*
X112110Y228319D01*
X112157Y228374D01*
X112176Y228422D01*
X112204Y228466D01*
X112222Y228536D01*
X112249Y228602D01*
X112257Y228673D01*
X112265Y228705D01*
X112263Y228728D01*
X112267Y228769D01*
X112267Y306973D01*
X133834Y328540D01*
X133876Y328598D01*
X133925Y328650D01*
X133947Y328697D01*
X133978Y328739D01*
X133999Y328808D01*
X134029Y328873D01*
X134035Y328925D01*
X134050Y328975D01*
X134048Y329046D01*
X134056Y329117D01*
X134045Y329168D01*
X134044Y329220D01*
X134019Y329288D01*
X134004Y329358D01*
X133977Y329403D01*
X133959Y329451D01*
X133914Y329507D01*
X133878Y329569D01*
X133838Y329603D01*
X133806Y329643D01*
X133745Y329682D01*
X133691Y329729D01*
X133642Y329748D01*
X133599Y329776D01*
X133529Y329794D01*
X133463Y329821D01*
X133391Y329829D01*
X133360Y329837D01*
X133337Y329835D01*
X133296Y329839D01*
X10922Y329839D01*
X10902Y329836D01*
X10883Y329838D01*
X10781Y329816D01*
X10679Y329800D01*
X10662Y329790D01*
X10642Y329786D01*
X10553Y329733D01*
X10462Y329684D01*
X10448Y329670D01*
X10431Y329660D01*
X10364Y329581D01*
X10292Y329506D01*
X10284Y329488D01*
X10271Y329473D01*
X10232Y329377D01*
X10189Y329283D01*
X10187Y329263D01*
X10179Y329245D01*
X10161Y329078D01*
X10161Y301572D01*
X10164Y301552D01*
X10162Y301533D01*
X10184Y301431D01*
X10200Y301329D01*
X10210Y301312D01*
X10214Y301292D01*
X10267Y301203D01*
X10316Y301112D01*
X10330Y301098D01*
X10340Y301081D01*
X10419Y301014D01*
X10494Y300942D01*
X10512Y300934D01*
X10527Y300921D01*
X10623Y300882D01*
X10717Y300839D01*
X10737Y300837D01*
X10755Y300829D01*
X10922Y300811D01*
X25005Y300811D01*
X25072Y300822D01*
X25140Y300823D01*
X25193Y300841D01*
X25248Y300850D01*
X25308Y300882D01*
X25372Y300905D01*
X25416Y300939D01*
X25465Y300966D01*
X25512Y301014D01*
X25565Y301056D01*
X25612Y301120D01*
X25635Y301144D01*
X25644Y301163D01*
X25665Y301191D01*
X28658Y306376D01*
X33624Y311342D01*
X39705Y314853D01*
X46489Y316671D01*
X53511Y316671D01*
X60295Y314853D01*
X66376Y311342D01*
X71342Y306376D01*
X74853Y300295D01*
X76671Y293511D01*
X76671Y286489D01*
X74853Y279705D01*
X71342Y273624D01*
X66376Y268658D01*
X60295Y265147D01*
X53511Y263329D01*
X46489Y263329D01*
X39705Y265147D01*
X33624Y268658D01*
X28658Y273624D01*
X25665Y278809D01*
X25622Y278861D01*
X25587Y278919D01*
X25544Y278956D01*
X25509Y278999D01*
X25452Y279035D01*
X25400Y279079D01*
X25348Y279100D01*
X25300Y279130D01*
X25235Y279146D01*
X25172Y279171D01*
X25093Y279180D01*
X25061Y279187D01*
X25041Y279185D01*
X25005Y279189D01*
X10922Y279189D01*
X10902Y279186D01*
X10883Y279188D01*
X10781Y279166D01*
X10679Y279150D01*
X10662Y279140D01*
X10642Y279136D01*
X10553Y279083D01*
X10462Y279034D01*
X10448Y279020D01*
X10431Y279010D01*
X10364Y278931D01*
X10292Y278856D01*
X10284Y278838D01*
X10271Y278823D01*
X10232Y278727D01*
X10189Y278633D01*
X10187Y278613D01*
X10179Y278595D01*
X10161Y278428D01*
X10161Y81572D01*
X10164Y81552D01*
X10162Y81533D01*
X10184Y81431D01*
X10200Y81329D01*
X10210Y81312D01*
X10214Y81292D01*
X10267Y81203D01*
X10316Y81112D01*
X10330Y81098D01*
X10340Y81081D01*
X10419Y81014D01*
X10494Y80942D01*
X10512Y80934D01*
X10527Y80921D01*
X10623Y80882D01*
X10717Y80839D01*
X10737Y80837D01*
X10755Y80829D01*
X10922Y80811D01*
X25005Y80811D01*
X25072Y80822D01*
X25140Y80823D01*
X25193Y80841D01*
X25248Y80850D01*
X25308Y80882D01*
X25372Y80905D01*
X25416Y80939D01*
X25465Y80966D01*
X25512Y81014D01*
X25565Y81056D01*
X25612Y81120D01*
X25635Y81144D01*
X25644Y81163D01*
X25665Y81191D01*
X28658Y86376D01*
X33624Y91342D01*
X39705Y94853D01*
X46489Y96671D01*
X53511Y96671D01*
X60295Y94853D01*
X66376Y91342D01*
X71342Y86376D01*
X74853Y80295D01*
X76671Y73511D01*
X76671Y66489D01*
X74853Y59705D01*
X71342Y53624D01*
X66376Y48658D01*
X60295Y45147D01*
X53511Y43329D01*
X46489Y43329D01*
X39705Y45147D01*
X33624Y48658D01*
X28658Y53624D01*
X25665Y58809D01*
X25622Y58861D01*
X25587Y58919D01*
X25544Y58956D01*
X25509Y58999D01*
X25452Y59035D01*
X25400Y59079D01*
X25348Y59100D01*
X25300Y59130D01*
X25235Y59146D01*
X25172Y59171D01*
X25093Y59180D01*
X25061Y59187D01*
X25041Y59185D01*
X25005Y59189D01*
X10922Y59189D01*
X10902Y59186D01*
X10883Y59188D01*
X10781Y59166D01*
X10679Y59150D01*
X10662Y59140D01*
X10642Y59136D01*
X10553Y59083D01*
X10462Y59034D01*
X10448Y59020D01*
X10431Y59010D01*
X10364Y58931D01*
X10292Y58856D01*
X10284Y58838D01*
X10271Y58823D01*
X10232Y58727D01*
X10189Y58633D01*
X10187Y58613D01*
X10179Y58595D01*
X10161Y58428D01*
X10161Y10922D01*
X10164Y10902D01*
X10162Y10883D01*
X10184Y10781D01*
X10200Y10679D01*
X10210Y10662D01*
X10214Y10642D01*
X10267Y10553D01*
X10316Y10462D01*
X10330Y10448D01*
X10340Y10431D01*
X10419Y10364D01*
X10494Y10292D01*
X10512Y10284D01*
X10527Y10271D01*
X10623Y10232D01*
X10717Y10189D01*
X10737Y10187D01*
X10755Y10179D01*
X10922Y10161D01*
X374878Y10161D01*
X374898Y10164D01*
G37*
%LPC*%
G36*
X198843Y116150D02*
X198843Y116150D01*
X197950Y117043D01*
X197950Y130306D01*
X198843Y131199D01*
X208106Y131199D01*
X208999Y130306D01*
X208999Y127484D01*
X209003Y127465D01*
X209000Y127445D01*
X209022Y127344D01*
X209039Y127242D01*
X209048Y127224D01*
X209053Y127205D01*
X209106Y127116D01*
X209154Y127024D01*
X209169Y127011D01*
X209179Y126994D01*
X209258Y126926D01*
X209333Y126855D01*
X209351Y126847D01*
X209366Y126834D01*
X209462Y126795D01*
X209556Y126751D01*
X209575Y126749D01*
X209594Y126742D01*
X209761Y126723D01*
X214343Y126723D01*
X214433Y126738D01*
X214524Y126745D01*
X214553Y126758D01*
X214585Y126763D01*
X214666Y126806D01*
X214750Y126841D01*
X214782Y126867D01*
X214803Y126878D01*
X214825Y126901D01*
X214881Y126946D01*
X226090Y138156D01*
X226143Y138230D01*
X226203Y138299D01*
X226215Y138329D01*
X226234Y138355D01*
X226261Y138442D01*
X226295Y138527D01*
X226299Y138568D01*
X226306Y138590D01*
X226305Y138623D01*
X226313Y138694D01*
X226313Y152600D01*
X226299Y152690D01*
X226291Y152781D01*
X226279Y152811D01*
X226274Y152843D01*
X226231Y152923D01*
X226195Y153007D01*
X226169Y153039D01*
X226158Y153060D01*
X226135Y153082D01*
X226090Y153138D01*
X224030Y155198D01*
X223972Y155240D01*
X223920Y155289D01*
X223873Y155311D01*
X223831Y155342D01*
X223762Y155363D01*
X223697Y155393D01*
X223645Y155399D01*
X223595Y155414D01*
X223524Y155412D01*
X223453Y155420D01*
X223402Y155409D01*
X223350Y155408D01*
X223282Y155383D01*
X223212Y155368D01*
X223167Y155341D01*
X223119Y155323D01*
X223063Y155278D01*
X223001Y155242D01*
X222967Y155202D01*
X222927Y155170D01*
X222888Y155109D01*
X222841Y155055D01*
X222822Y155006D01*
X222794Y154963D01*
X222776Y154893D01*
X222749Y154827D01*
X222741Y154755D01*
X222733Y154724D01*
X222735Y154701D01*
X222731Y154660D01*
X222731Y150456D01*
X219622Y147347D01*
X215226Y147347D01*
X214207Y148366D01*
X214133Y148419D01*
X214063Y148479D01*
X214033Y148491D01*
X214007Y148510D01*
X213920Y148537D01*
X213835Y148571D01*
X213794Y148575D01*
X213772Y148582D01*
X213740Y148581D01*
X213669Y148589D01*
X210940Y148589D01*
X210850Y148575D01*
X210759Y148567D01*
X210730Y148555D01*
X210698Y148550D01*
X210617Y148507D01*
X210533Y148471D01*
X210501Y148445D01*
X210480Y148434D01*
X210458Y148411D01*
X210402Y148366D01*
X209969Y147933D01*
X189880Y147933D01*
X189821Y147975D01*
X189751Y148035D01*
X189721Y148047D01*
X189695Y148066D01*
X189608Y148093D01*
X189523Y148127D01*
X189482Y148131D01*
X189460Y148138D01*
X189428Y148137D01*
X189356Y148145D01*
X184538Y148145D01*
X184518Y148142D01*
X184498Y148144D01*
X184397Y148122D01*
X184295Y148105D01*
X184277Y148096D01*
X184258Y148092D01*
X184169Y148039D01*
X184077Y147990D01*
X184064Y147976D01*
X184047Y147966D01*
X183979Y147887D01*
X183908Y147812D01*
X183900Y147794D01*
X183887Y147779D01*
X183848Y147683D01*
X183804Y147589D01*
X183802Y147569D01*
X183795Y147551D01*
X183776Y147384D01*
X183776Y145578D01*
X182883Y144685D01*
X173620Y144685D01*
X172727Y145578D01*
X172727Y158841D01*
X173620Y159735D01*
X173947Y159735D01*
X173967Y159738D01*
X173986Y159736D01*
X174088Y159758D01*
X174190Y159774D01*
X174207Y159784D01*
X174227Y159788D01*
X174316Y159841D01*
X174407Y159889D01*
X174421Y159904D01*
X174438Y159914D01*
X174505Y159993D01*
X174576Y160068D01*
X174585Y160086D01*
X174598Y160101D01*
X174637Y160197D01*
X174680Y160291D01*
X174682Y160311D01*
X174690Y160329D01*
X174708Y160496D01*
X174708Y161290D01*
X174705Y161310D01*
X174707Y161329D01*
X174685Y161431D01*
X174668Y161533D01*
X174659Y161550D01*
X174655Y161570D01*
X174602Y161659D01*
X174553Y161750D01*
X174539Y161764D01*
X174529Y161781D01*
X174450Y161848D01*
X174375Y161920D01*
X174357Y161928D01*
X174342Y161941D01*
X174246Y161980D01*
X174152Y162023D01*
X174132Y162025D01*
X174114Y162033D01*
X173947Y162051D01*
X165514Y162051D01*
X165489Y162047D01*
X165464Y162050D01*
X165431Y162042D01*
X165428Y162041D01*
X165368Y162027D01*
X165271Y162012D01*
X165249Y162000D01*
X165225Y161994D01*
X165141Y161942D01*
X165054Y161896D01*
X165037Y161878D01*
X165015Y161865D01*
X164952Y161789D01*
X164884Y161718D01*
X164874Y161695D01*
X164858Y161676D01*
X164822Y161584D01*
X164781Y161495D01*
X164778Y161470D01*
X164769Y161447D01*
X164765Y161348D01*
X164754Y161251D01*
X164759Y161226D01*
X164758Y161201D01*
X164785Y161106D01*
X164806Y161010D01*
X164819Y160989D01*
X164826Y160965D01*
X164882Y160884D01*
X164932Y160799D01*
X164951Y160783D01*
X164965Y160762D01*
X165007Y160731D01*
X165010Y160727D01*
X165055Y160694D01*
X165119Y160639D01*
X165142Y160630D01*
X165162Y160615D01*
X165178Y160609D01*
X165812Y160243D01*
X166285Y159770D01*
X166619Y159191D01*
X166792Y158544D01*
X166792Y153733D01*
X161014Y153733D01*
X160994Y153730D01*
X160974Y153732D01*
X160873Y153710D01*
X160771Y153693D01*
X160753Y153684D01*
X160734Y153680D01*
X160645Y153627D01*
X160554Y153578D01*
X160540Y153564D01*
X160523Y153554D01*
X160455Y153475D01*
X160384Y153400D01*
X160376Y153382D01*
X160363Y153367D01*
X160324Y153270D01*
X160281Y153177D01*
X160278Y153157D01*
X160271Y153138D01*
X160252Y152972D01*
X160252Y152209D01*
X160251Y152209D01*
X160251Y152972D01*
X160247Y152991D01*
X160250Y153011D01*
X160228Y153112D01*
X160211Y153215D01*
X160202Y153232D01*
X160197Y153252D01*
X160144Y153341D01*
X160096Y153432D01*
X160081Y153446D01*
X160071Y153463D01*
X159992Y153530D01*
X159917Y153601D01*
X159899Y153610D01*
X159884Y153623D01*
X159788Y153661D01*
X159694Y153705D01*
X159675Y153707D01*
X159656Y153715D01*
X159489Y153733D01*
X153711Y153733D01*
X153711Y158544D01*
X153751Y158693D01*
X153756Y158741D01*
X153770Y158787D01*
X153768Y158863D01*
X153775Y158938D01*
X153765Y158985D01*
X153763Y159033D01*
X153737Y159104D01*
X153720Y159178D01*
X153695Y159219D01*
X153679Y159264D01*
X153631Y159323D01*
X153592Y159388D01*
X153555Y159419D01*
X153525Y159456D01*
X153461Y159497D01*
X153403Y159546D01*
X153359Y159563D01*
X153318Y159589D01*
X153245Y159608D01*
X153174Y159635D01*
X153126Y159637D01*
X153080Y159649D01*
X153004Y159643D01*
X152928Y159647D01*
X152882Y159634D01*
X152834Y159630D01*
X152765Y159600D01*
X152692Y159580D01*
X152652Y159552D01*
X152608Y159534D01*
X152508Y159453D01*
X152489Y159440D01*
X152485Y159435D01*
X152477Y159429D01*
X124938Y131889D01*
X122334Y129285D01*
X65118Y129285D01*
X63309Y131094D01*
X49275Y145128D01*
X49275Y148496D01*
X49306Y148527D01*
X49359Y148601D01*
X49419Y148670D01*
X49431Y148700D01*
X49450Y148727D01*
X49477Y148813D01*
X49511Y148898D01*
X49515Y148939D01*
X49522Y148962D01*
X49521Y148994D01*
X49529Y149065D01*
X49529Y151658D01*
X49510Y151773D01*
X49493Y151889D01*
X49491Y151895D01*
X49490Y151901D01*
X49436Y152003D01*
X49382Y152109D01*
X49377Y152113D01*
X49374Y152118D01*
X49290Y152198D01*
X49206Y152281D01*
X49200Y152284D01*
X49196Y152288D01*
X49179Y152296D01*
X49059Y152362D01*
X47407Y153046D01*
X44334Y156119D01*
X42671Y160133D01*
X42671Y164479D01*
X44334Y168493D01*
X47407Y171566D01*
X49059Y172250D01*
X49159Y172312D01*
X49259Y172372D01*
X49263Y172377D01*
X49268Y172380D01*
X49343Y172471D01*
X49419Y172559D01*
X49421Y172565D01*
X49425Y172569D01*
X49467Y172678D01*
X49511Y172787D01*
X49512Y172794D01*
X49513Y172799D01*
X49514Y172817D01*
X49529Y172954D01*
X49529Y210227D01*
X49510Y210342D01*
X49493Y210458D01*
X49491Y210464D01*
X49490Y210470D01*
X49435Y210573D01*
X49382Y210677D01*
X49377Y210682D01*
X49374Y210687D01*
X49290Y210767D01*
X49206Y210850D01*
X49200Y210853D01*
X49196Y210857D01*
X49179Y210864D01*
X49059Y210930D01*
X47153Y211720D01*
X44080Y214793D01*
X42417Y218807D01*
X42417Y223153D01*
X44080Y227167D01*
X47153Y230240D01*
X51167Y231903D01*
X55513Y231903D01*
X59527Y230240D01*
X62600Y227167D01*
X64263Y223153D01*
X64263Y218807D01*
X62600Y214793D01*
X59527Y211720D01*
X58129Y211141D01*
X58029Y211079D01*
X57929Y211019D01*
X57925Y211015D01*
X57920Y211011D01*
X57845Y210921D01*
X57769Y210832D01*
X57767Y210827D01*
X57763Y210822D01*
X57721Y210713D01*
X57677Y210604D01*
X57676Y210597D01*
X57675Y210592D01*
X57674Y210574D01*
X57659Y210438D01*
X57659Y172954D01*
X57678Y172839D01*
X57695Y172723D01*
X57697Y172717D01*
X57698Y172711D01*
X57753Y172608D01*
X57806Y172503D01*
X57811Y172499D01*
X57814Y172494D01*
X57898Y172414D01*
X57982Y172331D01*
X57988Y172328D01*
X57992Y172324D01*
X58009Y172316D01*
X58129Y172250D01*
X59781Y171566D01*
X62854Y168493D01*
X64517Y164479D01*
X64517Y160133D01*
X62854Y156119D01*
X59781Y153046D01*
X58129Y152362D01*
X58029Y152300D01*
X57929Y152240D01*
X57925Y152235D01*
X57920Y152232D01*
X57845Y152141D01*
X57769Y152053D01*
X57767Y152047D01*
X57763Y152043D01*
X57721Y151934D01*
X57677Y151825D01*
X57676Y151818D01*
X57675Y151813D01*
X57674Y151795D01*
X57659Y151658D01*
X57659Y148557D01*
X57673Y148467D01*
X57681Y148376D01*
X57693Y148346D01*
X57698Y148314D01*
X57741Y148234D01*
X57777Y148150D01*
X57803Y148118D01*
X57814Y148097D01*
X57837Y148075D01*
X57882Y148019D01*
X68263Y137638D01*
X68337Y137585D01*
X68406Y137525D01*
X68436Y137513D01*
X68462Y137494D01*
X68549Y137467D01*
X68634Y137433D01*
X68675Y137429D01*
X68698Y137422D01*
X68730Y137423D01*
X68801Y137415D01*
X118651Y137415D01*
X118741Y137429D01*
X118832Y137437D01*
X118862Y137449D01*
X118894Y137454D01*
X118974Y137497D01*
X119058Y137533D01*
X119090Y137559D01*
X119111Y137570D01*
X119133Y137593D01*
X119189Y137638D01*
X151732Y170181D01*
X154653Y170181D01*
X154723Y170192D01*
X154795Y170194D01*
X154844Y170212D01*
X154895Y170220D01*
X154959Y170254D01*
X155026Y170279D01*
X155067Y170311D01*
X155113Y170336D01*
X155162Y170388D01*
X155218Y170432D01*
X155246Y170476D01*
X155282Y170514D01*
X155312Y170579D01*
X155351Y170639D01*
X155364Y170690D01*
X155386Y170737D01*
X155394Y170808D01*
X155411Y170878D01*
X155407Y170930D01*
X155413Y170981D01*
X155398Y171052D01*
X155392Y171123D01*
X155372Y171171D01*
X155361Y171222D01*
X155324Y171283D01*
X155296Y171349D01*
X155251Y171405D01*
X155234Y171433D01*
X155217Y171448D01*
X155191Y171480D01*
X154740Y171931D01*
X154405Y172511D01*
X154232Y173157D01*
X154232Y177968D01*
X160011Y177968D01*
X160031Y177971D01*
X160050Y177969D01*
X160152Y177991D01*
X160254Y178008D01*
X160271Y178017D01*
X160291Y178022D01*
X160380Y178075D01*
X160471Y178123D01*
X160485Y178137D01*
X160502Y178148D01*
X160569Y178226D01*
X160640Y178301D01*
X160649Y178319D01*
X160662Y178335D01*
X160700Y178431D01*
X160744Y178524D01*
X160746Y178544D01*
X160754Y178563D01*
X160772Y178729D01*
X160772Y179492D01*
X160774Y179492D01*
X160774Y178729D01*
X160777Y178710D01*
X160775Y178690D01*
X160797Y178589D01*
X160814Y178487D01*
X160823Y178469D01*
X160827Y178450D01*
X160880Y178361D01*
X160929Y178269D01*
X160943Y178256D01*
X160953Y178239D01*
X161032Y178171D01*
X161107Y178100D01*
X161125Y178092D01*
X161140Y178079D01*
X161236Y178040D01*
X161330Y177996D01*
X161350Y177994D01*
X161368Y177987D01*
X161535Y177968D01*
X167314Y177968D01*
X167314Y173157D01*
X167141Y172511D01*
X166806Y171931D01*
X166355Y171480D01*
X166313Y171422D01*
X166264Y171370D01*
X166242Y171323D01*
X166211Y171281D01*
X166190Y171212D01*
X166160Y171147D01*
X166154Y171095D01*
X166139Y171045D01*
X166141Y170974D01*
X166133Y170903D01*
X166144Y170852D01*
X166145Y170800D01*
X166170Y170732D01*
X166185Y170662D01*
X166212Y170617D01*
X166230Y170569D01*
X166275Y170513D01*
X166311Y170451D01*
X166351Y170417D01*
X166383Y170377D01*
X166444Y170338D01*
X166498Y170291D01*
X166547Y170272D01*
X166590Y170244D01*
X166660Y170226D01*
X166726Y170199D01*
X166798Y170191D01*
X166829Y170183D01*
X166852Y170185D01*
X166893Y170181D01*
X173947Y170181D01*
X173967Y170184D01*
X173986Y170182D01*
X174088Y170204D01*
X174190Y170220D01*
X174207Y170230D01*
X174227Y170234D01*
X174316Y170287D01*
X174407Y170336D01*
X174421Y170350D01*
X174438Y170360D01*
X174505Y170439D01*
X174576Y170514D01*
X174585Y170532D01*
X174598Y170547D01*
X174637Y170643D01*
X174680Y170737D01*
X174682Y170757D01*
X174690Y170775D01*
X174708Y170942D01*
X174708Y171205D01*
X174705Y171225D01*
X174707Y171245D01*
X174685Y171346D01*
X174668Y171448D01*
X174659Y171466D01*
X174655Y171485D01*
X174602Y171574D01*
X174553Y171666D01*
X174539Y171679D01*
X174529Y171696D01*
X174450Y171764D01*
X174375Y171835D01*
X174357Y171843D01*
X174342Y171856D01*
X174246Y171895D01*
X174185Y171923D01*
X173248Y172860D01*
X173248Y186123D01*
X174179Y187054D01*
X174190Y187056D01*
X174207Y187065D01*
X174227Y187069D01*
X174316Y187123D01*
X174407Y187171D01*
X174421Y187185D01*
X174438Y187196D01*
X174505Y187274D01*
X174576Y187349D01*
X174585Y187367D01*
X174598Y187383D01*
X174637Y187479D01*
X174680Y187572D01*
X174682Y187592D01*
X174690Y187611D01*
X174708Y187777D01*
X174708Y197536D01*
X174705Y197556D01*
X174707Y197575D01*
X174685Y197677D01*
X174668Y197779D01*
X174659Y197796D01*
X174655Y197816D01*
X174602Y197905D01*
X174553Y197996D01*
X174539Y198010D01*
X174529Y198027D01*
X174450Y198094D01*
X174375Y198166D01*
X174357Y198174D01*
X174342Y198187D01*
X174246Y198226D01*
X174167Y198262D01*
X173239Y199190D01*
X173239Y212454D01*
X174132Y213347D01*
X174145Y213347D01*
X174165Y213350D01*
X174185Y213348D01*
X174286Y213370D01*
X174388Y213386D01*
X174405Y213396D01*
X174425Y213400D01*
X174514Y213453D01*
X174605Y213502D01*
X174619Y213516D01*
X174636Y213526D01*
X174703Y213605D01*
X174775Y213680D01*
X174783Y213698D01*
X174796Y213713D01*
X174835Y213809D01*
X174878Y213903D01*
X174880Y213923D01*
X174888Y213941D01*
X174906Y214108D01*
X174906Y222685D01*
X174937Y222716D01*
X174991Y222790D01*
X175050Y222859D01*
X175062Y222889D01*
X175081Y222916D01*
X175108Y223002D01*
X175142Y223087D01*
X175146Y223128D01*
X175153Y223151D01*
X175152Y223183D01*
X175160Y223254D01*
X175160Y227983D01*
X176054Y228876D01*
X181889Y228876D01*
X182782Y227983D01*
X182782Y223254D01*
X182797Y223164D01*
X182804Y223073D01*
X182816Y223043D01*
X182822Y223011D01*
X182864Y222931D01*
X182900Y222847D01*
X182926Y222815D01*
X182937Y222794D01*
X182960Y222772D01*
X183005Y222716D01*
X183036Y222685D01*
X183036Y214021D01*
X183051Y213931D01*
X183058Y213840D01*
X183070Y213811D01*
X183076Y213779D01*
X183118Y213698D01*
X183154Y213614D01*
X183180Y213582D01*
X183191Y213561D01*
X183214Y213539D01*
X183259Y213483D01*
X184288Y212454D01*
X184288Y199190D01*
X183355Y198257D01*
X183339Y198248D01*
X183319Y198244D01*
X183230Y198191D01*
X183139Y198142D01*
X183125Y198128D01*
X183108Y198118D01*
X183041Y198039D01*
X182969Y197964D01*
X182961Y197946D01*
X182948Y197931D01*
X182909Y197835D01*
X182866Y197741D01*
X182864Y197721D01*
X182856Y197703D01*
X182838Y197536D01*
X182838Y187777D01*
X182841Y187758D01*
X182839Y187738D01*
X182861Y187637D01*
X182877Y187535D01*
X182887Y187517D01*
X182891Y187498D01*
X182944Y187409D01*
X182992Y187317D01*
X183007Y187304D01*
X183017Y187286D01*
X183096Y187219D01*
X183171Y187148D01*
X183189Y187140D01*
X183204Y187127D01*
X183300Y187088D01*
X183361Y187060D01*
X184298Y186123D01*
X184298Y172860D01*
X183366Y171929D01*
X183356Y171927D01*
X183339Y171918D01*
X183319Y171913D01*
X183230Y171860D01*
X183139Y171812D01*
X183125Y171797D01*
X183108Y171787D01*
X183041Y171709D01*
X182969Y171634D01*
X182961Y171615D01*
X182948Y171600D01*
X182909Y171504D01*
X182866Y171410D01*
X182864Y171391D01*
X182856Y171372D01*
X182838Y171205D01*
X182838Y160095D01*
X182839Y160088D01*
X182840Y160083D01*
X182852Y160005D01*
X182860Y159914D01*
X182872Y159885D01*
X182877Y159853D01*
X182920Y159772D01*
X182956Y159688D01*
X182982Y159656D01*
X182992Y159635D01*
X183016Y159613D01*
X183061Y159557D01*
X183776Y158841D01*
X183776Y157036D01*
X183779Y157016D01*
X183777Y156996D01*
X183799Y156895D01*
X183816Y156793D01*
X183825Y156776D01*
X183830Y156756D01*
X183883Y156667D01*
X183931Y156576D01*
X183946Y156562D01*
X183956Y156545D01*
X184034Y156478D01*
X184109Y156406D01*
X184127Y156398D01*
X184143Y156385D01*
X184239Y156346D01*
X184333Y156303D01*
X184352Y156301D01*
X184371Y156293D01*
X184538Y156275D01*
X188861Y156275D01*
X188951Y156289D01*
X189042Y156296D01*
X189072Y156309D01*
X189104Y156314D01*
X189185Y156357D01*
X189269Y156393D01*
X189301Y156418D01*
X189321Y156429D01*
X189343Y156453D01*
X189400Y156498D01*
X189884Y156982D01*
X209969Y156982D01*
X210009Y156942D01*
X210083Y156889D01*
X210152Y156829D01*
X210182Y156817D01*
X210209Y156798D01*
X210296Y156771D01*
X210381Y156737D01*
X210421Y156733D01*
X210444Y156726D01*
X210476Y156727D01*
X210547Y156719D01*
X213669Y156719D01*
X213759Y156733D01*
X213850Y156741D01*
X213879Y156753D01*
X213911Y156758D01*
X213992Y156801D01*
X214076Y156837D01*
X214108Y156863D01*
X214129Y156874D01*
X214151Y156897D01*
X214207Y156942D01*
X215226Y157961D01*
X219430Y157961D01*
X219501Y157972D01*
X219572Y157974D01*
X219621Y157992D01*
X219673Y158000D01*
X219736Y158034D01*
X219803Y158059D01*
X219844Y158091D01*
X219890Y158116D01*
X219939Y158168D01*
X219995Y158212D01*
X220024Y158256D01*
X220059Y158294D01*
X220090Y158359D01*
X220128Y158419D01*
X220141Y158470D01*
X220163Y158517D01*
X220171Y158588D01*
X220188Y158658D01*
X220184Y158710D01*
X220190Y158761D01*
X220175Y158832D01*
X220169Y158903D01*
X220149Y158951D01*
X220138Y159002D01*
X220101Y159063D01*
X220073Y159129D01*
X220028Y159185D01*
X220012Y159213D01*
X219994Y159228D01*
X219968Y159260D01*
X217343Y161886D01*
X217269Y161939D01*
X217199Y161998D01*
X217169Y162010D01*
X217143Y162029D01*
X217056Y162056D01*
X216971Y162090D01*
X216930Y162095D01*
X216908Y162102D01*
X216876Y162101D01*
X216804Y162109D01*
X211760Y162109D01*
X211670Y162094D01*
X211579Y162087D01*
X211549Y162074D01*
X211517Y162069D01*
X211436Y162026D01*
X211353Y161991D01*
X211320Y161965D01*
X211300Y161954D01*
X211278Y161930D01*
X211222Y161886D01*
X209969Y160633D01*
X189884Y160633D01*
X188552Y161965D01*
X188552Y168350D01*
X189884Y169682D01*
X209969Y169682D01*
X211222Y168429D01*
X211296Y168376D01*
X211365Y168317D01*
X211395Y168304D01*
X211421Y168286D01*
X211508Y168259D01*
X211593Y168225D01*
X211634Y168220D01*
X211656Y168213D01*
X211689Y168214D01*
X211760Y168206D01*
X219645Y168206D01*
X232411Y155441D01*
X232411Y135853D01*
X217184Y120626D01*
X209761Y120626D01*
X209741Y120623D01*
X209721Y120625D01*
X209620Y120603D01*
X209518Y120586D01*
X209500Y120577D01*
X209481Y120572D01*
X209392Y120519D01*
X209301Y120471D01*
X209287Y120457D01*
X209270Y120446D01*
X209202Y120368D01*
X209131Y120293D01*
X209123Y120275D01*
X209110Y120259D01*
X209071Y120163D01*
X209028Y120070D01*
X209025Y120050D01*
X209018Y120031D01*
X208999Y119865D01*
X208999Y117043D01*
X208106Y116150D01*
X198843Y116150D01*
G37*
%LPD*%
%LPC*%
G36*
X239284Y173333D02*
X239284Y173333D01*
X237952Y174665D01*
X237952Y181050D01*
X239284Y182382D01*
X259369Y182382D01*
X260622Y181129D01*
X260696Y181076D01*
X260765Y181017D01*
X260795Y181004D01*
X260821Y180986D01*
X260908Y180959D01*
X260993Y180925D01*
X261034Y180920D01*
X261056Y180913D01*
X261089Y180914D01*
X261160Y180906D01*
X264163Y180906D01*
X264253Y180921D01*
X264344Y180928D01*
X264374Y180941D01*
X264406Y180946D01*
X264487Y180989D01*
X264571Y181024D01*
X264603Y181050D01*
X264623Y181061D01*
X264646Y181084D01*
X264702Y181129D01*
X266897Y183325D01*
X284392Y183325D01*
X284412Y183328D01*
X284431Y183326D01*
X284533Y183348D01*
X284635Y183365D01*
X284652Y183374D01*
X284672Y183378D01*
X284761Y183431D01*
X284852Y183480D01*
X284866Y183494D01*
X284883Y183504D01*
X284950Y183583D01*
X285021Y183658D01*
X285030Y183676D01*
X285043Y183691D01*
X285082Y183787D01*
X285125Y183881D01*
X285127Y183901D01*
X285135Y183919D01*
X285153Y184086D01*
X285153Y184908D01*
X286046Y185801D01*
X288868Y185801D01*
X288888Y185804D01*
X288907Y185802D01*
X289009Y185824D01*
X289111Y185841D01*
X289128Y185850D01*
X289148Y185854D01*
X289237Y185907D01*
X289328Y185956D01*
X289342Y185970D01*
X289359Y185980D01*
X289426Y186059D01*
X289497Y186134D01*
X289506Y186152D01*
X289519Y186167D01*
X289558Y186263D01*
X289601Y186357D01*
X289603Y186377D01*
X289611Y186395D01*
X289629Y186562D01*
X289629Y199452D01*
X289626Y199472D01*
X289628Y199491D01*
X289606Y199593D01*
X289589Y199695D01*
X289580Y199712D01*
X289576Y199732D01*
X289523Y199821D01*
X289474Y199912D01*
X289460Y199926D01*
X289450Y199943D01*
X289371Y200010D01*
X289296Y200081D01*
X289278Y200090D01*
X289263Y200103D01*
X289167Y200142D01*
X289073Y200185D01*
X289053Y200187D01*
X289035Y200195D01*
X288868Y200213D01*
X285426Y200213D01*
X284533Y201106D01*
X284533Y210064D01*
X284521Y210135D01*
X284519Y210206D01*
X284501Y210255D01*
X284493Y210307D01*
X284459Y210370D01*
X284435Y210437D01*
X284402Y210478D01*
X284378Y210524D01*
X284326Y210573D01*
X284281Y210629D01*
X284237Y210657D01*
X284199Y210693D01*
X284134Y210723D01*
X284074Y210762D01*
X284024Y210775D01*
X283976Y210797D01*
X283905Y210805D01*
X283836Y210822D01*
X283784Y210818D01*
X283732Y210824D01*
X283662Y210809D01*
X283590Y210803D01*
X283543Y210783D01*
X283492Y210772D01*
X283430Y210735D01*
X283364Y210707D01*
X283308Y210662D01*
X283280Y210646D01*
X283265Y210628D01*
X283233Y210602D01*
X262345Y189714D01*
X260924Y188293D01*
X260871Y188219D01*
X260811Y188150D01*
X260799Y188119D01*
X260780Y188093D01*
X260754Y188006D01*
X260720Y187921D01*
X260715Y187880D01*
X260708Y187858D01*
X260709Y187826D01*
X260701Y187755D01*
X260701Y187365D01*
X259369Y186033D01*
X239284Y186033D01*
X239047Y186270D01*
X238973Y186323D01*
X238904Y186382D01*
X238874Y186394D01*
X238847Y186413D01*
X238760Y186440D01*
X238676Y186474D01*
X238635Y186479D01*
X238612Y186486D01*
X238580Y186485D01*
X238509Y186493D01*
X236700Y186493D01*
X236680Y186489D01*
X236661Y186492D01*
X236559Y186470D01*
X236457Y186453D01*
X236440Y186444D01*
X236420Y186439D01*
X236331Y186386D01*
X236240Y186338D01*
X236226Y186323D01*
X236209Y186313D01*
X236142Y186234D01*
X236070Y186159D01*
X236062Y186141D01*
X236049Y186126D01*
X236010Y186030D01*
X235967Y185936D01*
X235965Y185917D01*
X235957Y185898D01*
X235939Y185731D01*
X235939Y185254D01*
X232830Y182145D01*
X228434Y182145D01*
X225325Y185254D01*
X225325Y189650D01*
X228434Y192759D01*
X229875Y192759D01*
X229965Y192773D01*
X230056Y192781D01*
X230086Y192793D01*
X230118Y192798D01*
X230198Y192841D01*
X230282Y192877D01*
X230314Y192903D01*
X230335Y192914D01*
X230357Y192937D01*
X230413Y192982D01*
X232054Y194622D01*
X238509Y194622D01*
X238599Y194637D01*
X238690Y194644D01*
X238720Y194657D01*
X238752Y194662D01*
X238832Y194705D01*
X238916Y194740D01*
X238948Y194766D01*
X238969Y194777D01*
X238991Y194800D01*
X239047Y194845D01*
X239284Y195082D01*
X258775Y195082D01*
X258865Y195097D01*
X258956Y195104D01*
X258985Y195117D01*
X259017Y195122D01*
X259098Y195165D01*
X259182Y195200D01*
X259214Y195226D01*
X259235Y195237D01*
X259257Y195260D01*
X259313Y195305D01*
X284310Y220302D01*
X284363Y220376D01*
X284422Y220445D01*
X284434Y220475D01*
X284453Y220502D01*
X284480Y220588D01*
X284514Y220673D01*
X284519Y220714D01*
X284526Y220737D01*
X284525Y220769D01*
X284533Y220840D01*
X284533Y228369D01*
X285426Y229263D01*
X298689Y229263D01*
X299582Y228369D01*
X299582Y219106D01*
X298689Y218213D01*
X291160Y218213D01*
X291069Y218198D01*
X290979Y218191D01*
X290949Y218179D01*
X290917Y218173D01*
X290836Y218131D01*
X290752Y218095D01*
X290720Y218069D01*
X290699Y218058D01*
X290677Y218035D01*
X290621Y217990D01*
X285193Y212562D01*
X285151Y212504D01*
X285102Y212452D01*
X285080Y212405D01*
X285050Y212362D01*
X285029Y212294D01*
X284998Y212229D01*
X284993Y212177D01*
X284977Y212127D01*
X284979Y212056D01*
X284971Y211984D01*
X284982Y211934D01*
X284984Y211881D01*
X285008Y211814D01*
X285024Y211744D01*
X285050Y211699D01*
X285068Y211650D01*
X285113Y211594D01*
X285150Y211533D01*
X285189Y211499D01*
X285222Y211458D01*
X285282Y211420D01*
X285337Y211373D01*
X285385Y211354D01*
X285429Y211325D01*
X285498Y211308D01*
X285565Y211281D01*
X285636Y211273D01*
X285667Y211265D01*
X285691Y211267D01*
X285731Y211263D01*
X298689Y211263D01*
X299582Y210369D01*
X299582Y201106D01*
X298689Y200213D01*
X296488Y200213D01*
X296468Y200210D01*
X296448Y200212D01*
X296347Y200190D01*
X296245Y200173D01*
X296228Y200164D01*
X296208Y200160D01*
X296119Y200107D01*
X296028Y200058D01*
X296014Y200044D01*
X295997Y200034D01*
X295930Y199955D01*
X295858Y199880D01*
X295850Y199862D01*
X295837Y199847D01*
X295798Y199751D01*
X295755Y199657D01*
X295753Y199637D01*
X295745Y199619D01*
X295727Y199452D01*
X295727Y186562D01*
X295730Y186542D01*
X295728Y186523D01*
X295750Y186421D01*
X295766Y186319D01*
X295776Y186302D01*
X295780Y186282D01*
X295833Y186193D01*
X295881Y186102D01*
X295896Y186088D01*
X295906Y186071D01*
X295985Y186004D01*
X296060Y185933D01*
X296078Y185924D01*
X296093Y185911D01*
X296189Y185872D01*
X296283Y185829D01*
X296303Y185827D01*
X296321Y185819D01*
X296488Y185801D01*
X299309Y185801D01*
X300203Y184908D01*
X300203Y175644D01*
X299309Y174751D01*
X286046Y174751D01*
X285153Y175644D01*
X285153Y176466D01*
X285150Y176486D01*
X285152Y176506D01*
X285130Y176607D01*
X285113Y176709D01*
X285104Y176726D01*
X285100Y176746D01*
X285047Y176835D01*
X284998Y176926D01*
X284984Y176940D01*
X284974Y176957D01*
X284895Y177024D01*
X284820Y177096D01*
X284802Y177104D01*
X284787Y177117D01*
X284691Y177156D01*
X284597Y177199D01*
X284577Y177201D01*
X284559Y177209D01*
X284392Y177227D01*
X269738Y177227D01*
X269648Y177213D01*
X269557Y177205D01*
X269527Y177193D01*
X269495Y177188D01*
X269415Y177145D01*
X269331Y177109D01*
X269299Y177083D01*
X269278Y177072D01*
X269256Y177049D01*
X269200Y177004D01*
X267004Y174809D01*
X261160Y174809D01*
X261070Y174794D01*
X260979Y174787D01*
X260949Y174774D01*
X260917Y174769D01*
X260836Y174726D01*
X260753Y174691D01*
X260720Y174665D01*
X260700Y174654D01*
X260678Y174630D01*
X260622Y174586D01*
X259369Y173333D01*
X239284Y173333D01*
G37*
%LPD*%
%LPC*%
G36*
X286046Y156751D02*
X286046Y156751D01*
X285153Y157644D01*
X285153Y158466D01*
X285150Y158486D01*
X285152Y158506D01*
X285130Y158607D01*
X285113Y158709D01*
X285104Y158726D01*
X285100Y158746D01*
X285047Y158835D01*
X284998Y158926D01*
X284984Y158940D01*
X284974Y158957D01*
X284895Y159024D01*
X284820Y159096D01*
X284802Y159104D01*
X284787Y159117D01*
X284691Y159156D01*
X284597Y159199D01*
X284577Y159201D01*
X284559Y159209D01*
X284392Y159227D01*
X266439Y159227D01*
X264430Y161236D01*
X263780Y161886D01*
X263707Y161939D01*
X263637Y161998D01*
X263607Y162010D01*
X263581Y162029D01*
X263494Y162056D01*
X263409Y162090D01*
X263368Y162095D01*
X263346Y162102D01*
X263313Y162101D01*
X263242Y162109D01*
X261160Y162109D01*
X261070Y162094D01*
X260979Y162087D01*
X260949Y162074D01*
X260917Y162069D01*
X260836Y162026D01*
X260752Y161991D01*
X260720Y161965D01*
X260700Y161954D01*
X260678Y161931D01*
X260622Y161886D01*
X259369Y160633D01*
X239284Y160633D01*
X238031Y161886D01*
X237957Y161939D01*
X237888Y161998D01*
X237858Y162010D01*
X237831Y162029D01*
X237744Y162056D01*
X237660Y162090D01*
X237619Y162095D01*
X237596Y162102D01*
X237564Y162101D01*
X237493Y162109D01*
X230074Y162109D01*
X217597Y174586D01*
X217523Y174639D01*
X217453Y174698D01*
X217423Y174710D01*
X217397Y174729D01*
X217310Y174756D01*
X217225Y174790D01*
X217184Y174795D01*
X217162Y174802D01*
X217130Y174801D01*
X217058Y174809D01*
X211760Y174809D01*
X211670Y174794D01*
X211579Y174787D01*
X211549Y174774D01*
X211517Y174769D01*
X211436Y174726D01*
X211352Y174691D01*
X211320Y174665D01*
X211300Y174654D01*
X211278Y174631D01*
X211222Y174586D01*
X209969Y173333D01*
X189884Y173333D01*
X188552Y174665D01*
X188552Y181050D01*
X189884Y182382D01*
X210009Y182382D01*
X210064Y182343D01*
X210083Y182337D01*
X210100Y182326D01*
X210200Y182301D01*
X210299Y182270D01*
X210319Y182271D01*
X210338Y182266D01*
X210441Y182274D01*
X210545Y182277D01*
X210564Y182284D01*
X210584Y182285D01*
X210679Y182326D01*
X210776Y182361D01*
X210792Y182374D01*
X210810Y182382D01*
X210941Y182486D01*
X216906Y188452D01*
X216959Y188526D01*
X217019Y188595D01*
X217031Y188625D01*
X217050Y188652D01*
X217077Y188739D01*
X217111Y188823D01*
X217115Y188864D01*
X217122Y188887D01*
X217121Y188919D01*
X217129Y188990D01*
X217129Y206145D01*
X217126Y206164D01*
X217128Y206184D01*
X217106Y206285D01*
X217090Y206387D01*
X217080Y206405D01*
X217076Y206424D01*
X217023Y206513D01*
X216974Y206605D01*
X216960Y206618D01*
X216950Y206636D01*
X216871Y206703D01*
X216796Y206774D01*
X216778Y206782D01*
X216763Y206795D01*
X216667Y206834D01*
X216573Y206878D01*
X216553Y206880D01*
X216535Y206887D01*
X216368Y206906D01*
X212046Y206906D01*
X211153Y207799D01*
X211153Y222062D01*
X212046Y222955D01*
X228310Y222955D01*
X229203Y222062D01*
X229203Y207799D01*
X228310Y206906D01*
X223988Y206906D01*
X223968Y206903D01*
X223949Y206905D01*
X223847Y206883D01*
X223745Y206866D01*
X223728Y206857D01*
X223708Y206853D01*
X223619Y206799D01*
X223528Y206751D01*
X223514Y206737D01*
X223497Y206726D01*
X223430Y206648D01*
X223358Y206573D01*
X223350Y206555D01*
X223337Y206539D01*
X223298Y206443D01*
X223255Y206350D01*
X223253Y206330D01*
X223245Y206311D01*
X223227Y206145D01*
X223227Y186149D01*
X219283Y182206D01*
X219241Y182147D01*
X219192Y182095D01*
X219170Y182048D01*
X219140Y182006D01*
X219119Y181937D01*
X219088Y181872D01*
X219083Y181821D01*
X219067Y181771D01*
X219069Y181699D01*
X219061Y181628D01*
X219072Y181577D01*
X219074Y181525D01*
X219098Y181458D01*
X219114Y181388D01*
X219140Y181343D01*
X219158Y181294D01*
X219203Y181238D01*
X219240Y181176D01*
X219279Y181143D01*
X219312Y181102D01*
X219372Y181063D01*
X219427Y181017D01*
X219475Y180997D01*
X219519Y180969D01*
X219588Y180951D01*
X219655Y180925D01*
X219726Y180917D01*
X219757Y180909D01*
X219781Y180911D01*
X219822Y180906D01*
X219899Y180906D01*
X232376Y168429D01*
X232450Y168376D01*
X232520Y168317D01*
X232550Y168304D01*
X232576Y168286D01*
X232663Y168259D01*
X232748Y168225D01*
X232789Y168220D01*
X232811Y168213D01*
X232843Y168214D01*
X232915Y168206D01*
X237493Y168206D01*
X237583Y168221D01*
X237674Y168228D01*
X237704Y168241D01*
X237736Y168246D01*
X237816Y168289D01*
X237900Y168324D01*
X237932Y168350D01*
X237953Y168361D01*
X237975Y168384D01*
X238031Y168429D01*
X239284Y169682D01*
X259369Y169682D01*
X260622Y168429D01*
X260696Y168376D01*
X260765Y168317D01*
X260795Y168304D01*
X260821Y168286D01*
X260908Y168259D01*
X260993Y168225D01*
X261034Y168220D01*
X261056Y168213D01*
X261089Y168214D01*
X261160Y168206D01*
X266083Y168206D01*
X268092Y166197D01*
X268742Y165548D01*
X268815Y165495D01*
X268885Y165435D01*
X268915Y165423D01*
X268941Y165404D01*
X269028Y165377D01*
X269113Y165343D01*
X269154Y165339D01*
X269176Y165332D01*
X269209Y165333D01*
X269280Y165325D01*
X284392Y165325D01*
X284412Y165328D01*
X284431Y165326D01*
X284533Y165348D01*
X284635Y165365D01*
X284652Y165374D01*
X284672Y165378D01*
X284761Y165431D01*
X284852Y165480D01*
X284866Y165494D01*
X284883Y165504D01*
X284950Y165583D01*
X285021Y165658D01*
X285030Y165676D01*
X285043Y165691D01*
X285082Y165787D01*
X285125Y165881D01*
X285127Y165901D01*
X285135Y165919D01*
X285153Y166086D01*
X285153Y166908D01*
X286046Y167801D01*
X299309Y167801D01*
X300203Y166908D01*
X300203Y157644D01*
X299309Y156751D01*
X286046Y156751D01*
G37*
%LPD*%
%LPC*%
G36*
X182993Y61721D02*
X182993Y61721D01*
X178979Y63384D01*
X175906Y66457D01*
X174801Y69125D01*
X174739Y69225D01*
X174679Y69325D01*
X174674Y69329D01*
X174671Y69334D01*
X174582Y69409D01*
X174492Y69485D01*
X174486Y69487D01*
X174482Y69491D01*
X174374Y69533D01*
X174264Y69577D01*
X174257Y69578D01*
X174252Y69579D01*
X174234Y69580D01*
X174097Y69595D01*
X154114Y69595D01*
X154094Y69592D01*
X154074Y69594D01*
X153973Y69572D01*
X153871Y69556D01*
X153853Y69546D01*
X153834Y69542D01*
X153745Y69489D01*
X153654Y69440D01*
X153640Y69426D01*
X153623Y69416D01*
X153555Y69337D01*
X153484Y69262D01*
X153476Y69244D01*
X153463Y69229D01*
X153424Y69133D01*
X153381Y69039D01*
X153378Y69019D01*
X153371Y69001D01*
X153367Y68961D01*
X152459Y68054D01*
X142896Y68054D01*
X142003Y68947D01*
X142003Y76510D01*
X142896Y77403D01*
X152459Y77403D01*
X153352Y76510D01*
X153352Y76454D01*
X153356Y76434D01*
X153353Y76415D01*
X153375Y76313D01*
X153392Y76211D01*
X153401Y76194D01*
X153406Y76174D01*
X153459Y76085D01*
X153507Y75994D01*
X153522Y75980D01*
X153532Y75963D01*
X153611Y75896D01*
X153686Y75824D01*
X153704Y75816D01*
X153719Y75803D01*
X153815Y75764D01*
X153909Y75721D01*
X153928Y75719D01*
X153947Y75711D01*
X154114Y75693D01*
X174097Y75693D01*
X174212Y75712D01*
X174328Y75729D01*
X174334Y75731D01*
X174340Y75732D01*
X174443Y75787D01*
X174548Y75840D01*
X174552Y75845D01*
X174558Y75848D01*
X174637Y75932D01*
X174720Y76016D01*
X174724Y76022D01*
X174727Y76026D01*
X174735Y76043D01*
X174801Y76163D01*
X175906Y78831D01*
X178979Y81904D01*
X181956Y83137D01*
X182055Y83199D01*
X182156Y83259D01*
X182160Y83263D01*
X182165Y83267D01*
X182239Y83356D01*
X182316Y83446D01*
X182318Y83451D01*
X182322Y83456D01*
X182363Y83564D01*
X182408Y83674D01*
X182408Y83681D01*
X182410Y83686D01*
X182411Y83704D01*
X182426Y83840D01*
X182426Y115389D01*
X182423Y115408D01*
X182425Y115428D01*
X182403Y115529D01*
X182386Y115631D01*
X182377Y115649D01*
X182373Y115668D01*
X182319Y115757D01*
X182271Y115849D01*
X182257Y115862D01*
X182247Y115879D01*
X182168Y115947D01*
X182093Y116018D01*
X182075Y116026D01*
X182060Y116039D01*
X181963Y116078D01*
X181870Y116122D01*
X181850Y116124D01*
X181831Y116131D01*
X181665Y116150D01*
X180843Y116150D01*
X179950Y117043D01*
X179950Y130306D01*
X180843Y131199D01*
X190106Y131199D01*
X190999Y130306D01*
X190999Y117043D01*
X190106Y116150D01*
X189285Y116150D01*
X189265Y116147D01*
X189245Y116149D01*
X189144Y116127D01*
X189042Y116110D01*
X189024Y116101D01*
X189005Y116096D01*
X188916Y116043D01*
X188825Y115995D01*
X188811Y115981D01*
X188794Y115970D01*
X188726Y115892D01*
X188655Y115817D01*
X188647Y115799D01*
X188634Y115783D01*
X188595Y115687D01*
X188552Y115594D01*
X188549Y115574D01*
X188542Y115555D01*
X188523Y115389D01*
X188523Y83585D01*
X188542Y83470D01*
X188559Y83354D01*
X188562Y83348D01*
X188563Y83342D01*
X188618Y83239D01*
X188671Y83134D01*
X188675Y83130D01*
X188678Y83125D01*
X188762Y83045D01*
X188846Y82962D01*
X188853Y82959D01*
X188857Y82955D01*
X188873Y82947D01*
X188993Y82881D01*
X191353Y81904D01*
X194426Y78831D01*
X196089Y74817D01*
X196089Y70471D01*
X194426Y66457D01*
X191353Y63384D01*
X187339Y61721D01*
X182993Y61721D01*
G37*
%LPD*%
%LPC*%
G36*
X116800Y87402D02*
X116800Y87402D01*
X115907Y88295D01*
X115907Y91617D01*
X115904Y91636D01*
X115906Y91654D01*
X115905Y91655D01*
X115906Y91656D01*
X115884Y91758D01*
X115867Y91860D01*
X115858Y91877D01*
X115853Y91897D01*
X115800Y91986D01*
X115752Y92077D01*
X115737Y92091D01*
X115727Y92108D01*
X115648Y92175D01*
X115573Y92246D01*
X115555Y92255D01*
X115540Y92268D01*
X115444Y92307D01*
X115350Y92350D01*
X115331Y92352D01*
X115312Y92360D01*
X115145Y92378D01*
X105496Y92378D01*
X105477Y92375D01*
X105457Y92377D01*
X105356Y92355D01*
X105254Y92338D01*
X105236Y92329D01*
X105217Y92325D01*
X105127Y92272D01*
X105036Y92223D01*
X105023Y92209D01*
X105005Y92199D01*
X104938Y92120D01*
X104867Y92045D01*
X104858Y92027D01*
X104845Y92012D01*
X104807Y91916D01*
X104763Y91822D01*
X104761Y91802D01*
X104754Y91784D01*
X104735Y91617D01*
X104735Y90680D01*
X103842Y89787D01*
X90579Y89787D01*
X89686Y90680D01*
X89686Y99943D01*
X90579Y100836D01*
X103842Y100836D01*
X104735Y99943D01*
X104735Y99237D01*
X104738Y99217D01*
X104736Y99197D01*
X104758Y99096D01*
X104775Y98994D01*
X104784Y98977D01*
X104788Y98957D01*
X104842Y98868D01*
X104890Y98777D01*
X104904Y98763D01*
X104915Y98746D01*
X104993Y98679D01*
X105068Y98607D01*
X105086Y98599D01*
X105101Y98586D01*
X105198Y98547D01*
X105291Y98504D01*
X105311Y98502D01*
X105330Y98494D01*
X105496Y98476D01*
X115145Y98476D01*
X115165Y98479D01*
X115185Y98477D01*
X115286Y98499D01*
X115388Y98515D01*
X115406Y98525D01*
X115425Y98529D01*
X115514Y98582D01*
X115605Y98630D01*
X115619Y98645D01*
X115636Y98655D01*
X115704Y98734D01*
X115775Y98809D01*
X115783Y98827D01*
X115796Y98842D01*
X115835Y98938D01*
X115878Y99032D01*
X115881Y99052D01*
X115888Y99070D01*
X115907Y99237D01*
X115907Y102559D01*
X116800Y103452D01*
X133063Y103452D01*
X133956Y102559D01*
X133956Y99539D01*
X133959Y99519D01*
X133957Y99499D01*
X133979Y99398D01*
X133996Y99296D01*
X134005Y99278D01*
X134009Y99259D01*
X134063Y99170D01*
X134111Y99079D01*
X134125Y99065D01*
X134136Y99048D01*
X134214Y98980D01*
X134289Y98909D01*
X134307Y98901D01*
X134322Y98888D01*
X134419Y98849D01*
X134512Y98806D01*
X134532Y98803D01*
X134551Y98796D01*
X134717Y98777D01*
X141242Y98777D01*
X141261Y98781D01*
X141281Y98778D01*
X141382Y98800D01*
X141484Y98817D01*
X141502Y98826D01*
X141522Y98831D01*
X141611Y98884D01*
X141702Y98932D01*
X141716Y98947D01*
X141733Y98957D01*
X141800Y99036D01*
X141871Y99111D01*
X141880Y99129D01*
X141893Y99144D01*
X141931Y99240D01*
X141975Y99334D01*
X141977Y99353D01*
X141985Y99372D01*
X141999Y99507D01*
X142896Y100403D01*
X143868Y100403D01*
X143887Y100407D01*
X143907Y100404D01*
X144008Y100426D01*
X144110Y100443D01*
X144128Y100452D01*
X144148Y100457D01*
X144237Y100510D01*
X144328Y100558D01*
X144342Y100573D01*
X144359Y100583D01*
X144426Y100662D01*
X144497Y100737D01*
X144506Y100755D01*
X144519Y100770D01*
X144557Y100866D01*
X144601Y100960D01*
X144603Y100979D01*
X144611Y100998D01*
X144629Y101165D01*
X144629Y108809D01*
X162618Y126798D01*
X162671Y126872D01*
X162731Y126941D01*
X162743Y126971D01*
X162762Y126998D01*
X162789Y127085D01*
X162823Y127169D01*
X162827Y127210D01*
X162834Y127233D01*
X162833Y127265D01*
X162841Y127336D01*
X162841Y130214D01*
X165950Y133323D01*
X170346Y133323D01*
X173455Y130214D01*
X173455Y125818D01*
X170346Y122709D01*
X167468Y122709D01*
X167378Y122695D01*
X167287Y122687D01*
X167257Y122675D01*
X167225Y122670D01*
X167145Y122627D01*
X167061Y122591D01*
X167029Y122565D01*
X167008Y122554D01*
X166986Y122531D01*
X166930Y122486D01*
X150949Y106506D01*
X150896Y106432D01*
X150837Y106362D01*
X150825Y106332D01*
X150806Y106306D01*
X150779Y106219D01*
X150745Y106134D01*
X150740Y106093D01*
X150734Y106071D01*
X150734Y106039D01*
X150726Y105968D01*
X150726Y101165D01*
X150730Y101145D01*
X150727Y101125D01*
X150749Y101024D01*
X150766Y100922D01*
X150775Y100904D01*
X150780Y100885D01*
X150833Y100796D01*
X150881Y100705D01*
X150896Y100691D01*
X150906Y100674D01*
X150985Y100606D01*
X151060Y100535D01*
X151078Y100527D01*
X151093Y100514D01*
X151189Y100475D01*
X151283Y100432D01*
X151302Y100429D01*
X151321Y100422D01*
X151488Y100403D01*
X152459Y100403D01*
X153352Y99510D01*
X153352Y91947D01*
X152459Y91054D01*
X142896Y91054D01*
X142001Y91949D01*
X142002Y91958D01*
X141980Y92059D01*
X141963Y92161D01*
X141954Y92179D01*
X141950Y92199D01*
X141896Y92288D01*
X141848Y92379D01*
X141834Y92393D01*
X141824Y92410D01*
X141745Y92477D01*
X141670Y92548D01*
X141652Y92557D01*
X141637Y92570D01*
X141540Y92608D01*
X141447Y92652D01*
X141427Y92654D01*
X141408Y92662D01*
X141242Y92680D01*
X134717Y92680D01*
X134698Y92677D01*
X134678Y92679D01*
X134577Y92657D01*
X134475Y92640D01*
X134457Y92631D01*
X134437Y92627D01*
X134348Y92573D01*
X134257Y92525D01*
X134243Y92511D01*
X134226Y92501D01*
X134159Y92422D01*
X134088Y92347D01*
X134079Y92329D01*
X134066Y92314D01*
X134028Y92217D01*
X133984Y92124D01*
X133982Y92104D01*
X133975Y92085D01*
X133956Y91919D01*
X133956Y88295D01*
X133063Y87402D01*
X116800Y87402D01*
G37*
%LPD*%
%LPC*%
G36*
X286095Y120471D02*
X286095Y120471D01*
X285202Y121364D01*
X285202Y124686D01*
X285199Y124706D01*
X285201Y124725D01*
X285179Y124827D01*
X285162Y124929D01*
X285153Y124946D01*
X285149Y124966D01*
X285096Y125055D01*
X285047Y125146D01*
X285033Y125160D01*
X285023Y125177D01*
X284944Y125244D01*
X284869Y125315D01*
X284851Y125324D01*
X284836Y125337D01*
X284740Y125375D01*
X284646Y125419D01*
X284626Y125421D01*
X284608Y125429D01*
X284441Y125447D01*
X282664Y125447D01*
X282649Y125445D01*
X281084Y125447D01*
X281083Y125447D01*
X279824Y125447D01*
X278935Y126339D01*
X278934Y126339D01*
X278934Y126340D01*
X277832Y127442D01*
X277818Y127459D01*
X257629Y147709D01*
X257555Y147763D01*
X257485Y147822D01*
X257456Y147834D01*
X257430Y147853D01*
X257342Y147880D01*
X257257Y147914D01*
X257217Y147919D01*
X257195Y147925D01*
X257163Y147925D01*
X257090Y147933D01*
X239284Y147933D01*
X237952Y149265D01*
X237952Y155650D01*
X239284Y156982D01*
X259369Y156982D01*
X260701Y155650D01*
X260701Y153579D01*
X260716Y153489D01*
X260723Y153399D01*
X260735Y153369D01*
X260741Y153336D01*
X260783Y153256D01*
X260819Y153172D01*
X260845Y153140D01*
X260856Y153119D01*
X260879Y153097D01*
X260923Y153041D01*
X282132Y131768D01*
X282206Y131715D01*
X282276Y131655D01*
X282305Y131643D01*
X282331Y131625D01*
X282419Y131597D01*
X282504Y131563D01*
X282544Y131559D01*
X282566Y131552D01*
X282598Y131553D01*
X282671Y131545D01*
X284441Y131545D01*
X284461Y131548D01*
X284480Y131546D01*
X284582Y131568D01*
X284684Y131584D01*
X284701Y131594D01*
X284721Y131598D01*
X284810Y131651D01*
X284901Y131699D01*
X284915Y131714D01*
X284932Y131724D01*
X284999Y131803D01*
X285070Y131878D01*
X285079Y131896D01*
X285092Y131911D01*
X285131Y132007D01*
X285174Y132101D01*
X285176Y132121D01*
X285184Y132139D01*
X285202Y132306D01*
X285202Y135627D01*
X286095Y136521D01*
X302358Y136521D01*
X303252Y135627D01*
X303252Y121364D01*
X302358Y120471D01*
X286095Y120471D01*
G37*
%LPD*%
%LPC*%
G36*
X76821Y151383D02*
X76821Y151383D01*
X72807Y153046D01*
X69734Y156119D01*
X68071Y160133D01*
X68071Y164479D01*
X69734Y168493D01*
X72807Y171566D01*
X76821Y173229D01*
X81167Y173229D01*
X85181Y171566D01*
X88254Y168493D01*
X89359Y165825D01*
X89421Y165725D01*
X89481Y165625D01*
X89485Y165621D01*
X89489Y165616D01*
X89579Y165541D01*
X89668Y165465D01*
X89673Y165463D01*
X89678Y165459D01*
X89787Y165417D01*
X89896Y165373D01*
X89903Y165372D01*
X89908Y165371D01*
X89926Y165370D01*
X90062Y165355D01*
X99776Y165355D01*
X99796Y165358D01*
X99815Y165356D01*
X99917Y165378D01*
X100019Y165394D01*
X100036Y165404D01*
X100056Y165408D01*
X100145Y165461D01*
X100236Y165510D01*
X100250Y165524D01*
X100267Y165534D01*
X100334Y165613D01*
X100406Y165688D01*
X100414Y165706D01*
X100427Y165721D01*
X100466Y165817D01*
X100509Y165911D01*
X100511Y165931D01*
X100519Y165949D01*
X100537Y166116D01*
X100537Y168938D01*
X101430Y169831D01*
X110694Y169831D01*
X111587Y168938D01*
X111587Y155674D01*
X110694Y154781D01*
X101430Y154781D01*
X100537Y155674D01*
X100537Y158496D01*
X100534Y158516D01*
X100536Y158535D01*
X100514Y158637D01*
X100498Y158739D01*
X100488Y158756D01*
X100484Y158776D01*
X100431Y158865D01*
X100382Y158956D01*
X100368Y158970D01*
X100358Y158987D01*
X100279Y159054D01*
X100204Y159126D01*
X100186Y159134D01*
X100171Y159147D01*
X100075Y159186D01*
X99981Y159229D01*
X99961Y159231D01*
X99943Y159239D01*
X99776Y159257D01*
X90062Y159257D01*
X89948Y159238D01*
X89832Y159221D01*
X89826Y159219D01*
X89820Y159218D01*
X89717Y159163D01*
X89612Y159110D01*
X89608Y159105D01*
X89602Y159102D01*
X89523Y159018D01*
X89440Y158934D01*
X89436Y158928D01*
X89433Y158924D01*
X89425Y158907D01*
X89359Y158787D01*
X88254Y156119D01*
X85181Y153046D01*
X81167Y151383D01*
X76821Y151383D01*
G37*
%LPD*%
%LPC*%
G36*
X29717Y163829D02*
X29717Y163829D01*
X29717Y174152D01*
X30990Y173951D01*
X32777Y173370D01*
X34451Y172517D01*
X35972Y171412D01*
X37300Y170084D01*
X38405Y168563D01*
X39258Y166889D01*
X39839Y165102D01*
X40040Y163829D01*
X29717Y163829D01*
G37*
%LPD*%
%LPC*%
G36*
X212089Y74167D02*
X212089Y74167D01*
X212089Y84490D01*
X213362Y84289D01*
X215149Y83708D01*
X216823Y82855D01*
X218344Y81750D01*
X219672Y80422D01*
X220777Y78901D01*
X221630Y77227D01*
X222211Y75440D01*
X222412Y74167D01*
X212089Y74167D01*
G37*
%LPD*%
%LPC*%
G36*
X29463Y222503D02*
X29463Y222503D01*
X29463Y232826D01*
X30736Y232625D01*
X32523Y232044D01*
X34197Y231191D01*
X35718Y230086D01*
X37046Y228758D01*
X38151Y227237D01*
X39004Y225563D01*
X39585Y223776D01*
X39786Y222503D01*
X29463Y222503D01*
G37*
%LPD*%
%LPC*%
G36*
X16094Y222503D02*
X16094Y222503D01*
X16295Y223776D01*
X16876Y225563D01*
X17729Y227237D01*
X18834Y228758D01*
X20162Y230086D01*
X21683Y231191D01*
X23357Y232044D01*
X25144Y232625D01*
X26417Y232826D01*
X26417Y222503D01*
X16094Y222503D01*
G37*
%LPD*%
%LPC*%
G36*
X29717Y160783D02*
X29717Y160783D01*
X40040Y160783D01*
X39839Y159510D01*
X39258Y157723D01*
X38405Y156049D01*
X37300Y154528D01*
X35972Y153200D01*
X34451Y152095D01*
X32777Y151242D01*
X30990Y150661D01*
X29717Y150460D01*
X29717Y160783D01*
G37*
%LPD*%
%LPC*%
G36*
X212089Y71121D02*
X212089Y71121D01*
X222412Y71121D01*
X222211Y69848D01*
X221630Y68061D01*
X220777Y66387D01*
X219672Y64866D01*
X218344Y63538D01*
X216823Y62433D01*
X215149Y61580D01*
X213362Y60999D01*
X212089Y60798D01*
X212089Y71121D01*
G37*
%LPD*%
%LPC*%
G36*
X198720Y74167D02*
X198720Y74167D01*
X198921Y75440D01*
X199502Y77227D01*
X200355Y78901D01*
X201460Y80422D01*
X202788Y81750D01*
X204309Y82855D01*
X205983Y83708D01*
X207770Y84289D01*
X209043Y84490D01*
X209043Y74167D01*
X198720Y74167D01*
G37*
%LPD*%
%LPC*%
G36*
X29463Y219457D02*
X29463Y219457D01*
X39786Y219457D01*
X39585Y218184D01*
X39004Y216397D01*
X38151Y214723D01*
X37046Y213202D01*
X35718Y211874D01*
X34197Y210769D01*
X32523Y209916D01*
X30736Y209335D01*
X29463Y209134D01*
X29463Y219457D01*
G37*
%LPD*%
%LPC*%
G36*
X16348Y163829D02*
X16348Y163829D01*
X16549Y165102D01*
X17130Y166889D01*
X17983Y168563D01*
X19088Y170084D01*
X20416Y171412D01*
X21937Y172517D01*
X23611Y173370D01*
X25398Y173951D01*
X26671Y174152D01*
X26671Y163829D01*
X16348Y163829D01*
G37*
%LPD*%
%LPC*%
G36*
X25398Y150661D02*
X25398Y150661D01*
X23611Y151242D01*
X21937Y152095D01*
X20416Y153200D01*
X19088Y154528D01*
X17983Y156049D01*
X17130Y157723D01*
X16549Y159510D01*
X16348Y160783D01*
X26671Y160783D01*
X26671Y150460D01*
X25398Y150661D01*
G37*
%LPD*%
%LPC*%
G36*
X25144Y209335D02*
X25144Y209335D01*
X23357Y209916D01*
X21683Y210769D01*
X20162Y211874D01*
X18834Y213202D01*
X17729Y214723D01*
X16876Y216397D01*
X16295Y218184D01*
X16094Y219457D01*
X26417Y219457D01*
X26417Y209134D01*
X25144Y209335D01*
G37*
%LPD*%
%LPC*%
G36*
X207770Y60999D02*
X207770Y60999D01*
X205983Y61580D01*
X204309Y62433D01*
X202788Y63538D01*
X201460Y64866D01*
X200355Y66387D01*
X199502Y68061D01*
X198921Y69848D01*
X198720Y71121D01*
X209043Y71121D01*
X209043Y60798D01*
X207770Y60999D01*
G37*
%LPD*%
%LPC*%
G36*
X228136Y307974D02*
X228136Y307974D01*
X228136Y317991D01*
X232947Y317991D01*
X233594Y317818D01*
X234173Y317484D01*
X234646Y317011D01*
X234980Y316431D01*
X235154Y315785D01*
X235154Y307974D01*
X228136Y307974D01*
G37*
%LPD*%
%LPC*%
G36*
X228136Y294910D02*
X228136Y294910D01*
X228136Y304927D01*
X235154Y304927D01*
X235154Y297116D01*
X234980Y296470D01*
X234646Y295891D01*
X234173Y295418D01*
X233594Y295083D01*
X232947Y294910D01*
X228136Y294910D01*
G37*
%LPD*%
%LPC*%
G36*
X152136Y294910D02*
X152136Y294910D01*
X152136Y304927D01*
X159154Y304927D01*
X159154Y297116D01*
X158980Y296470D01*
X158646Y295891D01*
X158173Y295418D01*
X157594Y295083D01*
X156947Y294910D01*
X152136Y294910D01*
G37*
%LPD*%
%LPC*%
G36*
X144278Y294910D02*
X144278Y294910D01*
X143632Y295083D01*
X143053Y295418D01*
X142580Y295891D01*
X142245Y296470D01*
X142072Y297116D01*
X142072Y304927D01*
X149090Y304927D01*
X149090Y294910D01*
X144278Y294910D01*
G37*
%LPD*%
%LPC*%
G36*
X126454Y77950D02*
X126454Y77950D01*
X126454Y85468D01*
X132766Y85468D01*
X133412Y85295D01*
X133991Y84960D01*
X134464Y84487D01*
X134799Y83908D01*
X134972Y83261D01*
X134972Y77950D01*
X126454Y77950D01*
G37*
%LPD*%
%LPC*%
G36*
X221701Y235454D02*
X221701Y235454D01*
X221701Y242971D01*
X228012Y242971D01*
X228659Y242798D01*
X229238Y242464D01*
X229711Y241991D01*
X230046Y241411D01*
X230219Y240765D01*
X230219Y235454D01*
X221701Y235454D01*
G37*
%LPD*%
%LPC*%
G36*
X295750Y111019D02*
X295750Y111019D01*
X295750Y118537D01*
X302061Y118537D01*
X302708Y118363D01*
X303287Y118029D01*
X303760Y117556D01*
X304094Y116977D01*
X304268Y116330D01*
X304268Y111019D01*
X295750Y111019D01*
G37*
%LPD*%
%LPC*%
G36*
X114891Y77950D02*
X114891Y77950D01*
X114891Y83261D01*
X115064Y83908D01*
X115398Y84487D01*
X115871Y84960D01*
X116451Y85295D01*
X117097Y85468D01*
X123408Y85468D01*
X123408Y77950D01*
X114891Y77950D01*
G37*
%LPD*%
%LPC*%
G36*
X210137Y235454D02*
X210137Y235454D01*
X210137Y240765D01*
X210310Y241411D01*
X210645Y241991D01*
X211118Y242464D01*
X211697Y242798D01*
X212344Y242971D01*
X218655Y242971D01*
X218655Y235454D01*
X210137Y235454D01*
G37*
%LPD*%
%LPC*%
G36*
X284186Y111019D02*
X284186Y111019D01*
X284186Y116330D01*
X284359Y116977D01*
X284694Y117556D01*
X285167Y118029D01*
X285746Y118363D01*
X286392Y118537D01*
X292704Y118537D01*
X292704Y111019D01*
X284186Y111019D01*
G37*
%LPD*%
%LPC*%
G36*
X221701Y224890D02*
X221701Y224890D01*
X221701Y232407D01*
X230219Y232407D01*
X230219Y227096D01*
X230046Y226450D01*
X229711Y225871D01*
X229238Y225397D01*
X228659Y225063D01*
X228012Y224890D01*
X221701Y224890D01*
G37*
%LPD*%
%LPC*%
G36*
X126454Y67386D02*
X126454Y67386D01*
X126454Y74904D01*
X134972Y74904D01*
X134972Y69592D01*
X134799Y68946D01*
X134464Y68367D01*
X133991Y67894D01*
X133412Y67559D01*
X132766Y67386D01*
X126454Y67386D01*
G37*
%LPD*%
%LPC*%
G36*
X295750Y100455D02*
X295750Y100455D01*
X295750Y107973D01*
X304268Y107973D01*
X304268Y102661D01*
X304094Y102015D01*
X303760Y101436D01*
X303287Y100963D01*
X302708Y100628D01*
X302061Y100455D01*
X295750Y100455D01*
G37*
%LPD*%
%LPC*%
G36*
X286392Y100455D02*
X286392Y100455D01*
X285746Y100628D01*
X285167Y100963D01*
X284694Y101436D01*
X284359Y102015D01*
X284186Y102661D01*
X284186Y107973D01*
X292704Y107973D01*
X292704Y100455D01*
X286392Y100455D01*
G37*
%LPD*%
%LPC*%
G36*
X212344Y224890D02*
X212344Y224890D01*
X211697Y225063D01*
X211118Y225397D01*
X210645Y225871D01*
X210310Y226450D01*
X210137Y227096D01*
X210137Y232407D01*
X218655Y232407D01*
X218655Y224890D01*
X212344Y224890D01*
G37*
%LPD*%
%LPC*%
G36*
X117097Y67386D02*
X117097Y67386D01*
X116451Y67559D01*
X115871Y67894D01*
X115398Y68367D01*
X115064Y68946D01*
X114891Y69592D01*
X114891Y74904D01*
X123408Y74904D01*
X123408Y67386D01*
X117097Y67386D01*
G37*
%LPD*%
%LPC*%
G36*
X201426Y192057D02*
X201426Y192057D01*
X201426Y196098D01*
X209460Y196098D01*
X210297Y195874D01*
X211047Y195441D01*
X211660Y194828D01*
X212093Y194078D01*
X212317Y193241D01*
X212317Y192057D01*
X201426Y192057D01*
G37*
%LPD*%
%LPC*%
G36*
X187536Y192057D02*
X187536Y192057D01*
X187536Y193241D01*
X187760Y194078D01*
X188193Y194828D01*
X188806Y195441D01*
X189556Y195874D01*
X190393Y196098D01*
X198427Y196098D01*
X198427Y192057D01*
X187536Y192057D01*
G37*
%LPD*%
%LPC*%
G36*
X201426Y185017D02*
X201426Y185017D01*
X201426Y189058D01*
X212317Y189058D01*
X212317Y187874D01*
X212093Y187037D01*
X211660Y186287D01*
X211047Y185674D01*
X210297Y185241D01*
X209460Y185017D01*
X201426Y185017D01*
G37*
%LPD*%
%LPC*%
G36*
X190393Y185017D02*
X190393Y185017D01*
X189556Y185241D01*
X188806Y185674D01*
X188193Y186287D01*
X187760Y187037D01*
X187536Y187874D01*
X187536Y189058D01*
X198427Y189058D01*
X198427Y185017D01*
X190393Y185017D01*
G37*
%LPD*%
%LPC*%
G36*
X158072Y282700D02*
X158072Y282700D01*
X158072Y289285D01*
X158245Y289931D01*
X158580Y290511D01*
X159053Y290984D01*
X159632Y291318D01*
X160278Y291491D01*
X162114Y291491D01*
X162114Y282700D01*
X158072Y282700D01*
G37*
%LPD*%
%LPC*%
G36*
X160278Y270910D02*
X160278Y270910D01*
X159632Y271083D01*
X159053Y271418D01*
X158580Y271891D01*
X158245Y272470D01*
X158072Y273116D01*
X158072Y279701D01*
X162114Y279701D01*
X162114Y270910D01*
X160278Y270910D01*
G37*
%LPD*%
%LPC*%
G36*
X162287Y207345D02*
X162287Y207345D01*
X162287Y214363D01*
X165098Y214363D01*
X165744Y214190D01*
X166324Y213855D01*
X166797Y213382D01*
X167131Y212803D01*
X167304Y212156D01*
X167304Y207345D01*
X162287Y207345D01*
G37*
%LPD*%
%LPC*%
G36*
X98734Y78835D02*
X98734Y78835D01*
X98734Y83852D01*
X103545Y83852D01*
X104191Y83679D01*
X104770Y83345D01*
X105243Y82872D01*
X105578Y82292D01*
X105751Y81646D01*
X105751Y78835D01*
X98734Y78835D01*
G37*
%LPD*%
%LPC*%
G36*
X162296Y181015D02*
X162296Y181015D01*
X162296Y188032D01*
X165107Y188032D01*
X165754Y187859D01*
X166333Y187525D01*
X166806Y187051D01*
X167141Y186472D01*
X167314Y185826D01*
X167314Y181015D01*
X162296Y181015D01*
G37*
%LPD*%
%LPC*%
G36*
X161775Y143669D02*
X161775Y143669D01*
X161775Y150687D01*
X166792Y150687D01*
X166792Y145875D01*
X166619Y145229D01*
X166285Y144650D01*
X165812Y144177D01*
X165232Y143842D01*
X164586Y143669D01*
X161775Y143669D01*
G37*
%LPD*%
%LPC*%
G36*
X88670Y78835D02*
X88670Y78835D01*
X88670Y81646D01*
X88843Y82292D01*
X89177Y82872D01*
X89650Y83345D01*
X90230Y83679D01*
X90876Y83852D01*
X95687Y83852D01*
X95687Y78835D01*
X88670Y78835D01*
G37*
%LPD*%
%LPC*%
G36*
X162287Y197281D02*
X162287Y197281D01*
X162287Y204299D01*
X167304Y204299D01*
X167304Y199488D01*
X167131Y198841D01*
X166797Y198262D01*
X166324Y197789D01*
X165744Y197454D01*
X165098Y197281D01*
X162287Y197281D01*
G37*
%LPD*%
%LPC*%
G36*
X154232Y181015D02*
X154232Y181015D01*
X154232Y185826D01*
X154405Y186472D01*
X154740Y187051D01*
X155213Y187525D01*
X155792Y187859D01*
X156438Y188032D01*
X159250Y188032D01*
X159250Y181015D01*
X154232Y181015D01*
G37*
%LPD*%
%LPC*%
G36*
X98734Y70771D02*
X98734Y70771D01*
X98734Y75788D01*
X105751Y75788D01*
X105751Y72977D01*
X105578Y72331D01*
X105243Y71751D01*
X104770Y71278D01*
X104191Y70944D01*
X103545Y70771D01*
X98734Y70771D01*
G37*
%LPD*%
%LPC*%
G36*
X154223Y207345D02*
X154223Y207345D01*
X154223Y212156D01*
X154396Y212803D01*
X154731Y213382D01*
X155204Y213855D01*
X155783Y214190D01*
X156429Y214363D01*
X159240Y214363D01*
X159240Y207345D01*
X154223Y207345D01*
G37*
%LPD*%
%LPC*%
G36*
X155917Y143669D02*
X155917Y143669D01*
X155271Y143842D01*
X154691Y144177D01*
X154218Y144650D01*
X153884Y145229D01*
X153711Y145875D01*
X153711Y150687D01*
X158728Y150687D01*
X158728Y143669D01*
X155917Y143669D01*
G37*
%LPD*%
%LPC*%
G36*
X156429Y197281D02*
X156429Y197281D01*
X155783Y197454D01*
X155204Y197789D01*
X154731Y198262D01*
X154396Y198841D01*
X154223Y199488D01*
X154223Y204299D01*
X159240Y204299D01*
X159240Y197281D01*
X156429Y197281D01*
G37*
%LPD*%
%LPC*%
G36*
X90876Y70771D02*
X90876Y70771D01*
X90230Y70944D01*
X89650Y71278D01*
X89177Y71751D01*
X88843Y72331D01*
X88670Y72977D01*
X88670Y75788D01*
X95687Y75788D01*
X95687Y70771D01*
X90876Y70771D01*
G37*
%LPD*%
%LPC*%
G36*
X28193Y162305D02*
X28193Y162305D01*
X28193Y162307D01*
X28195Y162307D01*
X28195Y162305D01*
X28193Y162305D01*
G37*
%LPD*%
%LPC*%
G36*
X210565Y72643D02*
X210565Y72643D01*
X210565Y72645D01*
X210567Y72645D01*
X210567Y72643D01*
X210565Y72643D01*
G37*
%LPD*%
%LPC*%
G36*
X27939Y220979D02*
X27939Y220979D01*
X27939Y220981D01*
X27941Y220981D01*
X27941Y220979D01*
X27939Y220979D01*
G37*
%LPD*%
%LPC*%
G36*
X294226Y109495D02*
X294226Y109495D01*
X294226Y109497D01*
X294228Y109497D01*
X294228Y109495D01*
X294226Y109495D01*
G37*
%LPD*%
%LPC*%
G36*
X124930Y76426D02*
X124930Y76426D01*
X124930Y76428D01*
X124932Y76428D01*
X124932Y76426D01*
X124930Y76426D01*
G37*
%LPD*%
%LPC*%
G36*
X97209Y77311D02*
X97209Y77311D01*
X97209Y77312D01*
X97211Y77312D01*
X97211Y77311D01*
X97209Y77311D01*
G37*
%LPD*%
%LPC*%
G36*
X220177Y233930D02*
X220177Y233930D01*
X220177Y233931D01*
X220179Y233931D01*
X220179Y233930D01*
X220177Y233930D01*
G37*
%LPD*%
%LPC*%
G36*
X160763Y205821D02*
X160763Y205821D01*
X160763Y205823D01*
X160765Y205823D01*
X160765Y205821D01*
X160763Y205821D01*
G37*
%LPD*%
D10*
X124931Y76427D03*
X124931Y95427D03*
D11*
X178764Y205822D03*
X160764Y205822D03*
X178252Y152210D03*
X160252Y152210D03*
X178773Y179491D03*
X160773Y179491D03*
D10*
X294227Y109496D03*
X294227Y128496D03*
X220178Y233931D03*
X220178Y214931D03*
D12*
X147678Y95729D03*
X147678Y72729D03*
D13*
X203613Y281201D03*
D14*
X226613Y306451D03*
D13*
X193613Y281201D03*
X183613Y281201D03*
X173613Y281201D03*
X163613Y281201D03*
D14*
X150613Y306451D03*
D13*
X213613Y281201D03*
D11*
X203475Y123675D03*
X185475Y123675D03*
D15*
X292678Y162276D03*
X292678Y180276D03*
D11*
X188662Y257887D03*
X170662Y257887D03*
D15*
X292057Y205738D03*
X292057Y223738D03*
X97210Y77311D03*
X97210Y95311D03*
D16*
X185471Y239289D03*
X172471Y239289D03*
X178971Y221001D03*
D17*
X190826Y188307D02*
X209026Y188307D01*
X190826Y188307D02*
X190826Y192807D01*
X209026Y192807D01*
X209026Y188307D01*
X209026Y189732D02*
X190826Y189732D01*
X190826Y191157D02*
X209026Y191157D01*
X209026Y192582D02*
X190826Y192582D01*
X190826Y175607D02*
X209026Y175607D01*
X190826Y175607D02*
X190826Y180107D01*
X209026Y180107D01*
X209026Y175607D01*
X209026Y177032D02*
X190826Y177032D01*
X190826Y178457D02*
X209026Y178457D01*
X209026Y179882D02*
X190826Y179882D01*
X190826Y162907D02*
X209026Y162907D01*
X190826Y162907D02*
X190826Y167407D01*
X209026Y167407D01*
X209026Y162907D01*
X209026Y164332D02*
X190826Y164332D01*
X190826Y165757D02*
X209026Y165757D01*
X209026Y167182D02*
X190826Y167182D01*
X190826Y150207D02*
X209026Y150207D01*
X190826Y150207D02*
X190826Y154707D01*
X209026Y154707D01*
X209026Y150207D01*
X209026Y151632D02*
X190826Y151632D01*
X190826Y153057D02*
X209026Y153057D01*
X209026Y154482D02*
X190826Y154482D01*
X240226Y150207D02*
X258426Y150207D01*
X240226Y150207D02*
X240226Y154707D01*
X258426Y154707D01*
X258426Y150207D01*
X258426Y151632D02*
X240226Y151632D01*
X240226Y153057D02*
X258426Y153057D01*
X258426Y154482D02*
X240226Y154482D01*
X240226Y162907D02*
X258426Y162907D01*
X240226Y162907D02*
X240226Y167407D01*
X258426Y167407D01*
X258426Y162907D01*
X258426Y164332D02*
X240226Y164332D01*
X240226Y165757D02*
X258426Y165757D01*
X258426Y167182D02*
X240226Y167182D01*
X240226Y175607D02*
X258426Y175607D01*
X240226Y175607D02*
X240226Y180107D01*
X258426Y180107D01*
X258426Y175607D01*
X258426Y177032D02*
X240226Y177032D01*
X240226Y178457D02*
X258426Y178457D01*
X258426Y179882D02*
X240226Y179882D01*
X240226Y188307D02*
X258426Y188307D01*
X240226Y188307D02*
X240226Y192807D01*
X258426Y192807D01*
X258426Y188307D01*
X258426Y189732D02*
X240226Y189732D01*
X240226Y191157D02*
X258426Y191157D01*
X258426Y192582D02*
X240226Y192582D01*
D18*
X28194Y162306D03*
X53594Y162306D03*
X78994Y162306D03*
X27940Y220980D03*
X53340Y220980D03*
X78740Y220980D03*
X185166Y72644D03*
X210566Y72644D03*
D11*
X105808Y221234D03*
X123808Y221234D03*
X106062Y162306D03*
X124062Y162306D03*
D19*
X89916Y264922D03*
X261620Y253238D03*
X70612Y112014D03*
X247650Y114554D03*
X139700Y243586D03*
X324104Y146812D03*
X27940Y199644D03*
X230632Y187452D03*
X217424Y152654D03*
D20*
X230632Y187452D02*
X233737Y190557D01*
X64770Y135382D02*
X53340Y146812D01*
X199926Y152457D02*
X200123Y152654D01*
X217424Y152654D01*
X233737Y190557D02*
X249326Y190557D01*
X178764Y152722D02*
X178252Y152210D01*
X199679Y152210D01*
X199926Y152457D01*
D21*
X290794Y223738D02*
X292057Y223738D01*
X259073Y190754D01*
X249523Y190754D02*
X249326Y190557D01*
X249523Y190754D02*
X259073Y190754D01*
D20*
X178773Y179491D02*
X178773Y166116D01*
X178773Y152731D01*
X178252Y152210D01*
X178773Y166116D02*
X153416Y166116D01*
X120650Y133350D01*
X66802Y133350D01*
X64770Y135382D01*
X53594Y147066D02*
X53594Y162306D01*
X53594Y147066D02*
X53340Y146812D01*
X53594Y162306D02*
X53594Y220726D01*
X53340Y220980D01*
X178773Y205813D02*
X178773Y179491D01*
X178773Y205813D02*
X178764Y205822D01*
X178971Y206011D02*
X178971Y221001D01*
X178971Y206011D02*
X178773Y205813D01*
D19*
X174244Y296164D03*
D20*
X173613Y295533D02*
X173613Y281201D01*
X173613Y295533D02*
X174244Y296164D01*
X173613Y281201D02*
X173613Y260838D01*
X170662Y257887D01*
X172471Y256078D02*
X172471Y239289D01*
X172471Y256078D02*
X170662Y257887D01*
X183867Y280947D02*
X183613Y281201D01*
X183867Y280947D02*
X183867Y261412D01*
X187392Y257887D01*
X188662Y257887D01*
X185471Y254697D01*
X185471Y239289D01*
D21*
X231337Y165157D02*
X249326Y165157D01*
X218637Y177857D02*
X199926Y177857D01*
X218637Y177857D02*
X231337Y165157D01*
X220178Y187412D02*
X220178Y214931D01*
X210623Y177857D02*
X199926Y177857D01*
X210623Y177857D02*
X220178Y187412D01*
X267702Y162276D02*
X292678Y162276D01*
X264820Y165157D02*
X249326Y165157D01*
X264820Y165157D02*
X267702Y162276D01*
X281089Y128496D02*
X294227Y128496D01*
X281089Y128496D02*
X257200Y152457D01*
X249326Y152457D01*
X229362Y137116D02*
X215921Y123675D01*
X203475Y123675D01*
X229362Y137116D02*
X229362Y154178D01*
X218383Y165157D01*
X199926Y165157D01*
X249326Y177857D02*
X265741Y177857D01*
X268160Y180276D02*
X292678Y180276D01*
X268160Y180276D02*
X265741Y177857D01*
X292678Y205117D02*
X292057Y205738D01*
X292678Y205117D02*
X292678Y180276D01*
D19*
X193548Y295910D03*
X168148Y128016D03*
D21*
X147678Y95729D02*
X125233Y95729D01*
X124931Y95427D01*
X97326Y95427D01*
X97210Y95311D01*
X147678Y95729D02*
X147678Y107546D01*
X168148Y128016D01*
X193613Y295845D02*
X193548Y295910D01*
X193613Y295845D02*
X193613Y281201D01*
X123808Y304656D02*
X123808Y221234D01*
X123808Y304656D02*
X140970Y321818D01*
X188468Y321818D01*
X203708Y306578D01*
X203708Y281296D01*
X203613Y281201D01*
X124062Y200550D02*
X124062Y162306D01*
X124062Y200550D02*
X115316Y209296D01*
X115316Y305710D01*
X137922Y328316D01*
X191622Y328316D01*
X213613Y306325D02*
X213613Y281201D01*
X213613Y306325D02*
X191622Y328316D01*
X185475Y123675D02*
X185475Y72953D01*
X185166Y72644D01*
X147762Y72644D01*
X147678Y72729D01*
X105554Y220980D02*
X78740Y220980D01*
X105554Y220980D02*
X105808Y221234D01*
X106062Y162306D02*
X78994Y162306D01*
M02*
