G04 EAGLE Gerber RS-274X export*
G75*
%MOMM*%
%FSLAX34Y34*%
%LPD*%
%INSolderpaste Top*%
%IPPOS*%
%AMOC8*
5,1,8,0,0,1.08239X$1,22.5*%
G01*
%ADD10R,1.500000X1.300000*%
%ADD11R,0.800000X1.200000*%
%ADD12R,0.830000X0.630000*%
%ADD13R,0.600000X1.550000*%
%ADD14R,1.200000X1.800000*%
%ADD15R,1.200000X0.800000*%
%ADD16R,0.457200X1.270000*%
%ADD17C,0.150000*%


D10*
X124931Y76427D03*
X124931Y95427D03*
D11*
X178764Y205822D03*
X160764Y205822D03*
X178252Y152210D03*
X160252Y152210D03*
X178773Y179491D03*
X160773Y179491D03*
D10*
X294227Y109496D03*
X294227Y128496D03*
X220178Y233931D03*
X220178Y214931D03*
D12*
X147678Y95729D03*
X147678Y72729D03*
D13*
X203613Y281201D03*
D14*
X226613Y306451D03*
D13*
X193613Y281201D03*
X183613Y281201D03*
X173613Y281201D03*
X163613Y281201D03*
D14*
X150613Y306451D03*
D13*
X213613Y281201D03*
D11*
X203475Y123675D03*
X185475Y123675D03*
D15*
X292678Y162276D03*
X292678Y180276D03*
D11*
X188662Y257887D03*
X170662Y257887D03*
D15*
X292057Y205738D03*
X292057Y223738D03*
X97210Y77311D03*
X97210Y95311D03*
D16*
X185471Y239289D03*
X172471Y239289D03*
X178971Y221001D03*
D17*
X190826Y188307D02*
X209026Y188307D01*
X190826Y188307D02*
X190826Y192807D01*
X209026Y192807D01*
X209026Y188307D01*
X209026Y189732D02*
X190826Y189732D01*
X190826Y191157D02*
X209026Y191157D01*
X209026Y192582D02*
X190826Y192582D01*
X190826Y175607D02*
X209026Y175607D01*
X190826Y175607D02*
X190826Y180107D01*
X209026Y180107D01*
X209026Y175607D01*
X209026Y177032D02*
X190826Y177032D01*
X190826Y178457D02*
X209026Y178457D01*
X209026Y179882D02*
X190826Y179882D01*
X190826Y162907D02*
X209026Y162907D01*
X190826Y162907D02*
X190826Y167407D01*
X209026Y167407D01*
X209026Y162907D01*
X209026Y164332D02*
X190826Y164332D01*
X190826Y165757D02*
X209026Y165757D01*
X209026Y167182D02*
X190826Y167182D01*
X190826Y150207D02*
X209026Y150207D01*
X190826Y150207D02*
X190826Y154707D01*
X209026Y154707D01*
X209026Y150207D01*
X209026Y151632D02*
X190826Y151632D01*
X190826Y153057D02*
X209026Y153057D01*
X209026Y154482D02*
X190826Y154482D01*
X240226Y150207D02*
X258426Y150207D01*
X240226Y150207D02*
X240226Y154707D01*
X258426Y154707D01*
X258426Y150207D01*
X258426Y151632D02*
X240226Y151632D01*
X240226Y153057D02*
X258426Y153057D01*
X258426Y154482D02*
X240226Y154482D01*
X240226Y162907D02*
X258426Y162907D01*
X240226Y162907D02*
X240226Y167407D01*
X258426Y167407D01*
X258426Y162907D01*
X258426Y164332D02*
X240226Y164332D01*
X240226Y165757D02*
X258426Y165757D01*
X258426Y167182D02*
X240226Y167182D01*
X240226Y175607D02*
X258426Y175607D01*
X240226Y175607D02*
X240226Y180107D01*
X258426Y180107D01*
X258426Y175607D01*
X258426Y177032D02*
X240226Y177032D01*
X240226Y178457D02*
X258426Y178457D01*
X258426Y179882D02*
X240226Y179882D01*
X240226Y188307D02*
X258426Y188307D01*
X240226Y188307D02*
X240226Y192807D01*
X258426Y192807D01*
X258426Y188307D01*
X258426Y189732D02*
X240226Y189732D01*
X240226Y191157D02*
X258426Y191157D01*
X258426Y192582D02*
X240226Y192582D01*
D11*
X105808Y221234D03*
X123808Y221234D03*
X106062Y162306D03*
X124062Y162306D03*
M02*
