G04 EAGLE Gerber RS-274X export*
G75*
%MOMM*%
%FSLAX34Y34*%
%LPD*%
%INBottom Copper*%
%IPPOS*%
%AMOC8*
5,1,8,0,0,1.08239X$1,22.5*%
G01*
%ADD10C,1.879600*%
%ADD11C,0.756400*%
%ADD12C,0.508000*%
%ADD13C,0.304800*%

G36*
X374898Y10164D02*
X374898Y10164D01*
X374917Y10162D01*
X375019Y10184D01*
X375121Y10200D01*
X375138Y10210D01*
X375158Y10214D01*
X375247Y10267D01*
X375338Y10316D01*
X375352Y10330D01*
X375369Y10340D01*
X375436Y10419D01*
X375508Y10494D01*
X375516Y10512D01*
X375529Y10527D01*
X375568Y10623D01*
X375611Y10717D01*
X375613Y10737D01*
X375621Y10755D01*
X375639Y10922D01*
X375639Y58428D01*
X375636Y58448D01*
X375638Y58467D01*
X375616Y58569D01*
X375600Y58671D01*
X375590Y58688D01*
X375586Y58708D01*
X375533Y58797D01*
X375484Y58888D01*
X375470Y58902D01*
X375460Y58919D01*
X375381Y58986D01*
X375306Y59058D01*
X375288Y59066D01*
X375273Y59079D01*
X375177Y59118D01*
X375083Y59161D01*
X375063Y59163D01*
X375045Y59171D01*
X374878Y59189D01*
X360795Y59189D01*
X360728Y59178D01*
X360660Y59177D01*
X360607Y59159D01*
X360552Y59150D01*
X360492Y59118D01*
X360428Y59095D01*
X360384Y59061D01*
X360335Y59034D01*
X360288Y58986D01*
X360235Y58944D01*
X360188Y58880D01*
X360165Y58856D01*
X360156Y58837D01*
X360135Y58809D01*
X357142Y53624D01*
X352176Y48658D01*
X346095Y45147D01*
X339311Y43329D01*
X332289Y43329D01*
X325505Y45147D01*
X319424Y48658D01*
X314458Y53624D01*
X310947Y59705D01*
X309129Y66489D01*
X309129Y73511D01*
X310947Y80295D01*
X314458Y86376D01*
X319424Y91342D01*
X325505Y94853D01*
X332289Y96671D01*
X339311Y96671D01*
X346095Y94853D01*
X352176Y91342D01*
X357142Y86376D01*
X360135Y81191D01*
X360178Y81139D01*
X360213Y81081D01*
X360256Y81044D01*
X360291Y81001D01*
X360348Y80965D01*
X360400Y80921D01*
X360452Y80900D01*
X360500Y80870D01*
X360565Y80854D01*
X360628Y80829D01*
X360707Y80820D01*
X360739Y80813D01*
X360759Y80815D01*
X360795Y80811D01*
X374878Y80811D01*
X374898Y80814D01*
X374917Y80812D01*
X375019Y80834D01*
X375121Y80850D01*
X375138Y80860D01*
X375158Y80864D01*
X375247Y80917D01*
X375338Y80966D01*
X375352Y80980D01*
X375369Y80990D01*
X375436Y81069D01*
X375508Y81144D01*
X375516Y81162D01*
X375529Y81177D01*
X375568Y81273D01*
X375611Y81367D01*
X375613Y81387D01*
X375621Y81405D01*
X375639Y81572D01*
X375639Y278428D01*
X375636Y278448D01*
X375638Y278467D01*
X375616Y278569D01*
X375600Y278671D01*
X375590Y278688D01*
X375586Y278708D01*
X375533Y278797D01*
X375484Y278888D01*
X375470Y278902D01*
X375460Y278919D01*
X375381Y278986D01*
X375306Y279058D01*
X375288Y279066D01*
X375273Y279079D01*
X375177Y279118D01*
X375083Y279161D01*
X375063Y279163D01*
X375045Y279171D01*
X374878Y279189D01*
X360795Y279189D01*
X360728Y279178D01*
X360660Y279177D01*
X360607Y279159D01*
X360552Y279150D01*
X360492Y279118D01*
X360428Y279095D01*
X360384Y279061D01*
X360335Y279034D01*
X360288Y278986D01*
X360235Y278944D01*
X360188Y278880D01*
X360165Y278856D01*
X360156Y278837D01*
X360135Y278809D01*
X357142Y273624D01*
X352176Y268658D01*
X346095Y265147D01*
X339311Y263329D01*
X332289Y263329D01*
X325505Y265147D01*
X319424Y268658D01*
X314458Y273624D01*
X310947Y279705D01*
X309129Y286489D01*
X309129Y293511D01*
X310947Y300295D01*
X314458Y306376D01*
X319424Y311342D01*
X325505Y314853D01*
X332289Y316671D01*
X339311Y316671D01*
X346095Y314853D01*
X352176Y311342D01*
X357142Y306376D01*
X360135Y301191D01*
X360178Y301139D01*
X360213Y301081D01*
X360256Y301044D01*
X360291Y301001D01*
X360348Y300965D01*
X360400Y300921D01*
X360452Y300900D01*
X360500Y300870D01*
X360565Y300854D01*
X360628Y300829D01*
X360707Y300820D01*
X360739Y300813D01*
X360759Y300815D01*
X360795Y300811D01*
X374878Y300811D01*
X374898Y300814D01*
X374917Y300812D01*
X375019Y300834D01*
X375121Y300850D01*
X375138Y300860D01*
X375158Y300864D01*
X375247Y300917D01*
X375338Y300966D01*
X375352Y300980D01*
X375369Y300990D01*
X375436Y301069D01*
X375508Y301144D01*
X375516Y301162D01*
X375529Y301177D01*
X375568Y301273D01*
X375611Y301367D01*
X375613Y301387D01*
X375621Y301405D01*
X375639Y301572D01*
X375639Y329078D01*
X375636Y329098D01*
X375638Y329117D01*
X375616Y329219D01*
X375600Y329321D01*
X375590Y329338D01*
X375586Y329358D01*
X375533Y329447D01*
X375484Y329538D01*
X375470Y329552D01*
X375460Y329569D01*
X375381Y329636D01*
X375306Y329708D01*
X375288Y329716D01*
X375273Y329729D01*
X375177Y329768D01*
X375083Y329811D01*
X375063Y329813D01*
X375045Y329821D01*
X374878Y329839D01*
X10922Y329839D01*
X10902Y329836D01*
X10883Y329838D01*
X10781Y329816D01*
X10679Y329800D01*
X10662Y329790D01*
X10642Y329786D01*
X10553Y329733D01*
X10462Y329684D01*
X10448Y329670D01*
X10431Y329660D01*
X10364Y329581D01*
X10292Y329506D01*
X10284Y329488D01*
X10271Y329473D01*
X10232Y329377D01*
X10189Y329283D01*
X10187Y329263D01*
X10179Y329245D01*
X10161Y329078D01*
X10161Y301572D01*
X10164Y301552D01*
X10162Y301533D01*
X10184Y301431D01*
X10200Y301329D01*
X10210Y301312D01*
X10214Y301292D01*
X10267Y301203D01*
X10316Y301112D01*
X10330Y301098D01*
X10340Y301081D01*
X10419Y301014D01*
X10494Y300942D01*
X10512Y300934D01*
X10527Y300921D01*
X10623Y300882D01*
X10717Y300839D01*
X10737Y300837D01*
X10755Y300829D01*
X10922Y300811D01*
X25005Y300811D01*
X25072Y300822D01*
X25140Y300823D01*
X25193Y300841D01*
X25248Y300850D01*
X25308Y300882D01*
X25372Y300905D01*
X25416Y300939D01*
X25465Y300966D01*
X25512Y301014D01*
X25565Y301056D01*
X25612Y301120D01*
X25635Y301144D01*
X25644Y301163D01*
X25665Y301191D01*
X28658Y306376D01*
X33624Y311342D01*
X39705Y314853D01*
X46489Y316671D01*
X53511Y316671D01*
X60295Y314853D01*
X66376Y311342D01*
X71342Y306376D01*
X74853Y300295D01*
X76671Y293511D01*
X76671Y286489D01*
X74853Y279705D01*
X71342Y273624D01*
X66376Y268658D01*
X60295Y265147D01*
X53511Y263329D01*
X46489Y263329D01*
X39705Y265147D01*
X33624Y268658D01*
X28658Y273624D01*
X25665Y278809D01*
X25622Y278861D01*
X25587Y278919D01*
X25544Y278956D01*
X25509Y278999D01*
X25452Y279035D01*
X25400Y279079D01*
X25348Y279100D01*
X25300Y279130D01*
X25235Y279146D01*
X25172Y279171D01*
X25093Y279180D01*
X25061Y279187D01*
X25041Y279185D01*
X25005Y279189D01*
X10922Y279189D01*
X10902Y279186D01*
X10883Y279188D01*
X10781Y279166D01*
X10679Y279150D01*
X10662Y279140D01*
X10642Y279136D01*
X10553Y279083D01*
X10462Y279034D01*
X10448Y279020D01*
X10431Y279010D01*
X10364Y278931D01*
X10292Y278856D01*
X10284Y278838D01*
X10271Y278823D01*
X10232Y278727D01*
X10189Y278633D01*
X10187Y278613D01*
X10179Y278595D01*
X10161Y278428D01*
X10161Y81572D01*
X10164Y81552D01*
X10162Y81533D01*
X10184Y81431D01*
X10200Y81329D01*
X10210Y81312D01*
X10214Y81292D01*
X10267Y81203D01*
X10316Y81112D01*
X10330Y81098D01*
X10340Y81081D01*
X10419Y81014D01*
X10494Y80942D01*
X10512Y80934D01*
X10527Y80921D01*
X10623Y80882D01*
X10717Y80839D01*
X10737Y80837D01*
X10755Y80829D01*
X10922Y80811D01*
X25005Y80811D01*
X25072Y80822D01*
X25140Y80823D01*
X25193Y80841D01*
X25248Y80850D01*
X25308Y80882D01*
X25372Y80905D01*
X25416Y80939D01*
X25465Y80966D01*
X25512Y81014D01*
X25565Y81056D01*
X25612Y81120D01*
X25635Y81144D01*
X25644Y81163D01*
X25665Y81191D01*
X28658Y86376D01*
X33624Y91342D01*
X39705Y94853D01*
X46489Y96671D01*
X53511Y96671D01*
X60295Y94853D01*
X66376Y91342D01*
X71342Y86376D01*
X74853Y80295D01*
X76671Y73511D01*
X76671Y66489D01*
X74853Y59705D01*
X71342Y53624D01*
X66376Y48658D01*
X60295Y45147D01*
X53511Y43329D01*
X46489Y43329D01*
X39705Y45147D01*
X33624Y48658D01*
X28658Y53624D01*
X25665Y58809D01*
X25622Y58861D01*
X25587Y58919D01*
X25544Y58956D01*
X25509Y58999D01*
X25452Y59035D01*
X25400Y59079D01*
X25348Y59100D01*
X25300Y59130D01*
X25235Y59146D01*
X25172Y59171D01*
X25093Y59180D01*
X25061Y59187D01*
X25041Y59185D01*
X25005Y59189D01*
X10922Y59189D01*
X10902Y59186D01*
X10883Y59188D01*
X10781Y59166D01*
X10679Y59150D01*
X10662Y59140D01*
X10642Y59136D01*
X10553Y59083D01*
X10462Y59034D01*
X10448Y59020D01*
X10431Y59010D01*
X10364Y58931D01*
X10292Y58856D01*
X10284Y58838D01*
X10271Y58823D01*
X10232Y58727D01*
X10189Y58633D01*
X10187Y58613D01*
X10179Y58595D01*
X10161Y58428D01*
X10161Y10922D01*
X10164Y10902D01*
X10162Y10883D01*
X10184Y10781D01*
X10200Y10679D01*
X10210Y10662D01*
X10214Y10642D01*
X10267Y10553D01*
X10316Y10462D01*
X10330Y10448D01*
X10340Y10431D01*
X10419Y10364D01*
X10494Y10292D01*
X10512Y10284D01*
X10527Y10271D01*
X10623Y10232D01*
X10717Y10189D01*
X10737Y10187D01*
X10755Y10179D01*
X10922Y10161D01*
X374878Y10161D01*
X374898Y10164D01*
G37*
%LPC*%
G36*
X165950Y122709D02*
X165950Y122709D01*
X162841Y125818D01*
X162841Y130214D01*
X164876Y132249D01*
X164929Y132323D01*
X164989Y132393D01*
X165001Y132423D01*
X165020Y132449D01*
X165047Y132536D01*
X165081Y132621D01*
X165085Y132662D01*
X165092Y132684D01*
X165091Y132716D01*
X165099Y132787D01*
X165099Y271773D01*
X188018Y294692D01*
X188071Y294766D01*
X188131Y294835D01*
X188143Y294865D01*
X188162Y294892D01*
X188189Y294979D01*
X188223Y295063D01*
X188227Y295104D01*
X188234Y295127D01*
X188233Y295159D01*
X188241Y295230D01*
X188241Y298108D01*
X191350Y301217D01*
X195746Y301217D01*
X198855Y298108D01*
X198855Y293712D01*
X195746Y290603D01*
X192868Y290603D01*
X192778Y290589D01*
X192687Y290581D01*
X192657Y290569D01*
X192625Y290564D01*
X192545Y290521D01*
X192461Y290485D01*
X192429Y290459D01*
X192408Y290448D01*
X192386Y290425D01*
X192330Y290380D01*
X171420Y269470D01*
X171367Y269396D01*
X171307Y269327D01*
X171295Y269297D01*
X171276Y269270D01*
X171249Y269183D01*
X171215Y269099D01*
X171211Y269058D01*
X171204Y269035D01*
X171205Y269003D01*
X171197Y268932D01*
X171197Y132787D01*
X171211Y132697D01*
X171219Y132606D01*
X171231Y132577D01*
X171236Y132545D01*
X171279Y132464D01*
X171315Y132380D01*
X171341Y132348D01*
X171352Y132327D01*
X171375Y132305D01*
X171420Y132249D01*
X173455Y130214D01*
X173455Y125818D01*
X170346Y122709D01*
X165950Y122709D01*
G37*
%LPD*%
%LPC*%
G36*
X215226Y147347D02*
X215226Y147347D01*
X212117Y150456D01*
X212117Y154852D01*
X215226Y157961D01*
X216667Y157961D01*
X216757Y157975D01*
X216848Y157983D01*
X216878Y157995D01*
X216910Y158000D01*
X216990Y158043D01*
X217074Y158079D01*
X217106Y158105D01*
X217127Y158116D01*
X217149Y158139D01*
X217205Y158184D01*
X226344Y167323D01*
X226397Y167397D01*
X226457Y167466D01*
X226469Y167496D01*
X226488Y167522D01*
X226515Y167609D01*
X226549Y167694D01*
X226553Y167735D01*
X226560Y167758D01*
X226559Y167790D01*
X226567Y167861D01*
X226567Y183697D01*
X226553Y183787D01*
X226545Y183878D01*
X226533Y183907D01*
X226528Y183939D01*
X226485Y184020D01*
X226449Y184104D01*
X226423Y184136D01*
X226412Y184157D01*
X226389Y184179D01*
X226344Y184235D01*
X225325Y185254D01*
X225325Y189650D01*
X228434Y192759D01*
X232830Y192759D01*
X235939Y189650D01*
X235939Y185254D01*
X234920Y184235D01*
X234873Y184170D01*
X234858Y184154D01*
X234854Y184147D01*
X234807Y184091D01*
X234795Y184061D01*
X234776Y184035D01*
X234749Y183948D01*
X234715Y183863D01*
X234711Y183822D01*
X234704Y183800D01*
X234705Y183768D01*
X234697Y183697D01*
X234697Y164178D01*
X222954Y152435D01*
X222901Y152361D01*
X222841Y152292D01*
X222829Y152262D01*
X222810Y152236D01*
X222783Y152149D01*
X222749Y152064D01*
X222745Y152023D01*
X222738Y152000D01*
X222739Y151968D01*
X222731Y151897D01*
X222731Y150456D01*
X219622Y147347D01*
X215226Y147347D01*
G37*
%LPD*%
%LPC*%
G36*
X182993Y61721D02*
X182993Y61721D01*
X178979Y63384D01*
X175906Y66457D01*
X174243Y70471D01*
X174243Y74817D01*
X175906Y78831D01*
X178979Y81904D01*
X182993Y83567D01*
X187339Y83567D01*
X191353Y81904D01*
X194426Y78831D01*
X196089Y74817D01*
X196089Y70471D01*
X194426Y66457D01*
X191353Y63384D01*
X187339Y61721D01*
X182993Y61721D01*
G37*
%LPD*%
%LPC*%
G36*
X76567Y210057D02*
X76567Y210057D01*
X72553Y211720D01*
X69480Y214793D01*
X67817Y218807D01*
X67817Y223153D01*
X69480Y227167D01*
X72553Y230240D01*
X76567Y231903D01*
X80913Y231903D01*
X84927Y230240D01*
X88000Y227167D01*
X89663Y223153D01*
X89663Y218807D01*
X88000Y214793D01*
X84927Y211720D01*
X80913Y210057D01*
X76567Y210057D01*
G37*
%LPD*%
%LPC*%
G36*
X51167Y210057D02*
X51167Y210057D01*
X47153Y211720D01*
X44080Y214793D01*
X42417Y218807D01*
X42417Y223153D01*
X44080Y227167D01*
X47153Y230240D01*
X51167Y231903D01*
X55513Y231903D01*
X59527Y230240D01*
X62600Y227167D01*
X64263Y223153D01*
X64263Y218807D01*
X62600Y214793D01*
X59527Y211720D01*
X55513Y210057D01*
X51167Y210057D01*
G37*
%LPD*%
%LPC*%
G36*
X76821Y151383D02*
X76821Y151383D01*
X72807Y153046D01*
X69734Y156119D01*
X68071Y160133D01*
X68071Y164479D01*
X69734Y168493D01*
X72807Y171566D01*
X76821Y173229D01*
X81167Y173229D01*
X85181Y171566D01*
X88254Y168493D01*
X89917Y164479D01*
X89917Y160133D01*
X88254Y156119D01*
X85181Y153046D01*
X81167Y151383D01*
X76821Y151383D01*
G37*
%LPD*%
%LPC*%
G36*
X51421Y151383D02*
X51421Y151383D01*
X47407Y153046D01*
X44334Y156119D01*
X42671Y160133D01*
X42671Y164479D01*
X44334Y168493D01*
X47407Y171566D01*
X51421Y173229D01*
X55767Y173229D01*
X59781Y171566D01*
X62854Y168493D01*
X64517Y164479D01*
X64517Y160133D01*
X62854Y156119D01*
X59781Y153046D01*
X55767Y151383D01*
X51421Y151383D01*
G37*
%LPD*%
%LPC*%
G36*
X172046Y290857D02*
X172046Y290857D01*
X168937Y293966D01*
X168937Y298362D01*
X172046Y301471D01*
X176442Y301471D01*
X179551Y298362D01*
X179551Y293966D01*
X176442Y290857D01*
X172046Y290857D01*
G37*
%LPD*%
%LPC*%
G36*
X29717Y163829D02*
X29717Y163829D01*
X29717Y174152D01*
X30990Y173951D01*
X32777Y173370D01*
X34451Y172517D01*
X35972Y171412D01*
X37300Y170084D01*
X38405Y168563D01*
X39258Y166889D01*
X39839Y165102D01*
X40040Y163829D01*
X29717Y163829D01*
G37*
%LPD*%
%LPC*%
G36*
X212089Y74167D02*
X212089Y74167D01*
X212089Y84490D01*
X213362Y84289D01*
X215149Y83708D01*
X216823Y82855D01*
X218344Y81750D01*
X219672Y80422D01*
X220777Y78901D01*
X221630Y77227D01*
X222211Y75440D01*
X222412Y74167D01*
X212089Y74167D01*
G37*
%LPD*%
%LPC*%
G36*
X29463Y222503D02*
X29463Y222503D01*
X29463Y232826D01*
X30736Y232625D01*
X32523Y232044D01*
X34197Y231191D01*
X35718Y230086D01*
X37046Y228758D01*
X38151Y227237D01*
X39004Y225563D01*
X39585Y223776D01*
X39786Y222503D01*
X29463Y222503D01*
G37*
%LPD*%
%LPC*%
G36*
X212089Y71121D02*
X212089Y71121D01*
X222412Y71121D01*
X222211Y69848D01*
X221630Y68061D01*
X220777Y66387D01*
X219672Y64866D01*
X218344Y63538D01*
X216823Y62433D01*
X215149Y61580D01*
X213362Y60999D01*
X212089Y60798D01*
X212089Y71121D01*
G37*
%LPD*%
%LPC*%
G36*
X16348Y163829D02*
X16348Y163829D01*
X16549Y165102D01*
X17130Y166889D01*
X17983Y168563D01*
X19088Y170084D01*
X20416Y171412D01*
X21937Y172517D01*
X23611Y173370D01*
X25398Y173951D01*
X26671Y174152D01*
X26671Y163829D01*
X16348Y163829D01*
G37*
%LPD*%
%LPC*%
G36*
X16094Y222503D02*
X16094Y222503D01*
X16295Y223776D01*
X16876Y225563D01*
X17729Y227237D01*
X18834Y228758D01*
X20162Y230086D01*
X21683Y231191D01*
X23357Y232044D01*
X25144Y232625D01*
X26417Y232826D01*
X26417Y222503D01*
X16094Y222503D01*
G37*
%LPD*%
%LPC*%
G36*
X29463Y219457D02*
X29463Y219457D01*
X39786Y219457D01*
X39585Y218184D01*
X39004Y216397D01*
X38151Y214723D01*
X37046Y213202D01*
X35718Y211874D01*
X34197Y210769D01*
X32523Y209916D01*
X30736Y209335D01*
X29463Y209134D01*
X29463Y219457D01*
G37*
%LPD*%
%LPC*%
G36*
X29717Y160783D02*
X29717Y160783D01*
X40040Y160783D01*
X39839Y159510D01*
X39258Y157723D01*
X38405Y156049D01*
X37300Y154528D01*
X35972Y153200D01*
X34451Y152095D01*
X32777Y151242D01*
X30990Y150661D01*
X29717Y150460D01*
X29717Y160783D01*
G37*
%LPD*%
%LPC*%
G36*
X198720Y74167D02*
X198720Y74167D01*
X198921Y75440D01*
X199502Y77227D01*
X200355Y78901D01*
X201460Y80422D01*
X202788Y81750D01*
X204309Y82855D01*
X205983Y83708D01*
X207770Y84289D01*
X209043Y84490D01*
X209043Y74167D01*
X198720Y74167D01*
G37*
%LPD*%
%LPC*%
G36*
X25398Y150661D02*
X25398Y150661D01*
X23611Y151242D01*
X21937Y152095D01*
X20416Y153200D01*
X19088Y154528D01*
X17983Y156049D01*
X17130Y157723D01*
X16549Y159510D01*
X16348Y160783D01*
X26671Y160783D01*
X26671Y150460D01*
X25398Y150661D01*
G37*
%LPD*%
%LPC*%
G36*
X25144Y209335D02*
X25144Y209335D01*
X23357Y209916D01*
X21683Y210769D01*
X20162Y211874D01*
X18834Y213202D01*
X17729Y214723D01*
X16876Y216397D01*
X16295Y218184D01*
X16094Y219457D01*
X26417Y219457D01*
X26417Y209134D01*
X25144Y209335D01*
G37*
%LPD*%
%LPC*%
G36*
X207770Y60999D02*
X207770Y60999D01*
X205983Y61580D01*
X204309Y62433D01*
X202788Y63538D01*
X201460Y64866D01*
X200355Y66387D01*
X199502Y68061D01*
X198921Y69848D01*
X198720Y71121D01*
X209043Y71121D01*
X209043Y60798D01*
X207770Y60999D01*
G37*
%LPD*%
%LPC*%
G36*
X28193Y162305D02*
X28193Y162305D01*
X28193Y162307D01*
X28195Y162307D01*
X28195Y162305D01*
X28193Y162305D01*
G37*
%LPD*%
%LPC*%
G36*
X27939Y220979D02*
X27939Y220979D01*
X27939Y220981D01*
X27941Y220981D01*
X27941Y220979D01*
X27939Y220979D01*
G37*
%LPD*%
%LPC*%
G36*
X210565Y72643D02*
X210565Y72643D01*
X210565Y72645D01*
X210567Y72645D01*
X210567Y72643D01*
X210565Y72643D01*
G37*
%LPD*%
D10*
X28194Y162306D03*
X53594Y162306D03*
X78994Y162306D03*
X27940Y220980D03*
X53340Y220980D03*
X78740Y220980D03*
X185166Y72644D03*
X210566Y72644D03*
D11*
X89916Y264922D03*
X261620Y253238D03*
X70612Y112014D03*
X247650Y114554D03*
X139700Y243586D03*
X324104Y146812D03*
X27940Y199644D03*
X230632Y187452D03*
X217424Y152654D03*
D12*
X230632Y165862D02*
X230632Y187452D01*
X230632Y165862D02*
X217424Y152654D01*
D11*
X174244Y296164D03*
X193548Y295910D03*
X168148Y128016D03*
D13*
X168148Y270510D01*
X193548Y295910D01*
M02*
