G04 EAGLE Gerber RS-274X export*
G75*
%MOMM*%
%FSLAX34Y34*%
%LPD*%
%IN*%
%IPPOS*%
%AMOC8*
5,1,8,0,0,1.08239X$1,22.5*%
G01*
%ADD10C,0.254000*%


D10*
X0Y0D02*
X385800Y0D01*
X385800Y340000D01*
X0Y340000D01*
X0Y0D01*
X66510Y69460D02*
X66439Y68381D01*
X66298Y67309D01*
X66087Y66249D01*
X65808Y65205D01*
X65460Y64181D01*
X65046Y63183D01*
X64568Y62213D01*
X64028Y61277D01*
X63427Y60378D01*
X62769Y59521D01*
X62057Y58708D01*
X61292Y57944D01*
X60479Y57231D01*
X59622Y56573D01*
X58723Y55972D01*
X57787Y55432D01*
X56817Y54954D01*
X55819Y54540D01*
X54795Y54192D01*
X53751Y53913D01*
X52691Y53702D01*
X51619Y53561D01*
X50540Y53490D01*
X49460Y53490D01*
X48381Y53561D01*
X47309Y53702D01*
X46249Y53913D01*
X45205Y54192D01*
X44181Y54540D01*
X43183Y54954D01*
X42213Y55432D01*
X41277Y55972D01*
X40378Y56573D01*
X39521Y57231D01*
X38708Y57944D01*
X37944Y58708D01*
X37231Y59521D01*
X36573Y60378D01*
X35972Y61277D01*
X35432Y62213D01*
X34954Y63183D01*
X34540Y64181D01*
X34192Y65205D01*
X33913Y66249D01*
X33702Y67309D01*
X33561Y68381D01*
X33490Y69460D01*
X33490Y70540D01*
X33561Y71619D01*
X33702Y72691D01*
X33913Y73751D01*
X34192Y74795D01*
X34540Y75819D01*
X34954Y76817D01*
X35432Y77787D01*
X35972Y78723D01*
X36573Y79622D01*
X37231Y80479D01*
X37944Y81292D01*
X38708Y82057D01*
X39521Y82769D01*
X40378Y83427D01*
X41277Y84028D01*
X42213Y84568D01*
X43183Y85046D01*
X44181Y85460D01*
X45205Y85808D01*
X46249Y86087D01*
X47309Y86298D01*
X48381Y86439D01*
X49460Y86510D01*
X50540Y86510D01*
X51619Y86439D01*
X52691Y86298D01*
X53751Y86087D01*
X54795Y85808D01*
X55819Y85460D01*
X56817Y85046D01*
X57787Y84568D01*
X58723Y84028D01*
X59622Y83427D01*
X60479Y82769D01*
X61292Y82057D01*
X62057Y81292D01*
X62769Y80479D01*
X63427Y79622D01*
X64028Y78723D01*
X64568Y77787D01*
X65046Y76817D01*
X65460Y75819D01*
X65808Y74795D01*
X66087Y73751D01*
X66298Y72691D01*
X66439Y71619D01*
X66510Y70540D01*
X66510Y69460D01*
X66510Y289460D02*
X66439Y288381D01*
X66298Y287309D01*
X66087Y286249D01*
X65808Y285205D01*
X65460Y284181D01*
X65046Y283183D01*
X64568Y282213D01*
X64028Y281277D01*
X63427Y280378D01*
X62769Y279521D01*
X62057Y278708D01*
X61292Y277944D01*
X60479Y277231D01*
X59622Y276573D01*
X58723Y275972D01*
X57787Y275432D01*
X56817Y274954D01*
X55819Y274540D01*
X54795Y274192D01*
X53751Y273913D01*
X52691Y273702D01*
X51619Y273561D01*
X50540Y273490D01*
X49460Y273490D01*
X48381Y273561D01*
X47309Y273702D01*
X46249Y273913D01*
X45205Y274192D01*
X44181Y274540D01*
X43183Y274954D01*
X42213Y275432D01*
X41277Y275972D01*
X40378Y276573D01*
X39521Y277231D01*
X38708Y277944D01*
X37944Y278708D01*
X37231Y279521D01*
X36573Y280378D01*
X35972Y281277D01*
X35432Y282213D01*
X34954Y283183D01*
X34540Y284181D01*
X34192Y285205D01*
X33913Y286249D01*
X33702Y287309D01*
X33561Y288381D01*
X33490Y289460D01*
X33490Y290540D01*
X33561Y291619D01*
X33702Y292691D01*
X33913Y293751D01*
X34192Y294795D01*
X34540Y295819D01*
X34954Y296817D01*
X35432Y297787D01*
X35972Y298723D01*
X36573Y299622D01*
X37231Y300479D01*
X37944Y301292D01*
X38708Y302057D01*
X39521Y302769D01*
X40378Y303427D01*
X41277Y304028D01*
X42213Y304568D01*
X43183Y305046D01*
X44181Y305460D01*
X45205Y305808D01*
X46249Y306087D01*
X47309Y306298D01*
X48381Y306439D01*
X49460Y306510D01*
X50540Y306510D01*
X51619Y306439D01*
X52691Y306298D01*
X53751Y306087D01*
X54795Y305808D01*
X55819Y305460D01*
X56817Y305046D01*
X57787Y304568D01*
X58723Y304028D01*
X59622Y303427D01*
X60479Y302769D01*
X61292Y302057D01*
X62057Y301292D01*
X62769Y300479D01*
X63427Y299622D01*
X64028Y298723D01*
X64568Y297787D01*
X65046Y296817D01*
X65460Y295819D01*
X65808Y294795D01*
X66087Y293751D01*
X66298Y292691D01*
X66439Y291619D01*
X66510Y290540D01*
X66510Y289460D01*
X352310Y289460D02*
X352239Y288381D01*
X352098Y287309D01*
X351887Y286249D01*
X351608Y285205D01*
X351260Y284181D01*
X350846Y283183D01*
X350368Y282213D01*
X349828Y281277D01*
X349227Y280378D01*
X348569Y279521D01*
X347857Y278708D01*
X347092Y277944D01*
X346279Y277231D01*
X345422Y276573D01*
X344523Y275972D01*
X343587Y275432D01*
X342617Y274954D01*
X341619Y274540D01*
X340595Y274192D01*
X339551Y273913D01*
X338491Y273702D01*
X337419Y273561D01*
X336340Y273490D01*
X335260Y273490D01*
X334181Y273561D01*
X333109Y273702D01*
X332049Y273913D01*
X331005Y274192D01*
X329981Y274540D01*
X328983Y274954D01*
X328013Y275432D01*
X327077Y275972D01*
X326178Y276573D01*
X325321Y277231D01*
X324508Y277944D01*
X323744Y278708D01*
X323031Y279521D01*
X322373Y280378D01*
X321772Y281277D01*
X321232Y282213D01*
X320754Y283183D01*
X320340Y284181D01*
X319992Y285205D01*
X319713Y286249D01*
X319502Y287309D01*
X319361Y288381D01*
X319290Y289460D01*
X319290Y290540D01*
X319361Y291619D01*
X319502Y292691D01*
X319713Y293751D01*
X319992Y294795D01*
X320340Y295819D01*
X320754Y296817D01*
X321232Y297787D01*
X321772Y298723D01*
X322373Y299622D01*
X323031Y300479D01*
X323744Y301292D01*
X324508Y302057D01*
X325321Y302769D01*
X326178Y303427D01*
X327077Y304028D01*
X328013Y304568D01*
X328983Y305046D01*
X329981Y305460D01*
X331005Y305808D01*
X332049Y306087D01*
X333109Y306298D01*
X334181Y306439D01*
X335260Y306510D01*
X336340Y306510D01*
X337419Y306439D01*
X338491Y306298D01*
X339551Y306087D01*
X340595Y305808D01*
X341619Y305460D01*
X342617Y305046D01*
X343587Y304568D01*
X344523Y304028D01*
X345422Y303427D01*
X346279Y302769D01*
X347092Y302057D01*
X347857Y301292D01*
X348569Y300479D01*
X349227Y299622D01*
X349828Y298723D01*
X350368Y297787D01*
X350846Y296817D01*
X351260Y295819D01*
X351608Y294795D01*
X351887Y293751D01*
X352098Y292691D01*
X352239Y291619D01*
X352310Y290540D01*
X352310Y289460D01*
X352310Y69460D02*
X352239Y68381D01*
X352098Y67309D01*
X351887Y66249D01*
X351608Y65205D01*
X351260Y64181D01*
X350846Y63183D01*
X350368Y62213D01*
X349828Y61277D01*
X349227Y60378D01*
X348569Y59521D01*
X347857Y58708D01*
X347092Y57944D01*
X346279Y57231D01*
X345422Y56573D01*
X344523Y55972D01*
X343587Y55432D01*
X342617Y54954D01*
X341619Y54540D01*
X340595Y54192D01*
X339551Y53913D01*
X338491Y53702D01*
X337419Y53561D01*
X336340Y53490D01*
X335260Y53490D01*
X334181Y53561D01*
X333109Y53702D01*
X332049Y53913D01*
X331005Y54192D01*
X329981Y54540D01*
X328983Y54954D01*
X328013Y55432D01*
X327077Y55972D01*
X326178Y56573D01*
X325321Y57231D01*
X324508Y57944D01*
X323744Y58708D01*
X323031Y59521D01*
X322373Y60378D01*
X321772Y61277D01*
X321232Y62213D01*
X320754Y63183D01*
X320340Y64181D01*
X319992Y65205D01*
X319713Y66249D01*
X319502Y67309D01*
X319361Y68381D01*
X319290Y69460D01*
X319290Y70540D01*
X319361Y71619D01*
X319502Y72691D01*
X319713Y73751D01*
X319992Y74795D01*
X320340Y75819D01*
X320754Y76817D01*
X321232Y77787D01*
X321772Y78723D01*
X322373Y79622D01*
X323031Y80479D01*
X323744Y81292D01*
X324508Y82057D01*
X325321Y82769D01*
X326178Y83427D01*
X327077Y84028D01*
X328013Y84568D01*
X328983Y85046D01*
X329981Y85460D01*
X331005Y85808D01*
X332049Y86087D01*
X333109Y86298D01*
X334181Y86439D01*
X335260Y86510D01*
X336340Y86510D01*
X337419Y86439D01*
X338491Y86298D01*
X339551Y86087D01*
X340595Y85808D01*
X341619Y85460D01*
X342617Y85046D01*
X343587Y84568D01*
X344523Y84028D01*
X345422Y83427D01*
X346279Y82769D01*
X347092Y82057D01*
X347857Y81292D01*
X348569Y80479D01*
X349227Y79622D01*
X349828Y78723D01*
X350368Y77787D01*
X350846Y76817D01*
X351260Y75819D01*
X351608Y74795D01*
X351887Y73751D01*
X352098Y72691D01*
X352239Y71619D01*
X352310Y70540D01*
X352310Y69460D01*
M02*
