G04 EAGLE Gerber RS-274X export*
G75*
%MOMM*%
%FSLAX34Y34*%
%LPD*%
%INSilkscreen Top*%
%IPPOS*%
%AMOC8*
5,1,8,0,0,1.08239X$1,22.5*%
G01*
%ADD10C,0.101600*%
%ADD11C,0.076200*%
%ADD12C,0.152400*%
%ADD13C,0.203200*%
%ADD14C,0.200000*%
%ADD15C,0.127000*%


D10*
X6350Y25654D02*
X6350Y37338D01*
X11543Y37338D01*
X11543Y32145D02*
X6350Y32145D01*
X15889Y27601D02*
X15889Y37338D01*
X15889Y27601D02*
X15891Y27514D01*
X15897Y27426D01*
X15907Y27340D01*
X15920Y27253D01*
X15938Y27168D01*
X15959Y27083D01*
X15984Y26999D01*
X16013Y26917D01*
X16046Y26836D01*
X16082Y26756D01*
X16121Y26678D01*
X16165Y26602D01*
X16211Y26528D01*
X16261Y26457D01*
X16314Y26387D01*
X16370Y26320D01*
X16429Y26256D01*
X16491Y26194D01*
X16555Y26135D01*
X16622Y26079D01*
X16692Y26026D01*
X16763Y25976D01*
X16837Y25930D01*
X16913Y25886D01*
X16991Y25847D01*
X17071Y25811D01*
X17152Y25778D01*
X17234Y25749D01*
X17318Y25724D01*
X17403Y25703D01*
X17488Y25685D01*
X17575Y25672D01*
X17661Y25662D01*
X17749Y25656D01*
X17836Y25654D01*
X21836Y28250D02*
X21836Y30847D01*
X21838Y30948D01*
X21844Y31048D01*
X21854Y31148D01*
X21867Y31248D01*
X21885Y31347D01*
X21906Y31446D01*
X21931Y31543D01*
X21960Y31640D01*
X21993Y31735D01*
X22029Y31829D01*
X22069Y31921D01*
X22112Y32012D01*
X22159Y32101D01*
X22209Y32188D01*
X22263Y32274D01*
X22320Y32357D01*
X22380Y32437D01*
X22443Y32516D01*
X22510Y32592D01*
X22579Y32665D01*
X22651Y32735D01*
X22725Y32803D01*
X22802Y32868D01*
X22882Y32929D01*
X22964Y32988D01*
X23048Y33043D01*
X23134Y33095D01*
X23222Y33144D01*
X23312Y33189D01*
X23404Y33231D01*
X23497Y33269D01*
X23592Y33303D01*
X23687Y33334D01*
X23784Y33361D01*
X23882Y33384D01*
X23981Y33404D01*
X24081Y33419D01*
X24181Y33431D01*
X24281Y33439D01*
X24382Y33443D01*
X24482Y33443D01*
X24583Y33439D01*
X24683Y33431D01*
X24783Y33419D01*
X24883Y33404D01*
X24982Y33384D01*
X25080Y33361D01*
X25177Y33334D01*
X25272Y33303D01*
X25367Y33269D01*
X25460Y33231D01*
X25552Y33189D01*
X25642Y33144D01*
X25730Y33095D01*
X25816Y33043D01*
X25900Y32988D01*
X25982Y32929D01*
X26062Y32868D01*
X26139Y32803D01*
X26213Y32735D01*
X26285Y32665D01*
X26354Y32592D01*
X26421Y32516D01*
X26484Y32437D01*
X26544Y32357D01*
X26601Y32274D01*
X26655Y32188D01*
X26705Y32101D01*
X26752Y32012D01*
X26795Y31921D01*
X26835Y31829D01*
X26871Y31735D01*
X26904Y31640D01*
X26933Y31543D01*
X26958Y31446D01*
X26979Y31347D01*
X26997Y31248D01*
X27010Y31148D01*
X27020Y31048D01*
X27026Y30948D01*
X27028Y30847D01*
X27028Y28250D01*
X27026Y28149D01*
X27020Y28049D01*
X27010Y27949D01*
X26997Y27849D01*
X26979Y27750D01*
X26958Y27651D01*
X26933Y27554D01*
X26904Y27457D01*
X26871Y27362D01*
X26835Y27268D01*
X26795Y27176D01*
X26752Y27085D01*
X26705Y26996D01*
X26655Y26909D01*
X26601Y26823D01*
X26544Y26740D01*
X26484Y26660D01*
X26421Y26581D01*
X26354Y26505D01*
X26285Y26432D01*
X26213Y26362D01*
X26139Y26294D01*
X26062Y26229D01*
X25982Y26168D01*
X25900Y26109D01*
X25816Y26054D01*
X25730Y26002D01*
X25642Y25953D01*
X25552Y25908D01*
X25460Y25866D01*
X25367Y25828D01*
X25272Y25794D01*
X25177Y25763D01*
X25080Y25736D01*
X24982Y25713D01*
X24883Y25693D01*
X24783Y25678D01*
X24683Y25666D01*
X24583Y25658D01*
X24482Y25654D01*
X24382Y25654D01*
X24281Y25658D01*
X24181Y25666D01*
X24081Y25678D01*
X23981Y25693D01*
X23882Y25713D01*
X23784Y25736D01*
X23687Y25763D01*
X23592Y25794D01*
X23497Y25828D01*
X23404Y25866D01*
X23312Y25908D01*
X23222Y25953D01*
X23134Y26002D01*
X23048Y26054D01*
X22964Y26109D01*
X22882Y26168D01*
X22802Y26229D01*
X22725Y26294D01*
X22651Y26362D01*
X22579Y26432D01*
X22510Y26505D01*
X22443Y26581D01*
X22380Y26660D01*
X22320Y26740D01*
X22263Y26823D01*
X22209Y26909D01*
X22159Y26996D01*
X22112Y27085D01*
X22069Y27176D01*
X22029Y27268D01*
X21993Y27362D01*
X21960Y27457D01*
X21931Y27554D01*
X21906Y27651D01*
X21885Y27750D01*
X21867Y27849D01*
X21854Y27949D01*
X21844Y28049D01*
X21838Y28149D01*
X21836Y28250D01*
X31742Y28250D02*
X31742Y30847D01*
X31744Y30948D01*
X31750Y31048D01*
X31760Y31148D01*
X31773Y31248D01*
X31791Y31347D01*
X31812Y31446D01*
X31837Y31543D01*
X31866Y31640D01*
X31899Y31735D01*
X31935Y31829D01*
X31975Y31921D01*
X32018Y32012D01*
X32065Y32101D01*
X32115Y32188D01*
X32169Y32274D01*
X32226Y32357D01*
X32286Y32437D01*
X32349Y32516D01*
X32416Y32592D01*
X32485Y32665D01*
X32557Y32735D01*
X32631Y32803D01*
X32708Y32868D01*
X32788Y32929D01*
X32870Y32988D01*
X32954Y33043D01*
X33040Y33095D01*
X33128Y33144D01*
X33218Y33189D01*
X33310Y33231D01*
X33403Y33269D01*
X33498Y33303D01*
X33593Y33334D01*
X33690Y33361D01*
X33788Y33384D01*
X33887Y33404D01*
X33987Y33419D01*
X34087Y33431D01*
X34187Y33439D01*
X34288Y33443D01*
X34388Y33443D01*
X34489Y33439D01*
X34589Y33431D01*
X34689Y33419D01*
X34789Y33404D01*
X34888Y33384D01*
X34986Y33361D01*
X35083Y33334D01*
X35178Y33303D01*
X35273Y33269D01*
X35366Y33231D01*
X35458Y33189D01*
X35548Y33144D01*
X35636Y33095D01*
X35722Y33043D01*
X35806Y32988D01*
X35888Y32929D01*
X35968Y32868D01*
X36045Y32803D01*
X36119Y32735D01*
X36191Y32665D01*
X36260Y32592D01*
X36327Y32516D01*
X36390Y32437D01*
X36450Y32357D01*
X36507Y32274D01*
X36561Y32188D01*
X36611Y32101D01*
X36658Y32012D01*
X36701Y31921D01*
X36741Y31829D01*
X36777Y31735D01*
X36810Y31640D01*
X36839Y31543D01*
X36864Y31446D01*
X36885Y31347D01*
X36903Y31248D01*
X36916Y31148D01*
X36926Y31048D01*
X36932Y30948D01*
X36934Y30847D01*
X36934Y28250D01*
X36932Y28149D01*
X36926Y28049D01*
X36916Y27949D01*
X36903Y27849D01*
X36885Y27750D01*
X36864Y27651D01*
X36839Y27554D01*
X36810Y27457D01*
X36777Y27362D01*
X36741Y27268D01*
X36701Y27176D01*
X36658Y27085D01*
X36611Y26996D01*
X36561Y26909D01*
X36507Y26823D01*
X36450Y26740D01*
X36390Y26660D01*
X36327Y26581D01*
X36260Y26505D01*
X36191Y26432D01*
X36119Y26362D01*
X36045Y26294D01*
X35968Y26229D01*
X35888Y26168D01*
X35806Y26109D01*
X35722Y26054D01*
X35636Y26002D01*
X35548Y25953D01*
X35458Y25908D01*
X35366Y25866D01*
X35273Y25828D01*
X35178Y25794D01*
X35083Y25763D01*
X34986Y25736D01*
X34888Y25713D01*
X34789Y25693D01*
X34689Y25678D01*
X34589Y25666D01*
X34489Y25658D01*
X34388Y25654D01*
X34288Y25654D01*
X34187Y25658D01*
X34087Y25666D01*
X33987Y25678D01*
X33887Y25693D01*
X33788Y25713D01*
X33690Y25736D01*
X33593Y25763D01*
X33498Y25794D01*
X33403Y25828D01*
X33310Y25866D01*
X33218Y25908D01*
X33128Y25953D01*
X33040Y26002D01*
X32954Y26054D01*
X32870Y26109D01*
X32788Y26168D01*
X32708Y26229D01*
X32631Y26294D01*
X32557Y26362D01*
X32485Y26432D01*
X32416Y26505D01*
X32349Y26581D01*
X32286Y26660D01*
X32226Y26740D01*
X32169Y26823D01*
X32115Y26909D01*
X32065Y26996D01*
X32018Y27085D01*
X31975Y27176D01*
X31935Y27268D01*
X31899Y27362D01*
X31866Y27457D01*
X31837Y27554D01*
X31812Y27651D01*
X31791Y27750D01*
X31773Y27849D01*
X31760Y27949D01*
X31750Y28049D01*
X31744Y28149D01*
X31742Y28250D01*
X46781Y25654D02*
X46781Y37338D01*
X46781Y25654D02*
X43536Y25654D01*
X43449Y25656D01*
X43361Y25662D01*
X43275Y25672D01*
X43188Y25685D01*
X43103Y25703D01*
X43018Y25724D01*
X42934Y25749D01*
X42852Y25778D01*
X42771Y25811D01*
X42691Y25847D01*
X42613Y25886D01*
X42537Y25930D01*
X42463Y25976D01*
X42392Y26026D01*
X42322Y26079D01*
X42255Y26135D01*
X42191Y26194D01*
X42129Y26256D01*
X42070Y26320D01*
X42014Y26387D01*
X41961Y26457D01*
X41911Y26528D01*
X41865Y26602D01*
X41821Y26678D01*
X41782Y26756D01*
X41746Y26836D01*
X41713Y26917D01*
X41684Y26999D01*
X41659Y27083D01*
X41638Y27168D01*
X41620Y27253D01*
X41607Y27340D01*
X41597Y27426D01*
X41591Y27514D01*
X41589Y27601D01*
X41589Y31496D01*
X41591Y31583D01*
X41597Y31671D01*
X41607Y31757D01*
X41620Y31844D01*
X41638Y31929D01*
X41659Y32014D01*
X41684Y32098D01*
X41713Y32180D01*
X41746Y32261D01*
X41782Y32341D01*
X41821Y32419D01*
X41865Y32495D01*
X41911Y32569D01*
X41961Y32640D01*
X42014Y32710D01*
X42070Y32777D01*
X42129Y32841D01*
X42191Y32903D01*
X42255Y32962D01*
X42322Y33018D01*
X42392Y33071D01*
X42463Y33121D01*
X42537Y33167D01*
X42613Y33211D01*
X42691Y33250D01*
X42771Y33286D01*
X42852Y33319D01*
X42934Y33348D01*
X43018Y33373D01*
X43103Y33394D01*
X43188Y33412D01*
X43275Y33425D01*
X43361Y33435D01*
X43449Y33441D01*
X43536Y33443D01*
X46781Y33443D01*
X58524Y37338D02*
X58524Y25654D01*
X58524Y37338D02*
X61770Y37338D01*
X61883Y37336D01*
X61996Y37330D01*
X62109Y37320D01*
X62222Y37306D01*
X62334Y37289D01*
X62445Y37267D01*
X62555Y37242D01*
X62665Y37212D01*
X62773Y37179D01*
X62880Y37142D01*
X62986Y37102D01*
X63090Y37057D01*
X63193Y37009D01*
X63294Y36958D01*
X63393Y36903D01*
X63490Y36845D01*
X63585Y36783D01*
X63678Y36718D01*
X63768Y36650D01*
X63856Y36579D01*
X63942Y36504D01*
X64025Y36427D01*
X64105Y36347D01*
X64182Y36264D01*
X64257Y36178D01*
X64328Y36090D01*
X64396Y36000D01*
X64461Y35907D01*
X64523Y35812D01*
X64581Y35715D01*
X64636Y35616D01*
X64687Y35515D01*
X64735Y35412D01*
X64780Y35308D01*
X64820Y35202D01*
X64857Y35095D01*
X64890Y34987D01*
X64920Y34877D01*
X64945Y34767D01*
X64967Y34656D01*
X64984Y34544D01*
X64998Y34431D01*
X65008Y34318D01*
X65014Y34205D01*
X65016Y34092D01*
X65015Y34092D02*
X65015Y28900D01*
X65016Y28900D02*
X65014Y28787D01*
X65008Y28674D01*
X64998Y28561D01*
X64984Y28448D01*
X64967Y28336D01*
X64945Y28225D01*
X64920Y28115D01*
X64890Y28005D01*
X64857Y27897D01*
X64820Y27790D01*
X64780Y27684D01*
X64735Y27580D01*
X64687Y27477D01*
X64636Y27376D01*
X64581Y27277D01*
X64523Y27180D01*
X64461Y27085D01*
X64396Y26992D01*
X64328Y26902D01*
X64257Y26814D01*
X64182Y26728D01*
X64105Y26645D01*
X64025Y26565D01*
X63942Y26488D01*
X63856Y26413D01*
X63768Y26342D01*
X63678Y26274D01*
X63585Y26209D01*
X63490Y26147D01*
X63393Y26089D01*
X63294Y26034D01*
X63193Y25983D01*
X63090Y25935D01*
X62986Y25890D01*
X62880Y25850D01*
X62773Y25813D01*
X62665Y25780D01*
X62555Y25750D01*
X62445Y25725D01*
X62334Y25703D01*
X62222Y25686D01*
X62109Y25672D01*
X61996Y25662D01*
X61883Y25656D01*
X61770Y25654D01*
X58524Y25654D01*
X70222Y28250D02*
X70222Y30847D01*
X70223Y30847D02*
X70225Y30948D01*
X70231Y31048D01*
X70241Y31148D01*
X70254Y31248D01*
X70272Y31347D01*
X70293Y31446D01*
X70318Y31543D01*
X70347Y31640D01*
X70380Y31735D01*
X70416Y31829D01*
X70456Y31921D01*
X70499Y32012D01*
X70546Y32101D01*
X70596Y32188D01*
X70650Y32274D01*
X70707Y32357D01*
X70767Y32437D01*
X70830Y32516D01*
X70897Y32592D01*
X70966Y32665D01*
X71038Y32735D01*
X71112Y32803D01*
X71189Y32868D01*
X71269Y32929D01*
X71351Y32988D01*
X71435Y33043D01*
X71521Y33095D01*
X71609Y33144D01*
X71699Y33189D01*
X71791Y33231D01*
X71884Y33269D01*
X71979Y33303D01*
X72074Y33334D01*
X72171Y33361D01*
X72269Y33384D01*
X72368Y33404D01*
X72468Y33419D01*
X72568Y33431D01*
X72668Y33439D01*
X72769Y33443D01*
X72869Y33443D01*
X72970Y33439D01*
X73070Y33431D01*
X73170Y33419D01*
X73270Y33404D01*
X73369Y33384D01*
X73467Y33361D01*
X73564Y33334D01*
X73659Y33303D01*
X73754Y33269D01*
X73847Y33231D01*
X73939Y33189D01*
X74029Y33144D01*
X74117Y33095D01*
X74203Y33043D01*
X74287Y32988D01*
X74369Y32929D01*
X74449Y32868D01*
X74526Y32803D01*
X74600Y32735D01*
X74672Y32665D01*
X74741Y32592D01*
X74808Y32516D01*
X74871Y32437D01*
X74931Y32357D01*
X74988Y32274D01*
X75042Y32188D01*
X75092Y32101D01*
X75139Y32012D01*
X75182Y31921D01*
X75222Y31829D01*
X75258Y31735D01*
X75291Y31640D01*
X75320Y31543D01*
X75345Y31446D01*
X75366Y31347D01*
X75384Y31248D01*
X75397Y31148D01*
X75407Y31048D01*
X75413Y30948D01*
X75415Y30847D01*
X75415Y28250D01*
X75413Y28149D01*
X75407Y28049D01*
X75397Y27949D01*
X75384Y27849D01*
X75366Y27750D01*
X75345Y27651D01*
X75320Y27554D01*
X75291Y27457D01*
X75258Y27362D01*
X75222Y27268D01*
X75182Y27176D01*
X75139Y27085D01*
X75092Y26996D01*
X75042Y26909D01*
X74988Y26823D01*
X74931Y26740D01*
X74871Y26660D01*
X74808Y26581D01*
X74741Y26505D01*
X74672Y26432D01*
X74600Y26362D01*
X74526Y26294D01*
X74449Y26229D01*
X74369Y26168D01*
X74287Y26109D01*
X74203Y26054D01*
X74117Y26002D01*
X74029Y25953D01*
X73939Y25908D01*
X73847Y25866D01*
X73754Y25828D01*
X73659Y25794D01*
X73564Y25763D01*
X73467Y25736D01*
X73369Y25713D01*
X73270Y25693D01*
X73170Y25678D01*
X73070Y25666D01*
X72970Y25658D01*
X72869Y25654D01*
X72769Y25654D01*
X72668Y25658D01*
X72568Y25666D01*
X72468Y25678D01*
X72368Y25693D01*
X72269Y25713D01*
X72171Y25736D01*
X72074Y25763D01*
X71979Y25794D01*
X71884Y25828D01*
X71791Y25866D01*
X71699Y25908D01*
X71609Y25953D01*
X71521Y26002D01*
X71435Y26054D01*
X71351Y26109D01*
X71269Y26168D01*
X71189Y26229D01*
X71112Y26294D01*
X71038Y26362D01*
X70966Y26432D01*
X70897Y26505D01*
X70830Y26581D01*
X70767Y26660D01*
X70707Y26740D01*
X70650Y26823D01*
X70596Y26909D01*
X70546Y26996D01*
X70499Y27085D01*
X70456Y27176D01*
X70416Y27268D01*
X70380Y27362D01*
X70347Y27457D01*
X70318Y27554D01*
X70293Y27651D01*
X70272Y27750D01*
X70254Y27849D01*
X70241Y27949D01*
X70231Y28049D01*
X70225Y28149D01*
X70223Y28250D01*
X82017Y25654D02*
X85262Y25654D01*
X82017Y25654D02*
X81930Y25656D01*
X81842Y25662D01*
X81756Y25672D01*
X81669Y25685D01*
X81584Y25703D01*
X81499Y25724D01*
X81415Y25749D01*
X81333Y25778D01*
X81252Y25811D01*
X81172Y25847D01*
X81094Y25886D01*
X81018Y25930D01*
X80944Y25976D01*
X80873Y26026D01*
X80803Y26079D01*
X80736Y26135D01*
X80672Y26194D01*
X80610Y26256D01*
X80551Y26320D01*
X80495Y26387D01*
X80442Y26457D01*
X80392Y26528D01*
X80346Y26602D01*
X80302Y26678D01*
X80263Y26756D01*
X80227Y26836D01*
X80194Y26917D01*
X80165Y26999D01*
X80140Y27083D01*
X80119Y27168D01*
X80101Y27253D01*
X80088Y27340D01*
X80078Y27426D01*
X80072Y27514D01*
X80070Y27601D01*
X80070Y31496D01*
X80072Y31583D01*
X80078Y31671D01*
X80088Y31757D01*
X80101Y31844D01*
X80119Y31929D01*
X80140Y32014D01*
X80165Y32098D01*
X80194Y32180D01*
X80227Y32261D01*
X80263Y32341D01*
X80302Y32419D01*
X80346Y32495D01*
X80392Y32569D01*
X80442Y32640D01*
X80495Y32710D01*
X80551Y32777D01*
X80610Y32841D01*
X80672Y32903D01*
X80736Y32962D01*
X80803Y33018D01*
X80873Y33071D01*
X80944Y33121D01*
X81018Y33167D01*
X81094Y33211D01*
X81172Y33250D01*
X81252Y33286D01*
X81333Y33319D01*
X81415Y33348D01*
X81499Y33373D01*
X81584Y33394D01*
X81669Y33412D01*
X81756Y33425D01*
X81842Y33435D01*
X81930Y33441D01*
X82017Y33443D01*
X85262Y33443D01*
X85262Y23707D01*
X85260Y23620D01*
X85254Y23532D01*
X85244Y23446D01*
X85231Y23359D01*
X85213Y23274D01*
X85192Y23189D01*
X85167Y23105D01*
X85138Y23023D01*
X85105Y22942D01*
X85069Y22862D01*
X85030Y22784D01*
X84986Y22708D01*
X84940Y22634D01*
X84890Y22563D01*
X84837Y22493D01*
X84781Y22426D01*
X84722Y22362D01*
X84661Y22300D01*
X84596Y22241D01*
X84529Y22185D01*
X84459Y22132D01*
X84388Y22082D01*
X84314Y22036D01*
X84238Y21992D01*
X84160Y21953D01*
X84080Y21917D01*
X83999Y21884D01*
X83917Y21855D01*
X83833Y21830D01*
X83748Y21809D01*
X83663Y21791D01*
X83576Y21778D01*
X83490Y21768D01*
X83402Y21762D01*
X83315Y21760D01*
X83315Y21759D02*
X80719Y21759D01*
X99188Y25654D02*
X101784Y25654D01*
X99188Y25654D02*
X99089Y25656D01*
X98989Y25662D01*
X98890Y25671D01*
X98792Y25684D01*
X98694Y25701D01*
X98596Y25722D01*
X98500Y25747D01*
X98405Y25775D01*
X98311Y25807D01*
X98218Y25842D01*
X98126Y25881D01*
X98036Y25924D01*
X97948Y25969D01*
X97861Y26019D01*
X97777Y26071D01*
X97694Y26127D01*
X97614Y26185D01*
X97536Y26247D01*
X97461Y26312D01*
X97388Y26380D01*
X97318Y26450D01*
X97250Y26523D01*
X97185Y26598D01*
X97123Y26676D01*
X97065Y26756D01*
X97009Y26839D01*
X96957Y26923D01*
X96907Y27010D01*
X96862Y27098D01*
X96819Y27188D01*
X96780Y27280D01*
X96745Y27373D01*
X96713Y27467D01*
X96685Y27562D01*
X96660Y27658D01*
X96639Y27756D01*
X96622Y27854D01*
X96609Y27952D01*
X96600Y28051D01*
X96594Y28151D01*
X96592Y28250D01*
X96591Y28250D02*
X96591Y34742D01*
X96592Y34742D02*
X96594Y34841D01*
X96600Y34941D01*
X96609Y35040D01*
X96622Y35138D01*
X96639Y35236D01*
X96660Y35334D01*
X96685Y35430D01*
X96713Y35525D01*
X96745Y35619D01*
X96780Y35712D01*
X96819Y35804D01*
X96862Y35894D01*
X96907Y35982D01*
X96957Y36069D01*
X97009Y36153D01*
X97065Y36236D01*
X97123Y36316D01*
X97185Y36394D01*
X97250Y36469D01*
X97318Y36542D01*
X97388Y36612D01*
X97461Y36680D01*
X97536Y36745D01*
X97614Y36807D01*
X97694Y36865D01*
X97777Y36921D01*
X97861Y36973D01*
X97948Y37023D01*
X98036Y37068D01*
X98126Y37111D01*
X98218Y37150D01*
X98310Y37185D01*
X98405Y37217D01*
X98500Y37245D01*
X98596Y37270D01*
X98694Y37291D01*
X98792Y37308D01*
X98890Y37321D01*
X98989Y37330D01*
X99089Y37336D01*
X99188Y37338D01*
X101784Y37338D01*
X108249Y30198D02*
X111170Y30198D01*
X108249Y30198D02*
X108155Y30196D01*
X108061Y30190D01*
X107968Y30181D01*
X107875Y30167D01*
X107783Y30150D01*
X107691Y30128D01*
X107601Y30104D01*
X107511Y30075D01*
X107423Y30043D01*
X107336Y30007D01*
X107251Y29967D01*
X107168Y29924D01*
X107086Y29878D01*
X107006Y29828D01*
X106929Y29775D01*
X106854Y29719D01*
X106781Y29660D01*
X106710Y29598D01*
X106642Y29533D01*
X106577Y29465D01*
X106515Y29394D01*
X106456Y29321D01*
X106400Y29246D01*
X106347Y29169D01*
X106297Y29089D01*
X106251Y29007D01*
X106208Y28924D01*
X106168Y28839D01*
X106132Y28752D01*
X106100Y28664D01*
X106071Y28574D01*
X106047Y28484D01*
X106025Y28392D01*
X106008Y28300D01*
X105994Y28207D01*
X105985Y28114D01*
X105979Y28020D01*
X105977Y27926D01*
X105979Y27832D01*
X105985Y27738D01*
X105994Y27645D01*
X106008Y27552D01*
X106025Y27460D01*
X106047Y27368D01*
X106071Y27278D01*
X106100Y27188D01*
X106132Y27100D01*
X106168Y27013D01*
X106208Y26928D01*
X106251Y26845D01*
X106297Y26763D01*
X106347Y26683D01*
X106400Y26606D01*
X106456Y26531D01*
X106515Y26458D01*
X106577Y26387D01*
X106642Y26319D01*
X106710Y26254D01*
X106781Y26192D01*
X106854Y26133D01*
X106929Y26077D01*
X107006Y26024D01*
X107086Y25974D01*
X107168Y25928D01*
X107251Y25885D01*
X107336Y25845D01*
X107423Y25809D01*
X107511Y25777D01*
X107601Y25748D01*
X107691Y25724D01*
X107783Y25702D01*
X107875Y25685D01*
X107968Y25671D01*
X108061Y25662D01*
X108155Y25656D01*
X108249Y25654D01*
X111170Y25654D01*
X111170Y31496D01*
X111168Y31583D01*
X111162Y31671D01*
X111152Y31757D01*
X111139Y31844D01*
X111121Y31929D01*
X111100Y32014D01*
X111075Y32098D01*
X111046Y32180D01*
X111013Y32261D01*
X110977Y32341D01*
X110938Y32419D01*
X110894Y32495D01*
X110848Y32569D01*
X110798Y32640D01*
X110745Y32710D01*
X110689Y32777D01*
X110630Y32841D01*
X110568Y32903D01*
X110504Y32962D01*
X110437Y33018D01*
X110367Y33071D01*
X110296Y33121D01*
X110222Y33167D01*
X110146Y33211D01*
X110068Y33250D01*
X109988Y33286D01*
X109907Y33319D01*
X109825Y33348D01*
X109741Y33373D01*
X109656Y33394D01*
X109571Y33412D01*
X109484Y33425D01*
X109398Y33435D01*
X109310Y33441D01*
X109223Y33443D01*
X106627Y33443D01*
X116763Y33443D02*
X116763Y21759D01*
X116763Y33443D02*
X120009Y33443D01*
X120096Y33441D01*
X120184Y33435D01*
X120270Y33425D01*
X120357Y33412D01*
X120442Y33394D01*
X120527Y33373D01*
X120611Y33348D01*
X120693Y33319D01*
X120774Y33286D01*
X120854Y33250D01*
X120932Y33211D01*
X121008Y33167D01*
X121082Y33121D01*
X121153Y33071D01*
X121223Y33018D01*
X121290Y32962D01*
X121354Y32903D01*
X121416Y32842D01*
X121475Y32777D01*
X121531Y32710D01*
X121584Y32640D01*
X121634Y32569D01*
X121680Y32495D01*
X121724Y32419D01*
X121763Y32341D01*
X121799Y32261D01*
X121832Y32180D01*
X121861Y32098D01*
X121886Y32014D01*
X121907Y31929D01*
X121925Y31844D01*
X121938Y31757D01*
X121948Y31671D01*
X121954Y31583D01*
X121956Y31496D01*
X121956Y27601D01*
X121954Y27514D01*
X121948Y27426D01*
X121938Y27340D01*
X121925Y27253D01*
X121907Y27168D01*
X121886Y27083D01*
X121861Y26999D01*
X121832Y26917D01*
X121799Y26836D01*
X121763Y26756D01*
X121724Y26678D01*
X121680Y26602D01*
X121634Y26528D01*
X121584Y26457D01*
X121531Y26387D01*
X121475Y26320D01*
X121416Y26256D01*
X121354Y26194D01*
X121290Y26135D01*
X121223Y26079D01*
X121153Y26026D01*
X121082Y25976D01*
X121008Y25930D01*
X120932Y25886D01*
X120854Y25847D01*
X120774Y25811D01*
X120693Y25778D01*
X120611Y25749D01*
X120527Y25724D01*
X120442Y25703D01*
X120357Y25685D01*
X120270Y25672D01*
X120184Y25662D01*
X120096Y25656D01*
X120009Y25654D01*
X116763Y25654D01*
X128823Y30198D02*
X131744Y30198D01*
X128823Y30198D02*
X128729Y30196D01*
X128635Y30190D01*
X128542Y30181D01*
X128449Y30167D01*
X128357Y30150D01*
X128265Y30128D01*
X128175Y30104D01*
X128085Y30075D01*
X127997Y30043D01*
X127910Y30007D01*
X127825Y29967D01*
X127742Y29924D01*
X127660Y29878D01*
X127580Y29828D01*
X127503Y29775D01*
X127428Y29719D01*
X127355Y29660D01*
X127284Y29598D01*
X127216Y29533D01*
X127151Y29465D01*
X127089Y29394D01*
X127030Y29321D01*
X126974Y29246D01*
X126921Y29169D01*
X126871Y29089D01*
X126825Y29007D01*
X126782Y28924D01*
X126742Y28839D01*
X126706Y28752D01*
X126674Y28664D01*
X126645Y28574D01*
X126621Y28484D01*
X126599Y28392D01*
X126582Y28300D01*
X126568Y28207D01*
X126559Y28114D01*
X126553Y28020D01*
X126551Y27926D01*
X126553Y27832D01*
X126559Y27738D01*
X126568Y27645D01*
X126582Y27552D01*
X126599Y27460D01*
X126621Y27368D01*
X126645Y27278D01*
X126674Y27188D01*
X126706Y27100D01*
X126742Y27013D01*
X126782Y26928D01*
X126825Y26845D01*
X126871Y26763D01*
X126921Y26683D01*
X126974Y26606D01*
X127030Y26531D01*
X127089Y26458D01*
X127151Y26387D01*
X127216Y26319D01*
X127284Y26254D01*
X127355Y26192D01*
X127428Y26133D01*
X127503Y26077D01*
X127580Y26024D01*
X127660Y25974D01*
X127742Y25928D01*
X127825Y25885D01*
X127910Y25845D01*
X127997Y25809D01*
X128085Y25777D01*
X128175Y25748D01*
X128265Y25724D01*
X128357Y25702D01*
X128449Y25685D01*
X128542Y25671D01*
X128635Y25662D01*
X128729Y25656D01*
X128823Y25654D01*
X131744Y25654D01*
X131744Y31496D01*
X131742Y31583D01*
X131736Y31671D01*
X131726Y31757D01*
X131713Y31844D01*
X131695Y31929D01*
X131674Y32014D01*
X131649Y32098D01*
X131620Y32180D01*
X131587Y32261D01*
X131551Y32341D01*
X131512Y32419D01*
X131468Y32495D01*
X131422Y32569D01*
X131372Y32640D01*
X131319Y32710D01*
X131263Y32777D01*
X131204Y32841D01*
X131142Y32903D01*
X131078Y32962D01*
X131011Y33018D01*
X130941Y33071D01*
X130870Y33121D01*
X130796Y33167D01*
X130720Y33211D01*
X130642Y33250D01*
X130562Y33286D01*
X130481Y33319D01*
X130399Y33348D01*
X130315Y33373D01*
X130230Y33394D01*
X130145Y33412D01*
X130058Y33425D01*
X129972Y33435D01*
X129884Y33441D01*
X129797Y33443D01*
X127201Y33443D01*
X138858Y25654D02*
X141454Y25654D01*
X138858Y25654D02*
X138771Y25656D01*
X138683Y25662D01*
X138597Y25672D01*
X138510Y25685D01*
X138425Y25703D01*
X138340Y25724D01*
X138256Y25749D01*
X138174Y25778D01*
X138093Y25811D01*
X138013Y25847D01*
X137935Y25886D01*
X137859Y25930D01*
X137785Y25976D01*
X137714Y26026D01*
X137644Y26079D01*
X137577Y26135D01*
X137513Y26194D01*
X137451Y26256D01*
X137392Y26320D01*
X137336Y26387D01*
X137283Y26457D01*
X137233Y26528D01*
X137187Y26602D01*
X137143Y26678D01*
X137104Y26756D01*
X137068Y26836D01*
X137035Y26917D01*
X137006Y26999D01*
X136981Y27083D01*
X136960Y27168D01*
X136942Y27253D01*
X136929Y27340D01*
X136919Y27426D01*
X136913Y27514D01*
X136911Y27601D01*
X136911Y31496D01*
X136913Y31583D01*
X136919Y31671D01*
X136929Y31757D01*
X136942Y31844D01*
X136960Y31929D01*
X136981Y32014D01*
X137006Y32098D01*
X137035Y32180D01*
X137068Y32261D01*
X137104Y32341D01*
X137143Y32419D01*
X137187Y32495D01*
X137233Y32569D01*
X137283Y32640D01*
X137336Y32710D01*
X137392Y32777D01*
X137451Y32841D01*
X137513Y32903D01*
X137577Y32962D01*
X137644Y33018D01*
X137714Y33071D01*
X137785Y33121D01*
X137859Y33167D01*
X137935Y33211D01*
X138013Y33250D01*
X138093Y33286D01*
X138174Y33319D01*
X138256Y33348D01*
X138340Y33373D01*
X138425Y33394D01*
X138510Y33412D01*
X138597Y33425D01*
X138683Y33435D01*
X138771Y33441D01*
X138858Y33443D01*
X141454Y33443D01*
X145590Y33443D02*
X145590Y25654D01*
X145265Y36689D02*
X145265Y37338D01*
X145914Y37338D01*
X145914Y36689D01*
X145265Y36689D01*
X149265Y33443D02*
X153160Y33443D01*
X150563Y37338D02*
X150563Y27601D01*
X150564Y27601D02*
X150566Y27514D01*
X150572Y27426D01*
X150582Y27340D01*
X150595Y27253D01*
X150613Y27168D01*
X150634Y27083D01*
X150659Y26999D01*
X150688Y26917D01*
X150721Y26836D01*
X150757Y26756D01*
X150796Y26678D01*
X150840Y26602D01*
X150886Y26528D01*
X150936Y26457D01*
X150989Y26387D01*
X151045Y26320D01*
X151104Y26256D01*
X151166Y26194D01*
X151230Y26135D01*
X151297Y26079D01*
X151367Y26026D01*
X151438Y25976D01*
X151512Y25930D01*
X151588Y25886D01*
X151666Y25847D01*
X151746Y25811D01*
X151827Y25778D01*
X151909Y25749D01*
X151993Y25724D01*
X152078Y25703D01*
X152163Y25685D01*
X152250Y25672D01*
X152336Y25662D01*
X152424Y25656D01*
X152511Y25654D01*
X153160Y25654D01*
X159684Y30198D02*
X162605Y30198D01*
X159684Y30198D02*
X159590Y30196D01*
X159496Y30190D01*
X159403Y30181D01*
X159310Y30167D01*
X159218Y30150D01*
X159126Y30128D01*
X159036Y30104D01*
X158946Y30075D01*
X158858Y30043D01*
X158771Y30007D01*
X158686Y29967D01*
X158603Y29924D01*
X158521Y29878D01*
X158441Y29828D01*
X158364Y29775D01*
X158289Y29719D01*
X158216Y29660D01*
X158145Y29598D01*
X158077Y29533D01*
X158012Y29465D01*
X157950Y29394D01*
X157891Y29321D01*
X157835Y29246D01*
X157782Y29169D01*
X157732Y29089D01*
X157686Y29007D01*
X157643Y28924D01*
X157603Y28839D01*
X157567Y28752D01*
X157535Y28664D01*
X157506Y28574D01*
X157482Y28484D01*
X157460Y28392D01*
X157443Y28300D01*
X157429Y28207D01*
X157420Y28114D01*
X157414Y28020D01*
X157412Y27926D01*
X157414Y27832D01*
X157420Y27738D01*
X157429Y27645D01*
X157443Y27552D01*
X157460Y27460D01*
X157482Y27368D01*
X157506Y27278D01*
X157535Y27188D01*
X157567Y27100D01*
X157603Y27013D01*
X157643Y26928D01*
X157686Y26845D01*
X157732Y26763D01*
X157782Y26683D01*
X157835Y26606D01*
X157891Y26531D01*
X157950Y26458D01*
X158012Y26387D01*
X158077Y26319D01*
X158145Y26254D01*
X158216Y26192D01*
X158289Y26133D01*
X158364Y26077D01*
X158441Y26024D01*
X158521Y25974D01*
X158603Y25928D01*
X158686Y25885D01*
X158771Y25845D01*
X158858Y25809D01*
X158946Y25777D01*
X159036Y25748D01*
X159126Y25724D01*
X159218Y25702D01*
X159310Y25685D01*
X159403Y25671D01*
X159496Y25662D01*
X159590Y25656D01*
X159684Y25654D01*
X162605Y25654D01*
X162605Y31496D01*
X162603Y31583D01*
X162597Y31671D01*
X162587Y31757D01*
X162574Y31844D01*
X162556Y31929D01*
X162535Y32014D01*
X162510Y32098D01*
X162481Y32180D01*
X162448Y32261D01*
X162412Y32341D01*
X162373Y32419D01*
X162329Y32495D01*
X162283Y32569D01*
X162233Y32640D01*
X162180Y32710D01*
X162124Y32777D01*
X162065Y32841D01*
X162003Y32903D01*
X161939Y32962D01*
X161872Y33018D01*
X161802Y33071D01*
X161731Y33121D01*
X161657Y33167D01*
X161581Y33211D01*
X161503Y33250D01*
X161423Y33286D01*
X161342Y33319D01*
X161260Y33348D01*
X161176Y33373D01*
X161091Y33394D01*
X161006Y33412D01*
X160919Y33425D01*
X160833Y33435D01*
X160745Y33441D01*
X160658Y33443D01*
X158061Y33443D01*
X168139Y33443D02*
X168139Y25654D01*
X168139Y33443D02*
X171385Y33443D01*
X171472Y33441D01*
X171560Y33435D01*
X171646Y33425D01*
X171733Y33412D01*
X171818Y33394D01*
X171903Y33373D01*
X171987Y33348D01*
X172069Y33319D01*
X172150Y33286D01*
X172230Y33250D01*
X172308Y33211D01*
X172384Y33167D01*
X172458Y33121D01*
X172529Y33071D01*
X172599Y33018D01*
X172666Y32962D01*
X172730Y32903D01*
X172792Y32842D01*
X172851Y32777D01*
X172907Y32710D01*
X172960Y32640D01*
X173010Y32569D01*
X173056Y32495D01*
X173100Y32419D01*
X173139Y32341D01*
X173175Y32261D01*
X173208Y32180D01*
X173237Y32098D01*
X173262Y32014D01*
X173283Y31929D01*
X173301Y31844D01*
X173314Y31757D01*
X173324Y31671D01*
X173330Y31583D01*
X173332Y31496D01*
X173332Y25654D01*
X180387Y25654D02*
X182983Y25654D01*
X180387Y25654D02*
X180300Y25656D01*
X180212Y25662D01*
X180126Y25672D01*
X180039Y25685D01*
X179954Y25703D01*
X179869Y25724D01*
X179785Y25749D01*
X179703Y25778D01*
X179622Y25811D01*
X179542Y25847D01*
X179464Y25886D01*
X179388Y25930D01*
X179314Y25976D01*
X179243Y26026D01*
X179173Y26079D01*
X179106Y26135D01*
X179042Y26194D01*
X178980Y26256D01*
X178921Y26320D01*
X178865Y26387D01*
X178812Y26457D01*
X178762Y26528D01*
X178716Y26602D01*
X178672Y26678D01*
X178633Y26756D01*
X178597Y26836D01*
X178564Y26917D01*
X178535Y26999D01*
X178510Y27083D01*
X178489Y27168D01*
X178471Y27253D01*
X178458Y27340D01*
X178448Y27426D01*
X178442Y27514D01*
X178440Y27601D01*
X178439Y27601D02*
X178439Y31496D01*
X178440Y31496D02*
X178442Y31583D01*
X178448Y31671D01*
X178458Y31757D01*
X178471Y31844D01*
X178489Y31929D01*
X178510Y32014D01*
X178535Y32098D01*
X178564Y32180D01*
X178597Y32261D01*
X178633Y32341D01*
X178672Y32419D01*
X178716Y32495D01*
X178762Y32569D01*
X178812Y32640D01*
X178865Y32710D01*
X178921Y32777D01*
X178980Y32841D01*
X179042Y32903D01*
X179106Y32962D01*
X179173Y33018D01*
X179243Y33071D01*
X179314Y33121D01*
X179388Y33167D01*
X179464Y33211D01*
X179542Y33250D01*
X179622Y33286D01*
X179703Y33319D01*
X179785Y33348D01*
X179869Y33373D01*
X179954Y33394D01*
X180039Y33412D01*
X180126Y33425D01*
X180212Y33435D01*
X180300Y33441D01*
X180387Y33443D01*
X182983Y33443D01*
X189136Y25654D02*
X192382Y25654D01*
X189136Y25654D02*
X189049Y25656D01*
X188961Y25662D01*
X188875Y25672D01*
X188788Y25685D01*
X188703Y25703D01*
X188618Y25724D01*
X188534Y25749D01*
X188452Y25778D01*
X188371Y25811D01*
X188291Y25847D01*
X188213Y25886D01*
X188137Y25930D01*
X188063Y25976D01*
X187992Y26026D01*
X187922Y26079D01*
X187855Y26135D01*
X187791Y26194D01*
X187729Y26256D01*
X187670Y26320D01*
X187614Y26387D01*
X187561Y26457D01*
X187511Y26528D01*
X187465Y26602D01*
X187421Y26678D01*
X187382Y26756D01*
X187346Y26836D01*
X187313Y26917D01*
X187284Y26999D01*
X187259Y27083D01*
X187238Y27168D01*
X187220Y27253D01*
X187207Y27340D01*
X187197Y27426D01*
X187191Y27514D01*
X187189Y27601D01*
X187189Y30847D01*
X187190Y30847D02*
X187192Y30948D01*
X187198Y31048D01*
X187208Y31148D01*
X187221Y31248D01*
X187239Y31347D01*
X187260Y31446D01*
X187285Y31543D01*
X187314Y31640D01*
X187347Y31735D01*
X187383Y31829D01*
X187423Y31921D01*
X187466Y32012D01*
X187513Y32101D01*
X187563Y32188D01*
X187617Y32274D01*
X187674Y32357D01*
X187734Y32437D01*
X187797Y32516D01*
X187864Y32592D01*
X187933Y32665D01*
X188005Y32735D01*
X188079Y32803D01*
X188156Y32868D01*
X188236Y32929D01*
X188318Y32988D01*
X188402Y33043D01*
X188488Y33095D01*
X188576Y33144D01*
X188666Y33189D01*
X188758Y33231D01*
X188851Y33269D01*
X188946Y33303D01*
X189041Y33334D01*
X189138Y33361D01*
X189236Y33384D01*
X189335Y33404D01*
X189435Y33419D01*
X189535Y33431D01*
X189635Y33439D01*
X189736Y33443D01*
X189836Y33443D01*
X189937Y33439D01*
X190037Y33431D01*
X190137Y33419D01*
X190237Y33404D01*
X190336Y33384D01*
X190434Y33361D01*
X190531Y33334D01*
X190626Y33303D01*
X190721Y33269D01*
X190814Y33231D01*
X190906Y33189D01*
X190996Y33144D01*
X191084Y33095D01*
X191170Y33043D01*
X191254Y32988D01*
X191336Y32929D01*
X191416Y32868D01*
X191493Y32803D01*
X191567Y32735D01*
X191639Y32665D01*
X191708Y32592D01*
X191775Y32516D01*
X191838Y32437D01*
X191898Y32357D01*
X191955Y32274D01*
X192009Y32188D01*
X192059Y32101D01*
X192106Y32012D01*
X192149Y31921D01*
X192189Y31829D01*
X192225Y31735D01*
X192258Y31640D01*
X192287Y31543D01*
X192312Y31446D01*
X192333Y31347D01*
X192351Y31248D01*
X192364Y31148D01*
X192374Y31048D01*
X192380Y30948D01*
X192382Y30847D01*
X192382Y29549D01*
X187189Y29549D01*
X202881Y37338D02*
X205477Y25654D01*
X208074Y33443D01*
X210670Y25654D01*
X213266Y37338D01*
X219882Y30198D02*
X222803Y30198D01*
X219882Y30198D02*
X219788Y30196D01*
X219694Y30190D01*
X219601Y30181D01*
X219508Y30167D01*
X219416Y30150D01*
X219324Y30128D01*
X219234Y30104D01*
X219144Y30075D01*
X219056Y30043D01*
X218969Y30007D01*
X218884Y29967D01*
X218801Y29924D01*
X218719Y29878D01*
X218639Y29828D01*
X218562Y29775D01*
X218487Y29719D01*
X218414Y29660D01*
X218343Y29598D01*
X218275Y29533D01*
X218210Y29465D01*
X218148Y29394D01*
X218089Y29321D01*
X218033Y29246D01*
X217980Y29169D01*
X217930Y29089D01*
X217884Y29007D01*
X217841Y28924D01*
X217801Y28839D01*
X217765Y28752D01*
X217733Y28664D01*
X217704Y28574D01*
X217680Y28484D01*
X217658Y28392D01*
X217641Y28300D01*
X217627Y28207D01*
X217618Y28114D01*
X217612Y28020D01*
X217610Y27926D01*
X217612Y27832D01*
X217618Y27738D01*
X217627Y27645D01*
X217641Y27552D01*
X217658Y27460D01*
X217680Y27368D01*
X217704Y27278D01*
X217733Y27188D01*
X217765Y27100D01*
X217801Y27013D01*
X217841Y26928D01*
X217884Y26845D01*
X217930Y26763D01*
X217980Y26683D01*
X218033Y26606D01*
X218089Y26531D01*
X218148Y26458D01*
X218210Y26387D01*
X218275Y26319D01*
X218343Y26254D01*
X218414Y26192D01*
X218487Y26133D01*
X218562Y26077D01*
X218639Y26024D01*
X218719Y25974D01*
X218801Y25928D01*
X218884Y25885D01*
X218969Y25845D01*
X219056Y25809D01*
X219144Y25777D01*
X219234Y25748D01*
X219324Y25724D01*
X219416Y25702D01*
X219508Y25685D01*
X219601Y25671D01*
X219694Y25662D01*
X219788Y25656D01*
X219882Y25654D01*
X222803Y25654D01*
X222803Y31496D01*
X222801Y31583D01*
X222795Y31671D01*
X222785Y31757D01*
X222772Y31844D01*
X222754Y31929D01*
X222733Y32014D01*
X222708Y32098D01*
X222679Y32180D01*
X222646Y32261D01*
X222610Y32341D01*
X222571Y32419D01*
X222527Y32495D01*
X222481Y32569D01*
X222431Y32640D01*
X222378Y32710D01*
X222322Y32777D01*
X222263Y32841D01*
X222201Y32903D01*
X222137Y32962D01*
X222070Y33018D01*
X222000Y33071D01*
X221929Y33121D01*
X221855Y33167D01*
X221779Y33211D01*
X221701Y33250D01*
X221621Y33286D01*
X221540Y33319D01*
X221458Y33348D01*
X221374Y33373D01*
X221289Y33394D01*
X221204Y33412D01*
X221117Y33425D01*
X221031Y33435D01*
X220943Y33441D01*
X220856Y33443D01*
X218259Y33443D01*
X226989Y33443D02*
X230884Y33443D01*
X228287Y37338D02*
X228287Y27601D01*
X228289Y27514D01*
X228295Y27426D01*
X228305Y27340D01*
X228318Y27253D01*
X228336Y27168D01*
X228357Y27083D01*
X228382Y26999D01*
X228411Y26917D01*
X228444Y26836D01*
X228480Y26756D01*
X228519Y26678D01*
X228563Y26602D01*
X228609Y26528D01*
X228659Y26457D01*
X228712Y26387D01*
X228768Y26320D01*
X228827Y26256D01*
X228889Y26194D01*
X228953Y26135D01*
X229020Y26079D01*
X229090Y26026D01*
X229161Y25976D01*
X229235Y25930D01*
X229311Y25886D01*
X229389Y25847D01*
X229469Y25811D01*
X229550Y25778D01*
X229632Y25749D01*
X229716Y25724D01*
X229801Y25703D01*
X229886Y25685D01*
X229973Y25672D01*
X230059Y25662D01*
X230147Y25656D01*
X230234Y25654D01*
X230884Y25654D01*
X237142Y25654D02*
X240388Y25654D01*
X237142Y25654D02*
X237055Y25656D01*
X236967Y25662D01*
X236881Y25672D01*
X236794Y25685D01*
X236709Y25703D01*
X236624Y25724D01*
X236540Y25749D01*
X236458Y25778D01*
X236377Y25811D01*
X236297Y25847D01*
X236219Y25886D01*
X236143Y25930D01*
X236069Y25976D01*
X235998Y26026D01*
X235928Y26079D01*
X235861Y26135D01*
X235797Y26194D01*
X235735Y26256D01*
X235676Y26320D01*
X235620Y26387D01*
X235567Y26457D01*
X235517Y26528D01*
X235471Y26602D01*
X235427Y26678D01*
X235388Y26756D01*
X235352Y26836D01*
X235319Y26917D01*
X235290Y26999D01*
X235265Y27083D01*
X235244Y27168D01*
X235226Y27253D01*
X235213Y27340D01*
X235203Y27426D01*
X235197Y27514D01*
X235195Y27601D01*
X235195Y30847D01*
X235196Y30847D02*
X235198Y30948D01*
X235204Y31048D01*
X235214Y31148D01*
X235227Y31248D01*
X235245Y31347D01*
X235266Y31446D01*
X235291Y31543D01*
X235320Y31640D01*
X235353Y31735D01*
X235389Y31829D01*
X235429Y31921D01*
X235472Y32012D01*
X235519Y32101D01*
X235569Y32188D01*
X235623Y32274D01*
X235680Y32357D01*
X235740Y32437D01*
X235803Y32516D01*
X235870Y32592D01*
X235939Y32665D01*
X236011Y32735D01*
X236085Y32803D01*
X236162Y32868D01*
X236242Y32929D01*
X236324Y32988D01*
X236408Y33043D01*
X236494Y33095D01*
X236582Y33144D01*
X236672Y33189D01*
X236764Y33231D01*
X236857Y33269D01*
X236952Y33303D01*
X237047Y33334D01*
X237144Y33361D01*
X237242Y33384D01*
X237341Y33404D01*
X237441Y33419D01*
X237541Y33431D01*
X237641Y33439D01*
X237742Y33443D01*
X237842Y33443D01*
X237943Y33439D01*
X238043Y33431D01*
X238143Y33419D01*
X238243Y33404D01*
X238342Y33384D01*
X238440Y33361D01*
X238537Y33334D01*
X238632Y33303D01*
X238727Y33269D01*
X238820Y33231D01*
X238912Y33189D01*
X239002Y33144D01*
X239090Y33095D01*
X239176Y33043D01*
X239260Y32988D01*
X239342Y32929D01*
X239422Y32868D01*
X239499Y32803D01*
X239573Y32735D01*
X239645Y32665D01*
X239714Y32592D01*
X239781Y32516D01*
X239844Y32437D01*
X239904Y32357D01*
X239961Y32274D01*
X240015Y32188D01*
X240065Y32101D01*
X240112Y32012D01*
X240155Y31921D01*
X240195Y31829D01*
X240231Y31735D01*
X240264Y31640D01*
X240293Y31543D01*
X240318Y31446D01*
X240339Y31347D01*
X240357Y31248D01*
X240370Y31148D01*
X240380Y31048D01*
X240386Y30948D01*
X240388Y30847D01*
X240388Y29549D01*
X235195Y29549D01*
X245549Y25654D02*
X245549Y33443D01*
X249443Y33443D01*
X249443Y32145D01*
X262825Y25654D02*
X262924Y25656D01*
X263024Y25662D01*
X263123Y25671D01*
X263221Y25684D01*
X263319Y25701D01*
X263417Y25722D01*
X263513Y25747D01*
X263608Y25775D01*
X263702Y25807D01*
X263795Y25842D01*
X263887Y25881D01*
X263977Y25924D01*
X264065Y25969D01*
X264152Y26019D01*
X264236Y26071D01*
X264319Y26127D01*
X264399Y26185D01*
X264477Y26247D01*
X264552Y26312D01*
X264625Y26380D01*
X264695Y26450D01*
X264763Y26523D01*
X264828Y26598D01*
X264890Y26676D01*
X264948Y26756D01*
X265004Y26839D01*
X265056Y26923D01*
X265106Y27010D01*
X265151Y27098D01*
X265194Y27188D01*
X265233Y27280D01*
X265268Y27373D01*
X265300Y27467D01*
X265328Y27562D01*
X265353Y27658D01*
X265374Y27756D01*
X265391Y27854D01*
X265404Y27952D01*
X265413Y28051D01*
X265419Y28151D01*
X265421Y28250D01*
X262825Y25654D02*
X262681Y25656D01*
X262536Y25662D01*
X262392Y25671D01*
X262249Y25684D01*
X262105Y25701D01*
X261962Y25722D01*
X261820Y25747D01*
X261679Y25775D01*
X261538Y25807D01*
X261398Y25843D01*
X261259Y25882D01*
X261121Y25925D01*
X260985Y25972D01*
X260849Y26022D01*
X260715Y26076D01*
X260583Y26133D01*
X260452Y26194D01*
X260323Y26258D01*
X260195Y26326D01*
X260069Y26396D01*
X259945Y26471D01*
X259824Y26548D01*
X259704Y26629D01*
X259586Y26712D01*
X259471Y26799D01*
X259358Y26889D01*
X259247Y26982D01*
X259139Y27077D01*
X259033Y27176D01*
X258930Y27277D01*
X259255Y34742D02*
X259257Y34841D01*
X259263Y34941D01*
X259272Y35040D01*
X259285Y35138D01*
X259302Y35236D01*
X259323Y35334D01*
X259348Y35430D01*
X259376Y35525D01*
X259408Y35619D01*
X259443Y35712D01*
X259482Y35804D01*
X259525Y35894D01*
X259570Y35982D01*
X259620Y36069D01*
X259672Y36153D01*
X259728Y36236D01*
X259786Y36316D01*
X259848Y36394D01*
X259913Y36469D01*
X259981Y36542D01*
X260051Y36612D01*
X260124Y36680D01*
X260199Y36745D01*
X260277Y36807D01*
X260357Y36865D01*
X260440Y36921D01*
X260524Y36973D01*
X260611Y37023D01*
X260699Y37068D01*
X260789Y37111D01*
X260881Y37150D01*
X260974Y37185D01*
X261068Y37217D01*
X261163Y37245D01*
X261260Y37270D01*
X261357Y37291D01*
X261455Y37308D01*
X261553Y37321D01*
X261652Y37330D01*
X261752Y37336D01*
X261851Y37338D01*
X261987Y37336D01*
X262123Y37330D01*
X262259Y37321D01*
X262395Y37308D01*
X262530Y37290D01*
X262664Y37270D01*
X262798Y37245D01*
X262932Y37217D01*
X263064Y37184D01*
X263195Y37149D01*
X263326Y37109D01*
X263455Y37066D01*
X263583Y37020D01*
X263709Y36969D01*
X263835Y36916D01*
X263958Y36858D01*
X264080Y36798D01*
X264200Y36734D01*
X264319Y36666D01*
X264435Y36596D01*
X264549Y36522D01*
X264662Y36445D01*
X264772Y36364D01*
X260552Y32470D02*
X260466Y32523D01*
X260382Y32580D01*
X260300Y32639D01*
X260220Y32702D01*
X260143Y32768D01*
X260068Y32836D01*
X259996Y32908D01*
X259927Y32982D01*
X259861Y33059D01*
X259798Y33138D01*
X259738Y33220D01*
X259681Y33304D01*
X259627Y33390D01*
X259577Y33478D01*
X259530Y33568D01*
X259486Y33659D01*
X259447Y33753D01*
X259410Y33847D01*
X259378Y33943D01*
X259349Y34041D01*
X259324Y34139D01*
X259303Y34238D01*
X259285Y34338D01*
X259272Y34438D01*
X259262Y34539D01*
X259256Y34641D01*
X259254Y34742D01*
X264123Y30522D02*
X264209Y30469D01*
X264293Y30412D01*
X264375Y30353D01*
X264455Y30290D01*
X264532Y30224D01*
X264607Y30156D01*
X264679Y30084D01*
X264748Y30010D01*
X264814Y29933D01*
X264877Y29854D01*
X264937Y29772D01*
X264994Y29688D01*
X265048Y29602D01*
X265098Y29514D01*
X265145Y29424D01*
X265189Y29333D01*
X265228Y29239D01*
X265265Y29145D01*
X265297Y29049D01*
X265326Y28951D01*
X265351Y28853D01*
X265372Y28754D01*
X265390Y28654D01*
X265403Y28554D01*
X265413Y28453D01*
X265419Y28351D01*
X265421Y28250D01*
X264123Y30522D02*
X260553Y32470D01*
X271813Y25654D02*
X275059Y25654D01*
X271813Y25654D02*
X271726Y25656D01*
X271638Y25662D01*
X271552Y25672D01*
X271465Y25685D01*
X271380Y25703D01*
X271295Y25724D01*
X271211Y25749D01*
X271129Y25778D01*
X271048Y25811D01*
X270968Y25847D01*
X270890Y25886D01*
X270814Y25930D01*
X270740Y25976D01*
X270669Y26026D01*
X270599Y26079D01*
X270532Y26135D01*
X270468Y26194D01*
X270406Y26256D01*
X270347Y26320D01*
X270291Y26387D01*
X270238Y26457D01*
X270188Y26528D01*
X270142Y26602D01*
X270098Y26678D01*
X270059Y26756D01*
X270023Y26836D01*
X269990Y26917D01*
X269961Y26999D01*
X269936Y27083D01*
X269915Y27168D01*
X269897Y27253D01*
X269884Y27340D01*
X269874Y27426D01*
X269868Y27514D01*
X269866Y27601D01*
X269866Y30847D01*
X269867Y30847D02*
X269869Y30948D01*
X269875Y31048D01*
X269885Y31148D01*
X269898Y31248D01*
X269916Y31347D01*
X269937Y31446D01*
X269962Y31543D01*
X269991Y31640D01*
X270024Y31735D01*
X270060Y31829D01*
X270100Y31921D01*
X270143Y32012D01*
X270190Y32101D01*
X270240Y32188D01*
X270294Y32274D01*
X270351Y32357D01*
X270411Y32437D01*
X270474Y32516D01*
X270541Y32592D01*
X270610Y32665D01*
X270682Y32735D01*
X270756Y32803D01*
X270833Y32868D01*
X270913Y32929D01*
X270995Y32988D01*
X271079Y33043D01*
X271165Y33095D01*
X271253Y33144D01*
X271343Y33189D01*
X271435Y33231D01*
X271528Y33269D01*
X271623Y33303D01*
X271718Y33334D01*
X271815Y33361D01*
X271913Y33384D01*
X272012Y33404D01*
X272112Y33419D01*
X272212Y33431D01*
X272312Y33439D01*
X272413Y33443D01*
X272513Y33443D01*
X272614Y33439D01*
X272714Y33431D01*
X272814Y33419D01*
X272914Y33404D01*
X273013Y33384D01*
X273111Y33361D01*
X273208Y33334D01*
X273303Y33303D01*
X273398Y33269D01*
X273491Y33231D01*
X273583Y33189D01*
X273673Y33144D01*
X273761Y33095D01*
X273847Y33043D01*
X273931Y32988D01*
X274013Y32929D01*
X274093Y32868D01*
X274170Y32803D01*
X274244Y32735D01*
X274316Y32665D01*
X274385Y32592D01*
X274452Y32516D01*
X274515Y32437D01*
X274575Y32357D01*
X274632Y32274D01*
X274686Y32188D01*
X274736Y32101D01*
X274783Y32012D01*
X274826Y31921D01*
X274866Y31829D01*
X274902Y31735D01*
X274935Y31640D01*
X274964Y31543D01*
X274989Y31446D01*
X275010Y31347D01*
X275028Y31248D01*
X275041Y31148D01*
X275051Y31048D01*
X275057Y30948D01*
X275059Y30847D01*
X275059Y29549D01*
X269866Y29549D01*
X280153Y25654D02*
X280153Y33443D01*
X283399Y33443D01*
X283486Y33441D01*
X283574Y33435D01*
X283660Y33425D01*
X283747Y33412D01*
X283832Y33394D01*
X283917Y33373D01*
X284001Y33348D01*
X284083Y33319D01*
X284164Y33286D01*
X284244Y33250D01*
X284322Y33211D01*
X284398Y33167D01*
X284472Y33121D01*
X284543Y33071D01*
X284613Y33018D01*
X284680Y32962D01*
X284744Y32903D01*
X284806Y32842D01*
X284865Y32777D01*
X284921Y32710D01*
X284974Y32640D01*
X285024Y32569D01*
X285070Y32495D01*
X285114Y32419D01*
X285153Y32341D01*
X285189Y32261D01*
X285222Y32180D01*
X285251Y32098D01*
X285276Y32014D01*
X285297Y31929D01*
X285315Y31844D01*
X285328Y31757D01*
X285338Y31671D01*
X285344Y31583D01*
X285346Y31496D01*
X285346Y25654D01*
X291414Y30198D02*
X294659Y28900D01*
X291414Y30197D02*
X291339Y30230D01*
X291265Y30266D01*
X291193Y30305D01*
X291123Y30348D01*
X291056Y30394D01*
X290990Y30444D01*
X290928Y30496D01*
X290867Y30552D01*
X290810Y30610D01*
X290755Y30671D01*
X290704Y30735D01*
X290656Y30801D01*
X290611Y30870D01*
X290569Y30940D01*
X290531Y31013D01*
X290496Y31087D01*
X290465Y31163D01*
X290438Y31240D01*
X290415Y31319D01*
X290395Y31398D01*
X290380Y31479D01*
X290368Y31560D01*
X290360Y31642D01*
X290356Y31723D01*
X290357Y31805D01*
X290361Y31887D01*
X290369Y31969D01*
X290381Y32050D01*
X290397Y32130D01*
X290417Y32210D01*
X290441Y32288D01*
X290469Y32365D01*
X290500Y32441D01*
X290535Y32515D01*
X290573Y32587D01*
X290615Y32658D01*
X290661Y32726D01*
X290709Y32792D01*
X290761Y32855D01*
X290816Y32916D01*
X290874Y32974D01*
X290934Y33030D01*
X290997Y33082D01*
X291063Y33131D01*
X291131Y33177D01*
X291201Y33219D01*
X291273Y33259D01*
X291347Y33294D01*
X291422Y33326D01*
X291499Y33354D01*
X291577Y33378D01*
X291657Y33399D01*
X291737Y33416D01*
X291818Y33428D01*
X291899Y33437D01*
X291981Y33442D01*
X292063Y33443D01*
X292240Y33439D01*
X292417Y33430D01*
X292594Y33416D01*
X292771Y33399D01*
X292946Y33377D01*
X293122Y33352D01*
X293296Y33321D01*
X293470Y33287D01*
X293643Y33249D01*
X293815Y33206D01*
X293986Y33159D01*
X294156Y33109D01*
X294325Y33054D01*
X294492Y32995D01*
X294657Y32932D01*
X294822Y32865D01*
X294984Y32794D01*
X294659Y28900D02*
X294734Y28867D01*
X294808Y28831D01*
X294880Y28792D01*
X294950Y28749D01*
X295017Y28703D01*
X295083Y28653D01*
X295145Y28601D01*
X295206Y28545D01*
X295263Y28487D01*
X295318Y28426D01*
X295369Y28362D01*
X295417Y28296D01*
X295462Y28227D01*
X295504Y28157D01*
X295542Y28084D01*
X295577Y28010D01*
X295608Y27934D01*
X295635Y27857D01*
X295658Y27778D01*
X295678Y27699D01*
X295693Y27618D01*
X295705Y27537D01*
X295713Y27455D01*
X295717Y27374D01*
X295716Y27292D01*
X295712Y27210D01*
X295704Y27128D01*
X295692Y27047D01*
X295676Y26967D01*
X295656Y26887D01*
X295632Y26809D01*
X295604Y26732D01*
X295573Y26656D01*
X295538Y26582D01*
X295500Y26510D01*
X295458Y26439D01*
X295412Y26371D01*
X295364Y26305D01*
X295312Y26242D01*
X295257Y26181D01*
X295199Y26123D01*
X295139Y26067D01*
X295076Y26015D01*
X295010Y25966D01*
X294942Y25920D01*
X294872Y25878D01*
X294800Y25838D01*
X294726Y25803D01*
X294651Y25771D01*
X294574Y25743D01*
X294496Y25719D01*
X294416Y25698D01*
X294336Y25681D01*
X294255Y25669D01*
X294174Y25660D01*
X294092Y25655D01*
X294010Y25654D01*
X293750Y25661D01*
X293490Y25674D01*
X293230Y25693D01*
X292971Y25718D01*
X292712Y25750D01*
X292455Y25787D01*
X292198Y25831D01*
X291942Y25880D01*
X291688Y25936D01*
X291435Y25997D01*
X291184Y26065D01*
X290934Y26139D01*
X290686Y26218D01*
X290440Y26303D01*
X300346Y28250D02*
X300346Y30847D01*
X300347Y30847D02*
X300349Y30948D01*
X300355Y31048D01*
X300365Y31148D01*
X300378Y31248D01*
X300396Y31347D01*
X300417Y31446D01*
X300442Y31543D01*
X300471Y31640D01*
X300504Y31735D01*
X300540Y31829D01*
X300580Y31921D01*
X300623Y32012D01*
X300670Y32101D01*
X300720Y32188D01*
X300774Y32274D01*
X300831Y32357D01*
X300891Y32437D01*
X300954Y32516D01*
X301021Y32592D01*
X301090Y32665D01*
X301162Y32735D01*
X301236Y32803D01*
X301313Y32868D01*
X301393Y32929D01*
X301475Y32988D01*
X301559Y33043D01*
X301645Y33095D01*
X301733Y33144D01*
X301823Y33189D01*
X301915Y33231D01*
X302008Y33269D01*
X302103Y33303D01*
X302198Y33334D01*
X302295Y33361D01*
X302393Y33384D01*
X302492Y33404D01*
X302592Y33419D01*
X302692Y33431D01*
X302792Y33439D01*
X302893Y33443D01*
X302993Y33443D01*
X303094Y33439D01*
X303194Y33431D01*
X303294Y33419D01*
X303394Y33404D01*
X303493Y33384D01*
X303591Y33361D01*
X303688Y33334D01*
X303783Y33303D01*
X303878Y33269D01*
X303971Y33231D01*
X304063Y33189D01*
X304153Y33144D01*
X304241Y33095D01*
X304327Y33043D01*
X304411Y32988D01*
X304493Y32929D01*
X304573Y32868D01*
X304650Y32803D01*
X304724Y32735D01*
X304796Y32665D01*
X304865Y32592D01*
X304932Y32516D01*
X304995Y32437D01*
X305055Y32357D01*
X305112Y32274D01*
X305166Y32188D01*
X305216Y32101D01*
X305263Y32012D01*
X305306Y31921D01*
X305346Y31829D01*
X305382Y31735D01*
X305415Y31640D01*
X305444Y31543D01*
X305469Y31446D01*
X305490Y31347D01*
X305508Y31248D01*
X305521Y31148D01*
X305531Y31048D01*
X305537Y30948D01*
X305539Y30847D01*
X305539Y28250D01*
X305537Y28149D01*
X305531Y28049D01*
X305521Y27949D01*
X305508Y27849D01*
X305490Y27750D01*
X305469Y27651D01*
X305444Y27554D01*
X305415Y27457D01*
X305382Y27362D01*
X305346Y27268D01*
X305306Y27176D01*
X305263Y27085D01*
X305216Y26996D01*
X305166Y26909D01*
X305112Y26823D01*
X305055Y26740D01*
X304995Y26660D01*
X304932Y26581D01*
X304865Y26505D01*
X304796Y26432D01*
X304724Y26362D01*
X304650Y26294D01*
X304573Y26229D01*
X304493Y26168D01*
X304411Y26109D01*
X304327Y26054D01*
X304241Y26002D01*
X304153Y25953D01*
X304063Y25908D01*
X303971Y25866D01*
X303878Y25828D01*
X303783Y25794D01*
X303688Y25763D01*
X303591Y25736D01*
X303493Y25713D01*
X303394Y25693D01*
X303294Y25678D01*
X303194Y25666D01*
X303094Y25658D01*
X302993Y25654D01*
X302893Y25654D01*
X302792Y25658D01*
X302692Y25666D01*
X302592Y25678D01*
X302492Y25693D01*
X302393Y25713D01*
X302295Y25736D01*
X302198Y25763D01*
X302103Y25794D01*
X302008Y25828D01*
X301915Y25866D01*
X301823Y25908D01*
X301733Y25953D01*
X301645Y26002D01*
X301559Y26054D01*
X301475Y26109D01*
X301393Y26168D01*
X301313Y26229D01*
X301236Y26294D01*
X301162Y26362D01*
X301090Y26432D01*
X301021Y26505D01*
X300954Y26581D01*
X300891Y26660D01*
X300831Y26740D01*
X300774Y26823D01*
X300720Y26909D01*
X300670Y26996D01*
X300623Y27085D01*
X300580Y27176D01*
X300540Y27268D01*
X300504Y27362D01*
X300471Y27457D01*
X300442Y27554D01*
X300417Y27651D01*
X300396Y27750D01*
X300378Y27849D01*
X300365Y27949D01*
X300355Y28049D01*
X300349Y28149D01*
X300347Y28250D01*
X310699Y25654D02*
X310699Y33443D01*
X314594Y33443D01*
X314594Y32145D01*
X8946Y6604D02*
X6350Y14393D01*
X11543Y14393D02*
X8946Y6604D01*
X15480Y6604D02*
X15480Y7253D01*
X16129Y7253D01*
X16129Y6604D01*
X15480Y6604D01*
X20560Y15692D02*
X23805Y18288D01*
X23805Y6604D01*
X20560Y6604D02*
X27051Y6604D01*
X31990Y12446D02*
X31993Y12676D01*
X32001Y12906D01*
X32015Y13135D01*
X32034Y13364D01*
X32059Y13593D01*
X32089Y13820D01*
X32124Y14048D01*
X32165Y14274D01*
X32211Y14499D01*
X32263Y14723D01*
X32320Y14945D01*
X32382Y15167D01*
X32450Y15386D01*
X32523Y15604D01*
X32601Y15821D01*
X32684Y16035D01*
X32772Y16247D01*
X32865Y16457D01*
X32964Y16665D01*
X32963Y16665D02*
X32996Y16755D01*
X33032Y16844D01*
X33072Y16932D01*
X33116Y17017D01*
X33163Y17101D01*
X33213Y17183D01*
X33267Y17263D01*
X33323Y17340D01*
X33383Y17416D01*
X33446Y17489D01*
X33511Y17559D01*
X33580Y17627D01*
X33651Y17691D01*
X33724Y17753D01*
X33800Y17812D01*
X33878Y17868D01*
X33959Y17921D01*
X34041Y17970D01*
X34125Y18016D01*
X34212Y18059D01*
X34299Y18098D01*
X34389Y18134D01*
X34479Y18166D01*
X34571Y18194D01*
X34664Y18219D01*
X34758Y18240D01*
X34852Y18257D01*
X34947Y18271D01*
X35043Y18280D01*
X35139Y18286D01*
X35235Y18288D01*
X35331Y18286D01*
X35427Y18280D01*
X35523Y18271D01*
X35618Y18257D01*
X35712Y18240D01*
X35806Y18219D01*
X35899Y18194D01*
X35991Y18166D01*
X36081Y18134D01*
X36171Y18098D01*
X36258Y18059D01*
X36345Y18016D01*
X36429Y17970D01*
X36511Y17921D01*
X36592Y17868D01*
X36670Y17812D01*
X36746Y17753D01*
X36819Y17691D01*
X36890Y17627D01*
X36959Y17559D01*
X37024Y17489D01*
X37087Y17416D01*
X37147Y17340D01*
X37203Y17263D01*
X37257Y17183D01*
X37307Y17101D01*
X37354Y17017D01*
X37398Y16932D01*
X37438Y16844D01*
X37474Y16755D01*
X37507Y16665D01*
X37606Y16458D01*
X37699Y16248D01*
X37787Y16035D01*
X37870Y15821D01*
X37948Y15605D01*
X38021Y15387D01*
X38089Y15167D01*
X38151Y14946D01*
X38208Y14723D01*
X38260Y14499D01*
X38306Y14274D01*
X38347Y14048D01*
X38382Y13821D01*
X38412Y13593D01*
X38437Y13364D01*
X38456Y13135D01*
X38470Y12906D01*
X38478Y12676D01*
X38481Y12446D01*
X31990Y12446D02*
X31993Y12216D01*
X32001Y11986D01*
X32015Y11757D01*
X32034Y11528D01*
X32059Y11299D01*
X32089Y11071D01*
X32124Y10844D01*
X32165Y10618D01*
X32211Y10393D01*
X32263Y10169D01*
X32320Y9946D01*
X32382Y9725D01*
X32450Y9505D01*
X32523Y9287D01*
X32601Y9071D01*
X32684Y8857D01*
X32772Y8645D01*
X32865Y8434D01*
X32964Y8227D01*
X32963Y8227D02*
X32996Y8137D01*
X33032Y8048D01*
X33073Y7960D01*
X33116Y7875D01*
X33163Y7791D01*
X33213Y7709D01*
X33267Y7629D01*
X33323Y7552D01*
X33383Y7476D01*
X33446Y7403D01*
X33511Y7333D01*
X33580Y7265D01*
X33651Y7201D01*
X33724Y7139D01*
X33800Y7080D01*
X33878Y7024D01*
X33959Y6971D01*
X34041Y6922D01*
X34125Y6876D01*
X34212Y6833D01*
X34299Y6794D01*
X34389Y6758D01*
X34479Y6726D01*
X34571Y6698D01*
X34664Y6673D01*
X34758Y6652D01*
X34852Y6635D01*
X34947Y6621D01*
X35043Y6612D01*
X35139Y6606D01*
X35235Y6604D01*
X37507Y8227D02*
X37606Y8434D01*
X37699Y8645D01*
X37787Y8857D01*
X37870Y9071D01*
X37948Y9287D01*
X38021Y9505D01*
X38089Y9725D01*
X38151Y9946D01*
X38208Y10169D01*
X38260Y10393D01*
X38306Y10618D01*
X38347Y10844D01*
X38382Y11071D01*
X38412Y11299D01*
X38437Y11528D01*
X38456Y11757D01*
X38470Y11986D01*
X38478Y12216D01*
X38481Y12446D01*
X37507Y8227D02*
X37474Y8137D01*
X37438Y8048D01*
X37398Y7960D01*
X37354Y7875D01*
X37307Y7791D01*
X37257Y7709D01*
X37203Y7629D01*
X37147Y7552D01*
X37087Y7476D01*
X37024Y7403D01*
X36959Y7333D01*
X36890Y7265D01*
X36819Y7201D01*
X36746Y7139D01*
X36670Y7080D01*
X36592Y7024D01*
X36511Y6971D01*
X36429Y6922D01*
X36345Y6876D01*
X36258Y6833D01*
X36171Y6794D01*
X36081Y6758D01*
X35991Y6726D01*
X35899Y6698D01*
X35806Y6673D01*
X35712Y6652D01*
X35618Y6635D01*
X35523Y6621D01*
X35427Y6612D01*
X35331Y6606D01*
X35235Y6604D01*
X32639Y9200D02*
X37832Y15692D01*
X61707Y9850D02*
X61709Y9963D01*
X61715Y10076D01*
X61725Y10189D01*
X61739Y10302D01*
X61756Y10414D01*
X61778Y10525D01*
X61803Y10635D01*
X61833Y10745D01*
X61866Y10853D01*
X61903Y10960D01*
X61943Y11066D01*
X61988Y11170D01*
X62036Y11273D01*
X62087Y11374D01*
X62142Y11473D01*
X62200Y11570D01*
X62262Y11665D01*
X62327Y11758D01*
X62395Y11848D01*
X62466Y11936D01*
X62541Y12022D01*
X62618Y12105D01*
X62698Y12185D01*
X62781Y12262D01*
X62867Y12337D01*
X62955Y12408D01*
X63045Y12476D01*
X63138Y12541D01*
X63233Y12603D01*
X63330Y12661D01*
X63429Y12716D01*
X63530Y12767D01*
X63633Y12815D01*
X63737Y12860D01*
X63843Y12900D01*
X63950Y12937D01*
X64058Y12970D01*
X64168Y13000D01*
X64278Y13025D01*
X64389Y13047D01*
X64501Y13064D01*
X64614Y13078D01*
X64727Y13088D01*
X64840Y13094D01*
X64953Y13096D01*
X65066Y13094D01*
X65179Y13088D01*
X65292Y13078D01*
X65405Y13064D01*
X65517Y13047D01*
X65628Y13025D01*
X65738Y13000D01*
X65848Y12970D01*
X65956Y12937D01*
X66063Y12900D01*
X66169Y12860D01*
X66273Y12815D01*
X66376Y12767D01*
X66477Y12716D01*
X66576Y12661D01*
X66673Y12603D01*
X66768Y12541D01*
X66861Y12476D01*
X66951Y12408D01*
X67039Y12337D01*
X67125Y12262D01*
X67208Y12185D01*
X67288Y12105D01*
X67365Y12022D01*
X67440Y11936D01*
X67511Y11848D01*
X67579Y11758D01*
X67644Y11665D01*
X67706Y11570D01*
X67764Y11473D01*
X67819Y11374D01*
X67870Y11273D01*
X67918Y11170D01*
X67963Y11066D01*
X68003Y10960D01*
X68040Y10853D01*
X68073Y10745D01*
X68103Y10635D01*
X68128Y10525D01*
X68150Y10414D01*
X68167Y10302D01*
X68181Y10189D01*
X68191Y10076D01*
X68197Y9963D01*
X68199Y9850D01*
X68197Y9737D01*
X68191Y9624D01*
X68181Y9511D01*
X68167Y9398D01*
X68150Y9286D01*
X68128Y9175D01*
X68103Y9065D01*
X68073Y8955D01*
X68040Y8847D01*
X68003Y8740D01*
X67963Y8634D01*
X67918Y8530D01*
X67870Y8427D01*
X67819Y8326D01*
X67764Y8227D01*
X67706Y8130D01*
X67644Y8035D01*
X67579Y7942D01*
X67511Y7852D01*
X67440Y7764D01*
X67365Y7678D01*
X67288Y7595D01*
X67208Y7515D01*
X67125Y7438D01*
X67039Y7363D01*
X66951Y7292D01*
X66861Y7224D01*
X66768Y7159D01*
X66673Y7097D01*
X66576Y7039D01*
X66477Y6984D01*
X66376Y6933D01*
X66273Y6885D01*
X66169Y6840D01*
X66063Y6800D01*
X65956Y6763D01*
X65848Y6730D01*
X65738Y6700D01*
X65628Y6675D01*
X65517Y6653D01*
X65405Y6636D01*
X65292Y6622D01*
X65179Y6612D01*
X65066Y6606D01*
X64953Y6604D01*
X64840Y6606D01*
X64727Y6612D01*
X64614Y6622D01*
X64501Y6636D01*
X64389Y6653D01*
X64278Y6675D01*
X64168Y6700D01*
X64058Y6730D01*
X63950Y6763D01*
X63843Y6800D01*
X63737Y6840D01*
X63633Y6885D01*
X63530Y6933D01*
X63429Y6984D01*
X63330Y7039D01*
X63233Y7097D01*
X63138Y7159D01*
X63045Y7224D01*
X62955Y7292D01*
X62867Y7363D01*
X62781Y7438D01*
X62698Y7515D01*
X62618Y7595D01*
X62541Y7678D01*
X62466Y7764D01*
X62395Y7852D01*
X62327Y7942D01*
X62262Y8035D01*
X62200Y8130D01*
X62142Y8227D01*
X62087Y8326D01*
X62036Y8427D01*
X61988Y8530D01*
X61943Y8634D01*
X61903Y8740D01*
X61866Y8847D01*
X61833Y8955D01*
X61803Y9065D01*
X61778Y9175D01*
X61756Y9286D01*
X61739Y9398D01*
X61725Y9511D01*
X61715Y9624D01*
X61709Y9737D01*
X61707Y9850D01*
X62357Y15692D02*
X62359Y15793D01*
X62365Y15893D01*
X62375Y15993D01*
X62388Y16093D01*
X62406Y16192D01*
X62427Y16291D01*
X62452Y16388D01*
X62481Y16485D01*
X62514Y16580D01*
X62550Y16674D01*
X62590Y16766D01*
X62633Y16857D01*
X62680Y16946D01*
X62730Y17033D01*
X62784Y17119D01*
X62841Y17202D01*
X62901Y17282D01*
X62964Y17361D01*
X63031Y17437D01*
X63100Y17510D01*
X63172Y17580D01*
X63246Y17648D01*
X63323Y17713D01*
X63403Y17774D01*
X63485Y17833D01*
X63569Y17888D01*
X63655Y17940D01*
X63743Y17989D01*
X63833Y18034D01*
X63925Y18076D01*
X64018Y18114D01*
X64113Y18148D01*
X64208Y18179D01*
X64305Y18206D01*
X64403Y18229D01*
X64502Y18249D01*
X64602Y18264D01*
X64702Y18276D01*
X64802Y18284D01*
X64903Y18288D01*
X65003Y18288D01*
X65104Y18284D01*
X65204Y18276D01*
X65304Y18264D01*
X65404Y18249D01*
X65503Y18229D01*
X65601Y18206D01*
X65698Y18179D01*
X65793Y18148D01*
X65888Y18114D01*
X65981Y18076D01*
X66073Y18034D01*
X66163Y17989D01*
X66251Y17940D01*
X66337Y17888D01*
X66421Y17833D01*
X66503Y17774D01*
X66583Y17713D01*
X66660Y17648D01*
X66734Y17580D01*
X66806Y17510D01*
X66875Y17437D01*
X66942Y17361D01*
X67005Y17282D01*
X67065Y17202D01*
X67122Y17119D01*
X67176Y17033D01*
X67226Y16946D01*
X67273Y16857D01*
X67316Y16766D01*
X67356Y16674D01*
X67392Y16580D01*
X67425Y16485D01*
X67454Y16388D01*
X67479Y16291D01*
X67500Y16192D01*
X67518Y16093D01*
X67531Y15993D01*
X67541Y15893D01*
X67547Y15793D01*
X67549Y15692D01*
X67547Y15591D01*
X67541Y15491D01*
X67531Y15391D01*
X67518Y15291D01*
X67500Y15192D01*
X67479Y15093D01*
X67454Y14996D01*
X67425Y14899D01*
X67392Y14804D01*
X67356Y14710D01*
X67316Y14618D01*
X67273Y14527D01*
X67226Y14438D01*
X67176Y14351D01*
X67122Y14265D01*
X67065Y14182D01*
X67005Y14102D01*
X66942Y14023D01*
X66875Y13947D01*
X66806Y13874D01*
X66734Y13804D01*
X66660Y13736D01*
X66583Y13671D01*
X66503Y13610D01*
X66421Y13551D01*
X66337Y13496D01*
X66251Y13444D01*
X66163Y13395D01*
X66073Y13350D01*
X65981Y13308D01*
X65888Y13270D01*
X65793Y13236D01*
X65698Y13205D01*
X65601Y13178D01*
X65503Y13155D01*
X65404Y13135D01*
X65304Y13120D01*
X65204Y13108D01*
X65104Y13100D01*
X65003Y13096D01*
X64903Y13096D01*
X64802Y13100D01*
X64702Y13108D01*
X64602Y13120D01*
X64502Y13135D01*
X64403Y13155D01*
X64305Y13178D01*
X64208Y13205D01*
X64113Y13236D01*
X64018Y13270D01*
X63925Y13308D01*
X63833Y13350D01*
X63743Y13395D01*
X63655Y13444D01*
X63569Y13496D01*
X63485Y13551D01*
X63403Y13610D01*
X63323Y13671D01*
X63246Y13736D01*
X63172Y13804D01*
X63100Y13874D01*
X63031Y13947D01*
X62964Y14023D01*
X62901Y14102D01*
X62841Y14182D01*
X62784Y14265D01*
X62730Y14351D01*
X62680Y14438D01*
X62633Y14527D01*
X62590Y14618D01*
X62550Y14710D01*
X62514Y14804D01*
X62481Y14899D01*
X62452Y14996D01*
X62427Y15093D01*
X62406Y15192D01*
X62388Y15291D01*
X62375Y15391D01*
X62365Y15491D01*
X62359Y15591D01*
X62357Y15692D01*
X72644Y5306D02*
X77837Y19586D01*
X82282Y15692D02*
X85527Y18288D01*
X85527Y6604D01*
X82282Y6604D02*
X88773Y6604D01*
X93712Y15692D02*
X96957Y18288D01*
X96957Y6604D01*
X93712Y6604D02*
X100203Y6604D01*
X104648Y5306D02*
X109841Y19586D01*
X117856Y18288D02*
X117963Y18286D01*
X118069Y18280D01*
X118175Y18270D01*
X118281Y18257D01*
X118387Y18239D01*
X118491Y18218D01*
X118595Y18193D01*
X118698Y18164D01*
X118799Y18132D01*
X118899Y18095D01*
X118998Y18055D01*
X119096Y18012D01*
X119192Y17965D01*
X119286Y17914D01*
X119378Y17860D01*
X119468Y17803D01*
X119556Y17743D01*
X119641Y17679D01*
X119724Y17612D01*
X119805Y17542D01*
X119883Y17470D01*
X119959Y17394D01*
X120031Y17316D01*
X120101Y17235D01*
X120168Y17152D01*
X120232Y17067D01*
X120292Y16979D01*
X120349Y16889D01*
X120403Y16797D01*
X120454Y16703D01*
X120501Y16607D01*
X120544Y16509D01*
X120584Y16410D01*
X120621Y16310D01*
X120653Y16209D01*
X120682Y16106D01*
X120707Y16002D01*
X120728Y15898D01*
X120746Y15792D01*
X120759Y15686D01*
X120769Y15580D01*
X120775Y15474D01*
X120777Y15367D01*
X117856Y18288D02*
X117735Y18286D01*
X117614Y18280D01*
X117494Y18270D01*
X117373Y18257D01*
X117254Y18239D01*
X117134Y18218D01*
X117016Y18193D01*
X116899Y18164D01*
X116782Y18131D01*
X116667Y18095D01*
X116553Y18054D01*
X116440Y18011D01*
X116328Y17963D01*
X116219Y17912D01*
X116111Y17857D01*
X116004Y17799D01*
X115900Y17738D01*
X115798Y17673D01*
X115698Y17605D01*
X115600Y17534D01*
X115504Y17460D01*
X115411Y17383D01*
X115321Y17302D01*
X115233Y17219D01*
X115148Y17133D01*
X115065Y17044D01*
X114986Y16953D01*
X114909Y16859D01*
X114836Y16763D01*
X114766Y16665D01*
X114699Y16564D01*
X114635Y16461D01*
X114575Y16356D01*
X114518Y16249D01*
X114464Y16141D01*
X114414Y16031D01*
X114368Y15919D01*
X114325Y15806D01*
X114286Y15691D01*
X119803Y13095D02*
X119882Y13172D01*
X119958Y13253D01*
X120031Y13336D01*
X120101Y13421D01*
X120168Y13509D01*
X120232Y13599D01*
X120292Y13691D01*
X120349Y13786D01*
X120403Y13882D01*
X120454Y13980D01*
X120501Y14080D01*
X120545Y14182D01*
X120585Y14285D01*
X120621Y14389D01*
X120653Y14495D01*
X120682Y14601D01*
X120707Y14709D01*
X120729Y14817D01*
X120746Y14927D01*
X120760Y15036D01*
X120769Y15146D01*
X120775Y15257D01*
X120777Y15367D01*
X119803Y13095D02*
X114286Y6604D01*
X120777Y6604D01*
X125716Y15692D02*
X128961Y18288D01*
X128961Y6604D01*
X125716Y6604D02*
X132207Y6604D01*
D11*
X20221Y190401D02*
X18994Y190401D01*
X20221Y190401D02*
X20221Y186309D01*
X17766Y186309D01*
X17688Y186311D01*
X17610Y186316D01*
X17533Y186326D01*
X17456Y186339D01*
X17380Y186355D01*
X17305Y186375D01*
X17231Y186399D01*
X17158Y186426D01*
X17086Y186457D01*
X17016Y186491D01*
X16947Y186528D01*
X16881Y186569D01*
X16816Y186613D01*
X16754Y186659D01*
X16694Y186709D01*
X16636Y186761D01*
X16581Y186816D01*
X16529Y186874D01*
X16479Y186934D01*
X16433Y186996D01*
X16389Y187061D01*
X16348Y187128D01*
X16311Y187196D01*
X16277Y187266D01*
X16246Y187338D01*
X16219Y187411D01*
X16195Y187485D01*
X16175Y187560D01*
X16159Y187636D01*
X16146Y187713D01*
X16136Y187790D01*
X16131Y187868D01*
X16129Y187946D01*
X16129Y192038D01*
X16131Y192118D01*
X16137Y192198D01*
X16147Y192278D01*
X16160Y192357D01*
X16178Y192436D01*
X16199Y192513D01*
X16225Y192589D01*
X16254Y192664D01*
X16286Y192738D01*
X16322Y192810D01*
X16362Y192880D01*
X16405Y192947D01*
X16451Y193013D01*
X16501Y193076D01*
X16553Y193137D01*
X16608Y193196D01*
X16667Y193251D01*
X16727Y193303D01*
X16791Y193353D01*
X16857Y193399D01*
X16924Y193442D01*
X16994Y193482D01*
X17066Y193518D01*
X17140Y193550D01*
X17214Y193579D01*
X17291Y193605D01*
X17368Y193626D01*
X17447Y193644D01*
X17526Y193657D01*
X17606Y193667D01*
X17686Y193673D01*
X17766Y193675D01*
X20221Y193675D01*
X23932Y193675D02*
X23932Y186309D01*
X28024Y186309D02*
X23932Y193675D01*
X28024Y193675D02*
X28024Y186309D01*
X31735Y186309D02*
X31735Y193675D01*
X33781Y193675D01*
X33870Y193673D01*
X33959Y193667D01*
X34048Y193657D01*
X34136Y193644D01*
X34224Y193627D01*
X34311Y193605D01*
X34396Y193580D01*
X34481Y193552D01*
X34564Y193519D01*
X34646Y193483D01*
X34726Y193444D01*
X34804Y193401D01*
X34880Y193355D01*
X34955Y193305D01*
X35027Y193252D01*
X35096Y193196D01*
X35163Y193137D01*
X35228Y193076D01*
X35289Y193011D01*
X35348Y192944D01*
X35404Y192875D01*
X35457Y192803D01*
X35507Y192728D01*
X35553Y192652D01*
X35596Y192574D01*
X35635Y192494D01*
X35671Y192412D01*
X35704Y192329D01*
X35732Y192244D01*
X35757Y192159D01*
X35779Y192072D01*
X35796Y191984D01*
X35809Y191896D01*
X35819Y191807D01*
X35825Y191718D01*
X35827Y191629D01*
X35827Y188355D01*
X35825Y188266D01*
X35819Y188177D01*
X35809Y188088D01*
X35796Y188000D01*
X35779Y187912D01*
X35757Y187825D01*
X35732Y187740D01*
X35704Y187655D01*
X35671Y187572D01*
X35635Y187490D01*
X35596Y187410D01*
X35553Y187332D01*
X35507Y187256D01*
X35457Y187181D01*
X35404Y187109D01*
X35348Y187040D01*
X35289Y186973D01*
X35228Y186908D01*
X35163Y186847D01*
X35096Y186788D01*
X35027Y186732D01*
X34955Y186679D01*
X34880Y186629D01*
X34804Y186583D01*
X34726Y186540D01*
X34646Y186501D01*
X34564Y186465D01*
X34481Y186432D01*
X34396Y186404D01*
X34311Y186379D01*
X34224Y186357D01*
X34136Y186340D01*
X34048Y186327D01*
X33959Y186317D01*
X33870Y186311D01*
X33781Y186309D01*
X31735Y186309D01*
X46355Y194437D02*
X48810Y187071D01*
X51266Y194437D01*
X55693Y187071D02*
X57330Y187071D01*
X55693Y187071D02*
X55615Y187073D01*
X55537Y187078D01*
X55460Y187088D01*
X55383Y187101D01*
X55307Y187117D01*
X55232Y187137D01*
X55158Y187161D01*
X55085Y187188D01*
X55013Y187219D01*
X54943Y187253D01*
X54875Y187290D01*
X54808Y187331D01*
X54743Y187375D01*
X54681Y187421D01*
X54621Y187471D01*
X54563Y187523D01*
X54508Y187578D01*
X54456Y187636D01*
X54406Y187696D01*
X54360Y187758D01*
X54316Y187823D01*
X54275Y187890D01*
X54238Y187958D01*
X54204Y188028D01*
X54173Y188100D01*
X54146Y188173D01*
X54122Y188247D01*
X54102Y188322D01*
X54086Y188398D01*
X54073Y188475D01*
X54063Y188552D01*
X54058Y188630D01*
X54056Y188708D01*
X54056Y192800D01*
X54058Y192880D01*
X54064Y192960D01*
X54074Y193040D01*
X54087Y193119D01*
X54105Y193198D01*
X54126Y193275D01*
X54152Y193351D01*
X54181Y193426D01*
X54213Y193500D01*
X54249Y193572D01*
X54289Y193642D01*
X54332Y193709D01*
X54378Y193775D01*
X54428Y193838D01*
X54480Y193899D01*
X54535Y193958D01*
X54594Y194013D01*
X54654Y194065D01*
X54718Y194115D01*
X54784Y194161D01*
X54851Y194204D01*
X54921Y194244D01*
X54993Y194280D01*
X55067Y194312D01*
X55141Y194341D01*
X55218Y194367D01*
X55295Y194388D01*
X55374Y194406D01*
X55453Y194419D01*
X55533Y194429D01*
X55613Y194435D01*
X55693Y194437D01*
X57330Y194437D01*
X61789Y187071D02*
X63426Y187071D01*
X61789Y187071D02*
X61711Y187073D01*
X61633Y187078D01*
X61556Y187088D01*
X61479Y187101D01*
X61403Y187117D01*
X61328Y187137D01*
X61254Y187161D01*
X61181Y187188D01*
X61109Y187219D01*
X61039Y187253D01*
X60971Y187290D01*
X60904Y187331D01*
X60839Y187375D01*
X60777Y187421D01*
X60717Y187471D01*
X60659Y187523D01*
X60604Y187578D01*
X60552Y187636D01*
X60502Y187696D01*
X60456Y187758D01*
X60412Y187823D01*
X60371Y187890D01*
X60334Y187958D01*
X60300Y188028D01*
X60269Y188100D01*
X60242Y188173D01*
X60218Y188247D01*
X60198Y188322D01*
X60182Y188398D01*
X60169Y188475D01*
X60159Y188552D01*
X60154Y188630D01*
X60152Y188708D01*
X60152Y192800D01*
X60154Y192880D01*
X60160Y192960D01*
X60170Y193040D01*
X60183Y193119D01*
X60201Y193198D01*
X60222Y193275D01*
X60248Y193351D01*
X60277Y193426D01*
X60309Y193500D01*
X60345Y193572D01*
X60385Y193642D01*
X60428Y193709D01*
X60474Y193775D01*
X60524Y193838D01*
X60576Y193899D01*
X60631Y193958D01*
X60690Y194013D01*
X60750Y194065D01*
X60814Y194115D01*
X60880Y194161D01*
X60947Y194204D01*
X61017Y194244D01*
X61089Y194280D01*
X61163Y194312D01*
X61237Y194341D01*
X61314Y194367D01*
X61391Y194388D01*
X61470Y194406D01*
X61549Y194419D01*
X61629Y194429D01*
X61709Y194435D01*
X61789Y194437D01*
X63426Y194437D01*
X73279Y187833D02*
X75734Y195199D01*
X78190Y187833D01*
X77576Y189675D02*
X73893Y189675D01*
X80681Y187015D02*
X83955Y187015D01*
X86856Y189879D02*
X86856Y193153D01*
X86858Y193242D01*
X86864Y193331D01*
X86874Y193420D01*
X86887Y193508D01*
X86904Y193596D01*
X86926Y193683D01*
X86951Y193768D01*
X86979Y193853D01*
X87012Y193936D01*
X87048Y194018D01*
X87087Y194098D01*
X87130Y194176D01*
X87176Y194252D01*
X87226Y194327D01*
X87279Y194399D01*
X87335Y194468D01*
X87394Y194535D01*
X87455Y194600D01*
X87520Y194661D01*
X87587Y194720D01*
X87656Y194776D01*
X87728Y194829D01*
X87803Y194879D01*
X87879Y194925D01*
X87957Y194968D01*
X88037Y195007D01*
X88119Y195043D01*
X88202Y195076D01*
X88287Y195104D01*
X88372Y195129D01*
X88459Y195151D01*
X88547Y195168D01*
X88635Y195181D01*
X88724Y195191D01*
X88813Y195197D01*
X88902Y195199D01*
X88991Y195197D01*
X89080Y195191D01*
X89169Y195181D01*
X89257Y195168D01*
X89345Y195151D01*
X89432Y195129D01*
X89517Y195104D01*
X89602Y195076D01*
X89685Y195043D01*
X89767Y195007D01*
X89847Y194968D01*
X89925Y194925D01*
X90001Y194879D01*
X90076Y194829D01*
X90148Y194776D01*
X90217Y194720D01*
X90284Y194661D01*
X90349Y194600D01*
X90410Y194535D01*
X90469Y194468D01*
X90525Y194399D01*
X90578Y194327D01*
X90628Y194252D01*
X90674Y194176D01*
X90717Y194098D01*
X90756Y194018D01*
X90792Y193936D01*
X90825Y193853D01*
X90853Y193768D01*
X90878Y193683D01*
X90900Y193596D01*
X90917Y193508D01*
X90930Y193420D01*
X90940Y193331D01*
X90946Y193242D01*
X90948Y193153D01*
X90948Y189879D01*
X90946Y189790D01*
X90940Y189701D01*
X90930Y189612D01*
X90917Y189524D01*
X90900Y189436D01*
X90878Y189349D01*
X90853Y189264D01*
X90825Y189179D01*
X90792Y189096D01*
X90756Y189014D01*
X90717Y188934D01*
X90674Y188856D01*
X90628Y188780D01*
X90578Y188705D01*
X90525Y188633D01*
X90469Y188564D01*
X90410Y188497D01*
X90349Y188432D01*
X90284Y188371D01*
X90217Y188312D01*
X90148Y188256D01*
X90076Y188203D01*
X90001Y188153D01*
X89925Y188107D01*
X89847Y188064D01*
X89767Y188025D01*
X89685Y187989D01*
X89602Y187956D01*
X89517Y187928D01*
X89432Y187903D01*
X89345Y187881D01*
X89257Y187864D01*
X89169Y187851D01*
X89080Y187841D01*
X88991Y187835D01*
X88902Y187833D01*
X88813Y187835D01*
X88724Y187841D01*
X88635Y187851D01*
X88547Y187864D01*
X88459Y187881D01*
X88372Y187903D01*
X88287Y187928D01*
X88202Y187956D01*
X88119Y187989D01*
X88037Y188025D01*
X87957Y188064D01*
X87879Y188107D01*
X87803Y188153D01*
X87728Y188203D01*
X87656Y188256D01*
X87587Y188312D01*
X87520Y188371D01*
X87455Y188432D01*
X87394Y188497D01*
X87335Y188564D01*
X87279Y188633D01*
X87226Y188705D01*
X87176Y188780D01*
X87130Y188856D01*
X87087Y188934D01*
X87048Y189014D01*
X87012Y189096D01*
X86979Y189179D01*
X86951Y189264D01*
X86926Y189349D01*
X86904Y189436D01*
X86887Y189524D01*
X86874Y189612D01*
X86864Y189701D01*
X86858Y189790D01*
X86856Y189879D01*
X94415Y189879D02*
X94415Y195199D01*
X94415Y189879D02*
X94417Y189790D01*
X94423Y189701D01*
X94433Y189612D01*
X94446Y189524D01*
X94463Y189436D01*
X94485Y189349D01*
X94510Y189264D01*
X94538Y189179D01*
X94571Y189096D01*
X94607Y189014D01*
X94646Y188934D01*
X94689Y188856D01*
X94735Y188780D01*
X94785Y188705D01*
X94838Y188633D01*
X94894Y188564D01*
X94953Y188497D01*
X95014Y188432D01*
X95079Y188371D01*
X95146Y188312D01*
X95215Y188256D01*
X95287Y188203D01*
X95362Y188153D01*
X95438Y188107D01*
X95516Y188064D01*
X95596Y188025D01*
X95678Y187989D01*
X95761Y187956D01*
X95846Y187928D01*
X95931Y187903D01*
X96018Y187881D01*
X96106Y187864D01*
X96194Y187851D01*
X96283Y187841D01*
X96372Y187835D01*
X96461Y187833D01*
X96550Y187835D01*
X96639Y187841D01*
X96728Y187851D01*
X96816Y187864D01*
X96904Y187881D01*
X96991Y187903D01*
X97076Y187928D01*
X97161Y187956D01*
X97244Y187989D01*
X97326Y188025D01*
X97406Y188064D01*
X97484Y188107D01*
X97560Y188153D01*
X97635Y188203D01*
X97707Y188256D01*
X97776Y188312D01*
X97843Y188371D01*
X97908Y188432D01*
X97969Y188497D01*
X98028Y188564D01*
X98084Y188633D01*
X98137Y188705D01*
X98187Y188780D01*
X98233Y188856D01*
X98276Y188934D01*
X98315Y189014D01*
X98351Y189096D01*
X98384Y189179D01*
X98412Y189264D01*
X98437Y189349D01*
X98459Y189436D01*
X98476Y189524D01*
X98489Y189612D01*
X98499Y189701D01*
X98505Y189790D01*
X98507Y189879D01*
X98507Y195199D01*
X103532Y195199D02*
X103532Y187833D01*
X101486Y195199D02*
X105578Y195199D01*
X205938Y48923D02*
X207165Y48923D01*
X207165Y44831D01*
X204710Y44831D01*
X204632Y44833D01*
X204554Y44838D01*
X204477Y44848D01*
X204400Y44861D01*
X204324Y44877D01*
X204249Y44897D01*
X204175Y44921D01*
X204102Y44948D01*
X204030Y44979D01*
X203960Y45013D01*
X203892Y45050D01*
X203825Y45091D01*
X203760Y45135D01*
X203698Y45181D01*
X203638Y45231D01*
X203580Y45283D01*
X203525Y45338D01*
X203473Y45396D01*
X203423Y45456D01*
X203377Y45518D01*
X203333Y45583D01*
X203292Y45650D01*
X203255Y45718D01*
X203221Y45788D01*
X203190Y45860D01*
X203163Y45933D01*
X203139Y46007D01*
X203119Y46082D01*
X203103Y46158D01*
X203090Y46235D01*
X203080Y46312D01*
X203075Y46390D01*
X203073Y46468D01*
X203073Y50560D01*
X203075Y50640D01*
X203081Y50720D01*
X203091Y50800D01*
X203104Y50879D01*
X203122Y50958D01*
X203143Y51035D01*
X203169Y51111D01*
X203198Y51186D01*
X203230Y51260D01*
X203266Y51332D01*
X203306Y51402D01*
X203349Y51469D01*
X203395Y51535D01*
X203445Y51598D01*
X203497Y51659D01*
X203552Y51718D01*
X203611Y51773D01*
X203671Y51825D01*
X203735Y51875D01*
X203801Y51921D01*
X203868Y51964D01*
X203938Y52004D01*
X204010Y52040D01*
X204084Y52072D01*
X204158Y52101D01*
X204235Y52127D01*
X204312Y52148D01*
X204391Y52166D01*
X204470Y52179D01*
X204550Y52189D01*
X204630Y52195D01*
X204710Y52197D01*
X207165Y52197D01*
X210876Y52197D02*
X210876Y44831D01*
X214968Y44831D02*
X210876Y52197D01*
X214968Y52197D02*
X214968Y44831D01*
X218679Y44831D02*
X218679Y52197D01*
X220725Y52197D01*
X220814Y52195D01*
X220903Y52189D01*
X220992Y52179D01*
X221080Y52166D01*
X221168Y52149D01*
X221255Y52127D01*
X221340Y52102D01*
X221425Y52074D01*
X221508Y52041D01*
X221590Y52005D01*
X221670Y51966D01*
X221748Y51923D01*
X221824Y51877D01*
X221899Y51827D01*
X221971Y51774D01*
X222040Y51718D01*
X222107Y51659D01*
X222172Y51598D01*
X222233Y51533D01*
X222292Y51466D01*
X222348Y51397D01*
X222401Y51325D01*
X222451Y51250D01*
X222497Y51174D01*
X222540Y51096D01*
X222579Y51016D01*
X222615Y50934D01*
X222648Y50851D01*
X222676Y50766D01*
X222701Y50681D01*
X222723Y50594D01*
X222740Y50506D01*
X222753Y50418D01*
X222763Y50329D01*
X222769Y50240D01*
X222771Y50151D01*
X222771Y46877D01*
X222769Y46788D01*
X222763Y46699D01*
X222753Y46610D01*
X222740Y46522D01*
X222723Y46434D01*
X222701Y46347D01*
X222676Y46262D01*
X222648Y46177D01*
X222615Y46094D01*
X222579Y46012D01*
X222540Y45932D01*
X222497Y45854D01*
X222451Y45778D01*
X222401Y45703D01*
X222348Y45631D01*
X222292Y45562D01*
X222233Y45495D01*
X222172Y45430D01*
X222107Y45369D01*
X222040Y45310D01*
X221971Y45254D01*
X221899Y45201D01*
X221824Y45151D01*
X221748Y45105D01*
X221670Y45062D01*
X221590Y45023D01*
X221508Y44987D01*
X221425Y44954D01*
X221340Y44926D01*
X221255Y44901D01*
X221168Y44879D01*
X221080Y44862D01*
X220992Y44849D01*
X220903Y44839D01*
X220814Y44833D01*
X220725Y44831D01*
X218679Y44831D01*
X187918Y49220D02*
X183007Y49220D01*
X185462Y51675D02*
X185462Y46764D01*
X169813Y319913D02*
X169813Y327279D01*
X167767Y327279D02*
X171859Y327279D01*
X174516Y323187D02*
X174516Y321550D01*
X174516Y323187D02*
X174518Y323266D01*
X174524Y323345D01*
X174533Y323424D01*
X174546Y323502D01*
X174564Y323579D01*
X174584Y323655D01*
X174609Y323730D01*
X174637Y323804D01*
X174668Y323877D01*
X174704Y323948D01*
X174742Y324017D01*
X174784Y324084D01*
X174829Y324149D01*
X174877Y324212D01*
X174928Y324273D01*
X174982Y324330D01*
X175038Y324386D01*
X175097Y324438D01*
X175159Y324488D01*
X175223Y324534D01*
X175289Y324578D01*
X175357Y324618D01*
X175427Y324654D01*
X175499Y324688D01*
X175573Y324718D01*
X175647Y324744D01*
X175723Y324767D01*
X175800Y324785D01*
X175877Y324801D01*
X175956Y324812D01*
X176034Y324820D01*
X176113Y324824D01*
X176193Y324824D01*
X176272Y324820D01*
X176350Y324812D01*
X176429Y324801D01*
X176506Y324785D01*
X176583Y324767D01*
X176659Y324744D01*
X176733Y324718D01*
X176807Y324688D01*
X176879Y324654D01*
X176949Y324618D01*
X177017Y324578D01*
X177083Y324534D01*
X177147Y324488D01*
X177209Y324438D01*
X177268Y324386D01*
X177324Y324330D01*
X177378Y324273D01*
X177429Y324212D01*
X177477Y324149D01*
X177522Y324084D01*
X177564Y324017D01*
X177602Y323948D01*
X177638Y323877D01*
X177669Y323804D01*
X177697Y323730D01*
X177722Y323655D01*
X177742Y323579D01*
X177760Y323502D01*
X177773Y323424D01*
X177782Y323345D01*
X177788Y323266D01*
X177790Y323187D01*
X177790Y321550D01*
X177788Y321471D01*
X177782Y321392D01*
X177773Y321313D01*
X177760Y321235D01*
X177742Y321158D01*
X177722Y321082D01*
X177697Y321007D01*
X177669Y320933D01*
X177638Y320860D01*
X177602Y320789D01*
X177564Y320720D01*
X177522Y320653D01*
X177477Y320588D01*
X177429Y320525D01*
X177378Y320464D01*
X177324Y320407D01*
X177268Y320351D01*
X177209Y320299D01*
X177147Y320249D01*
X177083Y320203D01*
X177017Y320159D01*
X176949Y320119D01*
X176879Y320083D01*
X176807Y320049D01*
X176733Y320019D01*
X176659Y319993D01*
X176583Y319970D01*
X176506Y319952D01*
X176429Y319936D01*
X176350Y319925D01*
X176272Y319917D01*
X176193Y319913D01*
X176113Y319913D01*
X176034Y319917D01*
X175956Y319925D01*
X175877Y319936D01*
X175800Y319952D01*
X175723Y319970D01*
X175647Y319993D01*
X175573Y320019D01*
X175499Y320049D01*
X175427Y320083D01*
X175357Y320119D01*
X175289Y320159D01*
X175223Y320203D01*
X175159Y320249D01*
X175097Y320299D01*
X175038Y320351D01*
X174982Y320407D01*
X174928Y320464D01*
X174877Y320525D01*
X174829Y320588D01*
X174784Y320653D01*
X174742Y320720D01*
X174704Y320789D01*
X174668Y320860D01*
X174637Y320933D01*
X174609Y321007D01*
X174584Y321082D01*
X174564Y321158D01*
X174546Y321235D01*
X174533Y321313D01*
X174524Y321392D01*
X174518Y321471D01*
X174516Y321550D01*
X185197Y324005D02*
X187243Y324005D01*
X187332Y324003D01*
X187421Y323997D01*
X187510Y323987D01*
X187598Y323974D01*
X187686Y323957D01*
X187773Y323935D01*
X187858Y323910D01*
X187943Y323882D01*
X188026Y323849D01*
X188108Y323813D01*
X188188Y323774D01*
X188266Y323731D01*
X188342Y323685D01*
X188417Y323635D01*
X188489Y323582D01*
X188558Y323526D01*
X188625Y323467D01*
X188690Y323406D01*
X188751Y323341D01*
X188810Y323274D01*
X188866Y323205D01*
X188919Y323133D01*
X188969Y323058D01*
X189015Y322982D01*
X189058Y322904D01*
X189097Y322824D01*
X189133Y322742D01*
X189166Y322659D01*
X189194Y322574D01*
X189219Y322489D01*
X189241Y322402D01*
X189258Y322314D01*
X189271Y322226D01*
X189281Y322137D01*
X189287Y322048D01*
X189289Y321959D01*
X189287Y321870D01*
X189281Y321781D01*
X189271Y321692D01*
X189258Y321604D01*
X189241Y321516D01*
X189219Y321429D01*
X189194Y321344D01*
X189166Y321259D01*
X189133Y321176D01*
X189097Y321094D01*
X189058Y321014D01*
X189015Y320936D01*
X188969Y320860D01*
X188919Y320785D01*
X188866Y320713D01*
X188810Y320644D01*
X188751Y320577D01*
X188690Y320512D01*
X188625Y320451D01*
X188558Y320392D01*
X188489Y320336D01*
X188417Y320283D01*
X188342Y320233D01*
X188266Y320187D01*
X188188Y320144D01*
X188108Y320105D01*
X188026Y320069D01*
X187943Y320036D01*
X187858Y320008D01*
X187773Y319983D01*
X187686Y319961D01*
X187598Y319944D01*
X187510Y319931D01*
X187421Y319921D01*
X187332Y319915D01*
X187243Y319913D01*
X185197Y319913D01*
X185197Y327279D01*
X187243Y327279D01*
X187322Y327277D01*
X187401Y327271D01*
X187480Y327262D01*
X187558Y327249D01*
X187635Y327231D01*
X187711Y327211D01*
X187786Y327186D01*
X187860Y327158D01*
X187933Y327127D01*
X188004Y327091D01*
X188073Y327053D01*
X188140Y327011D01*
X188205Y326966D01*
X188268Y326918D01*
X188329Y326867D01*
X188386Y326813D01*
X188442Y326757D01*
X188494Y326698D01*
X188544Y326636D01*
X188590Y326572D01*
X188634Y326506D01*
X188674Y326438D01*
X188710Y326368D01*
X188744Y326296D01*
X188774Y326222D01*
X188800Y326148D01*
X188823Y326072D01*
X188841Y325995D01*
X188857Y325918D01*
X188868Y325839D01*
X188876Y325761D01*
X188880Y325682D01*
X188880Y325602D01*
X188876Y325523D01*
X188868Y325445D01*
X188857Y325366D01*
X188841Y325289D01*
X188823Y325212D01*
X188800Y325136D01*
X188774Y325062D01*
X188744Y324988D01*
X188710Y324916D01*
X188674Y324846D01*
X188634Y324778D01*
X188590Y324712D01*
X188544Y324648D01*
X188494Y324586D01*
X188442Y324527D01*
X188386Y324471D01*
X188329Y324417D01*
X188268Y324366D01*
X188205Y324318D01*
X188140Y324273D01*
X188073Y324231D01*
X188004Y324193D01*
X187933Y324157D01*
X187860Y324126D01*
X187786Y324098D01*
X187711Y324073D01*
X187635Y324053D01*
X187558Y324035D01*
X187480Y324022D01*
X187401Y324013D01*
X187322Y324007D01*
X187243Y324005D01*
X192151Y325233D02*
X192151Y321959D01*
X192151Y325233D02*
X192153Y325322D01*
X192159Y325411D01*
X192169Y325500D01*
X192182Y325588D01*
X192199Y325676D01*
X192221Y325763D01*
X192246Y325848D01*
X192274Y325933D01*
X192307Y326016D01*
X192343Y326098D01*
X192382Y326178D01*
X192425Y326256D01*
X192471Y326332D01*
X192521Y326407D01*
X192574Y326479D01*
X192630Y326548D01*
X192689Y326615D01*
X192750Y326680D01*
X192815Y326741D01*
X192882Y326800D01*
X192951Y326856D01*
X193023Y326909D01*
X193098Y326959D01*
X193174Y327005D01*
X193252Y327048D01*
X193332Y327087D01*
X193414Y327123D01*
X193497Y327156D01*
X193582Y327184D01*
X193667Y327209D01*
X193754Y327231D01*
X193842Y327248D01*
X193930Y327261D01*
X194019Y327271D01*
X194108Y327277D01*
X194197Y327279D01*
X194286Y327277D01*
X194375Y327271D01*
X194464Y327261D01*
X194552Y327248D01*
X194640Y327231D01*
X194727Y327209D01*
X194812Y327184D01*
X194897Y327156D01*
X194980Y327123D01*
X195062Y327087D01*
X195142Y327048D01*
X195220Y327005D01*
X195296Y326959D01*
X195371Y326909D01*
X195443Y326856D01*
X195512Y326800D01*
X195579Y326741D01*
X195644Y326680D01*
X195705Y326615D01*
X195764Y326548D01*
X195820Y326479D01*
X195873Y326407D01*
X195923Y326332D01*
X195969Y326256D01*
X196012Y326178D01*
X196051Y326098D01*
X196087Y326016D01*
X196120Y325933D01*
X196148Y325848D01*
X196173Y325763D01*
X196195Y325676D01*
X196212Y325588D01*
X196225Y325500D01*
X196235Y325411D01*
X196241Y325322D01*
X196243Y325233D01*
X196243Y321959D01*
X196241Y321870D01*
X196235Y321781D01*
X196225Y321692D01*
X196212Y321604D01*
X196195Y321516D01*
X196173Y321429D01*
X196148Y321344D01*
X196120Y321259D01*
X196087Y321176D01*
X196051Y321094D01*
X196012Y321014D01*
X195969Y320936D01*
X195923Y320860D01*
X195873Y320785D01*
X195820Y320713D01*
X195764Y320644D01*
X195705Y320577D01*
X195644Y320512D01*
X195579Y320451D01*
X195512Y320392D01*
X195443Y320336D01*
X195371Y320283D01*
X195296Y320233D01*
X195220Y320187D01*
X195142Y320144D01*
X195062Y320105D01*
X194980Y320069D01*
X194897Y320036D01*
X194812Y320008D01*
X194727Y319983D01*
X194640Y319961D01*
X194552Y319944D01*
X194464Y319931D01*
X194375Y319921D01*
X194286Y319915D01*
X194197Y319913D01*
X194108Y319915D01*
X194019Y319921D01*
X193930Y319931D01*
X193842Y319944D01*
X193754Y319961D01*
X193667Y319983D01*
X193582Y320008D01*
X193497Y320036D01*
X193414Y320069D01*
X193332Y320105D01*
X193252Y320144D01*
X193174Y320187D01*
X193098Y320233D01*
X193023Y320283D01*
X192951Y320336D01*
X192882Y320392D01*
X192815Y320451D01*
X192750Y320512D01*
X192689Y320577D01*
X192630Y320644D01*
X192574Y320713D01*
X192521Y320785D01*
X192471Y320860D01*
X192425Y320936D01*
X192382Y321014D01*
X192343Y321094D01*
X192307Y321176D01*
X192274Y321259D01*
X192246Y321344D01*
X192221Y321429D01*
X192199Y321516D01*
X192182Y321604D01*
X192169Y321692D01*
X192159Y321781D01*
X192153Y321870D01*
X192151Y321959D01*
X199761Y319913D02*
X199761Y327279D01*
X201807Y327279D01*
X201896Y327277D01*
X201985Y327271D01*
X202074Y327261D01*
X202162Y327248D01*
X202250Y327231D01*
X202337Y327209D01*
X202422Y327184D01*
X202507Y327156D01*
X202590Y327123D01*
X202672Y327087D01*
X202752Y327048D01*
X202830Y327005D01*
X202906Y326959D01*
X202981Y326909D01*
X203053Y326856D01*
X203122Y326800D01*
X203189Y326741D01*
X203254Y326680D01*
X203315Y326615D01*
X203374Y326548D01*
X203430Y326479D01*
X203483Y326407D01*
X203533Y326332D01*
X203579Y326256D01*
X203622Y326178D01*
X203661Y326098D01*
X203697Y326016D01*
X203730Y325933D01*
X203758Y325848D01*
X203783Y325763D01*
X203805Y325676D01*
X203822Y325588D01*
X203835Y325500D01*
X203845Y325411D01*
X203851Y325322D01*
X203853Y325233D01*
X203851Y325144D01*
X203845Y325055D01*
X203835Y324966D01*
X203822Y324878D01*
X203805Y324790D01*
X203783Y324703D01*
X203758Y324618D01*
X203730Y324533D01*
X203697Y324450D01*
X203661Y324368D01*
X203622Y324288D01*
X203579Y324210D01*
X203533Y324134D01*
X203483Y324059D01*
X203430Y323987D01*
X203374Y323918D01*
X203315Y323851D01*
X203254Y323786D01*
X203189Y323725D01*
X203122Y323666D01*
X203053Y323610D01*
X202981Y323557D01*
X202906Y323507D01*
X202830Y323461D01*
X202752Y323418D01*
X202672Y323379D01*
X202590Y323343D01*
X202507Y323310D01*
X202422Y323282D01*
X202337Y323257D01*
X202250Y323235D01*
X202162Y323218D01*
X202074Y323205D01*
X201985Y323195D01*
X201896Y323189D01*
X201807Y323187D01*
X199761Y323187D01*
X202217Y323187D02*
X203853Y319913D01*
X207025Y321959D02*
X207025Y325233D01*
X207027Y325322D01*
X207033Y325411D01*
X207043Y325500D01*
X207056Y325588D01*
X207073Y325676D01*
X207095Y325763D01*
X207120Y325848D01*
X207148Y325933D01*
X207181Y326016D01*
X207217Y326098D01*
X207256Y326178D01*
X207299Y326256D01*
X207345Y326332D01*
X207395Y326407D01*
X207448Y326479D01*
X207504Y326548D01*
X207563Y326615D01*
X207624Y326680D01*
X207689Y326741D01*
X207756Y326800D01*
X207825Y326856D01*
X207897Y326909D01*
X207972Y326959D01*
X208048Y327005D01*
X208126Y327048D01*
X208206Y327087D01*
X208288Y327123D01*
X208371Y327156D01*
X208456Y327184D01*
X208541Y327209D01*
X208628Y327231D01*
X208716Y327248D01*
X208804Y327261D01*
X208893Y327271D01*
X208982Y327277D01*
X209071Y327279D01*
X209160Y327277D01*
X209249Y327271D01*
X209338Y327261D01*
X209426Y327248D01*
X209514Y327231D01*
X209601Y327209D01*
X209686Y327184D01*
X209771Y327156D01*
X209854Y327123D01*
X209936Y327087D01*
X210016Y327048D01*
X210094Y327005D01*
X210170Y326959D01*
X210245Y326909D01*
X210317Y326856D01*
X210386Y326800D01*
X210453Y326741D01*
X210518Y326680D01*
X210579Y326615D01*
X210638Y326548D01*
X210694Y326479D01*
X210747Y326407D01*
X210797Y326332D01*
X210843Y326256D01*
X210886Y326178D01*
X210925Y326098D01*
X210961Y326016D01*
X210994Y325933D01*
X211022Y325848D01*
X211047Y325763D01*
X211069Y325676D01*
X211086Y325588D01*
X211099Y325500D01*
X211109Y325411D01*
X211115Y325322D01*
X211117Y325233D01*
X211117Y321959D01*
X211115Y321870D01*
X211109Y321781D01*
X211099Y321692D01*
X211086Y321604D01*
X211069Y321516D01*
X211047Y321429D01*
X211022Y321344D01*
X210994Y321259D01*
X210961Y321176D01*
X210925Y321094D01*
X210886Y321014D01*
X210843Y320936D01*
X210797Y320860D01*
X210747Y320785D01*
X210694Y320713D01*
X210638Y320644D01*
X210579Y320577D01*
X210518Y320512D01*
X210453Y320451D01*
X210386Y320392D01*
X210317Y320336D01*
X210245Y320283D01*
X210170Y320233D01*
X210094Y320187D01*
X210016Y320144D01*
X209936Y320105D01*
X209854Y320069D01*
X209771Y320036D01*
X209686Y320008D01*
X209601Y319983D01*
X209514Y319961D01*
X209426Y319944D01*
X209338Y319931D01*
X209249Y319921D01*
X209160Y319915D01*
X209071Y319913D01*
X208982Y319915D01*
X208893Y319921D01*
X208804Y319931D01*
X208716Y319944D01*
X208628Y319961D01*
X208541Y319983D01*
X208456Y320008D01*
X208371Y320036D01*
X208288Y320069D01*
X208206Y320105D01*
X208126Y320144D01*
X208048Y320187D01*
X207972Y320233D01*
X207897Y320283D01*
X207825Y320336D01*
X207756Y320392D01*
X207689Y320451D01*
X207624Y320512D01*
X207563Y320577D01*
X207504Y320644D01*
X207448Y320713D01*
X207395Y320785D01*
X207345Y320860D01*
X207299Y320936D01*
X207256Y321014D01*
X207217Y321094D01*
X207181Y321176D01*
X207148Y321259D01*
X207120Y321344D01*
X207095Y321429D01*
X207073Y321516D01*
X207056Y321604D01*
X207043Y321692D01*
X207033Y321781D01*
X207027Y321870D01*
X207025Y321959D01*
X214584Y319913D02*
X214584Y327279D01*
X218676Y319913D01*
X218676Y327279D01*
X122998Y56684D02*
X121361Y56684D01*
X121283Y56686D01*
X121205Y56691D01*
X121128Y56701D01*
X121051Y56714D01*
X120975Y56730D01*
X120900Y56750D01*
X120826Y56774D01*
X120753Y56801D01*
X120681Y56832D01*
X120611Y56866D01*
X120543Y56903D01*
X120476Y56944D01*
X120411Y56988D01*
X120349Y57034D01*
X120289Y57084D01*
X120231Y57136D01*
X120176Y57191D01*
X120124Y57249D01*
X120074Y57309D01*
X120028Y57371D01*
X119984Y57436D01*
X119943Y57503D01*
X119906Y57571D01*
X119872Y57641D01*
X119841Y57713D01*
X119814Y57786D01*
X119790Y57860D01*
X119770Y57935D01*
X119754Y58011D01*
X119741Y58088D01*
X119731Y58165D01*
X119726Y58243D01*
X119724Y58321D01*
X119724Y62413D01*
X119726Y62493D01*
X119732Y62573D01*
X119742Y62653D01*
X119755Y62732D01*
X119773Y62811D01*
X119794Y62888D01*
X119820Y62964D01*
X119849Y63039D01*
X119881Y63113D01*
X119917Y63185D01*
X119957Y63255D01*
X120000Y63322D01*
X120046Y63388D01*
X120096Y63451D01*
X120148Y63512D01*
X120203Y63571D01*
X120262Y63626D01*
X120322Y63678D01*
X120386Y63728D01*
X120452Y63774D01*
X120519Y63817D01*
X120589Y63857D01*
X120661Y63893D01*
X120735Y63925D01*
X120809Y63954D01*
X120886Y63980D01*
X120963Y64001D01*
X121042Y64019D01*
X121121Y64032D01*
X121201Y64042D01*
X121281Y64048D01*
X121361Y64050D01*
X122998Y64050D01*
X125843Y60776D02*
X128299Y60776D01*
X128377Y60774D01*
X128455Y60769D01*
X128532Y60759D01*
X128609Y60746D01*
X128685Y60730D01*
X128760Y60710D01*
X128834Y60686D01*
X128907Y60659D01*
X128979Y60628D01*
X129049Y60594D01*
X129118Y60557D01*
X129184Y60516D01*
X129249Y60472D01*
X129311Y60426D01*
X129371Y60376D01*
X129429Y60324D01*
X129484Y60269D01*
X129536Y60211D01*
X129586Y60151D01*
X129632Y60089D01*
X129676Y60024D01*
X129717Y59958D01*
X129754Y59889D01*
X129788Y59819D01*
X129819Y59747D01*
X129846Y59674D01*
X129870Y59600D01*
X129890Y59525D01*
X129906Y59449D01*
X129919Y59372D01*
X129929Y59295D01*
X129934Y59217D01*
X129936Y59139D01*
X129936Y58730D01*
X129935Y58730D02*
X129933Y58641D01*
X129927Y58552D01*
X129917Y58463D01*
X129904Y58375D01*
X129887Y58287D01*
X129865Y58200D01*
X129840Y58115D01*
X129812Y58030D01*
X129779Y57947D01*
X129743Y57865D01*
X129704Y57785D01*
X129661Y57707D01*
X129615Y57631D01*
X129565Y57556D01*
X129512Y57484D01*
X129456Y57415D01*
X129397Y57348D01*
X129336Y57283D01*
X129271Y57222D01*
X129204Y57163D01*
X129135Y57107D01*
X129063Y57054D01*
X128988Y57004D01*
X128912Y56958D01*
X128834Y56915D01*
X128754Y56876D01*
X128672Y56840D01*
X128589Y56807D01*
X128504Y56779D01*
X128419Y56754D01*
X128332Y56732D01*
X128244Y56715D01*
X128156Y56702D01*
X128067Y56692D01*
X127978Y56686D01*
X127889Y56684D01*
X127800Y56686D01*
X127711Y56692D01*
X127622Y56702D01*
X127534Y56715D01*
X127446Y56732D01*
X127359Y56754D01*
X127274Y56779D01*
X127189Y56807D01*
X127106Y56840D01*
X127024Y56876D01*
X126944Y56915D01*
X126866Y56958D01*
X126790Y57004D01*
X126715Y57054D01*
X126643Y57107D01*
X126574Y57163D01*
X126507Y57222D01*
X126442Y57283D01*
X126381Y57348D01*
X126322Y57415D01*
X126266Y57484D01*
X126213Y57556D01*
X126163Y57631D01*
X126117Y57707D01*
X126074Y57785D01*
X126035Y57865D01*
X125999Y57947D01*
X125966Y58030D01*
X125938Y58115D01*
X125913Y58200D01*
X125891Y58287D01*
X125874Y58375D01*
X125861Y58463D01*
X125851Y58552D01*
X125845Y58641D01*
X125843Y58730D01*
X125843Y60776D01*
X125845Y60890D01*
X125851Y61004D01*
X125861Y61118D01*
X125875Y61232D01*
X125893Y61345D01*
X125915Y61457D01*
X125940Y61568D01*
X125970Y61678D01*
X126003Y61788D01*
X126040Y61896D01*
X126081Y62002D01*
X126126Y62108D01*
X126174Y62211D01*
X126226Y62313D01*
X126282Y62413D01*
X126340Y62511D01*
X126403Y62607D01*
X126468Y62700D01*
X126537Y62792D01*
X126609Y62880D01*
X126684Y62967D01*
X126762Y63050D01*
X126843Y63131D01*
X126926Y63209D01*
X127013Y63284D01*
X127101Y63356D01*
X127193Y63425D01*
X127286Y63490D01*
X127382Y63552D01*
X127480Y63611D01*
X127580Y63667D01*
X127682Y63719D01*
X127785Y63767D01*
X127891Y63812D01*
X127997Y63853D01*
X128105Y63890D01*
X128215Y63923D01*
X128325Y63953D01*
X128436Y63978D01*
X128548Y64000D01*
X128661Y64018D01*
X128775Y64032D01*
X128889Y64042D01*
X129003Y64048D01*
X129117Y64050D01*
D12*
X166764Y199822D02*
X172764Y199822D01*
X172764Y211822D02*
X166764Y211822D01*
D11*
X145935Y201504D02*
X144298Y201504D01*
X144220Y201506D01*
X144142Y201511D01*
X144065Y201521D01*
X143988Y201534D01*
X143912Y201550D01*
X143837Y201570D01*
X143763Y201594D01*
X143690Y201621D01*
X143618Y201652D01*
X143548Y201686D01*
X143480Y201723D01*
X143413Y201764D01*
X143348Y201808D01*
X143286Y201854D01*
X143226Y201904D01*
X143168Y201956D01*
X143113Y202011D01*
X143061Y202069D01*
X143011Y202129D01*
X142965Y202191D01*
X142921Y202256D01*
X142880Y202323D01*
X142843Y202391D01*
X142809Y202461D01*
X142778Y202533D01*
X142751Y202606D01*
X142727Y202680D01*
X142707Y202755D01*
X142691Y202831D01*
X142678Y202908D01*
X142668Y202985D01*
X142663Y203063D01*
X142661Y203141D01*
X142661Y207233D01*
X142663Y207313D01*
X142669Y207393D01*
X142679Y207473D01*
X142692Y207552D01*
X142710Y207631D01*
X142731Y207708D01*
X142757Y207784D01*
X142786Y207859D01*
X142818Y207933D01*
X142854Y208005D01*
X142894Y208075D01*
X142937Y208142D01*
X142983Y208208D01*
X143033Y208271D01*
X143085Y208332D01*
X143140Y208391D01*
X143199Y208446D01*
X143259Y208498D01*
X143323Y208548D01*
X143389Y208594D01*
X143456Y208637D01*
X143526Y208677D01*
X143598Y208713D01*
X143672Y208745D01*
X143746Y208774D01*
X143823Y208800D01*
X143900Y208821D01*
X143979Y208839D01*
X144058Y208852D01*
X144138Y208862D01*
X144218Y208868D01*
X144298Y208870D01*
X145935Y208870D01*
X151031Y208871D02*
X151116Y208869D01*
X151201Y208863D01*
X151285Y208853D01*
X151369Y208840D01*
X151453Y208822D01*
X151535Y208801D01*
X151616Y208776D01*
X151696Y208747D01*
X151775Y208714D01*
X151852Y208678D01*
X151927Y208638D01*
X152001Y208595D01*
X152072Y208549D01*
X152141Y208499D01*
X152208Y208446D01*
X152272Y208390D01*
X152333Y208331D01*
X152392Y208270D01*
X152448Y208206D01*
X152501Y208139D01*
X152551Y208070D01*
X152597Y207999D01*
X152640Y207925D01*
X152680Y207850D01*
X152716Y207773D01*
X152749Y207694D01*
X152778Y207614D01*
X152803Y207533D01*
X152824Y207451D01*
X152842Y207367D01*
X152855Y207283D01*
X152865Y207199D01*
X152871Y207114D01*
X152873Y207029D01*
X151031Y208870D02*
X150935Y208868D01*
X150839Y208862D01*
X150744Y208852D01*
X150649Y208839D01*
X150554Y208821D01*
X150461Y208800D01*
X150368Y208775D01*
X150277Y208746D01*
X150186Y208714D01*
X150097Y208678D01*
X150010Y208638D01*
X149924Y208595D01*
X149840Y208549D01*
X149758Y208499D01*
X149678Y208445D01*
X149601Y208389D01*
X149526Y208329D01*
X149453Y208267D01*
X149383Y208201D01*
X149315Y208133D01*
X149250Y208062D01*
X149189Y207989D01*
X149130Y207913D01*
X149074Y207834D01*
X149022Y207754D01*
X148973Y207671D01*
X148927Y207587D01*
X148885Y207501D01*
X148847Y207413D01*
X148812Y207324D01*
X148780Y207233D01*
X152259Y205597D02*
X152319Y205656D01*
X152376Y205718D01*
X152431Y205782D01*
X152482Y205849D01*
X152531Y205918D01*
X152577Y205988D01*
X152620Y206061D01*
X152660Y206135D01*
X152696Y206211D01*
X152729Y206289D01*
X152759Y206368D01*
X152786Y206448D01*
X152809Y206529D01*
X152828Y206611D01*
X152844Y206693D01*
X152857Y206777D01*
X152866Y206861D01*
X152871Y206945D01*
X152873Y207029D01*
X152259Y205596D02*
X148780Y201504D01*
X152873Y201504D01*
D12*
X166252Y146210D02*
X172252Y146210D01*
X172252Y158210D02*
X166252Y158210D01*
D11*
X145780Y147359D02*
X144143Y147359D01*
X144065Y147361D01*
X143987Y147366D01*
X143910Y147376D01*
X143833Y147389D01*
X143757Y147405D01*
X143682Y147425D01*
X143608Y147449D01*
X143535Y147476D01*
X143463Y147507D01*
X143393Y147541D01*
X143325Y147578D01*
X143258Y147619D01*
X143193Y147663D01*
X143131Y147709D01*
X143071Y147759D01*
X143013Y147811D01*
X142958Y147866D01*
X142906Y147924D01*
X142856Y147984D01*
X142810Y148046D01*
X142766Y148111D01*
X142725Y148178D01*
X142688Y148246D01*
X142654Y148316D01*
X142623Y148388D01*
X142596Y148461D01*
X142572Y148535D01*
X142552Y148610D01*
X142536Y148686D01*
X142523Y148763D01*
X142513Y148840D01*
X142508Y148918D01*
X142506Y148996D01*
X142507Y148996D02*
X142507Y153089D01*
X142506Y153089D02*
X142508Y153169D01*
X142514Y153249D01*
X142524Y153329D01*
X142537Y153408D01*
X142555Y153487D01*
X142576Y153564D01*
X142602Y153640D01*
X142631Y153715D01*
X142663Y153789D01*
X142699Y153861D01*
X142739Y153931D01*
X142782Y153998D01*
X142828Y154064D01*
X142878Y154127D01*
X142930Y154188D01*
X142985Y154247D01*
X143044Y154302D01*
X143104Y154354D01*
X143168Y154404D01*
X143234Y154450D01*
X143301Y154493D01*
X143371Y154533D01*
X143443Y154569D01*
X143517Y154601D01*
X143591Y154630D01*
X143668Y154656D01*
X143745Y154677D01*
X143824Y154695D01*
X143903Y154708D01*
X143983Y154718D01*
X144063Y154724D01*
X144143Y154726D01*
X144143Y154725D02*
X145780Y154725D01*
X148626Y147359D02*
X150672Y147359D01*
X150672Y147360D02*
X150761Y147362D01*
X150850Y147368D01*
X150939Y147378D01*
X151027Y147391D01*
X151115Y147408D01*
X151202Y147430D01*
X151287Y147455D01*
X151372Y147483D01*
X151455Y147516D01*
X151537Y147552D01*
X151617Y147591D01*
X151695Y147634D01*
X151771Y147680D01*
X151846Y147730D01*
X151918Y147783D01*
X151987Y147839D01*
X152054Y147898D01*
X152119Y147959D01*
X152180Y148024D01*
X152239Y148091D01*
X152295Y148160D01*
X152348Y148232D01*
X152398Y148307D01*
X152444Y148383D01*
X152487Y148461D01*
X152526Y148541D01*
X152562Y148623D01*
X152595Y148706D01*
X152623Y148791D01*
X152648Y148876D01*
X152670Y148963D01*
X152687Y149051D01*
X152700Y149139D01*
X152710Y149228D01*
X152716Y149317D01*
X152718Y149406D01*
X152716Y149495D01*
X152710Y149584D01*
X152700Y149673D01*
X152687Y149761D01*
X152670Y149849D01*
X152648Y149936D01*
X152623Y150021D01*
X152595Y150106D01*
X152562Y150189D01*
X152526Y150271D01*
X152487Y150351D01*
X152444Y150429D01*
X152398Y150505D01*
X152348Y150580D01*
X152295Y150652D01*
X152239Y150721D01*
X152180Y150788D01*
X152119Y150853D01*
X152054Y150914D01*
X151987Y150973D01*
X151918Y151029D01*
X151846Y151082D01*
X151771Y151132D01*
X151695Y151178D01*
X151617Y151221D01*
X151537Y151260D01*
X151455Y151296D01*
X151372Y151329D01*
X151287Y151357D01*
X151202Y151382D01*
X151115Y151404D01*
X151027Y151421D01*
X150939Y151434D01*
X150850Y151444D01*
X150761Y151450D01*
X150672Y151452D01*
X151081Y154725D02*
X148626Y154725D01*
X151081Y154726D02*
X151160Y154724D01*
X151239Y154718D01*
X151318Y154709D01*
X151396Y154696D01*
X151473Y154678D01*
X151549Y154658D01*
X151624Y154633D01*
X151698Y154605D01*
X151771Y154574D01*
X151842Y154538D01*
X151911Y154500D01*
X151978Y154458D01*
X152043Y154413D01*
X152106Y154365D01*
X152167Y154314D01*
X152224Y154260D01*
X152280Y154204D01*
X152332Y154145D01*
X152382Y154083D01*
X152428Y154019D01*
X152472Y153953D01*
X152512Y153885D01*
X152548Y153815D01*
X152582Y153743D01*
X152612Y153669D01*
X152638Y153595D01*
X152661Y153519D01*
X152679Y153442D01*
X152695Y153365D01*
X152706Y153286D01*
X152714Y153208D01*
X152718Y153129D01*
X152718Y153049D01*
X152714Y152970D01*
X152706Y152892D01*
X152695Y152813D01*
X152679Y152736D01*
X152661Y152659D01*
X152638Y152583D01*
X152612Y152509D01*
X152582Y152435D01*
X152548Y152363D01*
X152512Y152293D01*
X152472Y152225D01*
X152428Y152159D01*
X152382Y152095D01*
X152332Y152033D01*
X152280Y151974D01*
X152224Y151918D01*
X152167Y151864D01*
X152106Y151813D01*
X152043Y151765D01*
X151978Y151720D01*
X151911Y151678D01*
X151842Y151640D01*
X151771Y151604D01*
X151698Y151573D01*
X151624Y151545D01*
X151549Y151520D01*
X151473Y151500D01*
X151396Y151482D01*
X151318Y151469D01*
X151239Y151460D01*
X151160Y151454D01*
X151081Y151452D01*
X149444Y151452D01*
D12*
X166773Y173491D02*
X172773Y173491D01*
X172773Y185491D02*
X166773Y185491D01*
D11*
X146198Y175427D02*
X144562Y175427D01*
X144484Y175429D01*
X144406Y175434D01*
X144329Y175444D01*
X144252Y175457D01*
X144176Y175473D01*
X144101Y175493D01*
X144027Y175517D01*
X143954Y175544D01*
X143882Y175575D01*
X143812Y175609D01*
X143744Y175646D01*
X143677Y175687D01*
X143612Y175731D01*
X143550Y175777D01*
X143490Y175827D01*
X143432Y175879D01*
X143377Y175934D01*
X143325Y175992D01*
X143275Y176052D01*
X143229Y176114D01*
X143185Y176179D01*
X143144Y176246D01*
X143107Y176314D01*
X143073Y176384D01*
X143042Y176456D01*
X143015Y176529D01*
X142991Y176603D01*
X142971Y176678D01*
X142955Y176754D01*
X142942Y176831D01*
X142932Y176908D01*
X142927Y176986D01*
X142925Y177064D01*
X142925Y181157D01*
X142927Y181237D01*
X142933Y181317D01*
X142943Y181397D01*
X142956Y181476D01*
X142974Y181555D01*
X142995Y181632D01*
X143021Y181708D01*
X143050Y181783D01*
X143082Y181857D01*
X143118Y181929D01*
X143158Y181999D01*
X143201Y182066D01*
X143247Y182132D01*
X143297Y182195D01*
X143349Y182256D01*
X143404Y182315D01*
X143463Y182370D01*
X143523Y182422D01*
X143587Y182472D01*
X143653Y182518D01*
X143720Y182561D01*
X143790Y182601D01*
X143862Y182637D01*
X143936Y182669D01*
X144010Y182698D01*
X144087Y182724D01*
X144164Y182745D01*
X144243Y182763D01*
X144322Y182776D01*
X144402Y182786D01*
X144482Y182792D01*
X144562Y182794D01*
X144562Y182793D02*
X146198Y182793D01*
X149044Y181157D02*
X151090Y182793D01*
X151090Y175427D01*
X149044Y175427D02*
X153136Y175427D01*
X309961Y119377D02*
X311598Y119377D01*
X309961Y119377D02*
X309883Y119379D01*
X309805Y119384D01*
X309728Y119394D01*
X309651Y119407D01*
X309575Y119423D01*
X309500Y119443D01*
X309426Y119467D01*
X309353Y119494D01*
X309281Y119525D01*
X309211Y119559D01*
X309143Y119596D01*
X309076Y119637D01*
X309011Y119681D01*
X308949Y119727D01*
X308889Y119777D01*
X308831Y119829D01*
X308776Y119884D01*
X308724Y119942D01*
X308674Y120002D01*
X308628Y120064D01*
X308584Y120129D01*
X308543Y120196D01*
X308506Y120264D01*
X308472Y120334D01*
X308441Y120406D01*
X308414Y120479D01*
X308390Y120553D01*
X308370Y120628D01*
X308354Y120704D01*
X308341Y120781D01*
X308331Y120858D01*
X308326Y120936D01*
X308324Y121014D01*
X308324Y125106D01*
X308326Y125186D01*
X308332Y125266D01*
X308342Y125346D01*
X308355Y125425D01*
X308373Y125504D01*
X308394Y125581D01*
X308420Y125657D01*
X308449Y125732D01*
X308481Y125806D01*
X308517Y125878D01*
X308557Y125948D01*
X308600Y126015D01*
X308646Y126081D01*
X308696Y126144D01*
X308748Y126205D01*
X308803Y126264D01*
X308862Y126319D01*
X308922Y126371D01*
X308986Y126421D01*
X309052Y126467D01*
X309119Y126510D01*
X309189Y126550D01*
X309261Y126586D01*
X309335Y126618D01*
X309409Y126647D01*
X309486Y126673D01*
X309563Y126694D01*
X309642Y126712D01*
X309721Y126725D01*
X309801Y126735D01*
X309881Y126741D01*
X309961Y126743D01*
X311598Y126743D01*
X316080Y126743D02*
X314443Y121014D01*
X318535Y121014D01*
X317307Y122651D02*
X317307Y119377D01*
X237098Y220682D02*
X235461Y220682D01*
X235383Y220684D01*
X235305Y220689D01*
X235228Y220699D01*
X235151Y220712D01*
X235075Y220728D01*
X235000Y220748D01*
X234926Y220772D01*
X234853Y220799D01*
X234781Y220830D01*
X234711Y220864D01*
X234643Y220901D01*
X234576Y220942D01*
X234511Y220986D01*
X234449Y221032D01*
X234389Y221082D01*
X234331Y221134D01*
X234276Y221189D01*
X234224Y221247D01*
X234174Y221307D01*
X234128Y221369D01*
X234084Y221434D01*
X234043Y221501D01*
X234006Y221569D01*
X233972Y221639D01*
X233941Y221711D01*
X233914Y221784D01*
X233890Y221858D01*
X233870Y221933D01*
X233854Y222009D01*
X233841Y222086D01*
X233831Y222163D01*
X233826Y222241D01*
X233824Y222319D01*
X233824Y226411D01*
X233826Y226491D01*
X233832Y226571D01*
X233842Y226651D01*
X233855Y226730D01*
X233873Y226809D01*
X233894Y226886D01*
X233920Y226962D01*
X233949Y227037D01*
X233981Y227111D01*
X234017Y227183D01*
X234057Y227253D01*
X234100Y227320D01*
X234146Y227386D01*
X234196Y227449D01*
X234248Y227510D01*
X234303Y227569D01*
X234362Y227624D01*
X234422Y227676D01*
X234486Y227726D01*
X234552Y227772D01*
X234619Y227815D01*
X234689Y227855D01*
X234761Y227891D01*
X234835Y227923D01*
X234909Y227952D01*
X234986Y227978D01*
X235063Y227999D01*
X235142Y228017D01*
X235221Y228030D01*
X235301Y228040D01*
X235381Y228046D01*
X235461Y228048D01*
X237098Y228048D01*
X239943Y220682D02*
X242399Y220682D01*
X242477Y220684D01*
X242555Y220689D01*
X242632Y220699D01*
X242709Y220712D01*
X242785Y220728D01*
X242860Y220748D01*
X242934Y220772D01*
X243007Y220799D01*
X243079Y220830D01*
X243149Y220864D01*
X243218Y220901D01*
X243284Y220942D01*
X243349Y220986D01*
X243411Y221032D01*
X243471Y221082D01*
X243529Y221134D01*
X243584Y221189D01*
X243636Y221247D01*
X243686Y221307D01*
X243732Y221369D01*
X243776Y221434D01*
X243817Y221501D01*
X243854Y221569D01*
X243888Y221639D01*
X243919Y221711D01*
X243946Y221784D01*
X243970Y221858D01*
X243990Y221933D01*
X244006Y222009D01*
X244019Y222086D01*
X244029Y222163D01*
X244034Y222241D01*
X244036Y222319D01*
X244036Y223138D01*
X244034Y223216D01*
X244029Y223294D01*
X244019Y223371D01*
X244006Y223448D01*
X243990Y223524D01*
X243970Y223599D01*
X243946Y223673D01*
X243919Y223746D01*
X243888Y223818D01*
X243854Y223888D01*
X243817Y223957D01*
X243776Y224023D01*
X243732Y224088D01*
X243686Y224150D01*
X243636Y224210D01*
X243584Y224268D01*
X243529Y224323D01*
X243471Y224375D01*
X243411Y224425D01*
X243349Y224471D01*
X243284Y224515D01*
X243218Y224556D01*
X243149Y224593D01*
X243079Y224627D01*
X243007Y224658D01*
X242934Y224685D01*
X242860Y224709D01*
X242785Y224729D01*
X242709Y224745D01*
X242632Y224758D01*
X242555Y224768D01*
X242477Y224773D01*
X242399Y224775D01*
X242399Y224774D02*
X239943Y224774D01*
X239943Y228048D01*
X244036Y228048D01*
D13*
X153928Y101929D02*
X141428Y101929D01*
X153928Y93229D02*
X153928Y75229D01*
X141428Y75229D02*
X141428Y93229D01*
D11*
X142102Y64239D02*
X142102Y56873D01*
X142102Y64239D02*
X144148Y64239D01*
X144237Y64237D01*
X144326Y64231D01*
X144415Y64221D01*
X144503Y64208D01*
X144591Y64191D01*
X144678Y64169D01*
X144763Y64144D01*
X144848Y64116D01*
X144931Y64083D01*
X145013Y64047D01*
X145093Y64008D01*
X145171Y63965D01*
X145247Y63919D01*
X145322Y63869D01*
X145394Y63816D01*
X145463Y63760D01*
X145530Y63701D01*
X145595Y63640D01*
X145656Y63575D01*
X145715Y63508D01*
X145771Y63439D01*
X145824Y63367D01*
X145874Y63292D01*
X145920Y63216D01*
X145963Y63138D01*
X146002Y63058D01*
X146038Y62976D01*
X146071Y62893D01*
X146099Y62808D01*
X146124Y62723D01*
X146146Y62636D01*
X146163Y62548D01*
X146176Y62460D01*
X146186Y62371D01*
X146192Y62282D01*
X146194Y62193D01*
X146194Y58919D01*
X146192Y58830D01*
X146186Y58741D01*
X146176Y58652D01*
X146163Y58564D01*
X146146Y58476D01*
X146124Y58389D01*
X146099Y58304D01*
X146071Y58219D01*
X146038Y58136D01*
X146002Y58054D01*
X145963Y57974D01*
X145920Y57896D01*
X145874Y57820D01*
X145824Y57745D01*
X145771Y57673D01*
X145715Y57604D01*
X145656Y57537D01*
X145595Y57472D01*
X145530Y57411D01*
X145463Y57352D01*
X145394Y57296D01*
X145322Y57243D01*
X145247Y57193D01*
X145171Y57147D01*
X145093Y57104D01*
X145013Y57065D01*
X144931Y57029D01*
X144848Y56996D01*
X144763Y56968D01*
X144678Y56943D01*
X144591Y56921D01*
X144503Y56904D01*
X144415Y56891D01*
X144326Y56881D01*
X144237Y56875D01*
X144148Y56873D01*
X142102Y56873D01*
X149661Y62602D02*
X151707Y64239D01*
X151707Y56873D01*
X149661Y56873D02*
X153753Y56873D01*
D14*
X153883Y277141D02*
X153885Y277204D01*
X153891Y277266D01*
X153901Y277328D01*
X153914Y277390D01*
X153932Y277450D01*
X153953Y277509D01*
X153978Y277567D01*
X154007Y277623D01*
X154039Y277677D01*
X154074Y277729D01*
X154112Y277778D01*
X154154Y277826D01*
X154198Y277870D01*
X154246Y277912D01*
X154295Y277950D01*
X154347Y277985D01*
X154401Y278017D01*
X154457Y278046D01*
X154515Y278071D01*
X154574Y278092D01*
X154634Y278110D01*
X154696Y278123D01*
X154758Y278133D01*
X154820Y278139D01*
X154883Y278141D01*
X154946Y278139D01*
X155008Y278133D01*
X155070Y278123D01*
X155132Y278110D01*
X155192Y278092D01*
X155251Y278071D01*
X155309Y278046D01*
X155365Y278017D01*
X155419Y277985D01*
X155471Y277950D01*
X155520Y277912D01*
X155568Y277870D01*
X155612Y277826D01*
X155654Y277778D01*
X155692Y277729D01*
X155727Y277677D01*
X155759Y277623D01*
X155788Y277567D01*
X155813Y277509D01*
X155834Y277450D01*
X155852Y277390D01*
X155865Y277328D01*
X155875Y277266D01*
X155881Y277204D01*
X155883Y277141D01*
X155881Y277078D01*
X155875Y277016D01*
X155865Y276954D01*
X155852Y276892D01*
X155834Y276832D01*
X155813Y276773D01*
X155788Y276715D01*
X155759Y276659D01*
X155727Y276605D01*
X155692Y276553D01*
X155654Y276504D01*
X155612Y276456D01*
X155568Y276412D01*
X155520Y276370D01*
X155471Y276332D01*
X155419Y276297D01*
X155365Y276265D01*
X155309Y276236D01*
X155251Y276211D01*
X155192Y276190D01*
X155132Y276172D01*
X155070Y276159D01*
X155008Y276149D01*
X154946Y276143D01*
X154883Y276141D01*
X154820Y276143D01*
X154758Y276149D01*
X154696Y276159D01*
X154634Y276172D01*
X154574Y276190D01*
X154515Y276211D01*
X154457Y276236D01*
X154401Y276265D01*
X154347Y276297D01*
X154295Y276332D01*
X154246Y276370D01*
X154198Y276412D01*
X154154Y276456D01*
X154112Y276504D01*
X154074Y276553D01*
X154039Y276605D01*
X154007Y276659D01*
X153978Y276715D01*
X153953Y276773D01*
X153932Y276832D01*
X153914Y276892D01*
X153901Y276954D01*
X153891Y277016D01*
X153885Y277078D01*
X153883Y277141D01*
D15*
X158613Y313451D02*
X218613Y313451D01*
X158613Y284451D02*
X148613Y284451D01*
X148613Y294451D01*
X228613Y294451D02*
X228613Y284451D01*
X218613Y284451D01*
D11*
X188797Y111864D02*
X188797Y104498D01*
X188797Y111864D02*
X190843Y111864D01*
X190843Y111863D02*
X190932Y111861D01*
X191021Y111855D01*
X191110Y111845D01*
X191198Y111832D01*
X191286Y111815D01*
X191373Y111793D01*
X191458Y111768D01*
X191543Y111740D01*
X191626Y111707D01*
X191708Y111671D01*
X191788Y111632D01*
X191866Y111589D01*
X191942Y111543D01*
X192017Y111493D01*
X192089Y111440D01*
X192158Y111384D01*
X192225Y111325D01*
X192290Y111264D01*
X192351Y111199D01*
X192410Y111132D01*
X192466Y111063D01*
X192519Y110991D01*
X192569Y110916D01*
X192615Y110840D01*
X192658Y110762D01*
X192697Y110682D01*
X192733Y110600D01*
X192766Y110517D01*
X192794Y110432D01*
X192819Y110347D01*
X192841Y110260D01*
X192858Y110172D01*
X192871Y110084D01*
X192881Y109995D01*
X192887Y109906D01*
X192889Y109817D01*
X192887Y109728D01*
X192881Y109639D01*
X192871Y109550D01*
X192858Y109462D01*
X192841Y109374D01*
X192819Y109287D01*
X192794Y109202D01*
X192766Y109117D01*
X192733Y109034D01*
X192697Y108952D01*
X192658Y108872D01*
X192615Y108794D01*
X192569Y108718D01*
X192519Y108643D01*
X192466Y108571D01*
X192410Y108502D01*
X192351Y108435D01*
X192290Y108370D01*
X192225Y108309D01*
X192158Y108250D01*
X192089Y108194D01*
X192017Y108141D01*
X191942Y108091D01*
X191866Y108045D01*
X191788Y108002D01*
X191708Y107963D01*
X191626Y107927D01*
X191543Y107894D01*
X191458Y107866D01*
X191373Y107841D01*
X191286Y107819D01*
X191198Y107802D01*
X191110Y107789D01*
X191021Y107779D01*
X190932Y107773D01*
X190843Y107771D01*
X188797Y107771D01*
X191252Y107771D02*
X192889Y104498D01*
X196061Y104498D02*
X198107Y104498D01*
X198196Y104500D01*
X198285Y104506D01*
X198374Y104516D01*
X198462Y104529D01*
X198550Y104546D01*
X198637Y104568D01*
X198722Y104593D01*
X198807Y104621D01*
X198890Y104654D01*
X198972Y104690D01*
X199052Y104729D01*
X199130Y104772D01*
X199206Y104818D01*
X199281Y104868D01*
X199353Y104921D01*
X199422Y104977D01*
X199489Y105036D01*
X199554Y105097D01*
X199615Y105162D01*
X199674Y105229D01*
X199730Y105298D01*
X199783Y105370D01*
X199833Y105445D01*
X199879Y105521D01*
X199922Y105599D01*
X199961Y105679D01*
X199997Y105761D01*
X200030Y105844D01*
X200058Y105929D01*
X200083Y106014D01*
X200105Y106101D01*
X200122Y106189D01*
X200135Y106277D01*
X200145Y106366D01*
X200151Y106455D01*
X200153Y106544D01*
X200151Y106633D01*
X200145Y106722D01*
X200135Y106811D01*
X200122Y106899D01*
X200105Y106987D01*
X200083Y107074D01*
X200058Y107159D01*
X200030Y107244D01*
X199997Y107327D01*
X199961Y107409D01*
X199922Y107489D01*
X199879Y107567D01*
X199833Y107643D01*
X199783Y107718D01*
X199730Y107790D01*
X199674Y107859D01*
X199615Y107926D01*
X199554Y107991D01*
X199489Y108052D01*
X199422Y108111D01*
X199353Y108167D01*
X199281Y108220D01*
X199206Y108270D01*
X199130Y108316D01*
X199052Y108359D01*
X198972Y108398D01*
X198890Y108434D01*
X198807Y108467D01*
X198722Y108495D01*
X198637Y108520D01*
X198550Y108542D01*
X198462Y108559D01*
X198374Y108572D01*
X198285Y108582D01*
X198196Y108588D01*
X198107Y108590D01*
X198516Y111864D02*
X196061Y111864D01*
X198516Y111864D02*
X198595Y111862D01*
X198674Y111856D01*
X198753Y111847D01*
X198831Y111834D01*
X198908Y111816D01*
X198984Y111796D01*
X199059Y111771D01*
X199133Y111743D01*
X199206Y111712D01*
X199277Y111676D01*
X199346Y111638D01*
X199413Y111596D01*
X199478Y111551D01*
X199541Y111503D01*
X199602Y111452D01*
X199659Y111398D01*
X199715Y111342D01*
X199767Y111283D01*
X199817Y111221D01*
X199863Y111157D01*
X199907Y111091D01*
X199947Y111023D01*
X199983Y110953D01*
X200017Y110881D01*
X200047Y110807D01*
X200073Y110733D01*
X200096Y110657D01*
X200114Y110580D01*
X200130Y110503D01*
X200141Y110424D01*
X200149Y110346D01*
X200153Y110267D01*
X200153Y110187D01*
X200149Y110108D01*
X200141Y110030D01*
X200130Y109951D01*
X200114Y109874D01*
X200096Y109797D01*
X200073Y109721D01*
X200047Y109647D01*
X200017Y109573D01*
X199983Y109501D01*
X199947Y109431D01*
X199907Y109363D01*
X199863Y109297D01*
X199817Y109233D01*
X199767Y109171D01*
X199715Y109112D01*
X199659Y109056D01*
X199602Y109002D01*
X199541Y108951D01*
X199478Y108903D01*
X199413Y108858D01*
X199346Y108816D01*
X199277Y108778D01*
X199206Y108742D01*
X199133Y108711D01*
X199059Y108683D01*
X198984Y108658D01*
X198908Y108638D01*
X198831Y108620D01*
X198753Y108607D01*
X198674Y108598D01*
X198595Y108592D01*
X198516Y108590D01*
X196879Y108590D01*
X304780Y171657D02*
X304780Y179023D01*
X306826Y179023D01*
X306915Y179021D01*
X307004Y179015D01*
X307093Y179005D01*
X307181Y178992D01*
X307269Y178975D01*
X307356Y178953D01*
X307441Y178928D01*
X307526Y178900D01*
X307609Y178867D01*
X307691Y178831D01*
X307771Y178792D01*
X307849Y178749D01*
X307925Y178703D01*
X308000Y178653D01*
X308072Y178600D01*
X308141Y178544D01*
X308208Y178485D01*
X308273Y178424D01*
X308334Y178359D01*
X308393Y178292D01*
X308449Y178223D01*
X308502Y178151D01*
X308552Y178076D01*
X308598Y178000D01*
X308641Y177922D01*
X308680Y177842D01*
X308716Y177760D01*
X308749Y177677D01*
X308777Y177592D01*
X308802Y177507D01*
X308824Y177420D01*
X308841Y177332D01*
X308854Y177244D01*
X308864Y177155D01*
X308870Y177066D01*
X308872Y176977D01*
X308870Y176888D01*
X308864Y176799D01*
X308854Y176710D01*
X308841Y176622D01*
X308824Y176534D01*
X308802Y176447D01*
X308777Y176362D01*
X308749Y176277D01*
X308716Y176194D01*
X308680Y176112D01*
X308641Y176032D01*
X308598Y175954D01*
X308552Y175878D01*
X308502Y175803D01*
X308449Y175731D01*
X308393Y175662D01*
X308334Y175595D01*
X308273Y175530D01*
X308208Y175469D01*
X308141Y175410D01*
X308072Y175354D01*
X308000Y175301D01*
X307925Y175251D01*
X307849Y175205D01*
X307771Y175162D01*
X307691Y175123D01*
X307609Y175087D01*
X307526Y175054D01*
X307441Y175026D01*
X307356Y175001D01*
X307269Y174979D01*
X307181Y174962D01*
X307093Y174949D01*
X307004Y174939D01*
X306915Y174933D01*
X306826Y174931D01*
X304780Y174931D01*
X307235Y174931D02*
X308872Y171657D01*
X316137Y177182D02*
X316135Y177267D01*
X316129Y177352D01*
X316119Y177436D01*
X316106Y177520D01*
X316088Y177604D01*
X316067Y177686D01*
X316042Y177767D01*
X316013Y177847D01*
X315980Y177926D01*
X315944Y178003D01*
X315904Y178078D01*
X315861Y178152D01*
X315815Y178223D01*
X315765Y178292D01*
X315712Y178359D01*
X315656Y178423D01*
X315597Y178484D01*
X315536Y178543D01*
X315472Y178599D01*
X315405Y178652D01*
X315336Y178702D01*
X315265Y178748D01*
X315191Y178791D01*
X315116Y178831D01*
X315039Y178867D01*
X314960Y178900D01*
X314880Y178929D01*
X314799Y178954D01*
X314717Y178975D01*
X314633Y178993D01*
X314549Y179006D01*
X314465Y179016D01*
X314380Y179022D01*
X314295Y179024D01*
X314295Y179023D02*
X314199Y179021D01*
X314103Y179015D01*
X314008Y179005D01*
X313913Y178992D01*
X313818Y178974D01*
X313725Y178953D01*
X313632Y178928D01*
X313541Y178899D01*
X313450Y178867D01*
X313361Y178831D01*
X313274Y178791D01*
X313188Y178748D01*
X313104Y178702D01*
X313022Y178652D01*
X312942Y178598D01*
X312865Y178542D01*
X312790Y178482D01*
X312717Y178420D01*
X312647Y178354D01*
X312579Y178286D01*
X312514Y178215D01*
X312453Y178142D01*
X312394Y178066D01*
X312338Y177987D01*
X312286Y177907D01*
X312237Y177824D01*
X312191Y177740D01*
X312149Y177654D01*
X312111Y177566D01*
X312076Y177477D01*
X312044Y177386D01*
X315522Y175750D02*
X315582Y175809D01*
X315639Y175871D01*
X315694Y175935D01*
X315745Y176002D01*
X315794Y176071D01*
X315840Y176141D01*
X315883Y176214D01*
X315923Y176288D01*
X315959Y176364D01*
X315992Y176442D01*
X316022Y176521D01*
X316049Y176601D01*
X316072Y176682D01*
X316091Y176764D01*
X316107Y176846D01*
X316120Y176930D01*
X316129Y177014D01*
X316134Y177098D01*
X316136Y177182D01*
X315522Y175749D02*
X312044Y171657D01*
X316136Y171657D01*
X150616Y254458D02*
X150616Y261824D01*
X152662Y261824D01*
X152751Y261822D01*
X152840Y261816D01*
X152929Y261806D01*
X153017Y261793D01*
X153105Y261776D01*
X153192Y261754D01*
X153277Y261729D01*
X153362Y261701D01*
X153445Y261668D01*
X153527Y261632D01*
X153607Y261593D01*
X153685Y261550D01*
X153761Y261504D01*
X153836Y261454D01*
X153908Y261401D01*
X153977Y261345D01*
X154044Y261286D01*
X154109Y261225D01*
X154170Y261160D01*
X154229Y261093D01*
X154285Y261024D01*
X154338Y260952D01*
X154388Y260877D01*
X154434Y260801D01*
X154477Y260723D01*
X154516Y260643D01*
X154552Y260561D01*
X154585Y260478D01*
X154613Y260393D01*
X154638Y260308D01*
X154660Y260221D01*
X154677Y260133D01*
X154690Y260045D01*
X154700Y259956D01*
X154706Y259867D01*
X154708Y259778D01*
X154706Y259689D01*
X154700Y259600D01*
X154690Y259511D01*
X154677Y259423D01*
X154660Y259335D01*
X154638Y259248D01*
X154613Y259163D01*
X154585Y259078D01*
X154552Y258995D01*
X154516Y258913D01*
X154477Y258833D01*
X154434Y258755D01*
X154388Y258679D01*
X154338Y258604D01*
X154285Y258532D01*
X154229Y258463D01*
X154170Y258396D01*
X154109Y258331D01*
X154044Y258270D01*
X153977Y258211D01*
X153908Y258155D01*
X153836Y258102D01*
X153761Y258052D01*
X153685Y258006D01*
X153607Y257963D01*
X153527Y257924D01*
X153445Y257888D01*
X153362Y257855D01*
X153277Y257827D01*
X153192Y257802D01*
X153105Y257780D01*
X153017Y257763D01*
X152929Y257750D01*
X152840Y257740D01*
X152751Y257734D01*
X152662Y257732D01*
X150616Y257732D01*
X153071Y257732D02*
X154708Y254458D01*
X157880Y260187D02*
X159926Y261824D01*
X159926Y254458D01*
X157880Y254458D02*
X161972Y254458D01*
X303651Y222231D02*
X303651Y214865D01*
X303651Y222231D02*
X305697Y222231D01*
X305786Y222229D01*
X305875Y222223D01*
X305964Y222213D01*
X306052Y222200D01*
X306140Y222183D01*
X306227Y222161D01*
X306312Y222136D01*
X306397Y222108D01*
X306480Y222075D01*
X306562Y222039D01*
X306642Y222000D01*
X306720Y221957D01*
X306796Y221911D01*
X306871Y221861D01*
X306943Y221808D01*
X307012Y221752D01*
X307079Y221693D01*
X307144Y221632D01*
X307205Y221567D01*
X307264Y221500D01*
X307320Y221431D01*
X307373Y221359D01*
X307423Y221284D01*
X307469Y221208D01*
X307512Y221130D01*
X307551Y221050D01*
X307587Y220968D01*
X307620Y220885D01*
X307648Y220800D01*
X307673Y220715D01*
X307695Y220628D01*
X307712Y220540D01*
X307725Y220452D01*
X307735Y220363D01*
X307741Y220274D01*
X307743Y220185D01*
X307741Y220096D01*
X307735Y220007D01*
X307725Y219918D01*
X307712Y219830D01*
X307695Y219742D01*
X307673Y219655D01*
X307648Y219570D01*
X307620Y219485D01*
X307587Y219402D01*
X307551Y219320D01*
X307512Y219240D01*
X307469Y219162D01*
X307423Y219086D01*
X307373Y219011D01*
X307320Y218939D01*
X307264Y218870D01*
X307205Y218803D01*
X307144Y218738D01*
X307079Y218677D01*
X307012Y218618D01*
X306943Y218562D01*
X306871Y218509D01*
X306796Y218459D01*
X306720Y218413D01*
X306642Y218370D01*
X306562Y218331D01*
X306480Y218295D01*
X306397Y218262D01*
X306312Y218234D01*
X306227Y218209D01*
X306140Y218187D01*
X306052Y218170D01*
X305964Y218157D01*
X305875Y218147D01*
X305786Y218141D01*
X305697Y218139D01*
X303651Y218139D01*
X306107Y218139D02*
X307743Y214865D01*
X310915Y216502D02*
X312552Y222231D01*
X310915Y216502D02*
X315008Y216502D01*
X313780Y218139D02*
X313780Y214865D01*
X91532Y63070D02*
X91532Y55704D01*
X91532Y63070D02*
X93578Y63070D01*
X93667Y63068D01*
X93756Y63062D01*
X93845Y63052D01*
X93933Y63039D01*
X94021Y63022D01*
X94108Y63000D01*
X94193Y62975D01*
X94278Y62947D01*
X94361Y62914D01*
X94443Y62878D01*
X94523Y62839D01*
X94601Y62796D01*
X94677Y62750D01*
X94752Y62700D01*
X94824Y62647D01*
X94893Y62591D01*
X94960Y62532D01*
X95025Y62471D01*
X95086Y62406D01*
X95145Y62339D01*
X95201Y62270D01*
X95254Y62198D01*
X95304Y62123D01*
X95350Y62047D01*
X95393Y61969D01*
X95432Y61889D01*
X95468Y61807D01*
X95501Y61724D01*
X95529Y61639D01*
X95554Y61554D01*
X95576Y61467D01*
X95593Y61379D01*
X95606Y61291D01*
X95616Y61202D01*
X95622Y61113D01*
X95624Y61024D01*
X95622Y60935D01*
X95616Y60846D01*
X95606Y60757D01*
X95593Y60669D01*
X95576Y60581D01*
X95554Y60494D01*
X95529Y60409D01*
X95501Y60324D01*
X95468Y60241D01*
X95432Y60159D01*
X95393Y60079D01*
X95350Y60001D01*
X95304Y59925D01*
X95254Y59850D01*
X95201Y59778D01*
X95145Y59709D01*
X95086Y59642D01*
X95025Y59577D01*
X94960Y59516D01*
X94893Y59457D01*
X94824Y59401D01*
X94752Y59348D01*
X94677Y59298D01*
X94601Y59252D01*
X94523Y59209D01*
X94443Y59170D01*
X94361Y59134D01*
X94278Y59101D01*
X94193Y59073D01*
X94108Y59048D01*
X94021Y59026D01*
X93933Y59009D01*
X93845Y58996D01*
X93756Y58986D01*
X93667Y58980D01*
X93578Y58978D01*
X91532Y58978D01*
X93988Y58978D02*
X95624Y55704D01*
X98796Y55704D02*
X101252Y55704D01*
X101330Y55706D01*
X101408Y55711D01*
X101485Y55721D01*
X101562Y55734D01*
X101638Y55750D01*
X101713Y55770D01*
X101787Y55794D01*
X101860Y55821D01*
X101932Y55852D01*
X102002Y55886D01*
X102071Y55923D01*
X102137Y55964D01*
X102202Y56008D01*
X102264Y56054D01*
X102324Y56104D01*
X102382Y56156D01*
X102437Y56211D01*
X102489Y56269D01*
X102539Y56329D01*
X102585Y56391D01*
X102629Y56456D01*
X102670Y56523D01*
X102707Y56591D01*
X102741Y56661D01*
X102772Y56733D01*
X102799Y56806D01*
X102823Y56880D01*
X102843Y56955D01*
X102859Y57031D01*
X102872Y57108D01*
X102882Y57185D01*
X102887Y57263D01*
X102889Y57341D01*
X102888Y57341D02*
X102888Y58160D01*
X102889Y58160D02*
X102887Y58238D01*
X102882Y58316D01*
X102872Y58393D01*
X102859Y58470D01*
X102843Y58546D01*
X102823Y58621D01*
X102799Y58695D01*
X102772Y58768D01*
X102741Y58840D01*
X102707Y58910D01*
X102670Y58979D01*
X102629Y59045D01*
X102585Y59110D01*
X102539Y59172D01*
X102489Y59232D01*
X102437Y59290D01*
X102382Y59345D01*
X102324Y59397D01*
X102264Y59447D01*
X102202Y59493D01*
X102137Y59537D01*
X102071Y59578D01*
X102002Y59615D01*
X101932Y59649D01*
X101860Y59680D01*
X101787Y59707D01*
X101713Y59731D01*
X101638Y59751D01*
X101562Y59767D01*
X101485Y59780D01*
X101408Y59790D01*
X101330Y59795D01*
X101252Y59797D01*
X98796Y59797D01*
X98796Y63070D01*
X102888Y63070D01*
D12*
X178209Y238273D02*
X179733Y238273D01*
X166779Y238273D02*
X166779Y222017D01*
X173383Y222017D01*
X191163Y222017D02*
X191163Y238273D01*
X191163Y222017D02*
X184559Y222017D01*
D11*
X151412Y227746D02*
X151412Y233066D01*
X151412Y227746D02*
X151414Y227657D01*
X151420Y227568D01*
X151430Y227479D01*
X151443Y227391D01*
X151460Y227303D01*
X151482Y227216D01*
X151507Y227131D01*
X151535Y227046D01*
X151568Y226963D01*
X151604Y226881D01*
X151643Y226801D01*
X151686Y226723D01*
X151732Y226647D01*
X151782Y226572D01*
X151835Y226500D01*
X151891Y226431D01*
X151950Y226364D01*
X152011Y226299D01*
X152076Y226238D01*
X152143Y226179D01*
X152212Y226123D01*
X152284Y226070D01*
X152359Y226020D01*
X152435Y225974D01*
X152513Y225931D01*
X152593Y225892D01*
X152675Y225856D01*
X152758Y225823D01*
X152843Y225795D01*
X152928Y225770D01*
X153015Y225748D01*
X153103Y225731D01*
X153191Y225718D01*
X153280Y225708D01*
X153369Y225702D01*
X153458Y225700D01*
X153547Y225702D01*
X153636Y225708D01*
X153725Y225718D01*
X153813Y225731D01*
X153901Y225748D01*
X153988Y225770D01*
X154073Y225795D01*
X154158Y225823D01*
X154241Y225856D01*
X154323Y225892D01*
X154403Y225931D01*
X154481Y225974D01*
X154557Y226020D01*
X154632Y226070D01*
X154704Y226123D01*
X154773Y226179D01*
X154840Y226238D01*
X154905Y226299D01*
X154966Y226364D01*
X155025Y226431D01*
X155081Y226500D01*
X155134Y226572D01*
X155184Y226647D01*
X155230Y226723D01*
X155273Y226801D01*
X155312Y226881D01*
X155348Y226963D01*
X155381Y227046D01*
X155409Y227131D01*
X155434Y227216D01*
X155456Y227303D01*
X155473Y227391D01*
X155486Y227479D01*
X155496Y227568D01*
X155502Y227657D01*
X155504Y227746D01*
X155504Y233066D01*
X158971Y231429D02*
X161017Y233066D01*
X161017Y225700D01*
X158971Y225700D02*
X163063Y225700D01*
D14*
X183226Y194557D02*
X183228Y194620D01*
X183234Y194682D01*
X183244Y194744D01*
X183257Y194806D01*
X183275Y194866D01*
X183296Y194925D01*
X183321Y194983D01*
X183350Y195039D01*
X183382Y195093D01*
X183417Y195145D01*
X183455Y195194D01*
X183497Y195242D01*
X183541Y195286D01*
X183589Y195328D01*
X183638Y195366D01*
X183690Y195401D01*
X183744Y195433D01*
X183800Y195462D01*
X183858Y195487D01*
X183917Y195508D01*
X183977Y195526D01*
X184039Y195539D01*
X184101Y195549D01*
X184163Y195555D01*
X184226Y195557D01*
X184289Y195555D01*
X184351Y195549D01*
X184413Y195539D01*
X184475Y195526D01*
X184535Y195508D01*
X184594Y195487D01*
X184652Y195462D01*
X184708Y195433D01*
X184762Y195401D01*
X184814Y195366D01*
X184863Y195328D01*
X184911Y195286D01*
X184955Y195242D01*
X184997Y195194D01*
X185035Y195145D01*
X185070Y195093D01*
X185102Y195039D01*
X185131Y194983D01*
X185156Y194925D01*
X185177Y194866D01*
X185195Y194806D01*
X185208Y194744D01*
X185218Y194682D01*
X185224Y194620D01*
X185226Y194557D01*
X185224Y194494D01*
X185218Y194432D01*
X185208Y194370D01*
X185195Y194308D01*
X185177Y194248D01*
X185156Y194189D01*
X185131Y194131D01*
X185102Y194075D01*
X185070Y194021D01*
X185035Y193969D01*
X184997Y193920D01*
X184955Y193872D01*
X184911Y193828D01*
X184863Y193786D01*
X184814Y193748D01*
X184762Y193713D01*
X184708Y193681D01*
X184652Y193652D01*
X184594Y193627D01*
X184535Y193606D01*
X184475Y193588D01*
X184413Y193575D01*
X184351Y193565D01*
X184289Y193559D01*
X184226Y193557D01*
X184163Y193559D01*
X184101Y193565D01*
X184039Y193575D01*
X183977Y193588D01*
X183917Y193606D01*
X183858Y193627D01*
X183800Y193652D01*
X183744Y193681D01*
X183690Y193713D01*
X183638Y193748D01*
X183589Y193786D01*
X183541Y193828D01*
X183497Y193872D01*
X183455Y193920D01*
X183417Y193969D01*
X183382Y194021D01*
X183350Y194075D01*
X183321Y194131D01*
X183296Y194189D01*
X183275Y194248D01*
X183257Y194308D01*
X183244Y194370D01*
X183234Y194432D01*
X183228Y194494D01*
X183226Y194557D01*
D15*
X205126Y196757D02*
X244126Y196757D01*
X244126Y146257D02*
X205126Y146257D01*
D13*
X72644Y175006D02*
X66294Y168656D01*
X72644Y175006D02*
X85344Y175006D01*
X91694Y168656D01*
X91694Y155956D02*
X85344Y149606D01*
X72644Y149606D01*
X66294Y155956D01*
X34544Y175006D02*
X21844Y175006D01*
X34544Y175006D02*
X40894Y168656D01*
X40894Y155956D02*
X34544Y149606D01*
X40894Y168656D02*
X47244Y175006D01*
X59944Y175006D01*
X66294Y168656D01*
X66294Y155956D02*
X59944Y149606D01*
X47244Y149606D01*
X40894Y155956D01*
X15494Y155956D02*
X15494Y168656D01*
X21844Y175006D01*
X15494Y155956D02*
X21844Y149606D01*
X34544Y149606D01*
X91694Y155956D02*
X91694Y168656D01*
D10*
X21731Y134168D02*
X21729Y134069D01*
X21723Y133969D01*
X21714Y133870D01*
X21701Y133772D01*
X21684Y133674D01*
X21663Y133576D01*
X21638Y133480D01*
X21610Y133385D01*
X21578Y133291D01*
X21543Y133198D01*
X21504Y133106D01*
X21461Y133016D01*
X21416Y132928D01*
X21366Y132841D01*
X21314Y132757D01*
X21258Y132674D01*
X21200Y132594D01*
X21138Y132516D01*
X21073Y132441D01*
X21005Y132368D01*
X20935Y132298D01*
X20862Y132230D01*
X20787Y132165D01*
X20709Y132103D01*
X20629Y132045D01*
X20546Y131989D01*
X20462Y131937D01*
X20375Y131887D01*
X20287Y131842D01*
X20197Y131799D01*
X20105Y131760D01*
X20012Y131725D01*
X19918Y131693D01*
X19823Y131665D01*
X19727Y131640D01*
X19629Y131619D01*
X19531Y131602D01*
X19433Y131589D01*
X19334Y131580D01*
X19234Y131574D01*
X19135Y131572D01*
X18991Y131574D01*
X18846Y131580D01*
X18702Y131589D01*
X18559Y131602D01*
X18415Y131619D01*
X18272Y131640D01*
X18130Y131665D01*
X17989Y131693D01*
X17848Y131725D01*
X17708Y131761D01*
X17569Y131800D01*
X17431Y131843D01*
X17295Y131890D01*
X17159Y131940D01*
X17025Y131994D01*
X16893Y132051D01*
X16762Y132112D01*
X16633Y132176D01*
X16505Y132244D01*
X16379Y132314D01*
X16255Y132389D01*
X16134Y132466D01*
X16014Y132547D01*
X15896Y132630D01*
X15781Y132717D01*
X15668Y132807D01*
X15557Y132900D01*
X15449Y132995D01*
X15343Y133094D01*
X15240Y133195D01*
X15565Y140660D02*
X15567Y140759D01*
X15573Y140859D01*
X15582Y140958D01*
X15595Y141056D01*
X15612Y141154D01*
X15633Y141252D01*
X15658Y141348D01*
X15686Y141443D01*
X15718Y141537D01*
X15753Y141630D01*
X15792Y141722D01*
X15835Y141812D01*
X15880Y141900D01*
X15930Y141987D01*
X15982Y142071D01*
X16038Y142154D01*
X16096Y142234D01*
X16158Y142312D01*
X16223Y142387D01*
X16291Y142460D01*
X16361Y142530D01*
X16434Y142598D01*
X16509Y142663D01*
X16587Y142725D01*
X16667Y142783D01*
X16750Y142839D01*
X16834Y142891D01*
X16921Y142941D01*
X17009Y142986D01*
X17099Y143029D01*
X17191Y143068D01*
X17284Y143103D01*
X17378Y143135D01*
X17473Y143163D01*
X17570Y143188D01*
X17667Y143209D01*
X17765Y143226D01*
X17863Y143239D01*
X17962Y143248D01*
X18062Y143254D01*
X18161Y143256D01*
X18297Y143254D01*
X18433Y143248D01*
X18569Y143239D01*
X18705Y143226D01*
X18840Y143208D01*
X18974Y143188D01*
X19108Y143163D01*
X19242Y143135D01*
X19374Y143102D01*
X19505Y143067D01*
X19636Y143027D01*
X19765Y142984D01*
X19893Y142938D01*
X20019Y142887D01*
X20145Y142834D01*
X20268Y142776D01*
X20390Y142716D01*
X20510Y142652D01*
X20629Y142584D01*
X20745Y142514D01*
X20859Y142440D01*
X20972Y142363D01*
X21082Y142282D01*
X16863Y138388D02*
X16777Y138441D01*
X16693Y138498D01*
X16611Y138557D01*
X16531Y138620D01*
X16454Y138686D01*
X16379Y138754D01*
X16307Y138826D01*
X16238Y138900D01*
X16172Y138977D01*
X16109Y139056D01*
X16049Y139138D01*
X15992Y139222D01*
X15938Y139308D01*
X15888Y139396D01*
X15841Y139486D01*
X15797Y139577D01*
X15758Y139671D01*
X15721Y139765D01*
X15689Y139861D01*
X15660Y139959D01*
X15635Y140057D01*
X15614Y140156D01*
X15596Y140256D01*
X15583Y140356D01*
X15573Y140457D01*
X15567Y140559D01*
X15565Y140660D01*
X20433Y136440D02*
X20519Y136387D01*
X20603Y136330D01*
X20685Y136271D01*
X20765Y136208D01*
X20842Y136142D01*
X20917Y136074D01*
X20989Y136002D01*
X21058Y135928D01*
X21124Y135851D01*
X21187Y135772D01*
X21247Y135690D01*
X21304Y135606D01*
X21358Y135520D01*
X21408Y135432D01*
X21455Y135342D01*
X21499Y135251D01*
X21538Y135157D01*
X21575Y135063D01*
X21607Y134967D01*
X21636Y134869D01*
X21661Y134771D01*
X21682Y134672D01*
X21700Y134572D01*
X21713Y134472D01*
X21723Y134371D01*
X21729Y134269D01*
X21731Y134168D01*
X20433Y136440D02*
X16863Y138388D01*
X26693Y131572D02*
X31885Y131572D01*
X26693Y131572D02*
X26693Y143256D01*
X31885Y143256D01*
X30587Y138063D02*
X26693Y138063D01*
X36576Y143256D02*
X36576Y131572D01*
X43067Y131572D02*
X36576Y143256D01*
X43067Y143256D02*
X43067Y131572D01*
X51901Y131572D02*
X52000Y131574D01*
X52100Y131580D01*
X52199Y131589D01*
X52297Y131602D01*
X52395Y131619D01*
X52493Y131640D01*
X52589Y131665D01*
X52684Y131693D01*
X52778Y131725D01*
X52871Y131760D01*
X52963Y131799D01*
X53053Y131842D01*
X53141Y131887D01*
X53228Y131937D01*
X53312Y131989D01*
X53395Y132045D01*
X53475Y132103D01*
X53553Y132165D01*
X53628Y132230D01*
X53701Y132298D01*
X53771Y132368D01*
X53839Y132441D01*
X53904Y132516D01*
X53966Y132594D01*
X54024Y132674D01*
X54080Y132757D01*
X54132Y132841D01*
X54182Y132928D01*
X54227Y133016D01*
X54270Y133106D01*
X54309Y133198D01*
X54344Y133291D01*
X54376Y133385D01*
X54404Y133480D01*
X54429Y133576D01*
X54450Y133674D01*
X54467Y133772D01*
X54480Y133870D01*
X54489Y133969D01*
X54495Y134069D01*
X54497Y134168D01*
X51901Y131572D02*
X51757Y131574D01*
X51612Y131580D01*
X51468Y131589D01*
X51325Y131602D01*
X51181Y131619D01*
X51038Y131640D01*
X50896Y131665D01*
X50755Y131693D01*
X50614Y131725D01*
X50474Y131761D01*
X50335Y131800D01*
X50197Y131843D01*
X50061Y131890D01*
X49925Y131940D01*
X49791Y131994D01*
X49659Y132051D01*
X49528Y132112D01*
X49399Y132176D01*
X49271Y132244D01*
X49145Y132314D01*
X49021Y132389D01*
X48900Y132466D01*
X48780Y132547D01*
X48662Y132630D01*
X48547Y132717D01*
X48434Y132807D01*
X48323Y132900D01*
X48215Y132995D01*
X48109Y133094D01*
X48006Y133195D01*
X48331Y140660D02*
X48333Y140759D01*
X48339Y140859D01*
X48348Y140958D01*
X48361Y141056D01*
X48378Y141154D01*
X48399Y141252D01*
X48424Y141348D01*
X48452Y141443D01*
X48484Y141537D01*
X48519Y141630D01*
X48558Y141722D01*
X48601Y141812D01*
X48646Y141900D01*
X48696Y141987D01*
X48748Y142071D01*
X48804Y142154D01*
X48862Y142234D01*
X48924Y142312D01*
X48989Y142387D01*
X49057Y142460D01*
X49127Y142530D01*
X49200Y142598D01*
X49275Y142663D01*
X49353Y142725D01*
X49433Y142783D01*
X49516Y142839D01*
X49600Y142891D01*
X49687Y142941D01*
X49775Y142986D01*
X49865Y143029D01*
X49957Y143068D01*
X50050Y143103D01*
X50144Y143135D01*
X50239Y143163D01*
X50336Y143188D01*
X50433Y143209D01*
X50531Y143226D01*
X50629Y143239D01*
X50728Y143248D01*
X50828Y143254D01*
X50927Y143256D01*
X51063Y143254D01*
X51199Y143248D01*
X51335Y143239D01*
X51471Y143226D01*
X51606Y143208D01*
X51740Y143188D01*
X51874Y143163D01*
X52008Y143135D01*
X52140Y143102D01*
X52271Y143067D01*
X52402Y143027D01*
X52531Y142984D01*
X52659Y142938D01*
X52785Y142887D01*
X52911Y142834D01*
X53034Y142776D01*
X53156Y142716D01*
X53276Y142652D01*
X53395Y142584D01*
X53511Y142514D01*
X53625Y142440D01*
X53738Y142363D01*
X53848Y142282D01*
X49628Y138388D02*
X49542Y138441D01*
X49458Y138498D01*
X49376Y138557D01*
X49296Y138620D01*
X49219Y138686D01*
X49144Y138754D01*
X49072Y138826D01*
X49003Y138900D01*
X48937Y138977D01*
X48874Y139056D01*
X48814Y139138D01*
X48757Y139222D01*
X48703Y139308D01*
X48653Y139396D01*
X48606Y139486D01*
X48562Y139577D01*
X48523Y139671D01*
X48486Y139765D01*
X48454Y139861D01*
X48425Y139959D01*
X48400Y140057D01*
X48379Y140156D01*
X48361Y140256D01*
X48348Y140356D01*
X48338Y140457D01*
X48332Y140559D01*
X48330Y140660D01*
X53199Y136440D02*
X53285Y136387D01*
X53369Y136330D01*
X53451Y136271D01*
X53531Y136208D01*
X53608Y136142D01*
X53683Y136074D01*
X53755Y136002D01*
X53824Y135928D01*
X53890Y135851D01*
X53953Y135772D01*
X54013Y135690D01*
X54070Y135606D01*
X54124Y135520D01*
X54174Y135432D01*
X54221Y135342D01*
X54265Y135251D01*
X54304Y135157D01*
X54341Y135063D01*
X54373Y134967D01*
X54402Y134869D01*
X54427Y134771D01*
X54448Y134672D01*
X54466Y134572D01*
X54479Y134472D01*
X54489Y134371D01*
X54495Y134269D01*
X54497Y134168D01*
X53199Y136440D02*
X49629Y138388D01*
X59055Y140010D02*
X59055Y134818D01*
X59054Y140010D02*
X59056Y140123D01*
X59062Y140236D01*
X59072Y140349D01*
X59086Y140462D01*
X59103Y140574D01*
X59125Y140685D01*
X59150Y140795D01*
X59180Y140905D01*
X59213Y141013D01*
X59250Y141120D01*
X59290Y141226D01*
X59335Y141330D01*
X59383Y141433D01*
X59434Y141534D01*
X59489Y141633D01*
X59547Y141730D01*
X59609Y141825D01*
X59674Y141918D01*
X59742Y142008D01*
X59813Y142096D01*
X59888Y142182D01*
X59965Y142265D01*
X60045Y142345D01*
X60128Y142422D01*
X60214Y142497D01*
X60302Y142568D01*
X60392Y142636D01*
X60485Y142701D01*
X60580Y142763D01*
X60677Y142821D01*
X60776Y142876D01*
X60877Y142927D01*
X60980Y142975D01*
X61084Y143020D01*
X61190Y143060D01*
X61297Y143097D01*
X61405Y143130D01*
X61515Y143160D01*
X61625Y143185D01*
X61736Y143207D01*
X61848Y143224D01*
X61961Y143238D01*
X62074Y143248D01*
X62187Y143254D01*
X62300Y143256D01*
X62413Y143254D01*
X62526Y143248D01*
X62639Y143238D01*
X62752Y143224D01*
X62864Y143207D01*
X62975Y143185D01*
X63085Y143160D01*
X63195Y143130D01*
X63303Y143097D01*
X63410Y143060D01*
X63516Y143020D01*
X63620Y142975D01*
X63723Y142927D01*
X63824Y142876D01*
X63923Y142821D01*
X64020Y142763D01*
X64115Y142701D01*
X64208Y142636D01*
X64298Y142568D01*
X64386Y142497D01*
X64472Y142422D01*
X64555Y142345D01*
X64635Y142265D01*
X64712Y142182D01*
X64787Y142096D01*
X64858Y142008D01*
X64926Y141918D01*
X64991Y141825D01*
X65053Y141730D01*
X65111Y141633D01*
X65166Y141534D01*
X65217Y141433D01*
X65265Y141330D01*
X65310Y141226D01*
X65350Y141120D01*
X65387Y141013D01*
X65420Y140905D01*
X65450Y140795D01*
X65475Y140685D01*
X65497Y140574D01*
X65514Y140462D01*
X65528Y140349D01*
X65538Y140236D01*
X65544Y140123D01*
X65546Y140010D01*
X65546Y134818D01*
X65544Y134705D01*
X65538Y134592D01*
X65528Y134479D01*
X65514Y134366D01*
X65497Y134254D01*
X65475Y134143D01*
X65450Y134033D01*
X65420Y133923D01*
X65387Y133815D01*
X65350Y133708D01*
X65310Y133602D01*
X65265Y133498D01*
X65217Y133395D01*
X65166Y133294D01*
X65111Y133195D01*
X65053Y133098D01*
X64991Y133003D01*
X64926Y132910D01*
X64858Y132820D01*
X64787Y132732D01*
X64712Y132646D01*
X64635Y132563D01*
X64555Y132483D01*
X64472Y132406D01*
X64386Y132331D01*
X64298Y132260D01*
X64208Y132192D01*
X64115Y132127D01*
X64020Y132065D01*
X63923Y132007D01*
X63824Y131952D01*
X63723Y131901D01*
X63620Y131853D01*
X63516Y131808D01*
X63410Y131768D01*
X63303Y131731D01*
X63195Y131698D01*
X63085Y131668D01*
X62975Y131643D01*
X62864Y131621D01*
X62752Y131604D01*
X62639Y131590D01*
X62526Y131580D01*
X62413Y131574D01*
X62300Y131572D01*
X62187Y131574D01*
X62074Y131580D01*
X61961Y131590D01*
X61848Y131604D01*
X61736Y131621D01*
X61625Y131643D01*
X61515Y131668D01*
X61405Y131698D01*
X61297Y131731D01*
X61190Y131768D01*
X61084Y131808D01*
X60980Y131853D01*
X60877Y131901D01*
X60776Y131952D01*
X60677Y132007D01*
X60580Y132065D01*
X60485Y132127D01*
X60392Y132192D01*
X60302Y132260D01*
X60214Y132331D01*
X60128Y132406D01*
X60045Y132483D01*
X59965Y132563D01*
X59888Y132646D01*
X59813Y132732D01*
X59742Y132820D01*
X59674Y132910D01*
X59609Y133003D01*
X59547Y133098D01*
X59489Y133195D01*
X59434Y133294D01*
X59383Y133395D01*
X59335Y133498D01*
X59290Y133602D01*
X59250Y133708D01*
X59213Y133815D01*
X59180Y133923D01*
X59150Y134033D01*
X59125Y134143D01*
X59103Y134254D01*
X59086Y134366D01*
X59072Y134479D01*
X59062Y134592D01*
X59056Y134705D01*
X59054Y134818D01*
X70940Y131572D02*
X70940Y143256D01*
X74185Y143256D01*
X74298Y143254D01*
X74411Y143248D01*
X74524Y143238D01*
X74637Y143224D01*
X74749Y143207D01*
X74860Y143185D01*
X74970Y143160D01*
X75080Y143130D01*
X75188Y143097D01*
X75295Y143060D01*
X75401Y143020D01*
X75505Y142975D01*
X75608Y142927D01*
X75709Y142876D01*
X75808Y142821D01*
X75905Y142763D01*
X76000Y142701D01*
X76093Y142636D01*
X76183Y142568D01*
X76271Y142497D01*
X76357Y142422D01*
X76440Y142345D01*
X76520Y142265D01*
X76597Y142182D01*
X76672Y142096D01*
X76743Y142008D01*
X76811Y141918D01*
X76876Y141825D01*
X76938Y141730D01*
X76996Y141633D01*
X77051Y141534D01*
X77102Y141433D01*
X77150Y141330D01*
X77195Y141226D01*
X77235Y141120D01*
X77272Y141013D01*
X77305Y140905D01*
X77335Y140795D01*
X77360Y140685D01*
X77382Y140574D01*
X77399Y140462D01*
X77413Y140349D01*
X77423Y140236D01*
X77429Y140123D01*
X77431Y140010D01*
X77429Y139897D01*
X77423Y139784D01*
X77413Y139671D01*
X77399Y139558D01*
X77382Y139446D01*
X77360Y139335D01*
X77335Y139225D01*
X77305Y139115D01*
X77272Y139007D01*
X77235Y138900D01*
X77195Y138794D01*
X77150Y138690D01*
X77102Y138587D01*
X77051Y138486D01*
X76996Y138387D01*
X76938Y138290D01*
X76876Y138195D01*
X76811Y138102D01*
X76743Y138012D01*
X76672Y137924D01*
X76597Y137838D01*
X76520Y137755D01*
X76440Y137675D01*
X76357Y137598D01*
X76271Y137523D01*
X76183Y137452D01*
X76093Y137384D01*
X76000Y137319D01*
X75905Y137257D01*
X75808Y137199D01*
X75709Y137144D01*
X75608Y137093D01*
X75505Y137045D01*
X75401Y137000D01*
X75295Y136960D01*
X75188Y136923D01*
X75080Y136890D01*
X74970Y136860D01*
X74860Y136835D01*
X74749Y136813D01*
X74637Y136796D01*
X74524Y136782D01*
X74411Y136772D01*
X74298Y136766D01*
X74185Y136764D01*
X74185Y136765D02*
X70940Y136765D01*
X74834Y136765D02*
X77431Y131572D01*
X81802Y130274D02*
X86995Y130274D01*
X97931Y140335D02*
X97929Y140442D01*
X97923Y140548D01*
X97913Y140654D01*
X97900Y140760D01*
X97882Y140866D01*
X97861Y140970D01*
X97836Y141074D01*
X97807Y141177D01*
X97775Y141278D01*
X97738Y141378D01*
X97698Y141477D01*
X97655Y141575D01*
X97608Y141671D01*
X97557Y141765D01*
X97503Y141857D01*
X97446Y141947D01*
X97386Y142035D01*
X97322Y142120D01*
X97255Y142203D01*
X97185Y142284D01*
X97113Y142362D01*
X97037Y142438D01*
X96959Y142510D01*
X96878Y142580D01*
X96795Y142647D01*
X96710Y142711D01*
X96622Y142771D01*
X96532Y142828D01*
X96440Y142882D01*
X96346Y142933D01*
X96250Y142980D01*
X96152Y143023D01*
X96053Y143063D01*
X95953Y143100D01*
X95852Y143132D01*
X95749Y143161D01*
X95645Y143186D01*
X95541Y143207D01*
X95435Y143225D01*
X95329Y143238D01*
X95223Y143248D01*
X95117Y143254D01*
X95010Y143256D01*
X94889Y143254D01*
X94768Y143248D01*
X94648Y143238D01*
X94527Y143225D01*
X94408Y143207D01*
X94288Y143186D01*
X94170Y143161D01*
X94053Y143132D01*
X93936Y143099D01*
X93821Y143063D01*
X93707Y143022D01*
X93594Y142979D01*
X93482Y142931D01*
X93373Y142880D01*
X93265Y142825D01*
X93158Y142767D01*
X93054Y142706D01*
X92952Y142641D01*
X92852Y142573D01*
X92754Y142502D01*
X92658Y142428D01*
X92565Y142351D01*
X92475Y142270D01*
X92387Y142187D01*
X92302Y142101D01*
X92219Y142012D01*
X92140Y141921D01*
X92063Y141827D01*
X91990Y141731D01*
X91920Y141633D01*
X91853Y141532D01*
X91789Y141429D01*
X91729Y141324D01*
X91672Y141217D01*
X91618Y141109D01*
X91568Y140999D01*
X91522Y140887D01*
X91479Y140774D01*
X91440Y140659D01*
X96957Y138063D02*
X97036Y138140D01*
X97112Y138221D01*
X97185Y138304D01*
X97255Y138389D01*
X97322Y138477D01*
X97386Y138567D01*
X97446Y138659D01*
X97503Y138754D01*
X97557Y138850D01*
X97608Y138948D01*
X97655Y139048D01*
X97699Y139150D01*
X97739Y139253D01*
X97775Y139357D01*
X97807Y139463D01*
X97836Y139569D01*
X97861Y139677D01*
X97883Y139785D01*
X97900Y139895D01*
X97914Y140004D01*
X97923Y140114D01*
X97929Y140225D01*
X97931Y140335D01*
X96957Y138063D02*
X91440Y131572D01*
X97931Y131572D01*
D13*
X66040Y227330D02*
X72390Y233680D01*
X85090Y233680D01*
X91440Y227330D01*
X91440Y214630D02*
X85090Y208280D01*
X72390Y208280D01*
X66040Y214630D01*
X34290Y233680D02*
X21590Y233680D01*
X34290Y233680D02*
X40640Y227330D01*
X40640Y214630D02*
X34290Y208280D01*
X40640Y227330D02*
X46990Y233680D01*
X59690Y233680D01*
X66040Y227330D01*
X66040Y214630D02*
X59690Y208280D01*
X46990Y208280D01*
X40640Y214630D01*
X15240Y214630D02*
X15240Y227330D01*
X21590Y233680D01*
X15240Y214630D02*
X21590Y208280D01*
X34290Y208280D01*
X91440Y214630D02*
X91440Y227330D01*
D10*
X19953Y241864D02*
X19951Y241765D01*
X19945Y241665D01*
X19936Y241566D01*
X19923Y241468D01*
X19906Y241370D01*
X19885Y241272D01*
X19860Y241176D01*
X19832Y241081D01*
X19800Y240987D01*
X19765Y240894D01*
X19726Y240802D01*
X19683Y240712D01*
X19638Y240624D01*
X19588Y240537D01*
X19536Y240453D01*
X19480Y240370D01*
X19422Y240290D01*
X19360Y240212D01*
X19295Y240137D01*
X19227Y240064D01*
X19157Y239994D01*
X19084Y239926D01*
X19009Y239861D01*
X18931Y239799D01*
X18851Y239741D01*
X18768Y239685D01*
X18684Y239633D01*
X18597Y239583D01*
X18509Y239538D01*
X18419Y239495D01*
X18327Y239456D01*
X18234Y239421D01*
X18140Y239389D01*
X18045Y239361D01*
X17949Y239336D01*
X17851Y239315D01*
X17753Y239298D01*
X17655Y239285D01*
X17556Y239276D01*
X17456Y239270D01*
X17357Y239268D01*
X17213Y239270D01*
X17068Y239276D01*
X16924Y239285D01*
X16781Y239298D01*
X16637Y239315D01*
X16494Y239336D01*
X16352Y239361D01*
X16211Y239389D01*
X16070Y239421D01*
X15930Y239457D01*
X15791Y239496D01*
X15653Y239539D01*
X15517Y239586D01*
X15381Y239636D01*
X15247Y239690D01*
X15115Y239747D01*
X14984Y239808D01*
X14855Y239872D01*
X14727Y239940D01*
X14601Y240010D01*
X14477Y240085D01*
X14356Y240162D01*
X14236Y240243D01*
X14118Y240326D01*
X14003Y240413D01*
X13890Y240503D01*
X13779Y240596D01*
X13671Y240691D01*
X13565Y240790D01*
X13462Y240891D01*
X13787Y248356D02*
X13789Y248455D01*
X13795Y248555D01*
X13804Y248654D01*
X13817Y248752D01*
X13834Y248850D01*
X13855Y248948D01*
X13880Y249044D01*
X13908Y249139D01*
X13940Y249233D01*
X13975Y249326D01*
X14014Y249418D01*
X14057Y249508D01*
X14102Y249596D01*
X14152Y249683D01*
X14204Y249767D01*
X14260Y249850D01*
X14318Y249930D01*
X14380Y250008D01*
X14445Y250083D01*
X14513Y250156D01*
X14583Y250226D01*
X14656Y250294D01*
X14731Y250359D01*
X14809Y250421D01*
X14889Y250479D01*
X14972Y250535D01*
X15056Y250587D01*
X15143Y250637D01*
X15231Y250682D01*
X15321Y250725D01*
X15413Y250764D01*
X15506Y250799D01*
X15600Y250831D01*
X15695Y250859D01*
X15792Y250884D01*
X15889Y250905D01*
X15987Y250922D01*
X16085Y250935D01*
X16184Y250944D01*
X16284Y250950D01*
X16383Y250952D01*
X16519Y250950D01*
X16655Y250944D01*
X16791Y250935D01*
X16927Y250922D01*
X17062Y250904D01*
X17196Y250884D01*
X17330Y250859D01*
X17464Y250831D01*
X17596Y250798D01*
X17727Y250763D01*
X17858Y250723D01*
X17987Y250680D01*
X18115Y250634D01*
X18241Y250583D01*
X18367Y250530D01*
X18490Y250472D01*
X18612Y250412D01*
X18732Y250348D01*
X18851Y250280D01*
X18967Y250210D01*
X19081Y250136D01*
X19194Y250059D01*
X19304Y249978D01*
X15085Y246084D02*
X14999Y246137D01*
X14915Y246194D01*
X14833Y246253D01*
X14753Y246316D01*
X14676Y246382D01*
X14601Y246450D01*
X14529Y246522D01*
X14460Y246596D01*
X14394Y246673D01*
X14331Y246752D01*
X14271Y246834D01*
X14214Y246918D01*
X14160Y247004D01*
X14110Y247092D01*
X14063Y247182D01*
X14019Y247273D01*
X13980Y247367D01*
X13943Y247461D01*
X13911Y247557D01*
X13882Y247655D01*
X13857Y247753D01*
X13836Y247852D01*
X13818Y247952D01*
X13805Y248052D01*
X13795Y248153D01*
X13789Y248255D01*
X13787Y248356D01*
X18655Y244136D02*
X18741Y244083D01*
X18825Y244026D01*
X18907Y243967D01*
X18987Y243904D01*
X19064Y243838D01*
X19139Y243770D01*
X19211Y243698D01*
X19280Y243624D01*
X19346Y243547D01*
X19409Y243468D01*
X19469Y243386D01*
X19526Y243302D01*
X19580Y243216D01*
X19630Y243128D01*
X19677Y243038D01*
X19721Y242947D01*
X19760Y242853D01*
X19797Y242759D01*
X19829Y242663D01*
X19858Y242565D01*
X19883Y242467D01*
X19904Y242368D01*
X19922Y242268D01*
X19935Y242168D01*
X19945Y242067D01*
X19951Y241965D01*
X19953Y241864D01*
X18655Y244136D02*
X15085Y246084D01*
X24915Y239268D02*
X30107Y239268D01*
X24915Y239268D02*
X24915Y250952D01*
X30107Y250952D01*
X28809Y245759D02*
X24915Y245759D01*
X34798Y250952D02*
X34798Y239268D01*
X41289Y239268D02*
X34798Y250952D01*
X41289Y250952D02*
X41289Y239268D01*
X50123Y239268D02*
X50222Y239270D01*
X50322Y239276D01*
X50421Y239285D01*
X50519Y239298D01*
X50617Y239315D01*
X50715Y239336D01*
X50811Y239361D01*
X50906Y239389D01*
X51000Y239421D01*
X51093Y239456D01*
X51185Y239495D01*
X51275Y239538D01*
X51363Y239583D01*
X51450Y239633D01*
X51534Y239685D01*
X51617Y239741D01*
X51697Y239799D01*
X51775Y239861D01*
X51850Y239926D01*
X51923Y239994D01*
X51993Y240064D01*
X52061Y240137D01*
X52126Y240212D01*
X52188Y240290D01*
X52246Y240370D01*
X52302Y240453D01*
X52354Y240537D01*
X52404Y240624D01*
X52449Y240712D01*
X52492Y240802D01*
X52531Y240894D01*
X52566Y240987D01*
X52598Y241081D01*
X52626Y241176D01*
X52651Y241272D01*
X52672Y241370D01*
X52689Y241468D01*
X52702Y241566D01*
X52711Y241665D01*
X52717Y241765D01*
X52719Y241864D01*
X50123Y239268D02*
X49979Y239270D01*
X49834Y239276D01*
X49690Y239285D01*
X49547Y239298D01*
X49403Y239315D01*
X49260Y239336D01*
X49118Y239361D01*
X48977Y239389D01*
X48836Y239421D01*
X48696Y239457D01*
X48557Y239496D01*
X48419Y239539D01*
X48283Y239586D01*
X48147Y239636D01*
X48013Y239690D01*
X47881Y239747D01*
X47750Y239808D01*
X47621Y239872D01*
X47493Y239940D01*
X47367Y240010D01*
X47243Y240085D01*
X47122Y240162D01*
X47002Y240243D01*
X46884Y240326D01*
X46769Y240413D01*
X46656Y240503D01*
X46545Y240596D01*
X46437Y240691D01*
X46331Y240790D01*
X46228Y240891D01*
X46553Y248356D02*
X46555Y248455D01*
X46561Y248555D01*
X46570Y248654D01*
X46583Y248752D01*
X46600Y248850D01*
X46621Y248948D01*
X46646Y249044D01*
X46674Y249139D01*
X46706Y249233D01*
X46741Y249326D01*
X46780Y249418D01*
X46823Y249508D01*
X46868Y249596D01*
X46918Y249683D01*
X46970Y249767D01*
X47026Y249850D01*
X47084Y249930D01*
X47146Y250008D01*
X47211Y250083D01*
X47279Y250156D01*
X47349Y250226D01*
X47422Y250294D01*
X47497Y250359D01*
X47575Y250421D01*
X47655Y250479D01*
X47738Y250535D01*
X47822Y250587D01*
X47909Y250637D01*
X47997Y250682D01*
X48087Y250725D01*
X48179Y250764D01*
X48272Y250799D01*
X48366Y250831D01*
X48461Y250859D01*
X48558Y250884D01*
X48655Y250905D01*
X48753Y250922D01*
X48851Y250935D01*
X48950Y250944D01*
X49050Y250950D01*
X49149Y250952D01*
X49285Y250950D01*
X49421Y250944D01*
X49557Y250935D01*
X49693Y250922D01*
X49828Y250904D01*
X49962Y250884D01*
X50096Y250859D01*
X50230Y250831D01*
X50362Y250798D01*
X50493Y250763D01*
X50624Y250723D01*
X50753Y250680D01*
X50881Y250634D01*
X51007Y250583D01*
X51133Y250530D01*
X51256Y250472D01*
X51378Y250412D01*
X51498Y250348D01*
X51617Y250280D01*
X51733Y250210D01*
X51847Y250136D01*
X51960Y250059D01*
X52070Y249978D01*
X47850Y246084D02*
X47764Y246137D01*
X47680Y246194D01*
X47598Y246253D01*
X47518Y246316D01*
X47441Y246382D01*
X47366Y246450D01*
X47294Y246522D01*
X47225Y246596D01*
X47159Y246673D01*
X47096Y246752D01*
X47036Y246834D01*
X46979Y246918D01*
X46925Y247004D01*
X46875Y247092D01*
X46828Y247182D01*
X46784Y247273D01*
X46745Y247367D01*
X46708Y247461D01*
X46676Y247557D01*
X46647Y247655D01*
X46622Y247753D01*
X46601Y247852D01*
X46583Y247952D01*
X46570Y248052D01*
X46560Y248153D01*
X46554Y248255D01*
X46552Y248356D01*
X51421Y244136D02*
X51507Y244083D01*
X51591Y244026D01*
X51673Y243967D01*
X51753Y243904D01*
X51830Y243838D01*
X51905Y243770D01*
X51977Y243698D01*
X52046Y243624D01*
X52112Y243547D01*
X52175Y243468D01*
X52235Y243386D01*
X52292Y243302D01*
X52346Y243216D01*
X52396Y243128D01*
X52443Y243038D01*
X52487Y242947D01*
X52526Y242853D01*
X52563Y242759D01*
X52595Y242663D01*
X52624Y242565D01*
X52649Y242467D01*
X52670Y242368D01*
X52688Y242268D01*
X52701Y242168D01*
X52711Y242067D01*
X52717Y241965D01*
X52719Y241864D01*
X51421Y244136D02*
X47851Y246084D01*
X57277Y247706D02*
X57277Y242514D01*
X57276Y247706D02*
X57278Y247819D01*
X57284Y247932D01*
X57294Y248045D01*
X57308Y248158D01*
X57325Y248270D01*
X57347Y248381D01*
X57372Y248491D01*
X57402Y248601D01*
X57435Y248709D01*
X57472Y248816D01*
X57512Y248922D01*
X57557Y249026D01*
X57605Y249129D01*
X57656Y249230D01*
X57711Y249329D01*
X57769Y249426D01*
X57831Y249521D01*
X57896Y249614D01*
X57964Y249704D01*
X58035Y249792D01*
X58110Y249878D01*
X58187Y249961D01*
X58267Y250041D01*
X58350Y250118D01*
X58436Y250193D01*
X58524Y250264D01*
X58614Y250332D01*
X58707Y250397D01*
X58802Y250459D01*
X58899Y250517D01*
X58998Y250572D01*
X59099Y250623D01*
X59202Y250671D01*
X59306Y250716D01*
X59412Y250756D01*
X59519Y250793D01*
X59627Y250826D01*
X59737Y250856D01*
X59847Y250881D01*
X59958Y250903D01*
X60070Y250920D01*
X60183Y250934D01*
X60296Y250944D01*
X60409Y250950D01*
X60522Y250952D01*
X60635Y250950D01*
X60748Y250944D01*
X60861Y250934D01*
X60974Y250920D01*
X61086Y250903D01*
X61197Y250881D01*
X61307Y250856D01*
X61417Y250826D01*
X61525Y250793D01*
X61632Y250756D01*
X61738Y250716D01*
X61842Y250671D01*
X61945Y250623D01*
X62046Y250572D01*
X62145Y250517D01*
X62242Y250459D01*
X62337Y250397D01*
X62430Y250332D01*
X62520Y250264D01*
X62608Y250193D01*
X62694Y250118D01*
X62777Y250041D01*
X62857Y249961D01*
X62934Y249878D01*
X63009Y249792D01*
X63080Y249704D01*
X63148Y249614D01*
X63213Y249521D01*
X63275Y249426D01*
X63333Y249329D01*
X63388Y249230D01*
X63439Y249129D01*
X63487Y249026D01*
X63532Y248922D01*
X63572Y248816D01*
X63609Y248709D01*
X63642Y248601D01*
X63672Y248491D01*
X63697Y248381D01*
X63719Y248270D01*
X63736Y248158D01*
X63750Y248045D01*
X63760Y247932D01*
X63766Y247819D01*
X63768Y247706D01*
X63768Y242514D01*
X63766Y242401D01*
X63760Y242288D01*
X63750Y242175D01*
X63736Y242062D01*
X63719Y241950D01*
X63697Y241839D01*
X63672Y241729D01*
X63642Y241619D01*
X63609Y241511D01*
X63572Y241404D01*
X63532Y241298D01*
X63487Y241194D01*
X63439Y241091D01*
X63388Y240990D01*
X63333Y240891D01*
X63275Y240794D01*
X63213Y240699D01*
X63148Y240606D01*
X63080Y240516D01*
X63009Y240428D01*
X62934Y240342D01*
X62857Y240259D01*
X62777Y240179D01*
X62694Y240102D01*
X62608Y240027D01*
X62520Y239956D01*
X62430Y239888D01*
X62337Y239823D01*
X62242Y239761D01*
X62145Y239703D01*
X62046Y239648D01*
X61945Y239597D01*
X61842Y239549D01*
X61738Y239504D01*
X61632Y239464D01*
X61525Y239427D01*
X61417Y239394D01*
X61307Y239364D01*
X61197Y239339D01*
X61086Y239317D01*
X60974Y239300D01*
X60861Y239286D01*
X60748Y239276D01*
X60635Y239270D01*
X60522Y239268D01*
X60409Y239270D01*
X60296Y239276D01*
X60183Y239286D01*
X60070Y239300D01*
X59958Y239317D01*
X59847Y239339D01*
X59737Y239364D01*
X59627Y239394D01*
X59519Y239427D01*
X59412Y239464D01*
X59306Y239504D01*
X59202Y239549D01*
X59099Y239597D01*
X58998Y239648D01*
X58899Y239703D01*
X58802Y239761D01*
X58707Y239823D01*
X58614Y239888D01*
X58524Y239956D01*
X58436Y240027D01*
X58350Y240102D01*
X58267Y240179D01*
X58187Y240259D01*
X58110Y240342D01*
X58035Y240428D01*
X57964Y240516D01*
X57896Y240606D01*
X57831Y240699D01*
X57769Y240794D01*
X57711Y240891D01*
X57656Y240990D01*
X57605Y241091D01*
X57557Y241194D01*
X57512Y241298D01*
X57472Y241404D01*
X57435Y241511D01*
X57402Y241619D01*
X57372Y241729D01*
X57347Y241839D01*
X57325Y241950D01*
X57308Y242062D01*
X57294Y242175D01*
X57284Y242288D01*
X57278Y242401D01*
X57276Y242514D01*
X69162Y239268D02*
X69162Y250952D01*
X72407Y250952D01*
X72520Y250950D01*
X72633Y250944D01*
X72746Y250934D01*
X72859Y250920D01*
X72971Y250903D01*
X73082Y250881D01*
X73192Y250856D01*
X73302Y250826D01*
X73410Y250793D01*
X73517Y250756D01*
X73623Y250716D01*
X73727Y250671D01*
X73830Y250623D01*
X73931Y250572D01*
X74030Y250517D01*
X74127Y250459D01*
X74222Y250397D01*
X74315Y250332D01*
X74405Y250264D01*
X74493Y250193D01*
X74579Y250118D01*
X74662Y250041D01*
X74742Y249961D01*
X74819Y249878D01*
X74894Y249792D01*
X74965Y249704D01*
X75033Y249614D01*
X75098Y249521D01*
X75160Y249426D01*
X75218Y249329D01*
X75273Y249230D01*
X75324Y249129D01*
X75372Y249026D01*
X75417Y248922D01*
X75457Y248816D01*
X75494Y248709D01*
X75527Y248601D01*
X75557Y248491D01*
X75582Y248381D01*
X75604Y248270D01*
X75621Y248158D01*
X75635Y248045D01*
X75645Y247932D01*
X75651Y247819D01*
X75653Y247706D01*
X75651Y247593D01*
X75645Y247480D01*
X75635Y247367D01*
X75621Y247254D01*
X75604Y247142D01*
X75582Y247031D01*
X75557Y246921D01*
X75527Y246811D01*
X75494Y246703D01*
X75457Y246596D01*
X75417Y246490D01*
X75372Y246386D01*
X75324Y246283D01*
X75273Y246182D01*
X75218Y246083D01*
X75160Y245986D01*
X75098Y245891D01*
X75033Y245798D01*
X74965Y245708D01*
X74894Y245620D01*
X74819Y245534D01*
X74742Y245451D01*
X74662Y245371D01*
X74579Y245294D01*
X74493Y245219D01*
X74405Y245148D01*
X74315Y245080D01*
X74222Y245015D01*
X74127Y244953D01*
X74030Y244895D01*
X73931Y244840D01*
X73830Y244789D01*
X73727Y244741D01*
X73623Y244696D01*
X73517Y244656D01*
X73410Y244619D01*
X73302Y244586D01*
X73192Y244556D01*
X73082Y244531D01*
X72971Y244509D01*
X72859Y244492D01*
X72746Y244478D01*
X72633Y244468D01*
X72520Y244462D01*
X72407Y244460D01*
X72407Y244461D02*
X69162Y244461D01*
X73056Y244461D02*
X75653Y239268D01*
X80024Y237970D02*
X85217Y237970D01*
X89662Y248356D02*
X92907Y250952D01*
X92907Y239268D01*
X89662Y239268D02*
X96153Y239268D01*
D13*
X178816Y85344D02*
X191516Y85344D01*
X197866Y78994D01*
X197866Y66294D02*
X191516Y59944D01*
X197866Y78994D02*
X204216Y85344D01*
X216916Y85344D01*
X223266Y78994D01*
X223266Y66294D02*
X216916Y59944D01*
X204216Y59944D01*
X197866Y66294D01*
X172466Y66294D02*
X172466Y78994D01*
X178816Y85344D01*
X172466Y66294D02*
X178816Y59944D01*
X191516Y59944D01*
X223266Y66294D02*
X223266Y78994D01*
D10*
X172974Y87122D02*
X172974Y98806D01*
X176220Y98806D01*
X176333Y98804D01*
X176446Y98798D01*
X176559Y98788D01*
X176672Y98774D01*
X176784Y98757D01*
X176895Y98735D01*
X177005Y98710D01*
X177115Y98680D01*
X177223Y98647D01*
X177330Y98610D01*
X177436Y98570D01*
X177540Y98525D01*
X177643Y98477D01*
X177744Y98426D01*
X177843Y98371D01*
X177940Y98313D01*
X178035Y98251D01*
X178128Y98186D01*
X178218Y98118D01*
X178306Y98047D01*
X178392Y97972D01*
X178475Y97895D01*
X178555Y97815D01*
X178632Y97732D01*
X178707Y97646D01*
X178778Y97558D01*
X178846Y97468D01*
X178911Y97375D01*
X178973Y97280D01*
X179031Y97183D01*
X179086Y97084D01*
X179137Y96983D01*
X179185Y96880D01*
X179230Y96776D01*
X179270Y96670D01*
X179307Y96563D01*
X179340Y96455D01*
X179370Y96345D01*
X179395Y96235D01*
X179417Y96124D01*
X179434Y96012D01*
X179448Y95899D01*
X179458Y95786D01*
X179464Y95673D01*
X179466Y95560D01*
X179464Y95447D01*
X179458Y95334D01*
X179448Y95221D01*
X179434Y95108D01*
X179417Y94996D01*
X179395Y94885D01*
X179370Y94775D01*
X179340Y94665D01*
X179307Y94557D01*
X179270Y94450D01*
X179230Y94344D01*
X179185Y94240D01*
X179137Y94137D01*
X179086Y94036D01*
X179031Y93937D01*
X178973Y93840D01*
X178911Y93745D01*
X178846Y93652D01*
X178778Y93562D01*
X178707Y93474D01*
X178632Y93388D01*
X178555Y93305D01*
X178475Y93225D01*
X178392Y93148D01*
X178306Y93073D01*
X178218Y93002D01*
X178128Y92934D01*
X178035Y92869D01*
X177940Y92807D01*
X177843Y92749D01*
X177744Y92694D01*
X177643Y92643D01*
X177540Y92595D01*
X177436Y92550D01*
X177330Y92510D01*
X177223Y92473D01*
X177115Y92440D01*
X177005Y92410D01*
X176895Y92385D01*
X176784Y92363D01*
X176672Y92346D01*
X176559Y92332D01*
X176446Y92322D01*
X176333Y92316D01*
X176220Y92314D01*
X176220Y92315D02*
X172974Y92315D01*
X184308Y87122D02*
X184308Y98806D01*
X187554Y98806D01*
X187667Y98804D01*
X187780Y98798D01*
X187893Y98788D01*
X188006Y98774D01*
X188118Y98757D01*
X188229Y98735D01*
X188339Y98710D01*
X188449Y98680D01*
X188557Y98647D01*
X188664Y98610D01*
X188770Y98570D01*
X188874Y98525D01*
X188977Y98477D01*
X189078Y98426D01*
X189177Y98371D01*
X189274Y98313D01*
X189369Y98251D01*
X189462Y98186D01*
X189552Y98118D01*
X189640Y98047D01*
X189726Y97972D01*
X189809Y97895D01*
X189889Y97815D01*
X189966Y97732D01*
X190041Y97646D01*
X190112Y97558D01*
X190180Y97468D01*
X190245Y97375D01*
X190307Y97280D01*
X190365Y97183D01*
X190420Y97084D01*
X190471Y96983D01*
X190519Y96880D01*
X190564Y96776D01*
X190604Y96670D01*
X190641Y96563D01*
X190674Y96455D01*
X190704Y96345D01*
X190729Y96235D01*
X190751Y96124D01*
X190768Y96012D01*
X190782Y95899D01*
X190792Y95786D01*
X190798Y95673D01*
X190800Y95560D01*
X190798Y95447D01*
X190792Y95334D01*
X190782Y95221D01*
X190768Y95108D01*
X190751Y94996D01*
X190729Y94885D01*
X190704Y94775D01*
X190674Y94665D01*
X190641Y94557D01*
X190604Y94450D01*
X190564Y94344D01*
X190519Y94240D01*
X190471Y94137D01*
X190420Y94036D01*
X190365Y93937D01*
X190307Y93840D01*
X190245Y93745D01*
X190180Y93652D01*
X190112Y93562D01*
X190041Y93474D01*
X189966Y93388D01*
X189889Y93305D01*
X189809Y93225D01*
X189726Y93148D01*
X189640Y93073D01*
X189552Y93002D01*
X189462Y92934D01*
X189369Y92869D01*
X189274Y92807D01*
X189177Y92749D01*
X189078Y92694D01*
X188977Y92643D01*
X188874Y92595D01*
X188770Y92550D01*
X188664Y92510D01*
X188557Y92473D01*
X188449Y92440D01*
X188339Y92410D01*
X188229Y92385D01*
X188118Y92363D01*
X188006Y92346D01*
X187893Y92332D01*
X187780Y92322D01*
X187667Y92316D01*
X187554Y92314D01*
X187554Y92315D02*
X184308Y92315D01*
X188203Y92315D02*
X190799Y87122D01*
X195665Y90368D02*
X195665Y95560D01*
X195664Y95560D02*
X195666Y95673D01*
X195672Y95786D01*
X195682Y95899D01*
X195696Y96012D01*
X195713Y96124D01*
X195735Y96235D01*
X195760Y96345D01*
X195790Y96455D01*
X195823Y96563D01*
X195860Y96670D01*
X195900Y96776D01*
X195945Y96880D01*
X195993Y96983D01*
X196044Y97084D01*
X196099Y97183D01*
X196157Y97280D01*
X196219Y97375D01*
X196284Y97468D01*
X196352Y97558D01*
X196423Y97646D01*
X196498Y97732D01*
X196575Y97815D01*
X196655Y97895D01*
X196738Y97972D01*
X196824Y98047D01*
X196912Y98118D01*
X197002Y98186D01*
X197095Y98251D01*
X197190Y98313D01*
X197287Y98371D01*
X197386Y98426D01*
X197487Y98477D01*
X197590Y98525D01*
X197694Y98570D01*
X197800Y98610D01*
X197907Y98647D01*
X198015Y98680D01*
X198125Y98710D01*
X198235Y98735D01*
X198346Y98757D01*
X198458Y98774D01*
X198571Y98788D01*
X198684Y98798D01*
X198797Y98804D01*
X198910Y98806D01*
X199023Y98804D01*
X199136Y98798D01*
X199249Y98788D01*
X199362Y98774D01*
X199474Y98757D01*
X199585Y98735D01*
X199695Y98710D01*
X199805Y98680D01*
X199913Y98647D01*
X200020Y98610D01*
X200126Y98570D01*
X200230Y98525D01*
X200333Y98477D01*
X200434Y98426D01*
X200533Y98371D01*
X200630Y98313D01*
X200725Y98251D01*
X200818Y98186D01*
X200908Y98118D01*
X200996Y98047D01*
X201082Y97972D01*
X201165Y97895D01*
X201245Y97815D01*
X201322Y97732D01*
X201397Y97646D01*
X201468Y97558D01*
X201536Y97468D01*
X201601Y97375D01*
X201663Y97280D01*
X201721Y97183D01*
X201776Y97084D01*
X201827Y96983D01*
X201875Y96880D01*
X201920Y96776D01*
X201960Y96670D01*
X201997Y96563D01*
X202030Y96455D01*
X202060Y96345D01*
X202085Y96235D01*
X202107Y96124D01*
X202124Y96012D01*
X202138Y95899D01*
X202148Y95786D01*
X202154Y95673D01*
X202156Y95560D01*
X202156Y90368D01*
X202154Y90255D01*
X202148Y90142D01*
X202138Y90029D01*
X202124Y89916D01*
X202107Y89804D01*
X202085Y89693D01*
X202060Y89583D01*
X202030Y89473D01*
X201997Y89365D01*
X201960Y89258D01*
X201920Y89152D01*
X201875Y89048D01*
X201827Y88945D01*
X201776Y88844D01*
X201721Y88745D01*
X201663Y88648D01*
X201601Y88553D01*
X201536Y88460D01*
X201468Y88370D01*
X201397Y88282D01*
X201322Y88196D01*
X201245Y88113D01*
X201165Y88033D01*
X201082Y87956D01*
X200996Y87881D01*
X200908Y87810D01*
X200818Y87742D01*
X200725Y87677D01*
X200630Y87615D01*
X200533Y87557D01*
X200434Y87502D01*
X200333Y87451D01*
X200230Y87403D01*
X200126Y87358D01*
X200020Y87318D01*
X199913Y87281D01*
X199805Y87248D01*
X199695Y87218D01*
X199585Y87193D01*
X199474Y87171D01*
X199362Y87154D01*
X199249Y87140D01*
X199136Y87130D01*
X199023Y87124D01*
X198910Y87122D01*
X198797Y87124D01*
X198684Y87130D01*
X198571Y87140D01*
X198458Y87154D01*
X198346Y87171D01*
X198235Y87193D01*
X198125Y87218D01*
X198015Y87248D01*
X197907Y87281D01*
X197800Y87318D01*
X197694Y87358D01*
X197590Y87403D01*
X197487Y87451D01*
X197386Y87502D01*
X197287Y87557D01*
X197190Y87615D01*
X197095Y87677D01*
X197002Y87742D01*
X196912Y87810D01*
X196824Y87881D01*
X196738Y87956D01*
X196655Y88033D01*
X196575Y88113D01*
X196498Y88196D01*
X196423Y88282D01*
X196352Y88370D01*
X196284Y88460D01*
X196219Y88553D01*
X196157Y88648D01*
X196099Y88745D01*
X196044Y88844D01*
X195993Y88945D01*
X195945Y89048D01*
X195900Y89152D01*
X195860Y89258D01*
X195823Y89365D01*
X195790Y89473D01*
X195760Y89583D01*
X195735Y89693D01*
X195713Y89804D01*
X195696Y89916D01*
X195682Y90029D01*
X195672Y90142D01*
X195666Y90255D01*
X195664Y90368D01*
X207645Y93613D02*
X210890Y93613D01*
X210890Y93614D02*
X211003Y93612D01*
X211116Y93606D01*
X211229Y93596D01*
X211342Y93582D01*
X211454Y93565D01*
X211565Y93543D01*
X211675Y93518D01*
X211785Y93488D01*
X211893Y93455D01*
X212000Y93418D01*
X212106Y93378D01*
X212210Y93333D01*
X212313Y93285D01*
X212414Y93234D01*
X212513Y93179D01*
X212610Y93121D01*
X212705Y93059D01*
X212798Y92994D01*
X212888Y92926D01*
X212976Y92855D01*
X213062Y92780D01*
X213145Y92703D01*
X213225Y92623D01*
X213302Y92540D01*
X213377Y92454D01*
X213448Y92366D01*
X213516Y92276D01*
X213581Y92183D01*
X213643Y92088D01*
X213701Y91991D01*
X213756Y91892D01*
X213807Y91791D01*
X213855Y91688D01*
X213900Y91584D01*
X213940Y91478D01*
X213977Y91371D01*
X214010Y91263D01*
X214040Y91153D01*
X214065Y91043D01*
X214087Y90932D01*
X214104Y90820D01*
X214118Y90707D01*
X214128Y90594D01*
X214134Y90481D01*
X214136Y90368D01*
X214134Y90255D01*
X214128Y90142D01*
X214118Y90029D01*
X214104Y89916D01*
X214087Y89804D01*
X214065Y89693D01*
X214040Y89583D01*
X214010Y89473D01*
X213977Y89365D01*
X213940Y89258D01*
X213900Y89152D01*
X213855Y89048D01*
X213807Y88945D01*
X213756Y88844D01*
X213701Y88745D01*
X213643Y88648D01*
X213581Y88553D01*
X213516Y88460D01*
X213448Y88370D01*
X213377Y88282D01*
X213302Y88196D01*
X213225Y88113D01*
X213145Y88033D01*
X213062Y87956D01*
X212976Y87881D01*
X212888Y87810D01*
X212798Y87742D01*
X212705Y87677D01*
X212610Y87615D01*
X212513Y87557D01*
X212414Y87502D01*
X212313Y87451D01*
X212210Y87403D01*
X212106Y87358D01*
X212000Y87318D01*
X211893Y87281D01*
X211785Y87248D01*
X211675Y87218D01*
X211565Y87193D01*
X211454Y87171D01*
X211342Y87154D01*
X211229Y87140D01*
X211116Y87130D01*
X211003Y87124D01*
X210890Y87122D01*
X207645Y87122D01*
X207645Y98806D01*
X210890Y98806D01*
X210991Y98804D01*
X211091Y98798D01*
X211191Y98788D01*
X211291Y98775D01*
X211390Y98757D01*
X211489Y98736D01*
X211586Y98711D01*
X211683Y98682D01*
X211778Y98649D01*
X211872Y98613D01*
X211964Y98573D01*
X212055Y98530D01*
X212144Y98483D01*
X212231Y98433D01*
X212317Y98379D01*
X212400Y98322D01*
X212480Y98262D01*
X212559Y98199D01*
X212635Y98132D01*
X212708Y98063D01*
X212778Y97991D01*
X212846Y97917D01*
X212911Y97840D01*
X212972Y97760D01*
X213031Y97678D01*
X213086Y97594D01*
X213138Y97508D01*
X213187Y97420D01*
X213232Y97330D01*
X213274Y97238D01*
X213312Y97145D01*
X213346Y97050D01*
X213377Y96955D01*
X213404Y96858D01*
X213427Y96760D01*
X213447Y96661D01*
X213462Y96561D01*
X213474Y96461D01*
X213482Y96361D01*
X213486Y96260D01*
X213486Y96160D01*
X213482Y96059D01*
X213474Y95959D01*
X213462Y95859D01*
X213447Y95759D01*
X213427Y95660D01*
X213404Y95562D01*
X213377Y95465D01*
X213346Y95370D01*
X213312Y95275D01*
X213274Y95182D01*
X213232Y95090D01*
X213187Y95000D01*
X213138Y94912D01*
X213086Y94826D01*
X213031Y94742D01*
X212972Y94660D01*
X212911Y94580D01*
X212846Y94503D01*
X212778Y94429D01*
X212708Y94357D01*
X212635Y94288D01*
X212559Y94221D01*
X212480Y94158D01*
X212400Y94098D01*
X212317Y94041D01*
X212231Y93987D01*
X212144Y93937D01*
X212055Y93890D01*
X211964Y93847D01*
X211872Y93807D01*
X211778Y93771D01*
X211683Y93738D01*
X211586Y93709D01*
X211489Y93684D01*
X211390Y93663D01*
X211291Y93645D01*
X211191Y93632D01*
X211091Y93622D01*
X210991Y93616D01*
X210890Y93614D01*
X218928Y87122D02*
X224121Y87122D01*
X218928Y87122D02*
X218928Y98806D01*
X224121Y98806D01*
X222823Y93613D02*
X218928Y93613D01*
D11*
X109130Y230505D02*
X109130Y237871D01*
X111176Y237871D01*
X111265Y237869D01*
X111354Y237863D01*
X111443Y237853D01*
X111531Y237840D01*
X111619Y237823D01*
X111706Y237801D01*
X111791Y237776D01*
X111876Y237748D01*
X111959Y237715D01*
X112041Y237679D01*
X112121Y237640D01*
X112199Y237597D01*
X112275Y237551D01*
X112350Y237501D01*
X112422Y237448D01*
X112491Y237392D01*
X112558Y237333D01*
X112623Y237272D01*
X112684Y237207D01*
X112743Y237140D01*
X112799Y237071D01*
X112852Y236999D01*
X112902Y236924D01*
X112948Y236848D01*
X112991Y236770D01*
X113030Y236690D01*
X113066Y236608D01*
X113099Y236525D01*
X113127Y236440D01*
X113152Y236355D01*
X113174Y236268D01*
X113191Y236180D01*
X113204Y236092D01*
X113214Y236003D01*
X113220Y235914D01*
X113222Y235825D01*
X113220Y235736D01*
X113214Y235647D01*
X113204Y235558D01*
X113191Y235470D01*
X113174Y235382D01*
X113152Y235295D01*
X113127Y235210D01*
X113099Y235125D01*
X113066Y235042D01*
X113030Y234960D01*
X112991Y234880D01*
X112948Y234802D01*
X112902Y234726D01*
X112852Y234651D01*
X112799Y234579D01*
X112743Y234510D01*
X112684Y234443D01*
X112623Y234378D01*
X112558Y234317D01*
X112491Y234258D01*
X112422Y234202D01*
X112350Y234149D01*
X112275Y234099D01*
X112199Y234053D01*
X112121Y234010D01*
X112041Y233971D01*
X111959Y233935D01*
X111876Y233902D01*
X111791Y233874D01*
X111706Y233849D01*
X111619Y233827D01*
X111531Y233810D01*
X111443Y233797D01*
X111354Y233787D01*
X111265Y233781D01*
X111176Y233779D01*
X109130Y233779D01*
X111585Y233779D02*
X113222Y230505D01*
X116394Y234597D02*
X118849Y234597D01*
X118927Y234595D01*
X119005Y234590D01*
X119082Y234580D01*
X119159Y234567D01*
X119235Y234551D01*
X119310Y234531D01*
X119384Y234507D01*
X119457Y234480D01*
X119529Y234449D01*
X119599Y234415D01*
X119668Y234378D01*
X119734Y234337D01*
X119799Y234293D01*
X119861Y234247D01*
X119921Y234197D01*
X119979Y234145D01*
X120034Y234090D01*
X120086Y234032D01*
X120136Y233972D01*
X120182Y233910D01*
X120226Y233845D01*
X120267Y233779D01*
X120304Y233710D01*
X120338Y233640D01*
X120369Y233568D01*
X120396Y233495D01*
X120420Y233421D01*
X120440Y233346D01*
X120456Y233270D01*
X120469Y233193D01*
X120479Y233116D01*
X120484Y233038D01*
X120486Y232960D01*
X120486Y232551D01*
X120484Y232462D01*
X120478Y232373D01*
X120468Y232284D01*
X120455Y232196D01*
X120438Y232108D01*
X120416Y232021D01*
X120391Y231936D01*
X120363Y231851D01*
X120330Y231768D01*
X120294Y231686D01*
X120255Y231606D01*
X120212Y231528D01*
X120166Y231452D01*
X120116Y231377D01*
X120063Y231305D01*
X120007Y231236D01*
X119948Y231169D01*
X119887Y231104D01*
X119822Y231043D01*
X119755Y230984D01*
X119686Y230928D01*
X119614Y230875D01*
X119539Y230825D01*
X119463Y230779D01*
X119385Y230736D01*
X119305Y230697D01*
X119223Y230661D01*
X119140Y230628D01*
X119055Y230600D01*
X118970Y230575D01*
X118883Y230553D01*
X118795Y230536D01*
X118707Y230523D01*
X118618Y230513D01*
X118529Y230507D01*
X118440Y230505D01*
X118351Y230507D01*
X118262Y230513D01*
X118173Y230523D01*
X118085Y230536D01*
X117997Y230553D01*
X117910Y230575D01*
X117825Y230600D01*
X117740Y230628D01*
X117657Y230661D01*
X117575Y230697D01*
X117495Y230736D01*
X117417Y230779D01*
X117341Y230825D01*
X117266Y230875D01*
X117194Y230928D01*
X117125Y230984D01*
X117058Y231043D01*
X116993Y231104D01*
X116932Y231169D01*
X116873Y231236D01*
X116817Y231305D01*
X116764Y231377D01*
X116714Y231452D01*
X116668Y231528D01*
X116625Y231606D01*
X116586Y231686D01*
X116550Y231768D01*
X116517Y231851D01*
X116489Y231936D01*
X116464Y232021D01*
X116442Y232108D01*
X116425Y232196D01*
X116412Y232284D01*
X116402Y232373D01*
X116396Y232462D01*
X116394Y232551D01*
X116394Y234597D01*
X116396Y234711D01*
X116402Y234825D01*
X116412Y234939D01*
X116426Y235053D01*
X116444Y235166D01*
X116466Y235278D01*
X116491Y235389D01*
X116521Y235499D01*
X116554Y235609D01*
X116591Y235717D01*
X116632Y235823D01*
X116677Y235929D01*
X116725Y236032D01*
X116777Y236134D01*
X116833Y236234D01*
X116891Y236332D01*
X116954Y236428D01*
X117019Y236521D01*
X117088Y236613D01*
X117160Y236701D01*
X117235Y236788D01*
X117313Y236871D01*
X117394Y236952D01*
X117477Y237030D01*
X117564Y237105D01*
X117652Y237177D01*
X117744Y237246D01*
X117837Y237311D01*
X117933Y237373D01*
X118031Y237432D01*
X118131Y237488D01*
X118233Y237540D01*
X118336Y237588D01*
X118442Y237633D01*
X118548Y237674D01*
X118656Y237711D01*
X118766Y237744D01*
X118876Y237774D01*
X118987Y237799D01*
X119099Y237821D01*
X119212Y237839D01*
X119326Y237853D01*
X119440Y237863D01*
X119554Y237869D01*
X119668Y237871D01*
X109384Y178943D02*
X109384Y171577D01*
X109384Y178943D02*
X111430Y178943D01*
X111519Y178941D01*
X111608Y178935D01*
X111697Y178925D01*
X111785Y178912D01*
X111873Y178895D01*
X111960Y178873D01*
X112045Y178848D01*
X112130Y178820D01*
X112213Y178787D01*
X112295Y178751D01*
X112375Y178712D01*
X112453Y178669D01*
X112529Y178623D01*
X112604Y178573D01*
X112676Y178520D01*
X112745Y178464D01*
X112812Y178405D01*
X112877Y178344D01*
X112938Y178279D01*
X112997Y178212D01*
X113053Y178143D01*
X113106Y178071D01*
X113156Y177996D01*
X113202Y177920D01*
X113245Y177842D01*
X113284Y177762D01*
X113320Y177680D01*
X113353Y177597D01*
X113381Y177512D01*
X113406Y177427D01*
X113428Y177340D01*
X113445Y177252D01*
X113458Y177164D01*
X113468Y177075D01*
X113474Y176986D01*
X113476Y176897D01*
X113474Y176808D01*
X113468Y176719D01*
X113458Y176630D01*
X113445Y176542D01*
X113428Y176454D01*
X113406Y176367D01*
X113381Y176282D01*
X113353Y176197D01*
X113320Y176114D01*
X113284Y176032D01*
X113245Y175952D01*
X113202Y175874D01*
X113156Y175798D01*
X113106Y175723D01*
X113053Y175651D01*
X112997Y175582D01*
X112938Y175515D01*
X112877Y175450D01*
X112812Y175389D01*
X112745Y175330D01*
X112676Y175274D01*
X112604Y175221D01*
X112529Y175171D01*
X112453Y175125D01*
X112375Y175082D01*
X112295Y175043D01*
X112213Y175007D01*
X112130Y174974D01*
X112045Y174946D01*
X111960Y174921D01*
X111873Y174899D01*
X111785Y174882D01*
X111697Y174869D01*
X111608Y174859D01*
X111519Y174853D01*
X111430Y174851D01*
X109384Y174851D01*
X111839Y174851D02*
X113476Y171577D01*
X116648Y178125D02*
X116648Y178943D01*
X120740Y178943D01*
X118694Y171577D01*
M02*
