G04 EAGLE Gerber RS-274X export*
G75*
%MOMM*%
%FSLAX34Y34*%
%LPD*%
%INSoldermask Top*%
%IPPOS*%
%AMOC8*
5,1,8,0,0,1.08239X$1,22.5*%
G01*
%ADD10R,1.703200X1.503200*%
%ADD11R,1.003200X1.403200*%
%ADD12R,1.033200X0.833200*%
%ADD13R,0.803200X1.753200*%
%ADD14R,1.403200X2.003200*%
%ADD15R,1.403200X1.003200*%
%ADD16R,0.660400X1.473200*%
%ADD17C,0.353406*%
%ADD18C,3.505200*%
%ADD19C,2.082800*%
%ADD20C,0.959600*%


D10*
X124931Y76427D03*
X124931Y95427D03*
D11*
X178764Y205822D03*
X160764Y205822D03*
X178252Y152210D03*
X160252Y152210D03*
X178773Y179491D03*
X160773Y179491D03*
D10*
X294227Y109496D03*
X294227Y128496D03*
X220178Y233931D03*
X220178Y214931D03*
D12*
X147678Y95729D03*
X147678Y72729D03*
D13*
X203613Y281201D03*
D14*
X226613Y306451D03*
D13*
X193613Y281201D03*
X183613Y281201D03*
X173613Y281201D03*
X163613Y281201D03*
D14*
X150613Y306451D03*
D13*
X213613Y281201D03*
D11*
X203475Y123675D03*
X185475Y123675D03*
D15*
X292678Y162276D03*
X292678Y180276D03*
D11*
X188662Y257887D03*
X170662Y257887D03*
D15*
X292057Y205738D03*
X292057Y223738D03*
X97210Y77311D03*
X97210Y95311D03*
D16*
X185471Y239289D03*
X172471Y239289D03*
X178971Y221001D03*
D17*
X190827Y188308D02*
X209025Y188308D01*
X190827Y188308D02*
X190827Y192806D01*
X209025Y192806D01*
X209025Y188308D01*
X209025Y191665D02*
X190827Y191665D01*
X190827Y175608D02*
X209025Y175608D01*
X190827Y175608D02*
X190827Y180106D01*
X209025Y180106D01*
X209025Y175608D01*
X209025Y178965D02*
X190827Y178965D01*
X190827Y162908D02*
X209025Y162908D01*
X190827Y162908D02*
X190827Y167406D01*
X209025Y167406D01*
X209025Y162908D01*
X209025Y166265D02*
X190827Y166265D01*
X190827Y150208D02*
X209025Y150208D01*
X190827Y150208D02*
X190827Y154706D01*
X209025Y154706D01*
X209025Y150208D01*
X209025Y153565D02*
X190827Y153565D01*
X240227Y150208D02*
X258425Y150208D01*
X240227Y150208D02*
X240227Y154706D01*
X258425Y154706D01*
X258425Y150208D01*
X258425Y153565D02*
X240227Y153565D01*
X240227Y162908D02*
X258425Y162908D01*
X240227Y162908D02*
X240227Y167406D01*
X258425Y167406D01*
X258425Y162908D01*
X258425Y166265D02*
X240227Y166265D01*
X240227Y175608D02*
X258425Y175608D01*
X240227Y175608D02*
X240227Y180106D01*
X258425Y180106D01*
X258425Y175608D01*
X258425Y178965D02*
X240227Y178965D01*
X240227Y188308D02*
X258425Y188308D01*
X240227Y188308D02*
X240227Y192806D01*
X258425Y192806D01*
X258425Y188308D01*
X258425Y191665D02*
X240227Y191665D01*
D18*
X50000Y70000D03*
X50000Y290000D03*
X335800Y290000D03*
X335800Y70000D03*
D19*
X28194Y162306D03*
X53594Y162306D03*
X78994Y162306D03*
X27940Y220980D03*
X53340Y220980D03*
X78740Y220980D03*
X185166Y72644D03*
X210566Y72644D03*
D11*
X105808Y221234D03*
X123808Y221234D03*
X106062Y162306D03*
X124062Y162306D03*
D20*
X89916Y264922D03*
X261620Y253238D03*
X70612Y112014D03*
X247650Y114554D03*
X139700Y243586D03*
X324104Y146812D03*
X27940Y199644D03*
X230632Y187452D03*
X217424Y152654D03*
X174244Y296164D03*
X193548Y295910D03*
X168148Y128016D03*
M02*
